ISO-10303-21;
HEADER;
FILE_DESCRIPTION(('FreeCAD Model'),'2;1');
FILE_NAME('Open CASCADE Shape Model','2026-07-27T15:54:06',('Author'),(
    ''),'Open CASCADE STEP processor 7.8','FreeCAD','Unknown');
FILE_SCHEMA(('AUTOMOTIVE_DESIGN { 1 0 10303 214 1 1 1 1 }'));
ENDSEC;
DATA;
#1 = APPLICATION_PROTOCOL_DEFINITION('international standard',
  'automotive_design',2000,#2);
#2 = APPLICATION_CONTEXT(
  'core data for automotive mechanical design processes');
#3 = SHAPE_DEFINITION_REPRESENTATION(#4,#10);
#4 = PRODUCT_DEFINITION_SHAPE('','',#5);
#5 = PRODUCT_DEFINITION('design','',#6,#9);
#6 = PRODUCT_DEFINITION_FORMATION('','',#7);
#7 = PRODUCT('comb','comb','',(#8));
#8 = PRODUCT_CONTEXT('',#2,'mechanical');
#9 = PRODUCT_DEFINITION_CONTEXT('part definition',#2,'design');
#10 = ADVANCED_BREP_SHAPE_REPRESENTATION('',(#11,#15),#747);
#11 = AXIS2_PLACEMENT_3D('',#12,#13,#14);
#12 = CARTESIAN_POINT('',(0.,0.,0.));
#13 = DIRECTION('',(0.,0.,1.));
#14 = DIRECTION('',(1.,0.,-0.));
#15 = MANIFOLD_SOLID_BREP('',#16);
#16 = CLOSED_SHELL('',(#17,#156,#187,#220,#245,#278,#302,#335,#360,#393,
    #417,#450,#475,#508,#532,#556,#580,#597,#637,#665,#684,#714,#733));
#17 = ADVANCED_FACE('',(#18),#151,.F.);
#18 = FACE_BOUND('',#19,.F.);
#19 = EDGE_LOOP('',(#20,#30,#38,#46,#54,#62,#70,#79,#87,#95,#103,#112,
    #120,#128,#136,#145));
#20 = ORIENTED_EDGE('',*,*,#21,.F.);
#21 = EDGE_CURVE('',#22,#24,#26,.T.);
#22 = VERTEX_POINT('',#23);
#23 = CARTESIAN_POINT('',(0.,-8.,7.));
#24 = VERTEX_POINT('',#25);
#25 = CARTESIAN_POINT('',(0.,-4.6,7.));
#26 = LINE('',#27,#28);
#27 = CARTESIAN_POINT('',(0.,-8.,7.));
#28 = VECTOR('',#29,1.);
#29 = DIRECTION('',(-0.,1.,0.));
#30 = ORIENTED_EDGE('',*,*,#31,.F.);
#31 = EDGE_CURVE('',#32,#22,#34,.T.);
#32 = VERTEX_POINT('',#33);
#33 = CARTESIAN_POINT('',(0.,-8.,-7.));
#34 = LINE('',#35,#36);
#35 = CARTESIAN_POINT('',(0.,-8.,-7.));
#36 = VECTOR('',#37,1.);
#37 = DIRECTION('',(0.,0.,1.));
#38 = ORIENTED_EDGE('',*,*,#39,.T.);
#39 = EDGE_CURVE('',#32,#40,#42,.T.);
#40 = VERTEX_POINT('',#41);
#41 = CARTESIAN_POINT('',(0.,8.,-7.));
#42 = LINE('',#43,#44);
#43 = CARTESIAN_POINT('',(0.,-8.,-7.));
#44 = VECTOR('',#45,1.);
#45 = DIRECTION('',(-0.,1.,0.));
#46 = ORIENTED_EDGE('',*,*,#47,.T.);
#47 = EDGE_CURVE('',#40,#48,#50,.T.);
#48 = VERTEX_POINT('',#49);
#49 = CARTESIAN_POINT('',(0.,8.,7.));
#50 = LINE('',#51,#52);
#51 = CARTESIAN_POINT('',(0.,8.,-7.));
#52 = VECTOR('',#53,1.);
#53 = DIRECTION('',(0.,0.,1.));
#54 = ORIENTED_EDGE('',*,*,#55,.F.);
#55 = EDGE_CURVE('',#56,#48,#58,.T.);
#56 = VERTEX_POINT('',#57);
#57 = CARTESIAN_POINT('',(0.,4.6,7.));
#58 = LINE('',#59,#60);
#59 = CARTESIAN_POINT('',(0.,-8.,7.));
#60 = VECTOR('',#61,1.);
#61 = DIRECTION('',(-0.,1.,0.));
#62 = ORIENTED_EDGE('',*,*,#63,.F.);
#63 = EDGE_CURVE('',#64,#56,#66,.T.);
#64 = VERTEX_POINT('',#65);
#65 = CARTESIAN_POINT('',(0.,4.6,1.590597372059));
#66 = LINE('',#67,#68);
#67 = CARTESIAN_POINT('',(0.,4.6,-3.5));
#68 = VECTOR('',#69,1.);
#69 = DIRECTION('',(0.,0.,1.));
#70 = ORIENTED_EDGE('',*,*,#71,.F.);
#71 = EDGE_CURVE('',#72,#64,#74,.T.);
#72 = VERTEX_POINT('',#73);
#73 = CARTESIAN_POINT('',(0.,3.4,1.590597372059));
#74 = CIRCLE('',#75,1.7);
#75 = AXIS2_PLACEMENT_3D('',#76,#77,#78);
#76 = CARTESIAN_POINT('',(0.,4.,0.));
#77 = DIRECTION('',(1.,0.,0.));
#78 = DIRECTION('',(-0.,0.,1.));
#79 = ORIENTED_EDGE('',*,*,#80,.T.);
#80 = EDGE_CURVE('',#72,#81,#83,.T.);
#81 = VERTEX_POINT('',#82);
#82 = CARTESIAN_POINT('',(0.,3.4,7.));
#83 = LINE('',#84,#85);
#84 = CARTESIAN_POINT('',(0.,3.4,-3.5));
#85 = VECTOR('',#86,1.);
#86 = DIRECTION('',(0.,0.,1.));
#87 = ORIENTED_EDGE('',*,*,#88,.F.);
#88 = EDGE_CURVE('',#89,#81,#91,.T.);
#89 = VERTEX_POINT('',#90);
#90 = CARTESIAN_POINT('',(0.,0.6,7.));
#91 = LINE('',#92,#93);
#92 = CARTESIAN_POINT('',(0.,-8.,7.));
#93 = VECTOR('',#94,1.);
#94 = DIRECTION('',(-0.,1.,0.));
#95 = ORIENTED_EDGE('',*,*,#96,.F.);
#96 = EDGE_CURVE('',#97,#89,#99,.T.);
#97 = VERTEX_POINT('',#98);
#98 = CARTESIAN_POINT('',(0.,0.6,0.67082039325));
#99 = LINE('',#100,#101);
#100 = CARTESIAN_POINT('',(0.,0.6,-3.5));
#101 = VECTOR('',#102,1.);
#102 = DIRECTION('',(0.,0.,1.));
#103 = ORIENTED_EDGE('',*,*,#104,.F.);
#104 = EDGE_CURVE('',#105,#97,#107,.T.);
#105 = VERTEX_POINT('',#106);
#106 = CARTESIAN_POINT('',(0.,-0.6,0.67082039325));
#107 = CIRCLE('',#108,0.9);
#108 = AXIS2_PLACEMENT_3D('',#109,#110,#111);
#109 = CARTESIAN_POINT('',(0.,0.,0.));
#110 = DIRECTION('',(1.,0.,0.));
#111 = DIRECTION('',(-0.,0.,1.));
#112 = ORIENTED_EDGE('',*,*,#113,.T.);
#113 = EDGE_CURVE('',#105,#114,#116,.T.);
#114 = VERTEX_POINT('',#115);
#115 = CARTESIAN_POINT('',(0.,-0.6,7.));
#116 = LINE('',#117,#118);
#117 = CARTESIAN_POINT('',(0.,-0.6,-3.5));
#118 = VECTOR('',#119,1.);
#119 = DIRECTION('',(0.,0.,1.));
#120 = ORIENTED_EDGE('',*,*,#121,.F.);
#121 = EDGE_CURVE('',#122,#114,#124,.T.);
#122 = VERTEX_POINT('',#123);
#123 = CARTESIAN_POINT('',(0.,-3.4,7.));
#124 = LINE('',#125,#126);
#125 = CARTESIAN_POINT('',(0.,-8.,7.));
#126 = VECTOR('',#127,1.);
#127 = DIRECTION('',(-0.,1.,0.));
#128 = ORIENTED_EDGE('',*,*,#129,.F.);
#129 = EDGE_CURVE('',#130,#122,#132,.T.);
#130 = VERTEX_POINT('',#131);
#131 = CARTESIAN_POINT('',(0.,-3.4,1.590597372059));
#132 = LINE('',#133,#134);
#133 = CARTESIAN_POINT('',(0.,-3.4,-3.5));
#134 = VECTOR('',#135,1.);
#135 = DIRECTION('',(0.,0.,1.));
#136 = ORIENTED_EDGE('',*,*,#137,.F.);
#137 = EDGE_CURVE('',#138,#130,#140,.T.);
#138 = VERTEX_POINT('',#139);
#139 = CARTESIAN_POINT('',(0.,-4.6,1.590597372059));
#140 = CIRCLE('',#141,1.7);
#141 = AXIS2_PLACEMENT_3D('',#142,#143,#144);
#142 = CARTESIAN_POINT('',(0.,-4.,0.));
#143 = DIRECTION('',(1.,0.,0.));
#144 = DIRECTION('',(-0.,0.,1.));
#145 = ORIENTED_EDGE('',*,*,#146,.T.);
#146 = EDGE_CURVE('',#138,#24,#147,.T.);
#147 = LINE('',#148,#149);
#148 = CARTESIAN_POINT('',(0.,-4.6,-3.5));
#149 = VECTOR('',#150,1.);
#150 = DIRECTION('',(0.,0.,1.));
#151 = PLANE('',#152);
#152 = AXIS2_PLACEMENT_3D('',#153,#154,#155);
#153 = CARTESIAN_POINT('',(0.,-8.,-7.));
#154 = DIRECTION('',(1.,0.,-0.));
#155 = DIRECTION('',(0.,0.,1.));
#156 = ADVANCED_FACE('',(#157),#182,.T.);
#157 = FACE_BOUND('',#158,.T.);
#158 = EDGE_LOOP('',(#159,#160,#168,#176));
#159 = ORIENTED_EDGE('',*,*,#21,.F.);
#160 = ORIENTED_EDGE('',*,*,#161,.T.);
#161 = EDGE_CURVE('',#22,#162,#164,.T.);
#162 = VERTEX_POINT('',#163);
#163 = CARTESIAN_POINT('',(26.,-8.,7.));
#164 = LINE('',#165,#166);
#165 = CARTESIAN_POINT('',(0.,-8.,7.));
#166 = VECTOR('',#167,1.);
#167 = DIRECTION('',(1.,0.,-0.));
#168 = ORIENTED_EDGE('',*,*,#169,.T.);
#169 = EDGE_CURVE('',#162,#170,#172,.T.);
#170 = VERTEX_POINT('',#171);
#171 = CARTESIAN_POINT('',(26.,-4.6,7.));
#172 = LINE('',#173,#174);
#173 = CARTESIAN_POINT('',(26.,-8.,7.));
#174 = VECTOR('',#175,1.);
#175 = DIRECTION('',(-0.,1.,0.));
#176 = ORIENTED_EDGE('',*,*,#177,.T.);
#177 = EDGE_CURVE('',#170,#24,#178,.T.);
#178 = LINE('',#179,#180);
#179 = CARTESIAN_POINT('',(-0.5,-4.6,7.));
#180 = VECTOR('',#181,1.);
#181 = DIRECTION('',(-1.,-0.,0.));
#182 = PLANE('',#183);
#183 = AXIS2_PLACEMENT_3D('',#184,#185,#186);
#184 = CARTESIAN_POINT('',(0.,-8.,7.));
#185 = DIRECTION('',(0.,0.,1.));
#186 = DIRECTION('',(1.,0.,-0.));
#187 = ADVANCED_FACE('',(#188),#215,.T.);
#188 = FACE_BOUND('',#189,.T.);
#189 = EDGE_LOOP('',(#190,#198,#199,#200,#208));
#190 = ORIENTED_EDGE('',*,*,#191,.F.);
#191 = EDGE_CURVE('',#138,#192,#194,.T.);
#192 = VERTEX_POINT('',#193);
#193 = CARTESIAN_POINT('',(22.086956521739,-4.6,1.590597372059));
#194 = LINE('',#195,#196);
#195 = CARTESIAN_POINT('',(-1.,-4.6,1.590597372059));
#196 = VECTOR('',#197,1.);
#197 = DIRECTION('',(1.,0.,0.));
#198 = ORIENTED_EDGE('',*,*,#146,.T.);
#199 = ORIENTED_EDGE('',*,*,#177,.F.);
#200 = ORIENTED_EDGE('',*,*,#201,.F.);
#201 = EDGE_CURVE('',#202,#170,#204,.T.);
#202 = VERTEX_POINT('',#203);
#203 = CARTESIAN_POINT('',(26.,-4.6,3.1432467291));
#204 = LINE('',#205,#206);
#205 = CARTESIAN_POINT('',(26.,-4.6,-3.5));
#206 = VECTOR('',#207,1.);
#207 = DIRECTION('',(0.,0.,1.));
#208 = ORIENTED_EDGE('',*,*,#209,.T.);
#209 = EDGE_CURVE('',#202,#192,#210,.T.);
#210 = HYPERBOLA('',#211,1.565217391304,0.6);
#211 = AXIS2_PLACEMENT_3D('',#212,#213,#214);
#212 = CARTESIAN_POINT('',(17.652173913043,-4.6,0.));
#213 = DIRECTION('',(-0.,1.,0.));
#214 = DIRECTION('',(1.,0.,0.));
#215 = PLANE('',#216);
#216 = AXIS2_PLACEMENT_3D('',#217,#218,#219);
#217 = CARTESIAN_POINT('',(-1.,-4.6,0.));
#218 = DIRECTION('',(-0.,1.,0.));
#219 = DIRECTION('',(0.,0.,1.));
#220 = ADVANCED_FACE('',(#221),#240,.F.);
#221 = FACE_BOUND('',#222,.F.);
#222 = EDGE_LOOP('',(#223,#224,#225,#233));
#223 = ORIENTED_EDGE('',*,*,#191,.F.);
#224 = ORIENTED_EDGE('',*,*,#137,.T.);
#225 = ORIENTED_EDGE('',*,*,#226,.T.);
#226 = EDGE_CURVE('',#130,#227,#229,.T.);
#227 = VERTEX_POINT('',#228);
#228 = CARTESIAN_POINT('',(22.086956521739,-3.4,1.590597372059));
#229 = LINE('',#230,#231);
#230 = CARTESIAN_POINT('',(-1.,-3.4,1.590597372059));
#231 = VECTOR('',#232,1.);
#232 = DIRECTION('',(1.,0.,0.));
#233 = ORIENTED_EDGE('',*,*,#234,.F.);
#234 = EDGE_CURVE('',#192,#227,#235,.T.);
#235 = CIRCLE('',#236,1.7);
#236 = AXIS2_PLACEMENT_3D('',#237,#238,#239);
#237 = CARTESIAN_POINT('',(22.086956521739,-4.,0.));
#238 = DIRECTION('',(1.,0.,0.));
#239 = DIRECTION('',(-0.,0.,1.));
#240 = CYLINDRICAL_SURFACE('',#241,1.7);
#241 = AXIS2_PLACEMENT_3D('',#242,#243,#244);
#242 = CARTESIAN_POINT('',(-1.,-4.,0.));
#243 = DIRECTION('',(1.,0.,0.));
#244 = DIRECTION('',(-0.,0.,1.));
#245 = ADVANCED_FACE('',(#246),#273,.F.);
#246 = FACE_BOUND('',#247,.F.);
#247 = EDGE_LOOP('',(#248,#249,#250,#258,#266));
#248 = ORIENTED_EDGE('',*,*,#226,.F.);
#249 = ORIENTED_EDGE('',*,*,#129,.T.);
#250 = ORIENTED_EDGE('',*,*,#251,.F.);
#251 = EDGE_CURVE('',#252,#122,#254,.T.);
#252 = VERTEX_POINT('',#253);
#253 = CARTESIAN_POINT('',(26.,-3.4,7.));
#254 = LINE('',#255,#256);
#255 = CARTESIAN_POINT('',(-0.5,-3.4,7.));
#256 = VECTOR('',#257,1.);
#257 = DIRECTION('',(-1.,-0.,0.));
#258 = ORIENTED_EDGE('',*,*,#259,.F.);
#259 = EDGE_CURVE('',#260,#252,#262,.T.);
#260 = VERTEX_POINT('',#261);
#261 = CARTESIAN_POINT('',(26.,-3.4,3.1432467291));
#262 = LINE('',#263,#264);
#263 = CARTESIAN_POINT('',(26.,-3.4,-3.5));
#264 = VECTOR('',#265,1.);
#265 = DIRECTION('',(0.,0.,1.));
#266 = ORIENTED_EDGE('',*,*,#267,.T.);
#267 = EDGE_CURVE('',#260,#227,#268,.T.);
#268 = HYPERBOLA('',#269,1.565217391304,0.6);
#269 = AXIS2_PLACEMENT_3D('',#270,#271,#272);
#270 = CARTESIAN_POINT('',(17.652173913043,-3.4,0.));
#271 = DIRECTION('',(-0.,1.,0.));
#272 = DIRECTION('',(1.,0.,0.));
#273 = PLANE('',#274);
#274 = AXIS2_PLACEMENT_3D('',#275,#276,#277);
#275 = CARTESIAN_POINT('',(-1.,-3.4,0.));
#276 = DIRECTION('',(-0.,1.,0.));
#277 = DIRECTION('',(0.,0.,1.));
#278 = ADVANCED_FACE('',(#279),#297,.T.);
#279 = FACE_BOUND('',#280,.T.);
#280 = EDGE_LOOP('',(#281,#282,#283,#291));
#281 = ORIENTED_EDGE('',*,*,#121,.F.);
#282 = ORIENTED_EDGE('',*,*,#251,.F.);
#283 = ORIENTED_EDGE('',*,*,#284,.T.);
#284 = EDGE_CURVE('',#252,#285,#287,.T.);
#285 = VERTEX_POINT('',#286);
#286 = CARTESIAN_POINT('',(26.,-0.6,7.));
#287 = LINE('',#288,#289);
#288 = CARTESIAN_POINT('',(26.,-8.,7.));
#289 = VECTOR('',#290,1.);
#290 = DIRECTION('',(-0.,1.,0.));
#291 = ORIENTED_EDGE('',*,*,#292,.T.);
#292 = EDGE_CURVE('',#285,#114,#293,.T.);
#293 = LINE('',#294,#295);
#294 = CARTESIAN_POINT('',(-0.5,-0.6,7.));
#295 = VECTOR('',#296,1.);
#296 = DIRECTION('',(-1.,-0.,0.));
#297 = PLANE('',#298);
#298 = AXIS2_PLACEMENT_3D('',#299,#300,#301);
#299 = CARTESIAN_POINT('',(0.,-8.,7.));
#300 = DIRECTION('',(0.,0.,1.));
#301 = DIRECTION('',(1.,0.,-0.));
#302 = ADVANCED_FACE('',(#303),#330,.T.);
#303 = FACE_BOUND('',#304,.T.);
#304 = EDGE_LOOP('',(#305,#313,#314,#315,#323));
#305 = ORIENTED_EDGE('',*,*,#306,.F.);
#306 = EDGE_CURVE('',#105,#307,#309,.T.);
#307 = VERTEX_POINT('',#308);
#308 = CARTESIAN_POINT('',(20.,-0.6,0.67082039325));
#309 = LINE('',#310,#311);
#310 = CARTESIAN_POINT('',(-1.,-0.6,0.67082039325));
#311 = VECTOR('',#312,1.);
#312 = DIRECTION('',(1.,0.,0.));
#313 = ORIENTED_EDGE('',*,*,#113,.T.);
#314 = ORIENTED_EDGE('',*,*,#292,.F.);
#315 = ORIENTED_EDGE('',*,*,#316,.F.);
#316 = EDGE_CURVE('',#317,#285,#319,.T.);
#317 = VERTEX_POINT('',#318);
#318 = CARTESIAN_POINT('',(26.,-0.6,3.1432467291));
#319 = LINE('',#320,#321);
#320 = CARTESIAN_POINT('',(26.,-0.6,-3.5));
#321 = VECTOR('',#322,1.);
#322 = DIRECTION('',(0.,0.,1.));
#323 = ORIENTED_EDGE('',*,*,#324,.T.);
#324 = EDGE_CURVE('',#317,#307,#325,.T.);
#325 = HYPERBOLA('',#326,1.565217391304,0.6);
#326 = AXIS2_PLACEMENT_3D('',#327,#328,#329);
#327 = CARTESIAN_POINT('',(17.652173913043,-0.6,0.));
#328 = DIRECTION('',(-0.,1.,0.));
#329 = DIRECTION('',(1.,0.,0.));
#330 = PLANE('',#331);
#331 = AXIS2_PLACEMENT_3D('',#332,#333,#334);
#332 = CARTESIAN_POINT('',(-1.,-0.6,0.));
#333 = DIRECTION('',(-0.,1.,0.));
#334 = DIRECTION('',(0.,0.,1.));
#335 = ADVANCED_FACE('',(#336),#355,.F.);
#336 = FACE_BOUND('',#337,.F.);
#337 = EDGE_LOOP('',(#338,#347,#348,#349));
#338 = ORIENTED_EDGE('',*,*,#339,.F.);
#339 = EDGE_CURVE('',#307,#340,#342,.T.);
#340 = VERTEX_POINT('',#341);
#341 = CARTESIAN_POINT('',(20.,0.6,0.67082039325));
#342 = CIRCLE('',#343,0.9);
#343 = AXIS2_PLACEMENT_3D('',#344,#345,#346);
#344 = CARTESIAN_POINT('',(20.,0.,0.));
#345 = DIRECTION('',(1.,0.,0.));
#346 = DIRECTION('',(-0.,0.,1.));
#347 = ORIENTED_EDGE('',*,*,#306,.F.);
#348 = ORIENTED_EDGE('',*,*,#104,.T.);
#349 = ORIENTED_EDGE('',*,*,#350,.T.);
#350 = EDGE_CURVE('',#97,#340,#351,.T.);
#351 = LINE('',#352,#353);
#352 = CARTESIAN_POINT('',(-1.,0.6,0.67082039325));
#353 = VECTOR('',#354,1.);
#354 = DIRECTION('',(1.,0.,0.));
#355 = CYLINDRICAL_SURFACE('',#356,0.9);
#356 = AXIS2_PLACEMENT_3D('',#357,#358,#359);
#357 = CARTESIAN_POINT('',(-1.,0.,0.));
#358 = DIRECTION('',(1.,0.,0.));
#359 = DIRECTION('',(-0.,0.,1.));
#360 = ADVANCED_FACE('',(#361),#388,.F.);
#361 = FACE_BOUND('',#362,.F.);
#362 = EDGE_LOOP('',(#363,#364,#365,#373,#381));
#363 = ORIENTED_EDGE('',*,*,#350,.F.);
#364 = ORIENTED_EDGE('',*,*,#96,.T.);
#365 = ORIENTED_EDGE('',*,*,#366,.F.);
#366 = EDGE_CURVE('',#367,#89,#369,.T.);
#367 = VERTEX_POINT('',#368);
#368 = CARTESIAN_POINT('',(26.,0.6,7.));
#369 = LINE('',#370,#371);
#370 = CARTESIAN_POINT('',(-0.5,0.6,7.));
#371 = VECTOR('',#372,1.);
#372 = DIRECTION('',(-1.,-0.,0.));
#373 = ORIENTED_EDGE('',*,*,#374,.F.);
#374 = EDGE_CURVE('',#375,#367,#377,.T.);
#375 = VERTEX_POINT('',#376);
#376 = CARTESIAN_POINT('',(26.,0.6,3.1432467291));
#377 = LINE('',#378,#379);
#378 = CARTESIAN_POINT('',(26.,0.6,-3.5));
#379 = VECTOR('',#380,1.);
#380 = DIRECTION('',(0.,0.,1.));
#381 = ORIENTED_EDGE('',*,*,#382,.T.);
#382 = EDGE_CURVE('',#375,#340,#383,.T.);
#383 = HYPERBOLA('',#384,1.565217391304,0.6);
#384 = AXIS2_PLACEMENT_3D('',#385,#386,#387);
#385 = CARTESIAN_POINT('',(17.652173913043,0.6,0.));
#386 = DIRECTION('',(-0.,1.,0.));
#387 = DIRECTION('',(1.,0.,0.));
#388 = PLANE('',#389);
#389 = AXIS2_PLACEMENT_3D('',#390,#391,#392);
#390 = CARTESIAN_POINT('',(-1.,0.6,0.));
#391 = DIRECTION('',(-0.,1.,0.));
#392 = DIRECTION('',(0.,0.,1.));
#393 = ADVANCED_FACE('',(#394),#412,.T.);
#394 = FACE_BOUND('',#395,.T.);
#395 = EDGE_LOOP('',(#396,#397,#398,#406));
#396 = ORIENTED_EDGE('',*,*,#88,.F.);
#397 = ORIENTED_EDGE('',*,*,#366,.F.);
#398 = ORIENTED_EDGE('',*,*,#399,.T.);
#399 = EDGE_CURVE('',#367,#400,#402,.T.);
#400 = VERTEX_POINT('',#401);
#401 = CARTESIAN_POINT('',(26.,3.4,7.));
#402 = LINE('',#403,#404);
#403 = CARTESIAN_POINT('',(26.,-8.,7.));
#404 = VECTOR('',#405,1.);
#405 = DIRECTION('',(-0.,1.,0.));
#406 = ORIENTED_EDGE('',*,*,#407,.T.);
#407 = EDGE_CURVE('',#400,#81,#408,.T.);
#408 = LINE('',#409,#410);
#409 = CARTESIAN_POINT('',(-0.5,3.4,7.));
#410 = VECTOR('',#411,1.);
#411 = DIRECTION('',(-1.,-0.,0.));
#412 = PLANE('',#413);
#413 = AXIS2_PLACEMENT_3D('',#414,#415,#416);
#414 = CARTESIAN_POINT('',(0.,-8.,7.));
#415 = DIRECTION('',(0.,0.,1.));
#416 = DIRECTION('',(1.,0.,-0.));
#417 = ADVANCED_FACE('',(#418),#445,.T.);
#418 = FACE_BOUND('',#419,.T.);
#419 = EDGE_LOOP('',(#420,#428,#429,#430,#438));
#420 = ORIENTED_EDGE('',*,*,#421,.F.);
#421 = EDGE_CURVE('',#72,#422,#424,.T.);
#422 = VERTEX_POINT('',#423);
#423 = CARTESIAN_POINT('',(22.086956521739,3.4,1.590597372059));
#424 = LINE('',#425,#426);
#425 = CARTESIAN_POINT('',(-1.,3.4,1.590597372059));
#426 = VECTOR('',#427,1.);
#427 = DIRECTION('',(1.,0.,0.));
#428 = ORIENTED_EDGE('',*,*,#80,.T.);
#429 = ORIENTED_EDGE('',*,*,#407,.F.);
#430 = ORIENTED_EDGE('',*,*,#431,.F.);
#431 = EDGE_CURVE('',#432,#400,#434,.T.);
#432 = VERTEX_POINT('',#433);
#433 = CARTESIAN_POINT('',(26.,3.4,3.1432467291));
#434 = LINE('',#435,#436);
#435 = CARTESIAN_POINT('',(26.,3.4,-3.5));
#436 = VECTOR('',#437,1.);
#437 = DIRECTION('',(0.,0.,1.));
#438 = ORIENTED_EDGE('',*,*,#439,.T.);
#439 = EDGE_CURVE('',#432,#422,#440,.T.);
#440 = HYPERBOLA('',#441,1.565217391304,0.6);
#441 = AXIS2_PLACEMENT_3D('',#442,#443,#444);
#442 = CARTESIAN_POINT('',(17.652173913043,3.4,0.));
#443 = DIRECTION('',(-0.,1.,0.));
#444 = DIRECTION('',(1.,0.,0.));
#445 = PLANE('',#446);
#446 = AXIS2_PLACEMENT_3D('',#447,#448,#449);
#447 = CARTESIAN_POINT('',(-1.,3.4,0.));
#448 = DIRECTION('',(-0.,1.,0.));
#449 = DIRECTION('',(0.,0.,1.));
#450 = ADVANCED_FACE('',(#451),#470,.F.);
#451 = FACE_BOUND('',#452,.F.);
#452 = EDGE_LOOP('',(#453,#454,#455,#463));
#453 = ORIENTED_EDGE('',*,*,#421,.F.);
#454 = ORIENTED_EDGE('',*,*,#71,.T.);
#455 = ORIENTED_EDGE('',*,*,#456,.T.);
#456 = EDGE_CURVE('',#64,#457,#459,.T.);
#457 = VERTEX_POINT('',#458);
#458 = CARTESIAN_POINT('',(22.086956521739,4.6,1.590597372059));
#459 = LINE('',#460,#461);
#460 = CARTESIAN_POINT('',(-1.,4.6,1.590597372059));
#461 = VECTOR('',#462,1.);
#462 = DIRECTION('',(1.,0.,0.));
#463 = ORIENTED_EDGE('',*,*,#464,.F.);
#464 = EDGE_CURVE('',#422,#457,#465,.T.);
#465 = CIRCLE('',#466,1.7);
#466 = AXIS2_PLACEMENT_3D('',#467,#468,#469);
#467 = CARTESIAN_POINT('',(22.086956521739,4.,0.));
#468 = DIRECTION('',(1.,0.,0.));
#469 = DIRECTION('',(-0.,0.,1.));
#470 = CYLINDRICAL_SURFACE('',#471,1.7);
#471 = AXIS2_PLACEMENT_3D('',#472,#473,#474);
#472 = CARTESIAN_POINT('',(-1.,4.,0.));
#473 = DIRECTION('',(1.,0.,0.));
#474 = DIRECTION('',(-0.,0.,1.));
#475 = ADVANCED_FACE('',(#476),#503,.F.);
#476 = FACE_BOUND('',#477,.F.);
#477 = EDGE_LOOP('',(#478,#479,#480,#488,#496));
#478 = ORIENTED_EDGE('',*,*,#456,.F.);
#479 = ORIENTED_EDGE('',*,*,#63,.T.);
#480 = ORIENTED_EDGE('',*,*,#481,.F.);
#481 = EDGE_CURVE('',#482,#56,#484,.T.);
#482 = VERTEX_POINT('',#483);
#483 = CARTESIAN_POINT('',(26.,4.6,7.));
#484 = LINE('',#485,#486);
#485 = CARTESIAN_POINT('',(-0.5,4.6,7.));
#486 = VECTOR('',#487,1.);
#487 = DIRECTION('',(-1.,-0.,0.));
#488 = ORIENTED_EDGE('',*,*,#489,.F.);
#489 = EDGE_CURVE('',#490,#482,#492,.T.);
#490 = VERTEX_POINT('',#491);
#491 = CARTESIAN_POINT('',(26.,4.6,3.1432467291));
#492 = LINE('',#493,#494);
#493 = CARTESIAN_POINT('',(26.,4.6,-3.5));
#494 = VECTOR('',#495,1.);
#495 = DIRECTION('',(0.,0.,1.));
#496 = ORIENTED_EDGE('',*,*,#497,.T.);
#497 = EDGE_CURVE('',#490,#457,#498,.T.);
#498 = HYPERBOLA('',#499,1.565217391304,0.6);
#499 = AXIS2_PLACEMENT_3D('',#500,#501,#502);
#500 = CARTESIAN_POINT('',(17.652173913043,4.6,0.));
#501 = DIRECTION('',(-0.,1.,0.));
#502 = DIRECTION('',(1.,0.,0.));
#503 = PLANE('',#504);
#504 = AXIS2_PLACEMENT_3D('',#505,#506,#507);
#505 = CARTESIAN_POINT('',(-1.,4.6,0.));
#506 = DIRECTION('',(-0.,1.,0.));
#507 = DIRECTION('',(0.,0.,1.));
#508 = ADVANCED_FACE('',(#509),#527,.T.);
#509 = FACE_BOUND('',#510,.T.);
#510 = EDGE_LOOP('',(#511,#512,#513,#521));
#511 = ORIENTED_EDGE('',*,*,#55,.F.);
#512 = ORIENTED_EDGE('',*,*,#481,.F.);
#513 = ORIENTED_EDGE('',*,*,#514,.T.);
#514 = EDGE_CURVE('',#482,#515,#517,.T.);
#515 = VERTEX_POINT('',#516);
#516 = CARTESIAN_POINT('',(26.,8.,7.));
#517 = LINE('',#518,#519);
#518 = CARTESIAN_POINT('',(26.,-8.,7.));
#519 = VECTOR('',#520,1.);
#520 = DIRECTION('',(-0.,1.,0.));
#521 = ORIENTED_EDGE('',*,*,#522,.F.);
#522 = EDGE_CURVE('',#48,#515,#523,.T.);
#523 = LINE('',#524,#525);
#524 = CARTESIAN_POINT('',(0.,8.,7.));
#525 = VECTOR('',#526,1.);
#526 = DIRECTION('',(1.,0.,-0.));
#527 = PLANE('',#528);
#528 = AXIS2_PLACEMENT_3D('',#529,#530,#531);
#529 = CARTESIAN_POINT('',(0.,-8.,7.));
#530 = DIRECTION('',(0.,0.,1.));
#531 = DIRECTION('',(1.,0.,-0.));
#532 = ADVANCED_FACE('',(#533),#551,.T.);
#533 = FACE_BOUND('',#534,.T.);
#534 = EDGE_LOOP('',(#535,#543,#544,#545));
#535 = ORIENTED_EDGE('',*,*,#536,.F.);
#536 = EDGE_CURVE('',#40,#537,#539,.T.);
#537 = VERTEX_POINT('',#538);
#538 = CARTESIAN_POINT('',(26.,8.,-7.));
#539 = LINE('',#540,#541);
#540 = CARTESIAN_POINT('',(0.,8.,-7.));
#541 = VECTOR('',#542,1.);
#542 = DIRECTION('',(1.,0.,-0.));
#543 = ORIENTED_EDGE('',*,*,#47,.T.);
#544 = ORIENTED_EDGE('',*,*,#522,.T.);
#545 = ORIENTED_EDGE('',*,*,#546,.F.);
#546 = EDGE_CURVE('',#537,#515,#547,.T.);
#547 = LINE('',#548,#549);
#548 = CARTESIAN_POINT('',(26.,8.,-7.));
#549 = VECTOR('',#550,1.);
#550 = DIRECTION('',(0.,0.,1.));
#551 = PLANE('',#552);
#552 = AXIS2_PLACEMENT_3D('',#553,#554,#555);
#553 = CARTESIAN_POINT('',(0.,8.,-7.));
#554 = DIRECTION('',(-0.,1.,0.));
#555 = DIRECTION('',(0.,0.,1.));
#556 = ADVANCED_FACE('',(#557),#575,.F.);
#557 = FACE_BOUND('',#558,.F.);
#558 = EDGE_LOOP('',(#559,#560,#568,#574));
#559 = ORIENTED_EDGE('',*,*,#39,.F.);
#560 = ORIENTED_EDGE('',*,*,#561,.T.);
#561 = EDGE_CURVE('',#32,#562,#564,.T.);
#562 = VERTEX_POINT('',#563);
#563 = CARTESIAN_POINT('',(26.,-8.,-7.));
#564 = LINE('',#565,#566);
#565 = CARTESIAN_POINT('',(0.,-8.,-7.));
#566 = VECTOR('',#567,1.);
#567 = DIRECTION('',(1.,0.,-0.));
#568 = ORIENTED_EDGE('',*,*,#569,.T.);
#569 = EDGE_CURVE('',#562,#537,#570,.T.);
#570 = LINE('',#571,#572);
#571 = CARTESIAN_POINT('',(26.,-8.,-7.));
#572 = VECTOR('',#573,1.);
#573 = DIRECTION('',(-0.,1.,0.));
#574 = ORIENTED_EDGE('',*,*,#536,.F.);
#575 = PLANE('',#576);
#576 = AXIS2_PLACEMENT_3D('',#577,#578,#579);
#577 = CARTESIAN_POINT('',(0.,-8.,-7.));
#578 = DIRECTION('',(0.,0.,1.));
#579 = DIRECTION('',(1.,0.,-0.));
#580 = ADVANCED_FACE('',(#581),#592,.F.);
#581 = FACE_BOUND('',#582,.F.);
#582 = EDGE_LOOP('',(#583,#584,#585,#586));
#583 = ORIENTED_EDGE('',*,*,#561,.F.);
#584 = ORIENTED_EDGE('',*,*,#31,.T.);
#585 = ORIENTED_EDGE('',*,*,#161,.T.);
#586 = ORIENTED_EDGE('',*,*,#587,.F.);
#587 = EDGE_CURVE('',#562,#162,#588,.T.);
#588 = LINE('',#589,#590);
#589 = CARTESIAN_POINT('',(26.,-8.,-7.));
#590 = VECTOR('',#591,1.);
#591 = DIRECTION('',(0.,0.,1.));
#592 = PLANE('',#593);
#593 = AXIS2_PLACEMENT_3D('',#594,#595,#596);
#594 = CARTESIAN_POINT('',(0.,-8.,-7.));
#595 = DIRECTION('',(-0.,1.,0.));
#596 = DIRECTION('',(0.,0.,1.));
#597 = ADVANCED_FACE('',(#598),#632,.T.);
#598 = FACE_BOUND('',#599,.T.);
#599 = EDGE_LOOP('',(#600,#601,#602,#603,#604,#605,#606,#615,#624,#631)
  );
#600 = ORIENTED_EDGE('',*,*,#169,.F.);
#601 = ORIENTED_EDGE('',*,*,#587,.F.);
#602 = ORIENTED_EDGE('',*,*,#569,.T.);
#603 = ORIENTED_EDGE('',*,*,#546,.T.);
#604 = ORIENTED_EDGE('',*,*,#514,.F.);
#605 = ORIENTED_EDGE('',*,*,#489,.F.);
#606 = ORIENTED_EDGE('',*,*,#607,.F.);
#607 = EDGE_CURVE('',#608,#490,#610,.T.);
#608 = VERTEX_POINT('',#609);
#609 = CARTESIAN_POINT('',(26.,2.,-2.497999199359));
#610 = CIRCLE('',#611,3.2);
#611 = AXIS2_PLACEMENT_3D('',#612,#613,#614);
#612 = CARTESIAN_POINT('',(26.,4.,0.));
#613 = DIRECTION('',(1.,0.,0.));
#614 = DIRECTION('',(-0.,0.,1.));
#615 = ORIENTED_EDGE('',*,*,#616,.F.);
#616 = EDGE_CURVE('',#617,#608,#619,.T.);
#617 = VERTEX_POINT('',#618);
#618 = CARTESIAN_POINT('',(26.,-2.,-2.497999199359));
#619 = CIRCLE('',#620,3.2);
#620 = AXIS2_PLACEMENT_3D('',#621,#622,#623);
#621 = CARTESIAN_POINT('',(26.,0.,0.));
#622 = DIRECTION('',(1.,0.,0.));
#623 = DIRECTION('',(-0.,0.,1.));
#624 = ORIENTED_EDGE('',*,*,#625,.F.);
#625 = EDGE_CURVE('',#202,#617,#626,.T.);
#626 = CIRCLE('',#627,3.2);
#627 = AXIS2_PLACEMENT_3D('',#628,#629,#630);
#628 = CARTESIAN_POINT('',(26.,-4.,0.));
#629 = DIRECTION('',(1.,0.,0.));
#630 = DIRECTION('',(-0.,0.,1.));
#631 = ORIENTED_EDGE('',*,*,#201,.T.);
#632 = PLANE('',#633);
#633 = AXIS2_PLACEMENT_3D('',#634,#635,#636);
#634 = CARTESIAN_POINT('',(26.,-8.,-7.));
#635 = DIRECTION('',(1.,0.,-0.));
#636 = DIRECTION('',(0.,0.,1.));
#637 = ADVANCED_FACE('',(#638),#660,.F.);
#638 = FACE_BOUND('',#639,.F.);
#639 = EDGE_LOOP('',(#640,#641,#642,#643,#644,#653));
#640 = ORIENTED_EDGE('',*,*,#625,.F.);
#641 = ORIENTED_EDGE('',*,*,#209,.T.);
#642 = ORIENTED_EDGE('',*,*,#234,.T.);
#643 = ORIENTED_EDGE('',*,*,#267,.F.);
#644 = ORIENTED_EDGE('',*,*,#645,.F.);
#645 = EDGE_CURVE('',#646,#260,#648,.T.);
#646 = VERTEX_POINT('',#647);
#647 = CARTESIAN_POINT('',(26.,-2.,2.497999199359));
#648 = CIRCLE('',#649,3.2);
#649 = AXIS2_PLACEMENT_3D('',#650,#651,#652);
#650 = CARTESIAN_POINT('',(26.,-4.,0.));
#651 = DIRECTION('',(1.,0.,0.));
#652 = DIRECTION('',(-0.,0.,1.));
#653 = ORIENTED_EDGE('',*,*,#654,.F.);
#654 = EDGE_CURVE('',#617,#646,#655,.T.);
#655 = HYPERBOLA('',#656,5.217391304348,2.);
#656 = AXIS2_PLACEMENT_3D('',#657,#658,#659);
#657 = CARTESIAN_POINT('',(17.652173913043,-2.,0.));
#658 = DIRECTION('',(0.,-1.,0.));
#659 = DIRECTION('',(1.,0.,0.));
#660 = CONICAL_SURFACE('',#661,0.9,0.366056515847);
#661 = AXIS2_PLACEMENT_3D('',#662,#663,#664);
#662 = CARTESIAN_POINT('',(20.,-4.,0.));
#663 = DIRECTION('',(1.,0.,0.));
#664 = DIRECTION('',(-0.,0.,1.));
#665 = ADVANCED_FACE('',(#666),#679,.T.);
#666 = FACE_BOUND('',#667,.T.);
#667 = EDGE_LOOP('',(#668,#675,#676,#677,#678));
#668 = ORIENTED_EDGE('',*,*,#669,.F.);
#669 = EDGE_CURVE('',#317,#646,#670,.T.);
#670 = CIRCLE('',#671,3.2);
#671 = AXIS2_PLACEMENT_3D('',#672,#673,#674);
#672 = CARTESIAN_POINT('',(26.,0.,0.));
#673 = DIRECTION('',(1.,0.,0.));
#674 = DIRECTION('',(-0.,0.,1.));
#675 = ORIENTED_EDGE('',*,*,#316,.T.);
#676 = ORIENTED_EDGE('',*,*,#284,.F.);
#677 = ORIENTED_EDGE('',*,*,#259,.F.);
#678 = ORIENTED_EDGE('',*,*,#645,.F.);
#679 = PLANE('',#680);
#680 = AXIS2_PLACEMENT_3D('',#681,#682,#683);
#681 = CARTESIAN_POINT('',(26.,-8.,-7.));
#682 = DIRECTION('',(1.,0.,-0.));
#683 = DIRECTION('',(0.,0.,1.));
#684 = ADVANCED_FACE('',(#685),#709,.F.);
#685 = FACE_BOUND('',#686,.F.);
#686 = EDGE_LOOP('',(#687,#688,#689,#690,#691,#700,#707,#708));
#687 = ORIENTED_EDGE('',*,*,#669,.F.);
#688 = ORIENTED_EDGE('',*,*,#324,.T.);
#689 = ORIENTED_EDGE('',*,*,#339,.T.);
#690 = ORIENTED_EDGE('',*,*,#382,.F.);
#691 = ORIENTED_EDGE('',*,*,#692,.F.);
#692 = EDGE_CURVE('',#693,#375,#695,.T.);
#693 = VERTEX_POINT('',#694);
#694 = CARTESIAN_POINT('',(26.,2.,2.497999199359));
#695 = CIRCLE('',#696,3.2);
#696 = AXIS2_PLACEMENT_3D('',#697,#698,#699);
#697 = CARTESIAN_POINT('',(26.,0.,0.));
#698 = DIRECTION('',(1.,0.,0.));
#699 = DIRECTION('',(-0.,0.,1.));
#700 = ORIENTED_EDGE('',*,*,#701,.F.);
#701 = EDGE_CURVE('',#608,#693,#702,.T.);
#702 = HYPERBOLA('',#703,5.217391304348,2.);
#703 = AXIS2_PLACEMENT_3D('',#704,#705,#706);
#704 = CARTESIAN_POINT('',(17.652173913043,2.,0.));
#705 = DIRECTION('',(0.,-1.,0.));
#706 = DIRECTION('',(1.,0.,0.));
#707 = ORIENTED_EDGE('',*,*,#616,.F.);
#708 = ORIENTED_EDGE('',*,*,#654,.T.);
#709 = CONICAL_SURFACE('',#710,0.9,0.366056515847);
#710 = AXIS2_PLACEMENT_3D('',#711,#712,#713);
#711 = CARTESIAN_POINT('',(20.,0.,0.));
#712 = DIRECTION('',(1.,0.,0.));
#713 = DIRECTION('',(-0.,0.,1.));
#714 = ADVANCED_FACE('',(#715),#728,.T.);
#715 = FACE_BOUND('',#716,.T.);
#716 = EDGE_LOOP('',(#717,#724,#725,#726,#727));
#717 = ORIENTED_EDGE('',*,*,#718,.F.);
#718 = EDGE_CURVE('',#432,#693,#719,.T.);
#719 = CIRCLE('',#720,3.2);
#720 = AXIS2_PLACEMENT_3D('',#721,#722,#723);
#721 = CARTESIAN_POINT('',(26.,4.,0.));
#722 = DIRECTION('',(1.,0.,0.));
#723 = DIRECTION('',(-0.,0.,1.));
#724 = ORIENTED_EDGE('',*,*,#431,.T.);
#725 = ORIENTED_EDGE('',*,*,#399,.F.);
#726 = ORIENTED_EDGE('',*,*,#374,.F.);
#727 = ORIENTED_EDGE('',*,*,#692,.F.);
#728 = PLANE('',#729);
#729 = AXIS2_PLACEMENT_3D('',#730,#731,#732);
#730 = CARTESIAN_POINT('',(26.,-8.,-7.));
#731 = DIRECTION('',(1.,0.,-0.));
#732 = DIRECTION('',(0.,0.,1.));
#733 = ADVANCED_FACE('',(#734),#742,.F.);
#734 = FACE_BOUND('',#735,.F.);
#735 = EDGE_LOOP('',(#736,#737,#738,#739,#740,#741));
#736 = ORIENTED_EDGE('',*,*,#718,.F.);
#737 = ORIENTED_EDGE('',*,*,#439,.T.);
#738 = ORIENTED_EDGE('',*,*,#464,.T.);
#739 = ORIENTED_EDGE('',*,*,#497,.F.);
#740 = ORIENTED_EDGE('',*,*,#607,.F.);
#741 = ORIENTED_EDGE('',*,*,#701,.T.);
#742 = CONICAL_SURFACE('',#743,0.9,0.366056515847);
#743 = AXIS2_PLACEMENT_3D('',#744,#745,#746);
#744 = CARTESIAN_POINT('',(20.,4.,0.));
#745 = DIRECTION('',(1.,0.,0.));
#746 = DIRECTION('',(-0.,0.,1.));
#747 = ( GEOMETRIC_REPRESENTATION_CONTEXT(3) 
GLOBAL_UNCERTAINTY_ASSIGNED_CONTEXT((#751)) GLOBAL_UNIT_ASSIGNED_CONTEXT
((#748,#749,#750)) REPRESENTATION_CONTEXT('Context #1',
  '3D Context with UNIT and UNCERTAINTY') );
#748 = ( LENGTH_UNIT() NAMED_UNIT(*) SI_UNIT(.MILLI.,.METRE.) );
#749 = ( NAMED_UNIT(*) PLANE_ANGLE_UNIT() SI_UNIT($,.RADIAN.) );
#750 = ( NAMED_UNIT(*) SI_UNIT($,.STERADIAN.) SOLID_ANGLE_UNIT() );
#751 = UNCERTAINTY_MEASURE_WITH_UNIT(LENGTH_MEASURE(1.E-07),#748,
  'distance_accuracy_value','confusion accuracy');
#752 = PRODUCT_RELATED_PRODUCT_CATEGORY('part',$,(#7));
ENDSEC;
END-ISO-10303-21;
