ISO-10303-21;
HEADER;
FILE_DESCRIPTION(('FreeCAD Model'),'2;1');
FILE_NAME('Open CASCADE Shape Model','2026-07-27T13:56:51',('Author'),(
    ''),'Open CASCADE STEP processor 7.8','FreeCAD','Unknown');
FILE_SCHEMA(('AUTOMOTIVE_DESIGN { 1 0 10303 214 1 1 1 1 }'));
ENDSEC;
DATA;
#1 = APPLICATION_PROTOCOL_DEFINITION('international standard',
  'automotive_design',2000,#2);
#2 = APPLICATION_CONTEXT(
  'core data for automotive mechanical design processes');
#3 = SHAPE_DEFINITION_REPRESENTATION(#4,#10);
#4 = PRODUCT_DEFINITION_SHAPE('','',#5);
#5 = PRODUCT_DEFINITION('design','',#6,#9);
#6 = PRODUCT_DEFINITION_FORMATION('','',#7);
#7 = PRODUCT('drop_chute','drop_chute','',(#8));
#8 = PRODUCT_CONTEXT('',#2,'mechanical');
#9 = PRODUCT_DEFINITION_CONTEXT('part definition',#2,'design');
#10 = ADVANCED_BREP_SHAPE_REPRESENTATION('',(#11,#15),#1001);
#11 = AXIS2_PLACEMENT_3D('',#12,#13,#14);
#12 = CARTESIAN_POINT('',(0.,0.,0.));
#13 = DIRECTION('',(0.,0.,1.));
#14 = DIRECTION('',(1.,0.,-0.));
#15 = MANIFOLD_SOLID_BREP('',#16);
#16 = CLOSED_SHELL('',(#17,#57,#88,#142,#166,#257,#269,#455,#615,#777,
    #925,#944,#963,#982));
#17 = ADVANCED_FACE('',(#18),#52,.F.);
#18 = FACE_BOUND('',#19,.F.);
#19 = EDGE_LOOP('',(#20,#30,#38,#46));
#20 = ORIENTED_EDGE('',*,*,#21,.F.);
#21 = EDGE_CURVE('',#22,#24,#26,.T.);
#22 = VERTEX_POINT('',#23);
#23 = CARTESIAN_POINT('',(-53.66369055211,-51.,0.));
#24 = VERTEX_POINT('',#25);
#25 = CARTESIAN_POINT('',(-53.66369055211,-51.,16.));
#26 = LINE('',#27,#28);
#27 = CARTESIAN_POINT('',(-53.66369055211,-51.,0.));
#28 = VECTOR('',#29,1.);
#29 = DIRECTION('',(0.,0.,1.));
#30 = ORIENTED_EDGE('',*,*,#31,.T.);
#31 = EDGE_CURVE('',#22,#32,#34,.T.);
#32 = VERTEX_POINT('',#33);
#33 = CARTESIAN_POINT('',(-53.66369055211,51.,0.));
#34 = LINE('',#35,#36);
#35 = CARTESIAN_POINT('',(-53.66369055211,-51.,0.));
#36 = VECTOR('',#37,1.);
#37 = DIRECTION('',(-0.,1.,0.));
#38 = ORIENTED_EDGE('',*,*,#39,.T.);
#39 = EDGE_CURVE('',#32,#40,#42,.T.);
#40 = VERTEX_POINT('',#41);
#41 = CARTESIAN_POINT('',(-53.66369055211,51.,16.));
#42 = LINE('',#43,#44);
#43 = CARTESIAN_POINT('',(-53.66369055211,51.,0.));
#44 = VECTOR('',#45,1.);
#45 = DIRECTION('',(0.,0.,1.));
#46 = ORIENTED_EDGE('',*,*,#47,.F.);
#47 = EDGE_CURVE('',#24,#40,#48,.T.);
#48 = LINE('',#49,#50);
#49 = CARTESIAN_POINT('',(-53.66369055211,-51.,16.));
#50 = VECTOR('',#51,1.);
#51 = DIRECTION('',(-0.,1.,0.));
#52 = PLANE('',#53);
#53 = AXIS2_PLACEMENT_3D('',#54,#55,#56);
#54 = CARTESIAN_POINT('',(-53.66369055211,-51.,0.));
#55 = DIRECTION('',(1.,0.,-0.));
#56 = DIRECTION('',(0.,0.,1.));
#57 = ADVANCED_FACE('',(#58),#83,.F.);
#58 = FACE_BOUND('',#59,.F.);
#59 = EDGE_LOOP('',(#60,#68,#69,#77));
#60 = ORIENTED_EDGE('',*,*,#61,.F.);
#61 = EDGE_CURVE('',#22,#62,#64,.T.);
#62 = VERTEX_POINT('',#63);
#63 = CARTESIAN_POINT('',(53.66369055211,-51.,0.));
#64 = LINE('',#65,#66);
#65 = CARTESIAN_POINT('',(-53.66369055211,-51.,0.));
#66 = VECTOR('',#67,1.);
#67 = DIRECTION('',(1.,0.,-0.));
#68 = ORIENTED_EDGE('',*,*,#21,.T.);
#69 = ORIENTED_EDGE('',*,*,#70,.T.);
#70 = EDGE_CURVE('',#24,#71,#73,.T.);
#71 = VERTEX_POINT('',#72);
#72 = CARTESIAN_POINT('',(53.66369055211,-51.,16.));
#73 = LINE('',#74,#75);
#74 = CARTESIAN_POINT('',(-53.66369055211,-51.,16.));
#75 = VECTOR('',#76,1.);
#76 = DIRECTION('',(1.,0.,-0.));
#77 = ORIENTED_EDGE('',*,*,#78,.F.);
#78 = EDGE_CURVE('',#62,#71,#79,.T.);
#79 = LINE('',#80,#81);
#80 = CARTESIAN_POINT('',(53.66369055211,-51.,0.));
#81 = VECTOR('',#82,1.);
#82 = DIRECTION('',(0.,0.,1.));
#83 = PLANE('',#84);
#84 = AXIS2_PLACEMENT_3D('',#85,#86,#87);
#85 = CARTESIAN_POINT('',(-53.66369055211,-51.,0.));
#86 = DIRECTION('',(-0.,1.,0.));
#87 = DIRECTION('',(0.,0.,1.));
#88 = ADVANCED_FACE('',(#89,#107),#137,.T.);
#89 = FACE_BOUND('',#90,.T.);
#90 = EDGE_LOOP('',(#91,#92,#93,#101));
#91 = ORIENTED_EDGE('',*,*,#47,.F.);
#92 = ORIENTED_EDGE('',*,*,#70,.T.);
#93 = ORIENTED_EDGE('',*,*,#94,.T.);
#94 = EDGE_CURVE('',#71,#95,#97,.T.);
#95 = VERTEX_POINT('',#96);
#96 = CARTESIAN_POINT('',(53.66369055211,51.,16.));
#97 = LINE('',#98,#99);
#98 = CARTESIAN_POINT('',(53.66369055211,-51.,16.));
#99 = VECTOR('',#100,1.);
#100 = DIRECTION('',(-0.,1.,0.));
#101 = ORIENTED_EDGE('',*,*,#102,.F.);
#102 = EDGE_CURVE('',#40,#95,#103,.T.);
#103 = LINE('',#104,#105);
#104 = CARTESIAN_POINT('',(-53.66369055211,51.,16.));
#105 = VECTOR('',#106,1.);
#106 = DIRECTION('',(1.,0.,-0.));
#107 = FACE_BOUND('',#108,.T.);
#108 = EDGE_LOOP('',(#109,#118,#125,#132));
#109 = ORIENTED_EDGE('',*,*,#110,.T.);
#110 = EDGE_CURVE('',#111,#113,#115,.T.);
#111 = VERTEX_POINT('',#112);
#112 = CARTESIAN_POINT('',(51.66269061093,48.99900005882,16.));
#113 = VERTEX_POINT('',#114);
#114 = CARTESIAN_POINT('',(51.66269061093,-48.99900005882,16.));
#115 = B_SPLINE_CURVE_WITH_KNOTS('',1,(#116,#117),.UNSPECIFIED.,.F.,.F.,
  (2,2),(0.,1.),.PIECEWISE_BEZIER_KNOTS.);
#116 = CARTESIAN_POINT('',(51.66269061093,48.99900005882,16.));
#117 = CARTESIAN_POINT('',(51.66269061093,-48.99900005882,16.));
#118 = ORIENTED_EDGE('',*,*,#119,.T.);
#119 = EDGE_CURVE('',#113,#120,#122,.T.);
#120 = VERTEX_POINT('',#121);
#121 = CARTESIAN_POINT('',(-51.66269061093,-48.99900005882,16.));
#122 = B_SPLINE_CURVE_WITH_KNOTS('',1,(#123,#124),.UNSPECIFIED.,.F.,.F.,
  (2,2),(0.,1.),.PIECEWISE_BEZIER_KNOTS.);
#123 = CARTESIAN_POINT('',(51.66269061093,-48.99900005882,16.));
#124 = CARTESIAN_POINT('',(-51.66269061093,-48.99900005882,16.));
#125 = ORIENTED_EDGE('',*,*,#126,.T.);
#126 = EDGE_CURVE('',#120,#127,#129,.T.);
#127 = VERTEX_POINT('',#128);
#128 = CARTESIAN_POINT('',(-51.66269061093,48.99900005882,16.));
#129 = B_SPLINE_CURVE_WITH_KNOTS('',1,(#130,#131),.UNSPECIFIED.,.F.,.F.,
  (2,2),(0.,1.),.PIECEWISE_BEZIER_KNOTS.);
#130 = CARTESIAN_POINT('',(-51.66269061093,-48.99900005882,16.));
#131 = CARTESIAN_POINT('',(-51.66269061093,48.99900005882,16.));
#132 = ORIENTED_EDGE('',*,*,#133,.T.);
#133 = EDGE_CURVE('',#127,#111,#134,.T.);
#134 = B_SPLINE_CURVE_WITH_KNOTS('',1,(#135,#136),.UNSPECIFIED.,.F.,.F.,
  (2,2),(0.,1.),.PIECEWISE_BEZIER_KNOTS.);
#135 = CARTESIAN_POINT('',(-51.66269061093,48.99900005882,16.));
#136 = CARTESIAN_POINT('',(51.66269061093,48.99900005882,16.));
#137 = PLANE('',#138);
#138 = AXIS2_PLACEMENT_3D('',#139,#140,#141);
#139 = CARTESIAN_POINT('',(-53.66369055211,-51.,16.));
#140 = DIRECTION('',(0.,0.,1.));
#141 = DIRECTION('',(1.,0.,-0.));
#142 = ADVANCED_FACE('',(#143),#161,.T.);
#143 = FACE_BOUND('',#144,.T.);
#144 = EDGE_LOOP('',(#145,#153,#154,#155));
#145 = ORIENTED_EDGE('',*,*,#146,.F.);
#146 = EDGE_CURVE('',#32,#147,#149,.T.);
#147 = VERTEX_POINT('',#148);
#148 = CARTESIAN_POINT('',(53.66369055211,51.,0.));
#149 = LINE('',#150,#151);
#150 = CARTESIAN_POINT('',(-53.66369055211,51.,0.));
#151 = VECTOR('',#152,1.);
#152 = DIRECTION('',(1.,0.,-0.));
#153 = ORIENTED_EDGE('',*,*,#39,.T.);
#154 = ORIENTED_EDGE('',*,*,#102,.T.);
#155 = ORIENTED_EDGE('',*,*,#156,.F.);
#156 = EDGE_CURVE('',#147,#95,#157,.T.);
#157 = LINE('',#158,#159);
#158 = CARTESIAN_POINT('',(53.66369055211,51.,0.));
#159 = VECTOR('',#160,1.);
#160 = DIRECTION('',(0.,0.,1.));
#161 = PLANE('',#162);
#162 = AXIS2_PLACEMENT_3D('',#163,#164,#165);
#163 = CARTESIAN_POINT('',(-53.66369055211,51.,0.));
#164 = DIRECTION('',(-0.,1.,0.));
#165 = DIRECTION('',(0.,0.,1.));
#166 = ADVANCED_FACE('',(#167,#178,#189,#200,#211,#241),#252,.F.);
#167 = FACE_BOUND('',#168,.F.);
#168 = EDGE_LOOP('',(#169,#170,#171,#177));
#169 = ORIENTED_EDGE('',*,*,#31,.F.);
#170 = ORIENTED_EDGE('',*,*,#61,.T.);
#171 = ORIENTED_EDGE('',*,*,#172,.T.);
#172 = EDGE_CURVE('',#62,#147,#173,.T.);
#173 = LINE('',#174,#175);
#174 = CARTESIAN_POINT('',(53.66369055211,-51.,0.));
#175 = VECTOR('',#176,1.);
#176 = DIRECTION('',(-0.,1.,0.));
#177 = ORIENTED_EDGE('',*,*,#146,.F.);
#178 = FACE_BOUND('',#179,.F.);
#179 = EDGE_LOOP('',(#180));
#180 = ORIENTED_EDGE('',*,*,#181,.F.);
#181 = EDGE_CURVE('',#182,#182,#184,.T.);
#182 = VERTEX_POINT('',#183);
#183 = CARTESIAN_POINT('',(-44.96369055211,-45.,0.));
#184 = CIRCLE('',#185,2.7);
#185 = AXIS2_PLACEMENT_3D('',#186,#187,#188);
#186 = CARTESIAN_POINT('',(-47.66369055211,-45.,0.));
#187 = DIRECTION('',(0.,0.,1.));
#188 = DIRECTION('',(1.,0.,-0.));
#189 = FACE_BOUND('',#190,.F.);
#190 = EDGE_LOOP('',(#191));
#191 = ORIENTED_EDGE('',*,*,#192,.F.);
#192 = EDGE_CURVE('',#193,#193,#195,.T.);
#193 = VERTEX_POINT('',#194);
#194 = CARTESIAN_POINT('',(50.36369055211,-45.,0.));
#195 = CIRCLE('',#196,2.7);
#196 = AXIS2_PLACEMENT_3D('',#197,#198,#199);
#197 = CARTESIAN_POINT('',(47.66369055211,-45.,0.));
#198 = DIRECTION('',(0.,0.,1.));
#199 = DIRECTION('',(1.,0.,-0.));
#200 = FACE_BOUND('',#201,.F.);
#201 = EDGE_LOOP('',(#202));
#202 = ORIENTED_EDGE('',*,*,#203,.F.);
#203 = EDGE_CURVE('',#204,#204,#206,.T.);
#204 = VERTEX_POINT('',#205);
#205 = CARTESIAN_POINT('',(-44.96369055211,45.,0.));
#206 = CIRCLE('',#207,2.7);
#207 = AXIS2_PLACEMENT_3D('',#208,#209,#210);
#208 = CARTESIAN_POINT('',(-47.66369055211,45.,0.));
#209 = DIRECTION('',(0.,0.,1.));
#210 = DIRECTION('',(1.,0.,-0.));
#211 = FACE_BOUND('',#212,.F.);
#212 = EDGE_LOOP('',(#213,#222,#229,#236));
#213 = ORIENTED_EDGE('',*,*,#214,.T.);
#214 = EDGE_CURVE('',#215,#217,#219,.T.);
#215 = VERTEX_POINT('',#216);
#216 = CARTESIAN_POINT('',(35.66363173204,32.999941179931,
    3.330669073875E-16));
#217 = VERTEX_POINT('',#218);
#218 = CARTESIAN_POINT('',(35.66363173204,-32.99994117993,
    3.330669073875E-16));
#219 = B_SPLINE_CURVE_WITH_KNOTS('',1,(#220,#221),.UNSPECIFIED.,.F.,.F.,
  (2,2),(0.,1.),.PIECEWISE_BEZIER_KNOTS.);
#220 = CARTESIAN_POINT('',(35.66363173204,32.999941179931,0.));
#221 = CARTESIAN_POINT('',(35.66363173204,-32.99994117993,0.));
#222 = ORIENTED_EDGE('',*,*,#223,.T.);
#223 = EDGE_CURVE('',#217,#224,#226,.T.);
#224 = VERTEX_POINT('',#225);
#225 = CARTESIAN_POINT('',(-35.66363173204,-32.99994117993,
    3.330669073875E-16));
#226 = B_SPLINE_CURVE_WITH_KNOTS('',1,(#227,#228),.UNSPECIFIED.,.F.,.F.,
  (2,2),(0.,1.),.PIECEWISE_BEZIER_KNOTS.);
#227 = CARTESIAN_POINT('',(35.66363173204,-32.99994117993,0.));
#228 = CARTESIAN_POINT('',(-35.66363173204,-32.99994117993,0.));
#229 = ORIENTED_EDGE('',*,*,#230,.T.);
#230 = EDGE_CURVE('',#224,#231,#233,.T.);
#231 = VERTEX_POINT('',#232);
#232 = CARTESIAN_POINT('',(-35.66363173204,32.999941179931,
    3.330669073875E-16));
#233 = B_SPLINE_CURVE_WITH_KNOTS('',1,(#234,#235),.UNSPECIFIED.,.F.,.F.,
  (2,2),(0.,1.),.PIECEWISE_BEZIER_KNOTS.);
#234 = CARTESIAN_POINT('',(-35.66363173204,-32.99994117993,0.));
#235 = CARTESIAN_POINT('',(-35.66363173204,32.999941179931,0.));
#236 = ORIENTED_EDGE('',*,*,#237,.T.);
#237 = EDGE_CURVE('',#231,#215,#238,.T.);
#238 = B_SPLINE_CURVE_WITH_KNOTS('',1,(#239,#240),.UNSPECIFIED.,.F.,.F.,
  (2,2),(0.,1.),.PIECEWISE_BEZIER_KNOTS.);
#239 = CARTESIAN_POINT('',(-35.66363173204,32.999941179931,0.));
#240 = CARTESIAN_POINT('',(35.66363173204,32.999941179931,0.));
#241 = FACE_BOUND('',#242,.F.);
#242 = EDGE_LOOP('',(#243));
#243 = ORIENTED_EDGE('',*,*,#244,.F.);
#244 = EDGE_CURVE('',#245,#245,#247,.T.);
#245 = VERTEX_POINT('',#246);
#246 = CARTESIAN_POINT('',(50.36369055211,45.,0.));
#247 = CIRCLE('',#248,2.7);
#248 = AXIS2_PLACEMENT_3D('',#249,#250,#251);
#249 = CARTESIAN_POINT('',(47.66369055211,45.,0.));
#250 = DIRECTION('',(0.,0.,1.));
#251 = DIRECTION('',(1.,0.,-0.));
#252 = PLANE('',#253);
#253 = AXIS2_PLACEMENT_3D('',#254,#255,#256);
#254 = CARTESIAN_POINT('',(-53.66369055211,-51.,0.));
#255 = DIRECTION('',(0.,0.,1.));
#256 = DIRECTION('',(1.,0.,-0.));
#257 = ADVANCED_FACE('',(#258),#264,.T.);
#258 = FACE_BOUND('',#259,.T.);
#259 = EDGE_LOOP('',(#260,#261,#262,#263));
#260 = ORIENTED_EDGE('',*,*,#78,.F.);
#261 = ORIENTED_EDGE('',*,*,#172,.T.);
#262 = ORIENTED_EDGE('',*,*,#156,.T.);
#263 = ORIENTED_EDGE('',*,*,#94,.F.);
#264 = PLANE('',#265);
#265 = AXIS2_PLACEMENT_3D('',#266,#267,#268);
#266 = CARTESIAN_POINT('',(53.66369055211,-51.,0.));
#267 = DIRECTION('',(1.,0.,-0.));
#268 = DIRECTION('',(0.,0.,1.));
#269 = ADVANCED_FACE('',(#270),#450,.F.);
#270 = FACE_BOUND('',#271,.F.);
#271 = EDGE_LOOP('',(#272,#279,#280,#287,#343,#362,#367,#368,#375,#396)
  );
#272 = ORIENTED_EDGE('',*,*,#273,.F.);
#273 = EDGE_CURVE('',#217,#274,#276,.T.);
#274 = VERTEX_POINT('',#275);
#275 = CARTESIAN_POINT('',(45.754502242906,-43.09081169079,
    10.091464091484));
#276 = B_SPLINE_CURVE_WITH_KNOTS('',1,(#277,#278),.UNSPECIFIED.,.F.,.F.,
  (2,2),(0.,1.),.PIECEWISE_BEZIER_KNOTS.);
#277 = CARTESIAN_POINT('',(34.66369055211,-32.,-1.));
#278 = CARTESIAN_POINT('',(51.66369055211,-49.,16.001));
#279 = ORIENTED_EDGE('',*,*,#214,.F.);
#280 = ORIENTED_EDGE('',*,*,#281,.T.);
#281 = EDGE_CURVE('',#215,#282,#284,.T.);
#282 = VERTEX_POINT('',#283);
#283 = CARTESIAN_POINT('',(45.754502242906,43.090811690796,
    10.091464091484));
#284 = B_SPLINE_CURVE_WITH_KNOTS('',1,(#285,#286),.UNSPECIFIED.,.F.,.F.,
  (2,2),(0.,1.),.PIECEWISE_BEZIER_KNOTS.);
#285 = CARTESIAN_POINT('',(34.66369055211,32.,-1.));
#286 = CARTESIAN_POINT('',(51.66369055211,49.,16.001));
#287 = ORIENTED_EDGE('',*,*,#288,.T.);
#288 = EDGE_CURVE('',#282,#289,#291,.T.);
#289 = VERTEX_POINT('',#290);
#290 = CARTESIAN_POINT('',(50.36369055211,45.,14.700923529412));
#291 = B_SPLINE_CURVE_WITH_KNOTS('',8,(#292,#293,#294,#295,#296,#297,
    #298,#299,#300,#301,#302,#303,#304,#305,#306,#307,#308,#309,#310,
    #311,#312,#313,#314,#315,#316,#317,#318,#319,#320,#321,#322,#323,
    #324,#325,#326,#327,#328,#329,#330,#331,#332,#333,#334,#335,#336,
    #337,#338,#339,#340,#341,#342),.UNSPECIFIED.,.F.,.F.,(9,7,7,7,7,7,7,
    9),(0.,0.131616926267,0.466896086551,0.569411642791,0.682154933328,
    0.759037687075,0.868460459222,1.),.UNSPECIFIED.);
#292 = CARTESIAN_POINT('',(45.754502242906,43.090811690796,
    10.091464091484));
#293 = CARTESIAN_POINT('',(45.814808031568,43.030505902134,
    10.151773427545));
#294 = CARTESIAN_POINT('',(45.87693358439,42.972734076374,
    10.213902634811));
#295 = CARTESIAN_POINT('',(45.940809912324,42.917475937958,
    10.277782720177));
#296 = CARTESIAN_POINT('',(46.006375006536,42.864721160272,
    10.343351671158));
#297 = CARTESIAN_POINT('',(46.073573300961,42.8144685388,10.410553918424
    ));
#298 = CARTESIAN_POINT('',(46.142355134871,42.766725164285,
    10.479339798325));
#299 = CARTESIAN_POINT('',(46.212676215435,42.721505595882,
    10.549665015423));
#300 = CARTESIAN_POINT('',(46.467452570415,42.57012243905,
    10.804456357248));
#301 = CARTESIAN_POINT('',(46.659937786121,42.478051146171,
    10.996952895614));
#302 = CARTESIAN_POINT('',(46.861489309725,42.402777108209,
    11.198516275189));
#303 = CARTESIAN_POINT('',(47.071657414023,42.345071419901,
    11.408696742317));
#304 = CARTESIAN_POINT('',(47.28988823144,42.306043454178,11.62694039684
    ));
#305 = CARTESIAN_POINT('',(47.515536446228,42.28727848059,
    11.852601885053));
#306 = CARTESIAN_POINT('',(47.747801870827,42.290670078493,
    12.084880972324));
#307 = CARTESIAN_POINT('',(48.058791175347,42.328057777606,
    12.395888570333));
#308 = CARTESIAN_POINT('',(48.132138039854,42.339169028743,
    12.469239749361));
#309 = CARTESIAN_POINT('',(48.205979421141,42.352721422632,
    12.543085474259));
#310 = CARTESIAN_POINT('',(48.280276812809,42.368806452082,
    12.617387236362));
#311 = CARTESIAN_POINT('',(48.354983124638,42.387523192005,
    12.692097942679));
#312 = CARTESIAN_POINT('',(48.430042610779,42.408979115926,
    12.767161844084));
#313 = CARTESIAN_POINT('',(48.505390797946,42.433290912497,
    12.842514463498));
#314 = CARTESIAN_POINT('',(48.664056832285,42.490602788128,
    13.001189831133));
#315 = CARTESIAN_POINT('',(48.747403162015,42.524221948452,
    13.084541063588));
#316 = CARTESIAN_POINT('',(48.830906494681,42.561613515341,
    13.168049308215));
#317 = CARTESIAN_POINT('',(48.914443396516,42.602958729919,
    13.251591123986));
#318 = CARTESIAN_POINT('',(48.997853748165,42.648444686104,
    13.335006382126));
#319 = CARTESIAN_POINT('',(49.080940542627,42.698260779016,
    13.418098064046));
#320 = CARTESIAN_POINT('',(49.163469641061,42.75259625776,
    13.500632017133));
#321 = CARTESIAN_POINT('',(49.300882860329,42.851901673967,
    13.638053319531));
#322 = CARTESIAN_POINT('',(49.356201509649,42.894347101386,
    13.69337522289));
#323 = CARTESIAN_POINT('',(49.411035488956,42.939029800395,
    13.748212427725));
#324 = CARTESIAN_POINT('',(49.465277736718,42.985997743906,
    13.802457866207));
#325 = CARTESIAN_POINT('',(49.518805421267,43.03528822098,
    13.855988699444));
#326 = CARTESIAN_POINT('',(49.571481286709,43.086923815604,
    13.908667663466));
#327 = CARTESIAN_POINT('',(49.623154998838,43.140908385471,
    13.960344415225));
#328 = CARTESIAN_POINT('',(49.745551726985,43.277372429193,
    14.082748343179));
#329 = CARTESIAN_POINT('',(49.815133025792,43.36229899088,
    14.152333735004));
#330 = CARTESIAN_POINT('',(49.88185965304,43.451874203389,
    14.219064287348));
#331 = CARTESIAN_POINT('',(49.945177191686,43.545869966194,
    14.282385550555));
#332 = CARTESIAN_POINT('',(50.004537968589,43.643943552312,
    14.341749819268));
#333 = CARTESIAN_POINT('',(50.05942472131,43.745614618872,
    14.396639800622));
#334 = CARTESIAN_POINT('',(50.10938550519,43.850234276633,
    14.446603523372));
#335 = CARTESIAN_POINT('',(50.207807892502,44.085227009945,
    14.545031700236));
#336 = CARTESIAN_POINT('',(50.253978416336,44.216657111636,
    14.591204939983));
#337 = CARTESIAN_POINT('',(50.291974153413,44.349753759619,
    14.629202912104));
#338 = CARTESIAN_POINT('',(50.321666949568,44.483195476374,
    14.658897454893));
#339 = CARTESIAN_POINT('',(50.343237368759,44.615829996687,
    14.680469142932));
#340 = CARTESIAN_POINT('',(50.357070724234,44.746679499474,
    14.694303312134));
#341 = CARTESIAN_POINT('',(50.36369055211,44.874943530371,
    14.700923529412));
#342 = CARTESIAN_POINT('',(50.36369055211,45.,14.700923529412));
#343 = ORIENTED_EDGE('',*,*,#344,.T.);
#344 = EDGE_CURVE('',#289,#345,#347,.T.);
#345 = VERTEX_POINT('',#346);
#346 = CARTESIAN_POINT('',(49.572878861314,46.909188309204,
    13.910065320281));
#347 = B_SPLINE_CURVE_WITH_KNOTS('',7,(#348,#349,#350,#351,#352,#353,
    #354,#355,#356,#357,#358,#359,#360,#361),.UNSPECIFIED.,.F.,.F.,(8,6,
    8),(0.,0.629623127652,1.),.UNSPECIFIED.);
#348 = CARTESIAN_POINT('',(50.36369055211,45.,14.700923529412));
#349 = CARTESIAN_POINT('',(50.36369055211,45.230602962555,
    14.700923529412));
#350 = CARTESIAN_POINT('',(50.340713314602,45.449945495493,
    14.677944940302));
#351 = CARTESIAN_POINT('',(50.298792114791,45.656525381981,
    14.636021274538));
#352 = CARTESIAN_POINT('',(50.241359814457,45.849641240754,
    14.578585595833));
#353 = CARTESIAN_POINT('',(50.17131301784,46.029410509177,
    14.508534678817));
#354 = CARTESIAN_POINT('',(50.090748337849,46.196512996644,
    14.427965259727));
#355 = CARTESIAN_POINT('',(49.947922805332,46.443413935838,
    14.285131325708));
#356 = CARTESIAN_POINT('',(49.89184648465,46.530721506823,
    14.229051706418));
#357 = CARTESIAN_POINT('',(49.832895447556,46.614020579644,
    14.170097201616));
#358 = CARTESIAN_POINT('',(49.771324323505,46.693420692369,
    14.108522455734));
#359 = CARTESIAN_POINT('',(49.70734918863,46.769021186464,
    14.044543557616));
#360 = CARTESIAN_POINT('',(49.641151792093,46.840915378424,
    13.978342267115));
#361 = CARTESIAN_POINT('',(49.572878861314,46.909188309204,
    13.910065320281));
#362 = ORIENTED_EDGE('',*,*,#363,.T.);
#363 = EDGE_CURVE('',#345,#111,#364,.T.);
#364 = B_SPLINE_CURVE_WITH_KNOTS('',1,(#365,#366),.UNSPECIFIED.,.F.,.F.,
  (2,2),(0.,1.),.PIECEWISE_BEZIER_KNOTS.);
#365 = CARTESIAN_POINT('',(34.66369055211,32.,-1.));
#366 = CARTESIAN_POINT('',(51.66369055211,49.,16.001));
#367 = ORIENTED_EDGE('',*,*,#110,.T.);
#368 = ORIENTED_EDGE('',*,*,#369,.F.);
#369 = EDGE_CURVE('',#370,#113,#372,.T.);
#370 = VERTEX_POINT('',#371);
#371 = CARTESIAN_POINT('',(49.572878861314,-46.9091883092,
    13.910065320281));
#372 = B_SPLINE_CURVE_WITH_KNOTS('',1,(#373,#374),.UNSPECIFIED.,.F.,.F.,
  (2,2),(0.,1.),.PIECEWISE_BEZIER_KNOTS.);
#373 = CARTESIAN_POINT('',(34.66369055211,-32.,-1.));
#374 = CARTESIAN_POINT('',(51.66369055211,-49.,16.001));
#375 = ORIENTED_EDGE('',*,*,#376,.T.);
#376 = EDGE_CURVE('',#370,#377,#379,.T.);
#377 = VERTEX_POINT('',#378);
#378 = CARTESIAN_POINT('',(50.36369055211,-45.,14.700923529412));
#379 = B_SPLINE_CURVE_WITH_KNOTS('',8,(#380,#381,#382,#383,#384,#385,
    #386,#387,#388,#389,#390,#391,#392,#393,#394,#395),.UNSPECIFIED.,.F.
  ,.F.,(9,7,9),(0.,0.356269710829,1.),.UNSPECIFIED.);
#380 = CARTESIAN_POINT('',(49.572878861313,-46.9091883092,
    13.910065320281));
#381 = CARTESIAN_POINT('',(49.630344414427,-46.85172275609,
    13.967534253721));
#382 = CARTESIAN_POINT('',(49.686369934049,-46.79174363555,
    14.023563068962));
#383 = CARTESIAN_POINT('',(49.740873373251,-46.72920392572,
    14.078069714248));
#384 = CARTESIAN_POINT('',(49.793757934087,-46.66405301791,
    14.130957385941));
#385 = CARTESIAN_POINT('',(49.844912214193,-46.59623731756,
    14.182114675122));
#386 = CARTESIAN_POINT('',(49.894209398653,-46.52569959061,
    14.231414759416));
#387 = CARTESIAN_POINT('',(49.94150549717,-46.45237705507,
    14.278713640057));
#388 = CARTESIAN_POINT('',(50.068182360157,-46.23855355368,
    14.405397954624));
#389 = CARTESIAN_POINT('',(50.142510846274,-46.09183513767,
    14.479730813004));
#390 = CARTESIAN_POINT('',(50.208888164015,-45.93536372961,
    14.546112035295));
#391 = CARTESIAN_POINT('',(50.266060303452,-45.76862744874,
    14.603287537798));
#392 = CARTESIAN_POINT('',(50.312346390637,-45.59139291047,
    14.649576347694));
#393 = CARTESIAN_POINT('',(50.345672674226,-45.40376967391,
    14.682904591653));
#394 = CARTESIAN_POINT('',(50.36369055211,-45.20631923567,
    14.700923529412));
#395 = CARTESIAN_POINT('',(50.36369055211,-45.,14.700923529412));
#396 = ORIENTED_EDGE('',*,*,#397,.T.);
#397 = EDGE_CURVE('',#377,#274,#398,.T.);
#398 = B_SPLINE_CURVE_WITH_KNOTS('',8,(#399,#400,#401,#402,#403,#404,
    #405,#406,#407,#408,#409,#410,#411,#412,#413,#414,#415,#416,#417,
    #418,#419,#420,#421,#422,#423,#424,#425,#426,#427,#428,#429,#430,
    #431,#432,#433,#434,#435,#436,#437,#438,#439,#440,#441,#442,#443,
    #444,#445,#446,#447,#448,#449),.UNSPECIFIED.,.F.,.F.,(9,7,7,7,7,7,7,
    9),(0.,0.134904363065,0.242979444788,0.316403812597,0.429050736347,
    0.530445873123,0.869688342061,1.),.UNSPECIFIED.);
#399 = CARTESIAN_POINT('',(50.36369055211,-45.,14.700923529412));
#400 = CARTESIAN_POINT('',(50.36369055211,-44.87175928063,
    14.700923529412));
#401 = CARTESIAN_POINT('',(50.356729309744,-44.74012097447,
    14.693961877561));
#402 = CARTESIAN_POINT('',(50.342161976183,-44.60577301488,
    14.679393687099));
#403 = CARTESIAN_POINT('',(50.319426031297,-44.46959546471,
    14.656656404804));
#404 = CARTESIAN_POINT('',(50.288116672269,-44.33265928379,
    14.625345204049));
#405 = CARTESIAN_POINT('',(50.248060096196,-44.19622126498,
    14.585286271706));
#406 = CARTESIAN_POINT('',(50.199428543251,-44.06171525768,
    14.536651858081));
#407 = CARTESIAN_POINT('',(50.097687431275,-43.82581225339,
    14.434904761335));
#408 = CARTESIAN_POINT('',(50.047355034769,-43.72306562984,
    14.384569404099));
#409 = CARTESIAN_POINT('',(49.992291320171,-43.62330657847,
    14.329502450459));
#410 = CARTESIAN_POINT('',(49.93294411411,-43.5271412836,14.270151753386
    ));
#411 = CARTESIAN_POINT('',(49.869817959907,-43.43501376076,
    14.20702188588));
#412 = CARTESIAN_POINT('',(49.803441121049,-43.34723632931,
    14.140641142502));
#413 = CARTESIAN_POINT('',(49.734343155402,-43.26401225943,
    14.071539112269));
#414 = CARTESIAN_POINT('',(49.614602991167,-43.13207713723,
    13.951791904495));
#415 = CARTESIAN_POINT('',(49.565124263421,-43.08083157908,
    13.902310266236));
#416 = CARTESIAN_POINT('',(49.514746816883,-43.03172779063,
    13.851929856318));
#417 = CARTESIAN_POINT('',(49.463600629829,-42.98476103927,
    13.800780660665));
#418 = CARTESIAN_POINT('',(49.411804656224,-42.93991118881,
    13.748981640238));
#419 = CARTESIAN_POINT('',(49.359465763062,-42.89714590004,
    13.696639668318));
#420 = CARTESIAN_POINT('',(49.306677667722,-42.85642383123,
    13.643848467796));
#421 = CARTESIAN_POINT('',(49.17196572692,-42.75828481204,
    13.509128602762));
#422 = CARTESIAN_POINT('',(49.0895611296,-42.7035839095,13.426719158113)
  );
#423 = CARTESIAN_POINT('',(49.006580575063,-42.65340922496,
    13.343733722366));
#424 = CARTESIAN_POINT('',(48.923260798008,-42.60757250572,
    13.260409044148));
#425 = CARTESIAN_POINT('',(48.839801036163,-42.56588475119,
    13.176944372905));
#426 = CARTESIAN_POINT('',(48.756363252062,-42.52815885363,
    13.093501680699));
#427 = CARTESIAN_POINT('',(48.673072316574,-42.49421328088,
    13.010205845745));
#428 = CARTESIAN_POINT('',(48.515256092692,-42.43657049418,
    12.852380338556));
#429 = CARTESIAN_POINT('',(48.440699763579,-42.41219301992,
    12.777819623776));
#430 = CARTESIAN_POINT('',(48.366419134475,-42.39062115314,
    12.703534625223));
#431 = CARTESIAN_POINT('',(48.292477567989,-42.37174126732,
    12.629588709233));
#432 = CARTESIAN_POINT('',(48.218929893375,-42.35544856519,
    12.556036708286));
#433 = CARTESIAN_POINT('',(48.145822478206,-42.34164630919,
    12.48292499268));
#434 = CARTESIAN_POINT('',(48.073193300033,-42.33024505187,
    12.410291542202));
#435 = CARTESIAN_POINT('',(47.759772459371,-42.29077182602,
    12.09685226502));
#436 = CARTESIAN_POINT('',(47.524467424943,-42.28637050845,
    11.861533389119));
#437 = CARTESIAN_POINT('',(47.295904442293,-42.3047184812,
    11.632956961589));
#438 = CARTESIAN_POINT('',(47.074921997275,-42.34384904849,
    11.411961517602));
#439 = CARTESIAN_POINT('',(46.862190887723,-42.40210853503,
    11.199217894457));
#440 = CARTESIAN_POINT('',(46.658284997753,-42.47834760824,
    10.995300010022));
#441 = CARTESIAN_POINT('',(46.463666479826,-42.57176766582,
    10.800670043947));
#442 = CARTESIAN_POINT('',(46.207806094899,-42.72464454299,
    10.544794608409));
#443 = CARTESIAN_POINT('',(46.138271782492,-42.76956483509,
    10.475256205749));
#444 = CARTESIAN_POINT('',(46.070248570823,-42.81695849713,
    10.407228992714));
#445 = CARTESIAN_POINT('',(46.003779628406,-42.86681171115,
    10.340756140359));
#446 = CARTESIAN_POINT('',(45.938913310244,-42.91911784001,
    10.275886006532));
#447 = CARTESIAN_POINT('',(45.87570367184,-42.97387821952,
    10.212672649913));
#448 = CARTESIAN_POINT('',(45.814210983211,-43.03110295049,
    10.151176344068));
#449 = CARTESIAN_POINT('',(45.754502242906,-43.09081169079,
    10.091464091484));
#450 = B_SPLINE_SURFACE_WITH_KNOTS('',1,1,(
    (#451,#452)
    ,(#453,#454
  )),.UNSPECIFIED.,.F.,.F.,.F.,(2,2),(2,2),(0.,98.),(0.,1.),
  .PIECEWISE_BEZIER_KNOTS.);
#451 = CARTESIAN_POINT('',(34.66369055211,-32.,-1.));
#452 = CARTESIAN_POINT('',(51.66369055211,-49.,16.001));
#453 = CARTESIAN_POINT('',(34.66369055211,32.,-1.));
#454 = CARTESIAN_POINT('',(51.66369055211,49.,16.001));
#455 = ADVANCED_FACE('',(#456),#610,.F.);
#456 = FACE_BOUND('',#457,.F.);
#457 = EDGE_LOOP('',(#458,#459,#460,#467,#486,#535,#540,#541,#542));
#458 = ORIENTED_EDGE('',*,*,#281,.F.);
#459 = ORIENTED_EDGE('',*,*,#237,.F.);
#460 = ORIENTED_EDGE('',*,*,#461,.T.);
#461 = EDGE_CURVE('',#231,#462,#464,.T.);
#462 = VERTEX_POINT('',#463);
#463 = CARTESIAN_POINT('',(-45.7545022429,43.090811690796,
    10.091464091484));
#464 = B_SPLINE_CURVE_WITH_KNOTS('',1,(#465,#466),.UNSPECIFIED.,.F.,.F.,
  (2,2),(0.,1.),.PIECEWISE_BEZIER_KNOTS.);
#465 = CARTESIAN_POINT('',(-34.66369055211,32.,-1.));
#466 = CARTESIAN_POINT('',(-51.66369055211,49.,16.001));
#467 = ORIENTED_EDGE('',*,*,#468,.T.);
#468 = EDGE_CURVE('',#462,#469,#471,.T.);
#469 = VERTEX_POINT('',#470);
#470 = CARTESIAN_POINT('',(-44.96369055211,45.,12.000764705882));
#471 = B_SPLINE_CURVE_WITH_KNOTS('',7,(#472,#473,#474,#475,#476,#477,
    #478,#479,#480,#481,#482,#483,#484,#485),.UNSPECIFIED.,.F.,.F.,(8,6,
    8),(0.,0.330183132972,1.),.UNSPECIFIED.);
#472 = CARTESIAN_POINT('',(-45.7545022429,43.090811690796,
    10.091464091484));
#473 = CARTESIAN_POINT('',(-45.68361586172,43.161698071978,
    10.162354642453));
#474 = CARTESIAN_POINT('',(-45.61631825031,43.235136418088,
    10.235797308465));
#475 = CARTESIAN_POINT('',(-45.55257180435,43.31100448244,
    10.311669835645));
#476 = CARTESIAN_POINT('',(-45.49236098424,43.389195779584,
    10.389865732277));
#477 = CARTESIAN_POINT('',(-45.43568982638,43.46961796299,10.4702926464)
  );
#478 = CARTESIAN_POINT('',(-45.38257945458,43.552191202733,
    10.552870743392));
#479 = CARTESIAN_POINT('',(-45.23262066419,43.8085803153,10.809274937671
    ));
#480 = CARTESIAN_POINT('',(-45.14702948864,43.988793370307,
    10.989498593447));
#481 = CARTESIAN_POINT('',(-45.07651556294,44.177001142369,
    11.177717436554));
#482 = CARTESIAN_POINT('',(-45.02174023234,44.372744810778,
    11.373472619297));
#483 = CARTESIAN_POINT('',(-44.98370461501,44.575525998023,
    11.576265734846));
#484 = CARTESIAN_POINT('',(-44.96369055211,44.78477975924,
    11.785531805108));
#485 = CARTESIAN_POINT('',(-44.96369055211,45.,12.000764705882));
#486 = ORIENTED_EDGE('',*,*,#487,.T.);
#487 = EDGE_CURVE('',#469,#488,#490,.T.);
#488 = VERTEX_POINT('',#489);
#489 = CARTESIAN_POINT('',(-49.57287886131,46.909188309204,
    13.910065320281));
#490 = B_SPLINE_CURVE_WITH_KNOTS('',7,(#491,#492,#493,#494,#495,#496,
    #497,#498,#499,#500,#501,#502,#503,#504,#505,#506,#507,#508,#509,
    #510,#511,#512,#513,#514,#515,#516,#517,#518,#519,#520,#521,#522,
    #523,#524,#525,#526,#527,#528,#529,#530,#531,#532,#533,#534),
  .UNSPECIFIED.,.F.,.F.,(8,6,6,6,6,6,6,8),(0.,0.154893400519,
    0.309581281478,0.382259286167,0.493119424779,0.67271519366,
    0.875993331269,1.),.UNSPECIFIED.);
#491 = CARTESIAN_POINT('',(-44.96369055211,45.,12.000764705882));
#492 = CARTESIAN_POINT('',(-44.96369055211,45.113042112321,
    12.11381346774));
#493 = CARTESIAN_POINT('',(-44.96921230082,45.227685923714,
    12.228464022886));
#494 = CARTESIAN_POINT('',(-44.98053656583,45.343852428799,
    12.344637361295));
#495 = CARTESIAN_POINT('',(-44.99800087638,45.461418522925,
    12.462210371073));
#496 = CARTESIAN_POINT('',(-45.02198987183,45.580214193214,
    12.581013029343));
#497 = CARTESIAN_POINT('',(-45.05294691139,45.700022644087,
    12.700828527772));
#498 = CARTESIAN_POINT('',(-45.12981594873,45.940984105066,
    12.941804162954));
#499 = CARTESIAN_POINT('',(-45.17568564954,46.062063764973,
    13.062890945194));
#500 = CARTESIAN_POINT('',(-45.22955121932,46.183617414853,
    13.18445174529));
#501 = CARTESIAN_POINT('',(-45.2920162667,46.305251102317,
    13.306092587676));
#502 = CARTESIAN_POINT('',(-45.36370810437,46.426380635834,
    13.42722924646));
#503 = CARTESIAN_POINT('',(-45.44525192275,46.546229197684,
    13.547084858225));
#504 = CARTESIAN_POINT('',(-45.58049443693,46.719073999123,
    13.719939827006));
#505 = CARTESIAN_POINT('',(-45.62602261886,46.773809483937,
    13.774678531554));
#506 = CARTESIAN_POINT('',(-45.67390071614,46.82791908273,
    13.828791313264));
#507 = CARTESIAN_POINT('',(-45.72416981228,46.881270630941,
    13.882145999802));
#508 = CARTESIAN_POINT('',(-45.77685333111,46.933713354511,
    13.934591808238));
#509 = CARTESIAN_POINT('',(-45.83195059375,46.985080274489,13.9859617498
    ));
#510 = CARTESIAN_POINT('',(-45.97710774914,47.11162692751,
    14.112515846741));
#511 = CARTESIAN_POINT('',(-46.07038943579,47.185193361097,
    14.186086607765));
#512 = CARTESIAN_POINT('',(-46.16907536598,47.255152702733,
    14.256050064656));
#513 = CARTESIAN_POINT('',(-46.27280352424,47.320762779951,
    14.321664001291));
#514 = CARTESIAN_POINT('',(-46.38101877917,47.381303780612,
    14.382208563187));
#515 = CARTESIAN_POINT('',(-46.49291939986,47.436137127211,
    14.437045135277));
#516 = CARTESIAN_POINT('',(-46.79281189024,47.563624147105,
    14.564539654408));
#517 = CARTESIAN_POINT('',(-46.9851609797,47.626330892417,
    14.627250088352));
#518 = CARTESIAN_POINT('',(-47.1795001506,47.670806405982,
    14.671728218124));
#519 = CARTESIAN_POINT('',(-47.3718958615,47.697599233509,
    14.698522621699));
#520 = CARTESIAN_POINT('',(-47.55938065967,47.70815714589,
    14.709081155134));
#521 = CARTESIAN_POINT('',(-47.73991147631,47.704472434175,
    14.705396226671));
#522 = CARTESIAN_POINT('',(-48.10747452473,47.670480237538,
    14.671402030493));
#523 = CARTESIAN_POINT('',(-48.29263415877,47.636689947821,
    14.637609753112));
#524 = CARTESIAN_POINT('',(-48.46744994027,47.589787191334,
    14.590704237639));
#525 = CARTESIAN_POINT('',(-48.63179904045,47.531888789748,
    14.532802430265));
#526 = CARTESIAN_POINT('',(-48.7859099874,47.464767128874,
    14.465676821058));
#527 = CARTESIAN_POINT('',(-48.93024526993,47.389739151636,
    14.39064443041));
#528 = CARTESIAN_POINT('',(-49.14788074977,47.257540308119,
    14.25843781049));
#529 = CARTESIAN_POINT('',(-49.22687377815,47.204851186793,
    14.205745589804));
#530 = CARTESIAN_POINT('',(-49.30249751879,47.149785758323,
    14.150676922191));
#531 = CARTESIAN_POINT('',(-49.37483620919,47.092534858242,
    14.09342265441));
#532 = CARTESIAN_POINT('',(-49.44396619958,47.03326247006,
    14.034146779617));
#533 = CARTESIAN_POINT('',(-49.50995872889,46.972108441624,
    13.972989153885));
#534 = CARTESIAN_POINT('',(-49.57287886131,46.909188309204,
    13.910065320281));
#535 = ORIENTED_EDGE('',*,*,#536,.T.);
#536 = EDGE_CURVE('',#488,#127,#537,.T.);
#537 = B_SPLINE_CURVE_WITH_KNOTS('',1,(#538,#539),.UNSPECIFIED.,.F.,.F.,
  (2,2),(0.,1.),.PIECEWISE_BEZIER_KNOTS.);
#538 = CARTESIAN_POINT('',(-34.66369055211,32.,-1.));
#539 = CARTESIAN_POINT('',(-51.66369055211,49.,16.001));
#540 = ORIENTED_EDGE('',*,*,#133,.T.);
#541 = ORIENTED_EDGE('',*,*,#363,.F.);
#542 = ORIENTED_EDGE('',*,*,#543,.T.);
#543 = EDGE_CURVE('',#345,#282,#544,.T.);
#544 = B_SPLINE_CURVE_WITH_KNOTS('',8,(#545,#546,#547,#548,#549,#550,
    #551,#552,#553,#554,#555,#556,#557,#558,#559,#560,#561,#562,#563,
    #564,#565,#566,#567,#568,#569,#570,#571,#572,#573,#574,#575,#576,
    #577,#578,#579,#580,#581,#582,#583,#584,#585,#586,#587,#588,#589,
    #590,#591,#592,#593,#594,#595,#596,#597,#598,#599,#600,#601,#602,
    #603,#604,#605,#606,#607,#608,#609),.UNSPECIFIED.,.F.,.F.,(9,7,7,7,7
    ,7,7,7,7,9),(0.,8.601078774917E-02,0.228364968208,0.353533840008,
    0.431918596957,0.489165107601,0.571473481068,0.647284664195,
    0.900218985111,1.),.UNSPECIFIED.);
#545 = CARTESIAN_POINT('',(49.572878861313,46.909188309204,
    13.910065320281));
#546 = CARTESIAN_POINT('',(49.517912546221,46.964154624297,
    13.965034868686));
#547 = CARTESIAN_POINT('',(49.460649359821,47.017800632199,
    14.018684032236));
#548 = CARTESIAN_POINT('',(49.401048836871,47.070054466932,
    14.070940940724));
#549 = CARTESIAN_POINT('',(49.339067444265,47.120832188799,
    14.121721649516));
#550 = CARTESIAN_POINT('',(49.27465897421,47.17003784842,14.170930203587
    ));
#551 = CARTESIAN_POINT('',(49.207773987843,47.217562835221,
    14.218457985976));
#552 = CARTESIAN_POINT('',(49.138358309306,47.263284510386,
    14.264182350652));
#553 = CARTESIAN_POINT('',(48.947172465481,47.379522605528,
    14.380427283329));
#554 = CARTESIAN_POINT('',(48.821016821308,47.446586824108,
    14.447495446863));
#555 = CARTESIAN_POINT('',(48.687488392752,47.507731063056,
    14.508643282531));
#556 = CARTESIAN_POINT('',(48.546270827591,47.562174819137,
    14.563090241185));
#557 = CARTESIAN_POINT('',(48.397158766742,47.608897038041,
    14.609815208455));
#558 = CARTESIAN_POINT('',(48.240099499543,47.646670271131,14.6475906635
    ));
#559 = CARTESIAN_POINT('',(48.075208336341,47.674068009605,
    14.674990013606));
#560 = CARTESIAN_POINT('',(47.751058330489,47.702878169747,
    14.703801868463));
#561 = CARTESIAN_POINT('',(47.593190049695,47.707056957898,
    14.707980902425));
#562 = CARTESIAN_POINT('',(47.429938088587,47.700652032582,
    14.701575600348));
#563 = CARTESIAN_POINT('',(47.262563691288,47.682407048378,
    14.68332954291));
#564 = CARTESIAN_POINT('',(47.092770007295,47.651298392049,
    14.65221905666));
#565 = CARTESIAN_POINT('',(46.92269936598,47.606691542392,
    14.607609583071));
#566 = CARTESIAN_POINT('',(46.754924220244,47.548623424881,
    14.549538049789));
#567 = CARTESIAN_POINT('',(46.490670728006,47.434402196443,
    14.435310102454));
#568 = CARTESIAN_POINT('',(46.390978986097,47.385644022007,
    14.386549059891));
#569 = CARTESIAN_POINT('',(46.294089846159,47.332431624521,
    14.333333532263));
#570 = CARTESIAN_POINT('',(46.20056138756,47.275173530222,
    14.276072069841));
#571 = CARTESIAN_POINT('',(46.11080729627,47.214329787279,
    14.215224747854));
#572 = CARTESIAN_POINT('',(46.025123032691,47.150383310323,
    14.151274509341));
#573 = CARTESIAN_POINT('',(45.94370545368,47.083820115773,
    14.084707399309));
#574 = CARTESIAN_POINT('',(45.810401808288,46.964943759535,
    13.965824050344));
#575 = CARTESIAN_POINT('',(45.756448924195,46.913606665961,
    13.914483936941));
#576 = CARTESIAN_POINT('',(45.704826932259,46.861268110178,
    13.86214230242));
#577 = CARTESIAN_POINT('',(45.655532765753,46.808077418081,
    13.808948481458));
#578 = CARTESIAN_POINT('',(45.608544604273,46.754170941068,
    13.755038833476));
#579 = CARTESIAN_POINT('',(45.56382588256,46.699670698585,
    13.700535385097));
#580 = CARTESIAN_POINT('',(45.521329299322,46.644683020674,
    13.645544472616));
#581 = CARTESIAN_POINT('',(45.423017011815,46.509664082009,
    13.510517591661));
#582 = CARTESIAN_POINT('',(45.369527845494,46.429226027922,
    13.430074805924));
#583 = CARTESIAN_POINT('',(45.320359007586,46.348238050865,
    13.349082064868));
#584 = CARTESIAN_POINT('',(45.275334149707,46.266920490124,
    13.267759720741));
#585 = CARTESIAN_POINT('',(45.234276341631,46.185459232445,
    13.186293671224));
#586 = CARTESIAN_POINT('',(45.197010441193,46.104005905058,
    13.104835552464));
#587 = CARTESIAN_POINT('',(45.163366387071,46.022678030951,
    13.023502894365));
#588 = CARTESIAN_POINT('',(45.105383000333,45.866843557282,
    12.867659253962));
#589 = CARTESIAN_POINT('',(45.080523471818,45.792318358,12.793129670844)
  );
#590 = CARTESIAN_POINT('',(45.058480803045,45.718056194794,
    12.718863139276));
#591 = CARTESIAN_POINT('',(45.039140700314,45.644120988959,
    12.644923584311));
#592 = CARTESIAN_POINT('',(45.022397813995,45.570568008853,
    12.57136627756));
#593 = CARTESIAN_POINT('',(45.008154950462,45.497443941913,
    12.498237909204));
#594 = CARTESIAN_POINT('',(44.996322284014,45.424786966674,
    12.425576660025));
#595 = CARTESIAN_POINT('',(44.955101965249,45.111873736226,
    12.112645022917));
#596 = CARTESIAN_POINT('',(44.949331562622,44.876960456143,
    11.877717924405));
#597 = CARTESIAN_POINT('',(44.96627851546,44.648630341147,
    11.649374378225));
#598 = CARTESIAN_POINT('',(45.003994282146,44.427719629087,
    11.428450671419));
#599 = CARTESIAN_POINT('',(45.060842515315,44.214900340132,
    11.21561886368));
#600 = CARTESIAN_POINT('',(45.135690073568,44.010749360441,
    11.011455875109));
#601 = CARTESIAN_POINT('',(45.227752131147,43.815733074484,
    10.816428117606));
#602 = CARTESIAN_POINT('',(45.379941452554,43.557192654769,
    10.557872489631));
#603 = CARTESIAN_POINT('',(45.425631727156,43.485583440161,
    10.486259062716));
#604 = CARTESIAN_POINT('',(45.473937702859,43.415546436809,
    10.41621793954));
#605 = CARTESIAN_POINT('',(45.52484522653,43.347128814246,
    10.347796292411));
#606 = CARTESIAN_POINT('',(45.578348025509,43.280383570832,
    10.281047122807));
#607 = CARTESIAN_POINT('',(45.634448597525,43.215370112768,
    10.216029840422));
#608 = CARTESIAN_POINT('',(45.693159100589,43.152154833114,
    10.152810842221));
#609 = CARTESIAN_POINT('',(45.754502242906,43.090811690796,
    10.091464091484));
#610 = B_SPLINE_SURFACE_WITH_KNOTS('',1,1,(
    (#611,#612)
    ,(#613,#614
    )),.UNSPECIFIED.,.F.,.F.,.F.,(2,2),(2,2),(0.,103.32738110422),(0.,1.
    ),.PIECEWISE_BEZIER_KNOTS.);
#611 = CARTESIAN_POINT('',(34.66369055211,32.,-1.));
#612 = CARTESIAN_POINT('',(51.66369055211,49.,16.001));
#613 = CARTESIAN_POINT('',(-34.66369055211,32.,-1.));
#614 = CARTESIAN_POINT('',(-51.66369055211,49.,16.001));
#615 = ADVANCED_FACE('',(#616),#772,.F.);
#616 = FACE_BOUND('',#617,.F.);
#617 = EDGE_LOOP('',(#618,#619,#620,#627,#697,#702,#703,#704));
#618 = ORIENTED_EDGE('',*,*,#461,.F.);
#619 = ORIENTED_EDGE('',*,*,#230,.F.);
#620 = ORIENTED_EDGE('',*,*,#621,.T.);
#621 = EDGE_CURVE('',#224,#622,#624,.T.);
#622 = VERTEX_POINT('',#623);
#623 = CARTESIAN_POINT('',(-45.7545022429,-43.09081169079,
    10.091464091484));
#624 = B_SPLINE_CURVE_WITH_KNOTS('',1,(#625,#626),.UNSPECIFIED.,.F.,.F.,
  (2,2),(0.,1.),.PIECEWISE_BEZIER_KNOTS.);
#625 = CARTESIAN_POINT('',(-34.66369055211,-32.,-1.));
#626 = CARTESIAN_POINT('',(-51.66369055211,-49.,16.001));
#627 = ORIENTED_EDGE('',*,*,#628,.T.);
#628 = EDGE_CURVE('',#622,#629,#631,.T.);
#629 = VERTEX_POINT('',#630);
#630 = CARTESIAN_POINT('',(-49.57287886131,-46.9091883092,
    13.910065320281));
#631 = B_SPLINE_CURVE_WITH_KNOTS('',8,(#632,#633,#634,#635,#636,#637,
    #638,#639,#640,#641,#642,#643,#644,#645,#646,#647,#648,#649,#650,
    #651,#652,#653,#654,#655,#656,#657,#658,#659,#660,#661,#662,#663,
    #664,#665,#666,#667,#668,#669,#670,#671,#672,#673,#674,#675,#676,
    #677,#678,#679,#680,#681,#682,#683,#684,#685,#686,#687,#688,#689,
    #690,#691,#692,#693,#694,#695,#696),.UNSPECIFIED.,.F.,.F.,(9,7,7,7,7
    ,7,7,7,7,9),(0.,9.841448503862E-02,0.349114200031,0.425768593671,
    0.510070614653,0.567558483675,0.649377639294,0.77598616547,
    0.914566683928,1.),.UNSPECIFIED.);
#632 = CARTESIAN_POINT('',(-45.7545022429,-43.09081169079,
    10.091464091484));
#633 = CARTESIAN_POINT('',(-45.81480803156,-43.03050590213,
    10.151773427545));
#634 = CARTESIAN_POINT('',(-45.87693358439,-42.97273407637,
    10.213902634811));
#635 = CARTESIAN_POINT('',(-45.94080991232,-42.91747593795,
    10.277782720177));
#636 = CARTESIAN_POINT('',(-46.00637500653,-42.86472116027,
    10.343351671158));
#637 = CARTESIAN_POINT('',(-46.07357330096,-42.8144685388,
    10.410553918424));
#638 = CARTESIAN_POINT('',(-46.14235513487,-42.76672516428,
    10.479339798325));
#639 = CARTESIAN_POINT('',(-46.21267621543,-42.72150559588,
    10.549665015423));
#640 = CARTESIAN_POINT('',(-46.46745257041,-42.57012243905,
    10.804456357247));
#641 = CARTESIAN_POINT('',(-46.65993778612,-42.47805114617,
    10.996952895615));
#642 = CARTESIAN_POINT('',(-46.86148930972,-42.40277710821,
    11.198516275188));
#643 = CARTESIAN_POINT('',(-47.07165741402,-42.34507141989,
    11.408696742318));
#644 = CARTESIAN_POINT('',(-47.28988823143,-42.30604345417,
    11.626940396839));
#645 = CARTESIAN_POINT('',(-47.51553644623,-42.28727848058,
    11.852601885054));
#646 = CARTESIAN_POINT('',(-47.74780187082,-42.29067007849,
    12.084880972324));
#647 = CARTESIAN_POINT('',(-48.05879117534,-42.3280577776,
    12.395888570333));
#648 = CARTESIAN_POINT('',(-48.13213803985,-42.33916902874,
    12.469239749361));
#649 = CARTESIAN_POINT('',(-48.20597942114,-42.35272142263,
    12.543085474259));
#650 = CARTESIAN_POINT('',(-48.2802768128,-42.36880645208,
    12.617387236362));
#651 = CARTESIAN_POINT('',(-48.35498312463,-42.387523192,12.692097942679
    ));
#652 = CARTESIAN_POINT('',(-48.43004261077,-42.40897911592,
    12.767161844084));
#653 = CARTESIAN_POINT('',(-48.50539079794,-42.43329091249,
    12.842514463498));
#654 = CARTESIAN_POINT('',(-48.66405683228,-42.49060278812,
    13.001189831133));
#655 = CARTESIAN_POINT('',(-48.74740316201,-42.52422194845,
    13.084541063588));
#656 = CARTESIAN_POINT('',(-48.83090649468,-42.56161351534,
    13.168049308215));
#657 = CARTESIAN_POINT('',(-48.91444339651,-42.60295872991,
    13.251591123986));
#658 = CARTESIAN_POINT('',(-48.99785374816,-42.6484446861,
    13.335006382126));
#659 = CARTESIAN_POINT('',(-49.08094054262,-42.69826077901,
    13.418098064045));
#660 = CARTESIAN_POINT('',(-49.16346964106,-42.75259625776,
    13.500632017133));
#661 = CARTESIAN_POINT('',(-49.30088286032,-42.85190167396,
    13.638053319531));
#662 = CARTESIAN_POINT('',(-49.35620150964,-42.89434710138,
    13.69337522289));
#663 = CARTESIAN_POINT('',(-49.41103548895,-42.93902980039,
    13.748212427725));
#664 = CARTESIAN_POINT('',(-49.46527773671,-42.9859977439,
    13.802457866207));
#665 = CARTESIAN_POINT('',(-49.51880542126,-43.03528822098,
    13.855988699444));
#666 = CARTESIAN_POINT('',(-49.5714812867,-43.0869238156,13.908667663466
    ));
#667 = CARTESIAN_POINT('',(-49.62315499883,-43.14090838547,
    13.960344415225));
#668 = CARTESIAN_POINT('',(-49.74555172698,-43.27737242919,
    14.082748343179));
#669 = CARTESIAN_POINT('',(-49.81513302579,-43.36229899088,
    14.152333735004));
#670 = CARTESIAN_POINT('',(-49.88185965304,-43.45187420338,
    14.219064287348));
#671 = CARTESIAN_POINT('',(-49.94517719168,-43.54586996619,
    14.282385550555));
#672 = CARTESIAN_POINT('',(-50.00453796858,-43.64394355231,
    14.341749819268));
#673 = CARTESIAN_POINT('',(-50.05942472131,-43.74561461887,
    14.396639800622));
#674 = CARTESIAN_POINT('',(-50.10938550519,-43.85023427663,
    14.446603523372));
#675 = CARTESIAN_POINT('',(-50.22324071025,-44.12207431802,
    14.560465425804));
#676 = CARTESIAN_POINT('',(-50.27984475043,-44.29234055082,
    14.617072795627));
#677 = CARTESIAN_POINT('',(-50.32259022959,-44.46455045223,
    14.659820789227));
#678 = CARTESIAN_POINT('',(-50.35155680692,-44.63604437694,
    14.688789070473));
#679 = CARTESIAN_POINT('',(-50.36750602247,-44.80468250184,
    14.704739224216));
#680 = CARTESIAN_POINT('',(-50.37155717096,-44.96882841435,
    14.708790611005));
#681 = CARTESIAN_POINT('',(-50.36502238303,-45.12733061995,
    14.702255438683));
#682 = CARTESIAN_POINT('',(-50.33184949883,-45.44606111216,
    14.669080603136));
#683 = CARTESIAN_POINT('',(-50.30333798361,-45.60534349744,
    14.640567410766));
#684 = CARTESIAN_POINT('',(-50.26518369876,-45.75716832722,
    14.602410881541));
#685 = CARTESIAN_POINT('',(-50.21868172958,-45.90145624497,
    14.555906176954));
#686 = CARTESIAN_POINT('',(-50.16494668692,-46.03827042241,
    14.502167973407));
#687 = CARTESIAN_POINT('',(-50.10490813689,-46.16780456429,
    14.442125891697));
#688 = CARTESIAN_POINT('',(-50.03928282459,-46.290347976,14.376496719085
    ));
#689 = CARTESIAN_POINT('',(-49.92496503545,-46.47771603216,
    14.262172205374));
#690 = CARTESIAN_POINT('',(-49.87945567766,-46.54661188182,
    14.216660170558));
#691 = CARTESIAN_POINT('',(-49.83217107954,-46.61300632855,
    14.169372790998));
#692 = CARTESIAN_POINT('',(-49.78323169083,-46.67695271706,14.1204305235
    ));
#693 = CARTESIAN_POINT('',(-49.73274426676,-46.73849981499,
    14.069940129583));
#694 = CARTESIAN_POINT('',(-49.68080318903,-46.79769325523,
    14.017995996493));
#695 = CARTESIAN_POINT('',(-49.62749110159,-46.85457606892,
    13.964680773042));
#696 = CARTESIAN_POINT('',(-49.57287886131,-46.9091883092,
    13.910065320281));
#697 = ORIENTED_EDGE('',*,*,#698,.T.);
#698 = EDGE_CURVE('',#629,#120,#699,.T.);
#699 = B_SPLINE_CURVE_WITH_KNOTS('',1,(#700,#701),.UNSPECIFIED.,.F.,.F.,
  (2,2),(0.,1.),.PIECEWISE_BEZIER_KNOTS.);
#700 = CARTESIAN_POINT('',(-34.66369055211,-32.,-1.));
#701 = CARTESIAN_POINT('',(-51.66369055211,-49.,16.001));
#702 = ORIENTED_EDGE('',*,*,#126,.T.);
#703 = ORIENTED_EDGE('',*,*,#536,.F.);
#704 = ORIENTED_EDGE('',*,*,#705,.T.);
#705 = EDGE_CURVE('',#488,#462,#706,.T.);
#706 = B_SPLINE_CURVE_WITH_KNOTS('',8,(#707,#708,#709,#710,#711,#712,
    #713,#714,#715,#716,#717,#718,#719,#720,#721,#722,#723,#724,#725,
    #726,#727,#728,#729,#730,#731,#732,#733,#734,#735,#736,#737,#738,
    #739,#740,#741,#742,#743,#744,#745,#746,#747,#748,#749,#750,#751,
    #752,#753,#754,#755,#756,#757,#758,#759,#760,#761,#762,#763,#764,
    #765,#766,#767,#768,#769,#770,#771),.UNSPECIFIED.,.F.,.F.,(9,7,7,7,7
    ,7,7,7,7,9),(0.,8.626568949114E-02,0.227593372427,0.388673172088,
    0.434483921887,0.489334031616,0.57348451616,0.649229592955,
    0.902653452112,1.),.UNSPECIFIED.);
#707 = CARTESIAN_POINT('',(-49.57287886131,46.909188309204,
    13.910065320281));
#708 = CARTESIAN_POINT('',(-49.62783568971,46.854231480799,
    13.96502538144));
#709 = CARTESIAN_POINT('',(-49.68147584567,46.796975394875,
    14.018668692698));
#710 = CARTESIAN_POINT('',(-49.73372718245,46.7373791928,14.070923103088
    ));
#711 = CARTESIAN_POINT('',(-49.78450543251,46.675398970112,
    14.121704340107));
#712 = CARTESIAN_POINT('',(-49.83371426681,46.610988176227,
    14.170916069038));
#713 = CARTESIAN_POINT('',(-49.88124464035,46.54409706852,
    14.218449238487));
#714 = CARTESIAN_POINT('',(-49.92697342405,46.474671220813,
    14.264180712116));
#715 = CARTESIAN_POINT('',(-50.04249832857,46.2846563888,14.379712412215
    ));
#716 = CARTESIAN_POINT('',(-50.10895513091,46.159812316399,
    14.446173123783));
#717 = CARTESIAN_POINT('',(-50.16961688498,46.027735592926,
    14.506838446187));
#718 = CARTESIAN_POINT('',(-50.22372531414,45.888120459769,
    14.560950058194));
#719 = CARTESIAN_POINT('',(-50.27029214446,45.740767179888,
    14.607519627741));
#720 = CARTESIAN_POINT('',(-50.30813081894,45.585621316767,
    14.645360528031));
#721 = CARTESIAN_POINT('',(-50.33586330478,45.422788384252,
    14.673094645187));
#722 = CARTESIAN_POINT('',(-50.37008985843,45.058391512332,
    14.707323212167));
#723 = CARTESIAN_POINT('',(-50.3732634886,44.852572556614,
    14.710497029015));
#724 = CARTESIAN_POINT('',(-50.35814558763,44.63776799982,
    14.695378238767));
#725 = CARTESIAN_POINT('',(-50.32206882151,44.417595362945,
    14.659299350483));
#726 = CARTESIAN_POINT('',(-50.26334429844,44.196515345224,
    14.600571373026));
#727 = CARTESIAN_POINT('',(-50.18177399248,43.979713004048,
    14.51899626881));
#728 = CARTESIAN_POINT('',(-50.07917344021,43.772919631661,
    14.416389681212));
#729 = CARTESIAN_POINT('',(-49.9279222302,43.527817276835,
    14.265129574072));
#730 = CARTESIAN_POINT('',(-49.89315730915,43.474759128819,
    14.230362608034));
#731 = CARTESIAN_POINT('',(-49.85721141352,43.422999348476,
    14.194414597935));
#732 = CARTESIAN_POINT('',(-49.82017920613,43.372603935131,
    14.157380212179));
#733 = CARTESIAN_POINT('',(-49.78215525202,43.323622309979,
    14.119354021365));
#734 = CARTESIAN_POINT('',(-49.74323239782,43.2760894537,14.08042887759)
  );
#735 = CARTESIAN_POINT('',(-49.70350015119,43.230028044062,
    14.040694293763));
#736 = CARTESIAN_POINT('',(-49.61460299116,43.132077137231,
    13.951791904495));
#737 = CARTESIAN_POINT('',(-49.56512426342,43.080831579089,
    13.902310266236));
#738 = CARTESIAN_POINT('',(-49.51474681688,43.031727790639,
    13.851929856318));
#739 = CARTESIAN_POINT('',(-49.46360062982,42.984761039277,
    13.800780660665));
#740 = CARTESIAN_POINT('',(-49.41180465622,42.939911188818,
    13.748981640238));
#741 = CARTESIAN_POINT('',(-49.35946576306,42.89714590004,
    13.696639668318));
#742 = CARTESIAN_POINT('',(-49.30667766772,42.85642383123,
    13.643848467796));
#743 = CARTESIAN_POINT('',(-49.17196572692,42.758284812044,
    13.509128602762));
#744 = CARTESIAN_POINT('',(-49.0895611296,42.703583909507,
    13.426719158113));
#745 = CARTESIAN_POINT('',(-49.00658057506,42.653409224965,
    13.343733722366));
#746 = CARTESIAN_POINT('',(-48.923260798,42.607572505722,13.260409044148
    ));
#747 = CARTESIAN_POINT('',(-48.83980103616,42.565884751195,
    13.176944372905));
#748 = CARTESIAN_POINT('',(-48.75636325206,42.52815885363,
    13.093501680699));
#749 = CARTESIAN_POINT('',(-48.67307231657,42.494213280889,
    13.010205845745));
#750 = CARTESIAN_POINT('',(-48.51525609269,42.436570494183,
    12.852380338556));
#751 = CARTESIAN_POINT('',(-48.44069976357,42.412193019924,
    12.777819623776));
#752 = CARTESIAN_POINT('',(-48.36641913447,42.390621153147,
    12.703534625223));
#753 = CARTESIAN_POINT('',(-48.29247756798,42.371741267322,
    12.629588709233));
#754 = CARTESIAN_POINT('',(-48.21892989337,42.355448565194,
    12.556036708286));
#755 = CARTESIAN_POINT('',(-48.1458224782,42.341646309196,12.48292499268
    ));
#756 = CARTESIAN_POINT('',(-48.07319330003,42.330245051879,
    12.410291542202));
#757 = CARTESIAN_POINT('',(-47.75977245937,42.290771826023,
    12.09685226502));
#758 = CARTESIAN_POINT('',(-47.52446742494,42.286370508456,
    11.861533389121));
#759 = CARTESIAN_POINT('',(-47.29590444228,42.304718481212,
    11.632956961584));
#760 = CARTESIAN_POINT('',(-47.07492199728,42.343849048489,
    11.41196151761));
#761 = CARTESIAN_POINT('',(-46.86219088771,42.402108535035,
    11.19921789445));
#762 = CARTESIAN_POINT('',(-46.65828499775,42.478347608241,
    10.995300010026));
#763 = CARTESIAN_POINT('',(-46.46366647982,42.571767665826,
    10.800670043946));
#764 = CARTESIAN_POINT('',(-46.20780609489,42.724644542998,
    10.544794608409));
#765 = CARTESIAN_POINT('',(-46.13827178249,42.769564835095,
    10.475256205749));
#766 = CARTESIAN_POINT('',(-46.07024857082,42.816958497134,
    10.407228992714));
#767 = CARTESIAN_POINT('',(-46.0037796284,42.86681171115,10.340756140359
    ));
#768 = CARTESIAN_POINT('',(-45.93891331024,42.919117840016,
    10.275886006532));
#769 = CARTESIAN_POINT('',(-45.87570367184,42.973878219529,
    10.212672649913));
#770 = CARTESIAN_POINT('',(-45.81421098321,43.031102950492,
    10.151176344068));
#771 = CARTESIAN_POINT('',(-45.7545022429,43.090811690796,
    10.091464091484));
#772 = B_SPLINE_SURFACE_WITH_KNOTS('',1,1,(
    (#773,#774)
    ,(#775,#776
  )),.UNSPECIFIED.,.F.,.F.,.F.,(2,2),(2,2),(0.,98.),(0.,1.),
  .PIECEWISE_BEZIER_KNOTS.);
#773 = CARTESIAN_POINT('',(-34.66369055211,32.,-1.));
#774 = CARTESIAN_POINT('',(-51.66369055211,49.,16.001));
#775 = CARTESIAN_POINT('',(-34.66369055211,-32.,-1.));
#776 = CARTESIAN_POINT('',(-51.66369055211,-49.,16.001));
#777 = ADVANCED_FACE('',(#778),#920,.F.);
#778 = FACE_BOUND('',#779,.F.);
#779 = EDGE_LOOP('',(#780,#781,#782,#783,#851,#852,#853,#854,#903));
#780 = ORIENTED_EDGE('',*,*,#621,.F.);
#781 = ORIENTED_EDGE('',*,*,#223,.F.);
#782 = ORIENTED_EDGE('',*,*,#273,.T.);
#783 = ORIENTED_EDGE('',*,*,#784,.T.);
#784 = EDGE_CURVE('',#274,#370,#785,.T.);
#785 = B_SPLINE_CURVE_WITH_KNOTS('',8,(#786,#787,#788,#789,#790,#791,
    #792,#793,#794,#795,#796,#797,#798,#799,#800,#801,#802,#803,#804,
    #805,#806,#807,#808,#809,#810,#811,#812,#813,#814,#815,#816,#817,
    #818,#819,#820,#821,#822,#823,#824,#825,#826,#827,#828,#829,#830,
    #831,#832,#833,#834,#835,#836,#837,#838,#839,#840,#841,#842,#843,
    #844,#845,#846,#847,#848,#849,#850),.UNSPECIFIED.,.F.,.F.,(9,7,7,7,7
    ,7,7,7,7,9),(0.,0.100882504994,0.352909734209,0.429481435345,
    0.511877549384,0.566533597587,0.611764939519,0.726836777389,
    0.905811872131,1.),.UNSPECIFIED.);
#786 = CARTESIAN_POINT('',(45.754502242906,-43.09081169079,
    10.091464091484));
#787 = CARTESIAN_POINT('',(45.692476659372,-43.15283727433,
    10.153493323582));
#788 = CARTESIAN_POINT('',(45.633142653165,-43.21677683156,
    10.217436641962));
#789 = CARTESIAN_POINT('',(45.576476721591,-43.2825539583,
    10.283217637952));
#790 = CARTESIAN_POINT('',(45.522466394301,-43.35010013101,
    10.350767783961));
#791 = CARTESIAN_POINT('',(45.471109300047,-43.41935409836,
    10.420025825073));
#792 = CARTESIAN_POINT('',(45.422412233435,-43.49026127292,
    10.490937170648));
#793 = CARTESIAN_POINT('',(45.376390221679,-43.56277312278,
    10.563453285914));
#794 = CARTESIAN_POINT('',(45.22483090252,-43.82189870816,
    10.822594113967));
#795 = CARTESIAN_POINT('',(45.133559145069,-44.01648133939,
    11.017188191239));
#796 = CARTESIAN_POINT('',(45.059398925251,-44.22012205351,
    11.220840884223));
#797 = CARTESIAN_POINT('',(45.003133013269,-44.43236002243,
    11.433091337732));
#798 = CARTESIAN_POINT('',(44.965889395109,-44.65262420532,
    11.65336847734));
#799 = CARTESIAN_POINT('',(44.9492928141,-44.88024810126,11.881005762922
    ));
#800 = CARTESIAN_POINT('',(44.955278708357,-45.11440240249,
    12.115173837926));
#801 = CARTESIAN_POINT('',(44.996694750049,-45.42724824825,
    12.428038086387));
#802 = CARTESIAN_POINT('',(45.008721476773,-45.50065528945,
    12.501449445646));
#803 = CARTESIAN_POINT('',(45.023209897719,-45.57453791527,
    12.575336417508));
#804 = CARTESIAN_POINT('',(45.040252792196,-45.64885665603,
    12.649659529958));
#805 = CARTESIAN_POINT('',(45.05995061246,-45.72356310837,
    12.724370376797));
#806 = CARTESIAN_POINT('',(45.082412309823,-45.79859985644,
    12.799411538785));
#807 = CARTESIAN_POINT('',(45.107756160765,-45.873900393,12.874716504793
    ));
#808 = CARTESIAN_POINT('',(45.166621800196,-46.03061971894,
    13.031445049513));
#809 = CARTESIAN_POINT('',(45.200613367958,-46.11205249232,
    13.112882613057));
#810 = CARTESIAN_POINT('',(45.238247374235,-46.19360249643,
    13.194437414229));
#811 = CARTESIAN_POINT('',(45.279695088056,-46.27515027803,
    13.275989992755));
#812 = CARTESIAN_POINT('',(45.325132655783,-46.35654168723,
    13.357386189687));
#813 = CARTESIAN_POINT('',(45.374737669549,-46.4375877352,13.43843700507
    ));
#814 = CARTESIAN_POINT('',(45.428686617918,-46.51806441722,
    13.518918421016));
#815 = CARTESIAN_POINT('',(45.525936035077,-46.65054569087,
    13.651407487683));
#816 = CARTESIAN_POINT('',(45.566701118361,-46.70300644964,
    13.703871332378));
#817 = CARTESIAN_POINT('',(45.609494889935,-46.75501563805,
    13.755883580151));
#818 = CARTESIAN_POINT('',(45.654357955624,-46.80648007224,
    13.80735104166));
#819 = CARTESIAN_POINT('',(45.701321925781,-46.85729358305,
    13.858167541498));
#820 = CARTESIAN_POINT('',(45.750406235299,-46.90733807508,
    13.908214977325));
#821 = CARTESIAN_POINT('',(45.801614963616,-46.95648458579,
    13.957364379004));
#822 = CARTESIAN_POINT('',(45.899058248956,-47.04440821729,
    14.045293182485));
#823 = CARTESIAN_POINT('',(45.944627421346,-47.08351166719,
    14.084398932587));
#824 = CARTESIAN_POINT('',(45.991628673062,-47.12182311611,
    14.12271263512));
#825 = CARTESIAN_POINT('',(46.040039734828,-47.15925628739,
    14.160148008348));
#826 = CARTESIAN_POINT('',(46.089826546414,-47.19572174001,
    14.196615606001));
#827 = CARTESIAN_POINT('',(46.140941236127,-47.23112840281,
    14.232024351548));
#828 = CARTESIAN_POINT('',(46.1933201003,-47.26538510864,14.266283072471
    ));
#829 = CARTESIAN_POINT('',(46.383145906688,-47.3823998389,
    14.383304685951));
#830 = CARTESIAN_POINT('',(46.52743234549,-47.45860161486,
    14.459510944368));
#831 = CARTESIAN_POINT('',(46.677826114265,-47.52506403248,
    14.525977271543));
#832 = CARTESIAN_POINT('',(46.832310378861,-47.5806585255,14.58157503483
    ));
#833 = CARTESIAN_POINT('',(46.988838970071,-47.62487520373,
    14.625794314036));
#834 = CARTESIAN_POINT('',(47.145387910621,-47.65772068531,
    14.658641727711));
#835 = CARTESIAN_POINT('',(47.299993432122,-47.6796650008,
    14.680587334039));
#836 = CARTESIAN_POINT('',(47.685314042023,-47.71014406378,
    14.711068189905));
#837 = CARTESIAN_POINT('',(47.910933404058,-47.7044901197,
    14.705413913239));
#838 = CARTESIAN_POINT('',(48.125405235078,-47.67822353054,
    14.67914577899));
#839 = CARTESIAN_POINT('',(48.327434870359,-47.63472895519,
    14.635648645138));
#840 = CARTESIAN_POINT('',(48.516556629483,-47.57702674577,
    14.577943041467));
#841 = CARTESIAN_POINT('',(48.692980764821,-47.50760361874,
    14.508515830726));
#842 = CARTESIAN_POINT('',(48.85741511104,-47.42824594976,
    14.429153493641));
#843 = CARTESIAN_POINT('',(49.091636658929,-47.29339361502,
    14.294293226409));
#844 = CARTESIAN_POINT('',(49.16924832279,-47.24446735559,
    14.245364088967));
#845 = CARTESIAN_POINT('',(49.243794159641,-47.19330611953,
    14.194199843421));
#846 = CARTESIAN_POINT('',(49.315346640722,-47.14007876572,
    14.140969358591));
#847 = CARTESIAN_POINT('',(49.383971549884,-47.08493311973,
    14.085820468746));
#848 = CARTESIAN_POINT('',(49.449730475182,-47.02799826873,
    14.02888226863));
#849 = CARTESIAN_POINT('',(49.51268160966,-46.96938556085,
    13.970266112949));
#850 = CARTESIAN_POINT('',(49.572878861313,-46.9091883092,
    13.910065320281));
#851 = ORIENTED_EDGE('',*,*,#369,.T.);
#852 = ORIENTED_EDGE('',*,*,#119,.T.);
#853 = ORIENTED_EDGE('',*,*,#698,.F.);
#854 = ORIENTED_EDGE('',*,*,#855,.T.);
#855 = EDGE_CURVE('',#629,#856,#858,.T.);
#856 = VERTEX_POINT('',#857);
#857 = CARTESIAN_POINT('',(-44.96369055211,-45.,12.000764705882));
#858 = B_SPLINE_CURVE_WITH_KNOTS('',7,(#859,#860,#861,#862,#863,#864,
    #865,#866,#867,#868,#869,#870,#871,#872,#873,#874,#875,#876,#877,
    #878,#879,#880,#881,#882,#883,#884,#885,#886,#887,#888,#889,#890,
    #891,#892,#893,#894,#895,#896,#897,#898,#899,#900,#901,#902),
  .UNSPECIFIED.,.F.,.F.,(8,6,6,6,6,6,6,8),(0.,0.123869460287,
    0.328882528583,0.509145969953,0.618579171712,0.689982401686,
    0.843391319372,1.),.UNSPECIFIED.);
#859 = CARTESIAN_POINT('',(-49.57287886131,-46.9091883092,
    13.910065320281));
#860 = CARTESIAN_POINT('',(-49.51006021549,-46.97200695502,
    13.972887661316));
#861 = CARTESIAN_POINT('',(-49.44417907459,-47.03306519125,
    14.033949489209));
#862 = CARTESIAN_POINT('',(-49.37517069423,-47.09224803233,
    14.093135811633));
#863 = CARTESIAN_POINT('',(-49.30296419429,-47.14941634526,
    14.150307487399));
#864 = CARTESIAN_POINT('',(-49.2274836074,-47.20440702035,
    14.205301397234));
#865 = CARTESIAN_POINT('',(-49.14864512916,-47.25703027983,
    14.257927752203));
#866 = CARTESIAN_POINT('',(-48.93014702193,-47.38987381713,
    14.390779103834));
#867 = CARTESIAN_POINT('',(-48.78464008776,-47.46549115976,
    14.466400894539));
#868 = CARTESIAN_POINT('',(-48.62919737574,-47.53307500503,
    14.533988715325));
#869 = CARTESIAN_POINT('',(-48.46334427943,-47.59127463324,
    14.592191767045));
#870 = CARTESIAN_POINT('',(-48.28684957891,-47.6382677127,
    14.639187610806));
#871 = CARTESIAN_POINT('',(-48.09984926142,-47.6718779464,
    14.672799821582));
#872 = CARTESIAN_POINT('',(-47.72939211188,-47.70480384371,
    14.705727655705));
#873 = CARTESIAN_POINT('',(-47.5477893623,-47.70780799595,
    14.708731984665));
#874 = CARTESIAN_POINT('',(-47.35922732435,-47.69635845455,
    14.697281769758));
#875 = CARTESIAN_POINT('',(-47.16590005821,-47.6684556422,
    14.669377316063));
#876 = CARTESIAN_POINT('',(-46.97088658909,-47.62270297512,
    14.623621957656));
#877 = CARTESIAN_POINT('',(-46.77813769663,-47.55865724418,
    14.559572459312));
#878 = CARTESIAN_POINT('',(-46.47969154978,-47.42965654402,
    14.430564170881));
#879 = CARTESIAN_POINT('',(-46.369544857,-47.37494552698,14.375849935548
    ));
#880 = CARTESIAN_POINT('',(-46.26305777303,-47.31471777683,
    14.315618642582));
#881 = CARTESIAN_POINT('',(-46.16098942508,-47.24959561688,
    14.250492651918));
#882 = CARTESIAN_POINT('',(-46.06386303113,-47.180274433,14.181167390328
    ));
#883 = CARTESIAN_POINT('',(-45.97201744845,-47.10746705593,
    14.108355730467));
#884 = CARTESIAN_POINT('',(-45.8292758476,-46.98255689614,
    13.983438223019));
#885 = CARTESIAN_POINT('',(-45.77521724516,-46.93203047297,
    13.932908827704));
#886 = CARTESIAN_POINT('',(-45.72349015928,-46.88046961897,
    13.881344940716));
#887 = CARTESIAN_POINT('',(-45.67409482635,-46.82803257268,
    13.828904809893));
#888 = CARTESIAN_POINT('',(-45.6270090168,-46.77486237174,
    13.775731481295));
#889 = CARTESIAN_POINT('',(-45.58219395831,-46.72108465351,
    13.721950599666));
#890 = CARTESIAN_POINT('',(-45.44808824612,-46.5501872998,
    13.551043193179));
#891 = CARTESIAN_POINT('',(-45.36688798468,-46.4313295016,
    13.432178403343));
#892 = CARTESIAN_POINT('',(-45.29540182781,-46.31118845918,
    13.312030293797));
#893 = CARTESIAN_POINT('',(-45.23301989158,-46.19052885047,
    13.191363587466));
#894 = CARTESIAN_POINT('',(-45.17912854069,-46.06992685279,
    13.070754495549));
#895 = CARTESIAN_POINT('',(-45.13313629045,-45.94977229994,
    12.950592874789));
#896 = CARTESIAN_POINT('',(-45.05509245155,-45.7082747017,
    12.709081070809));
#897 = CARTESIAN_POINT('',(-45.02337499042,-45.58703254752,
    12.587831784731));
#898 = CARTESIAN_POINT('',(-44.99880732171,-45.46681613645,
    12.467608302105));
#899 = CARTESIAN_POINT('',(-44.98092868908,-45.34785204628,
    12.348637214048));
#900 = CARTESIAN_POINT('',(-44.96933980636,-45.23031738925,
    12.231095643215));
#901 = CARTESIAN_POINT('',(-44.96369055211,-45.1143397096,
    12.115111141347));
#902 = CARTESIAN_POINT('',(-44.96369055211,-45.,12.000764705882));
#903 = ORIENTED_EDGE('',*,*,#904,.T.);
#904 = EDGE_CURVE('',#856,#622,#905,.T.);
#905 = B_SPLINE_CURVE_WITH_KNOTS('',7,(#906,#907,#908,#909,#910,#911,
    #912,#913,#914,#915,#916,#917,#918,#919),.UNSPECIFIED.,.F.,.F.,(8,6,
    8),(0.,0.67345056188,1.),.UNSPECIFIED.);
#906 = CARTESIAN_POINT('',(-44.96369055211,-45.,12.000764705882));
#907 = CARTESIAN_POINT('',(-44.96369055211,-44.78361177199,
    11.78436374916));
#908 = CARTESIAN_POINT('',(-44.98392241676,-44.57325633066,
    11.573995933979));
#909 = CARTESIAN_POINT('',(-45.02236067174,-44.36944621942,
    11.370173833907));
#910 = CARTESIAN_POINT('',(-45.07770670885,-44.17275542463,
    11.173471469072));
#911 = CARTESIAN_POINT('',(-45.14894680559,-43.98369033953,10.9843952625
    ));
#912 = CARTESIAN_POINT('',(-45.2354136255,-43.80271766742,
    10.803411944936));
#913 = CARTESIAN_POINT('',(-45.38609194252,-43.54674415389,
    10.547423374136));
#914 = CARTESIAN_POINT('',(-45.43881165536,-43.46519653558,
    10.46587095891));
#915 = CARTESIAN_POINT('',(-45.49501333135,-43.38575637754,
    10.386426127919));
#916 = CARTESIAN_POINT('',(-45.5546771217,-43.30850125094,
    10.309166456904));
#917 = CARTESIAN_POINT('',(-45.61779953185,-43.23352077063,
    10.234181565978));
#918 = CARTESIAN_POINT('',(-45.68439579454,-43.16091813915,
    10.161574663755));
#919 = CARTESIAN_POINT('',(-45.7545022429,-43.09081169079,
    10.091464091484));
#920 = B_SPLINE_SURFACE_WITH_KNOTS('',1,1,(
    (#921,#922)
    ,(#923,#924
    )),.UNSPECIFIED.,.F.,.F.,.F.,(2,2),(2,2),(0.,103.32738110422),(0.,1.
    ),.PIECEWISE_BEZIER_KNOTS.);
#921 = CARTESIAN_POINT('',(-34.66369055211,-32.,-1.));
#922 = CARTESIAN_POINT('',(-51.66369055211,-49.,16.001));
#923 = CARTESIAN_POINT('',(34.66369055211,-32.,-1.));
#924 = CARTESIAN_POINT('',(51.66369055211,-49.,16.001));
#925 = ADVANCED_FACE('',(#926),#939,.F.);
#926 = FACE_BOUND('',#927,.F.);
#927 = EDGE_LOOP('',(#928,#929,#935,#936,#937,#938));
#928 = ORIENTED_EDGE('',*,*,#904,.F.);
#929 = ORIENTED_EDGE('',*,*,#930,.F.);
#930 = EDGE_CURVE('',#182,#856,#931,.T.);
#931 = LINE('',#932,#933);
#932 = CARTESIAN_POINT('',(-44.96369055211,-45.,-1.));
#933 = VECTOR('',#934,1.);
#934 = DIRECTION('',(0.,0.,1.));
#935 = ORIENTED_EDGE('',*,*,#181,.T.);
#936 = ORIENTED_EDGE('',*,*,#930,.T.);
#937 = ORIENTED_EDGE('',*,*,#855,.F.);
#938 = ORIENTED_EDGE('',*,*,#628,.F.);
#939 = CYLINDRICAL_SURFACE('',#940,2.7);
#940 = AXIS2_PLACEMENT_3D('',#941,#942,#943);
#941 = CARTESIAN_POINT('',(-47.66369055211,-45.,-1.));
#942 = DIRECTION('',(0.,0.,1.));
#943 = DIRECTION('',(1.,0.,-0.));
#944 = ADVANCED_FACE('',(#945),#958,.F.);
#945 = FACE_BOUND('',#946,.F.);
#946 = EDGE_LOOP('',(#947,#948,#954,#955,#956,#957));
#947 = ORIENTED_EDGE('',*,*,#397,.F.);
#948 = ORIENTED_EDGE('',*,*,#949,.F.);
#949 = EDGE_CURVE('',#193,#377,#950,.T.);
#950 = LINE('',#951,#952);
#951 = CARTESIAN_POINT('',(50.36369055211,-45.,-1.));
#952 = VECTOR('',#953,1.);
#953 = DIRECTION('',(0.,0.,1.));
#954 = ORIENTED_EDGE('',*,*,#192,.T.);
#955 = ORIENTED_EDGE('',*,*,#949,.T.);
#956 = ORIENTED_EDGE('',*,*,#376,.F.);
#957 = ORIENTED_EDGE('',*,*,#784,.F.);
#958 = CYLINDRICAL_SURFACE('',#959,2.7);
#959 = AXIS2_PLACEMENT_3D('',#960,#961,#962);
#960 = CARTESIAN_POINT('',(47.66369055211,-45.,-1.));
#961 = DIRECTION('',(0.,0.,1.));
#962 = DIRECTION('',(1.,0.,-0.));
#963 = ADVANCED_FACE('',(#964),#977,.F.);
#964 = FACE_BOUND('',#965,.F.);
#965 = EDGE_LOOP('',(#966,#967,#973,#974,#975,#976));
#966 = ORIENTED_EDGE('',*,*,#487,.F.);
#967 = ORIENTED_EDGE('',*,*,#968,.F.);
#968 = EDGE_CURVE('',#204,#469,#969,.T.);
#969 = LINE('',#970,#971);
#970 = CARTESIAN_POINT('',(-44.96369055211,45.,-1.));
#971 = VECTOR('',#972,1.);
#972 = DIRECTION('',(0.,0.,1.));
#973 = ORIENTED_EDGE('',*,*,#203,.T.);
#974 = ORIENTED_EDGE('',*,*,#968,.T.);
#975 = ORIENTED_EDGE('',*,*,#468,.F.);
#976 = ORIENTED_EDGE('',*,*,#705,.F.);
#977 = CYLINDRICAL_SURFACE('',#978,2.7);
#978 = AXIS2_PLACEMENT_3D('',#979,#980,#981);
#979 = CARTESIAN_POINT('',(-47.66369055211,45.,-1.));
#980 = DIRECTION('',(0.,0.,1.));
#981 = DIRECTION('',(1.,0.,-0.));
#982 = ADVANCED_FACE('',(#983),#996,.F.);
#983 = FACE_BOUND('',#984,.F.);
#984 = EDGE_LOOP('',(#985,#986,#992,#993,#994,#995));
#985 = ORIENTED_EDGE('',*,*,#344,.F.);
#986 = ORIENTED_EDGE('',*,*,#987,.F.);
#987 = EDGE_CURVE('',#245,#289,#988,.T.);
#988 = LINE('',#989,#990);
#989 = CARTESIAN_POINT('',(50.36369055211,45.,-1.));
#990 = VECTOR('',#991,1.);
#991 = DIRECTION('',(0.,0.,1.));
#992 = ORIENTED_EDGE('',*,*,#244,.T.);
#993 = ORIENTED_EDGE('',*,*,#987,.T.);
#994 = ORIENTED_EDGE('',*,*,#288,.F.);
#995 = ORIENTED_EDGE('',*,*,#543,.F.);
#996 = CYLINDRICAL_SURFACE('',#997,2.7);
#997 = AXIS2_PLACEMENT_3D('',#998,#999,#1000);
#998 = CARTESIAN_POINT('',(47.66369055211,45.,-1.));
#999 = DIRECTION('',(0.,0.,1.));
#1000 = DIRECTION('',(1.,0.,-0.));
#1001 = ( GEOMETRIC_REPRESENTATION_CONTEXT(3) 
GLOBAL_UNCERTAINTY_ASSIGNED_CONTEXT((#1005)) 
GLOBAL_UNIT_ASSIGNED_CONTEXT((#1002,#1003,#1004)) REPRESENTATION_CONTEXT
('Context #1','3D Context with UNIT and UNCERTAINTY') );
#1002 = ( LENGTH_UNIT() NAMED_UNIT(*) SI_UNIT(.MILLI.,.METRE.) );
#1003 = ( NAMED_UNIT(*) PLANE_ANGLE_UNIT() SI_UNIT($,.RADIAN.) );
#1004 = ( NAMED_UNIT(*) SI_UNIT($,.STERADIAN.) SOLID_ANGLE_UNIT() );
#1005 = UNCERTAINTY_MEASURE_WITH_UNIT(LENGTH_MEASURE(2.E-06),#1002,
  'distance_accuracy_value','confusion accuracy');
#1006 = PRODUCT_RELATED_PRODUCT_CATEGORY('part',$,(#7));
ENDSEC;
END-ISO-10303-21;
