ISO-10303-21;
HEADER;
FILE_DESCRIPTION(('FreeCAD Model'),'2;1');
FILE_NAME('Open CASCADE Shape Model','2026-07-27T14:47:55',('Author'),(
    ''),'Open CASCADE STEP processor 7.8','FreeCAD','Unknown');
FILE_SCHEMA(('AUTOMOTIVE_DESIGN { 1 0 10303 214 1 1 1 1 }'));
ENDSEC;
DATA;
#1 = APPLICATION_PROTOCOL_DEFINITION('international standard',
  'automotive_design',2000,#2);
#2 = APPLICATION_CONTEXT(
  'core data for automotive mechanical design processes');
#3 = SHAPE_DEFINITION_REPRESENTATION(#4,#10);
#4 = PRODUCT_DEFINITION_SHAPE('','',#5);
#5 = PRODUCT_DEFINITION('design','',#6,#9);
#6 = PRODUCT_DEFINITION_FORMATION('','',#7);
#7 = PRODUCT('splitting_wedge','splitting_wedge','',(#8));
#8 = PRODUCT_CONTEXT('',#2,'mechanical');
#9 = PRODUCT_DEFINITION_CONTEXT('part definition',#2,'design');
#10 = ADVANCED_BREP_SHAPE_REPRESENTATION('',(#11,#15),#1063);
#11 = AXIS2_PLACEMENT_3D('',#12,#13,#14);
#12 = CARTESIAN_POINT('',(0.,0.,0.));
#13 = DIRECTION('',(0.,0.,1.));
#14 = DIRECTION('',(1.,0.,-0.));
#15 = MANIFOLD_SOLID_BREP('',#16);
#16 = CLOSED_SHELL('',(#17,#73,#104,#150,#213,#266,#290,#351,#370,#394,
    #411,#428,#452,#469,#500,#568,#593,#655,#672,#689,#773,#791,#807,
    #825,#847,#863,#877,#908,#930,#946,#962,#978,#1003,#1019,#1035,#1049
    ));
#17 = ADVANCED_FACE('',(#18),#68,.F.);
#18 = FACE_BOUND('',#19,.F.);
#19 = EDGE_LOOP('',(#20,#30,#38,#46,#54,#62));
#20 = ORIENTED_EDGE('',*,*,#21,.F.);
#21 = EDGE_CURVE('',#22,#24,#26,.T.);
#22 = VERTEX_POINT('',#23);
#23 = CARTESIAN_POINT('',(-25.,-25.,0.));
#24 = VERTEX_POINT('',#25);
#25 = CARTESIAN_POINT('',(-25.,-25.,8.));
#26 = LINE('',#27,#28);
#27 = CARTESIAN_POINT('',(-25.,-25.,0.));
#28 = VECTOR('',#29,1.);
#29 = DIRECTION('',(0.,0.,1.));
#30 = ORIENTED_EDGE('',*,*,#31,.T.);
#31 = EDGE_CURVE('',#22,#32,#34,.T.);
#32 = VERTEX_POINT('',#33);
#33 = CARTESIAN_POINT('',(-25.,25.,0.));
#34 = LINE('',#35,#36);
#35 = CARTESIAN_POINT('',(-25.,-25.,0.));
#36 = VECTOR('',#37,1.);
#37 = DIRECTION('',(-0.,1.,0.));
#38 = ORIENTED_EDGE('',*,*,#39,.T.);
#39 = EDGE_CURVE('',#32,#40,#42,.T.);
#40 = VERTEX_POINT('',#41);
#41 = CARTESIAN_POINT('',(-25.,25.,8.));
#42 = LINE('',#43,#44);
#43 = CARTESIAN_POINT('',(-25.,25.,0.));
#44 = VECTOR('',#45,1.);
#45 = DIRECTION('',(0.,0.,1.));
#46 = ORIENTED_EDGE('',*,*,#47,.F.);
#47 = EDGE_CURVE('',#48,#40,#50,.T.);
#48 = VERTEX_POINT('',#49);
#49 = CARTESIAN_POINT('',(-25.,15.,8.));
#50 = LINE('',#51,#52);
#51 = CARTESIAN_POINT('',(-25.,-25.,8.));
#52 = VECTOR('',#53,1.);
#53 = DIRECTION('',(-0.,1.,0.));
#54 = ORIENTED_EDGE('',*,*,#55,.F.);
#55 = EDGE_CURVE('',#56,#48,#58,.T.);
#56 = VERTEX_POINT('',#57);
#57 = CARTESIAN_POINT('',(-25.,-15.,8.));
#58 = LINE('',#59,#60);
#59 = CARTESIAN_POINT('',(-25.,-25.,8.));
#60 = VECTOR('',#61,1.);
#61 = DIRECTION('',(-0.,1.,0.));
#62 = ORIENTED_EDGE('',*,*,#63,.F.);
#63 = EDGE_CURVE('',#24,#56,#64,.T.);
#64 = LINE('',#65,#66);
#65 = CARTESIAN_POINT('',(-25.,-25.,8.));
#66 = VECTOR('',#67,1.);
#67 = DIRECTION('',(-0.,1.,0.));
#68 = PLANE('',#69);
#69 = AXIS2_PLACEMENT_3D('',#70,#71,#72);
#70 = CARTESIAN_POINT('',(-25.,-25.,0.));
#71 = DIRECTION('',(1.,0.,-0.));
#72 = DIRECTION('',(0.,0.,1.));
#73 = ADVANCED_FACE('',(#74),#99,.F.);
#74 = FACE_BOUND('',#75,.F.);
#75 = EDGE_LOOP('',(#76,#84,#85,#93));
#76 = ORIENTED_EDGE('',*,*,#77,.F.);
#77 = EDGE_CURVE('',#22,#78,#80,.T.);
#78 = VERTEX_POINT('',#79);
#79 = CARTESIAN_POINT('',(25.,-25.,0.));
#80 = LINE('',#81,#82);
#81 = CARTESIAN_POINT('',(-25.,-25.,0.));
#82 = VECTOR('',#83,1.);
#83 = DIRECTION('',(1.,0.,-0.));
#84 = ORIENTED_EDGE('',*,*,#21,.T.);
#85 = ORIENTED_EDGE('',*,*,#86,.T.);
#86 = EDGE_CURVE('',#24,#87,#89,.T.);
#87 = VERTEX_POINT('',#88);
#88 = CARTESIAN_POINT('',(25.,-25.,8.));
#89 = LINE('',#90,#91);
#90 = CARTESIAN_POINT('',(-25.,-25.,8.));
#91 = VECTOR('',#92,1.);
#92 = DIRECTION('',(1.,0.,-0.));
#93 = ORIENTED_EDGE('',*,*,#94,.F.);
#94 = EDGE_CURVE('',#78,#87,#95,.T.);
#95 = LINE('',#96,#97);
#96 = CARTESIAN_POINT('',(25.,-25.,0.));
#97 = VECTOR('',#98,1.);
#98 = DIRECTION('',(0.,0.,1.));
#99 = PLANE('',#100);
#100 = AXIS2_PLACEMENT_3D('',#101,#102,#103);
#101 = CARTESIAN_POINT('',(-25.,-25.,0.));
#102 = DIRECTION('',(-0.,1.,0.));
#103 = DIRECTION('',(0.,0.,1.));
#104 = ADVANCED_FACE('',(#105,#123,#134),#145,.T.);
#105 = FACE_BOUND('',#106,.T.);
#106 = EDGE_LOOP('',(#107,#108,#109,#117));
#107 = ORIENTED_EDGE('',*,*,#63,.F.);
#108 = ORIENTED_EDGE('',*,*,#86,.T.);
#109 = ORIENTED_EDGE('',*,*,#110,.T.);
#110 = EDGE_CURVE('',#87,#111,#113,.T.);
#111 = VERTEX_POINT('',#112);
#112 = CARTESIAN_POINT('',(25.,-15.,8.));
#113 = LINE('',#114,#115);
#114 = CARTESIAN_POINT('',(25.,-25.,8.));
#115 = VECTOR('',#116,1.);
#116 = DIRECTION('',(-0.,1.,0.));
#117 = ORIENTED_EDGE('',*,*,#118,.F.);
#118 = EDGE_CURVE('',#56,#111,#119,.T.);
#119 = LINE('',#120,#121);
#120 = CARTESIAN_POINT('',(-25.,-15.,8.));
#121 = VECTOR('',#122,1.);
#122 = DIRECTION('',(1.,0.,-0.));
#123 = FACE_BOUND('',#124,.T.);
#124 = EDGE_LOOP('',(#125));
#125 = ORIENTED_EDGE('',*,*,#126,.F.);
#126 = EDGE_CURVE('',#127,#127,#129,.T.);
#127 = VERTEX_POINT('',#128);
#128 = CARTESIAN_POINT('',(-17.8,-20.,8.));
#129 = CIRCLE('',#130,2.2);
#130 = AXIS2_PLACEMENT_3D('',#131,#132,#133);
#131 = CARTESIAN_POINT('',(-20.,-20.,8.));
#132 = DIRECTION('',(0.,0.,1.));
#133 = DIRECTION('',(1.,0.,-0.));
#134 = FACE_BOUND('',#135,.T.);
#135 = EDGE_LOOP('',(#136));
#136 = ORIENTED_EDGE('',*,*,#137,.F.);
#137 = EDGE_CURVE('',#138,#138,#140,.T.);
#138 = VERTEX_POINT('',#139);
#139 = CARTESIAN_POINT('',(22.2,-20.,8.));
#140 = CIRCLE('',#141,2.2);
#141 = AXIS2_PLACEMENT_3D('',#142,#143,#144);
#142 = CARTESIAN_POINT('',(20.,-20.,8.));
#143 = DIRECTION('',(0.,0.,1.));
#144 = DIRECTION('',(1.,0.,-0.));
#145 = PLANE('',#146);
#146 = AXIS2_PLACEMENT_3D('',#147,#148,#149);
#147 = CARTESIAN_POINT('',(-25.,-25.,8.));
#148 = DIRECTION('',(0.,0.,1.));
#149 = DIRECTION('',(1.,0.,-0.));
#150 = ADVANCED_FACE('',(#151,#176),#208,.F.);
#151 = FACE_BOUND('',#152,.F.);
#152 = EDGE_LOOP('',(#153,#161,#162,#170));
#153 = ORIENTED_EDGE('',*,*,#154,.F.);
#154 = EDGE_CURVE('',#56,#155,#157,.T.);
#155 = VERTEX_POINT('',#156);
#156 = CARTESIAN_POINT('',(-25.,-15.,32.));
#157 = LINE('',#158,#159);
#158 = CARTESIAN_POINT('',(-25.,-15.,8.));
#159 = VECTOR('',#160,1.);
#160 = DIRECTION('',(0.,0.,1.));
#161 = ORIENTED_EDGE('',*,*,#55,.T.);
#162 = ORIENTED_EDGE('',*,*,#163,.T.);
#163 = EDGE_CURVE('',#48,#164,#166,.T.);
#164 = VERTEX_POINT('',#165);
#165 = CARTESIAN_POINT('',(-25.,15.,32.));
#166 = LINE('',#167,#168);
#167 = CARTESIAN_POINT('',(-25.,15.,8.));
#168 = VECTOR('',#169,1.);
#169 = DIRECTION('',(0.,0.,1.));
#170 = ORIENTED_EDGE('',*,*,#171,.F.);
#171 = EDGE_CURVE('',#155,#164,#172,.T.);
#172 = LINE('',#173,#174);
#173 = CARTESIAN_POINT('',(-25.,-15.,32.));
#174 = VECTOR('',#175,1.);
#175 = DIRECTION('',(-0.,1.,0.));
#176 = FACE_BOUND('',#177,.F.);
#177 = EDGE_LOOP('',(#178,#188,#195,#203));
#178 = ORIENTED_EDGE('',*,*,#179,.F.);
#179 = EDGE_CURVE('',#180,#182,#184,.T.);
#180 = VERTEX_POINT('',#181);
#181 = CARTESIAN_POINT('',(-25.,2.457692307692,18.));
#182 = VERTEX_POINT('',#183);
#183 = CARTESIAN_POINT('',(-25.,2.457692307692,19.8));
#184 = LINE('',#185,#186);
#185 = CARTESIAN_POINT('',(-25.,2.457692307692,13.));
#186 = VECTOR('',#187,1.);
#187 = DIRECTION('',(0.,0.,1.));
#188 = ORIENTED_EDGE('',*,*,#189,.T.);
#189 = EDGE_CURVE('',#180,#190,#192,.T.);
#190 = VERTEX_POINT('',#191);
#191 = CARTESIAN_POINT('',(-25.,-2.457692307692,18.));
#192 = B_SPLINE_CURVE_WITH_KNOTS('',1,(#193,#194),.UNSPECIFIED.,.F.,.F.,
  (2,2),(0.,1.),.PIECEWISE_BEZIER_KNOTS.);
#193 = CARTESIAN_POINT('',(-25.,2.457692307692,18.));
#194 = CARTESIAN_POINT('',(-25.,-2.457692307692,18.));
#195 = ORIENTED_EDGE('',*,*,#196,.F.);
#196 = EDGE_CURVE('',#197,#190,#199,.T.);
#197 = VERTEX_POINT('',#198);
#198 = CARTESIAN_POINT('',(-25.,-2.457692307692,19.8));
#199 = LINE('',#200,#201);
#200 = CARTESIAN_POINT('',(-25.,-2.457692307692,13.9));
#201 = VECTOR('',#202,1.);
#202 = DIRECTION('',(-0.,0.,-1.));
#203 = ORIENTED_EDGE('',*,*,#204,.T.);
#204 = EDGE_CURVE('',#197,#182,#205,.T.);
#205 = B_SPLINE_CURVE_WITH_KNOTS('',1,(#206,#207),.UNSPECIFIED.,.F.,.F.,
  (2,2),(0.,1.),.PIECEWISE_BEZIER_KNOTS.);
#206 = CARTESIAN_POINT('',(-25.,-2.457692307692,19.8));
#207 = CARTESIAN_POINT('',(-25.,2.457692307692,19.8));
#208 = PLANE('',#209);
#209 = AXIS2_PLACEMENT_3D('',#210,#211,#212);
#210 = CARTESIAN_POINT('',(-25.,-15.,8.));
#211 = DIRECTION('',(1.,0.,-0.));
#212 = DIRECTION('',(0.,0.,1.));
#213 = ADVANCED_FACE('',(#214,#239,#250),#261,.T.);
#214 = FACE_BOUND('',#215,.T.);
#215 = EDGE_LOOP('',(#216,#217,#225,#233));
#216 = ORIENTED_EDGE('',*,*,#47,.F.);
#217 = ORIENTED_EDGE('',*,*,#218,.T.);
#218 = EDGE_CURVE('',#48,#219,#221,.T.);
#219 = VERTEX_POINT('',#220);
#220 = CARTESIAN_POINT('',(25.,15.,8.));
#221 = LINE('',#222,#223);
#222 = CARTESIAN_POINT('',(-25.,15.,8.));
#223 = VECTOR('',#224,1.);
#224 = DIRECTION('',(1.,0.,-0.));
#225 = ORIENTED_EDGE('',*,*,#226,.T.);
#226 = EDGE_CURVE('',#219,#227,#229,.T.);
#227 = VERTEX_POINT('',#228);
#228 = CARTESIAN_POINT('',(25.,25.,8.));
#229 = LINE('',#230,#231);
#230 = CARTESIAN_POINT('',(25.,-25.,8.));
#231 = VECTOR('',#232,1.);
#232 = DIRECTION('',(-0.,1.,0.));
#233 = ORIENTED_EDGE('',*,*,#234,.F.);
#234 = EDGE_CURVE('',#40,#227,#235,.T.);
#235 = LINE('',#236,#237);
#236 = CARTESIAN_POINT('',(-25.,25.,8.));
#237 = VECTOR('',#238,1.);
#238 = DIRECTION('',(1.,0.,-0.));
#239 = FACE_BOUND('',#240,.T.);
#240 = EDGE_LOOP('',(#241));
#241 = ORIENTED_EDGE('',*,*,#242,.F.);
#242 = EDGE_CURVE('',#243,#243,#245,.T.);
#243 = VERTEX_POINT('',#244);
#244 = CARTESIAN_POINT('',(-17.8,20.,8.));
#245 = CIRCLE('',#246,2.2);
#246 = AXIS2_PLACEMENT_3D('',#247,#248,#249);
#247 = CARTESIAN_POINT('',(-20.,20.,8.));
#248 = DIRECTION('',(0.,0.,1.));
#249 = DIRECTION('',(1.,0.,-0.));
#250 = FACE_BOUND('',#251,.T.);
#251 = EDGE_LOOP('',(#252));
#252 = ORIENTED_EDGE('',*,*,#253,.F.);
#253 = EDGE_CURVE('',#254,#254,#256,.T.);
#254 = VERTEX_POINT('',#255);
#255 = CARTESIAN_POINT('',(22.2,20.,8.));
#256 = CIRCLE('',#257,2.2);
#257 = AXIS2_PLACEMENT_3D('',#258,#259,#260);
#258 = CARTESIAN_POINT('',(20.,20.,8.));
#259 = DIRECTION('',(0.,0.,1.));
#260 = DIRECTION('',(1.,0.,-0.));
#261 = PLANE('',#262);
#262 = AXIS2_PLACEMENT_3D('',#263,#264,#265);
#263 = CARTESIAN_POINT('',(-25.,-25.,8.));
#264 = DIRECTION('',(0.,0.,1.));
#265 = DIRECTION('',(1.,0.,-0.));
#266 = ADVANCED_FACE('',(#267),#285,.T.);
#267 = FACE_BOUND('',#268,.T.);
#268 = EDGE_LOOP('',(#269,#277,#278,#279));
#269 = ORIENTED_EDGE('',*,*,#270,.F.);
#270 = EDGE_CURVE('',#32,#271,#273,.T.);
#271 = VERTEX_POINT('',#272);
#272 = CARTESIAN_POINT('',(25.,25.,0.));
#273 = LINE('',#274,#275);
#274 = CARTESIAN_POINT('',(-25.,25.,0.));
#275 = VECTOR('',#276,1.);
#276 = DIRECTION('',(1.,0.,-0.));
#277 = ORIENTED_EDGE('',*,*,#39,.T.);
#278 = ORIENTED_EDGE('',*,*,#234,.T.);
#279 = ORIENTED_EDGE('',*,*,#280,.F.);
#280 = EDGE_CURVE('',#271,#227,#281,.T.);
#281 = LINE('',#282,#283);
#282 = CARTESIAN_POINT('',(25.,25.,0.));
#283 = VECTOR('',#284,1.);
#284 = DIRECTION('',(0.,0.,1.));
#285 = PLANE('',#286);
#286 = AXIS2_PLACEMENT_3D('',#287,#288,#289);
#287 = CARTESIAN_POINT('',(-25.,25.,0.));
#288 = DIRECTION('',(-0.,1.,0.));
#289 = DIRECTION('',(0.,0.,1.));
#290 = ADVANCED_FACE('',(#291,#302,#313,#324,#335),#346,.F.);
#291 = FACE_BOUND('',#292,.F.);
#292 = EDGE_LOOP('',(#293,#294,#295,#301));
#293 = ORIENTED_EDGE('',*,*,#31,.F.);
#294 = ORIENTED_EDGE('',*,*,#77,.T.);
#295 = ORIENTED_EDGE('',*,*,#296,.T.);
#296 = EDGE_CURVE('',#78,#271,#297,.T.);
#297 = LINE('',#298,#299);
#298 = CARTESIAN_POINT('',(25.,-25.,0.));
#299 = VECTOR('',#300,1.);
#300 = DIRECTION('',(-0.,1.,0.));
#301 = ORIENTED_EDGE('',*,*,#270,.F.);
#302 = FACE_BOUND('',#303,.F.);
#303 = EDGE_LOOP('',(#304));
#304 = ORIENTED_EDGE('',*,*,#305,.F.);
#305 = EDGE_CURVE('',#306,#306,#308,.T.);
#306 = VERTEX_POINT('',#307);
#307 = CARTESIAN_POINT('',(-17.8,-20.,0.));
#308 = CIRCLE('',#309,2.2);
#309 = AXIS2_PLACEMENT_3D('',#310,#311,#312);
#310 = CARTESIAN_POINT('',(-20.,-20.,0.));
#311 = DIRECTION('',(0.,0.,1.));
#312 = DIRECTION('',(1.,0.,-0.));
#313 = FACE_BOUND('',#314,.F.);
#314 = EDGE_LOOP('',(#315));
#315 = ORIENTED_EDGE('',*,*,#316,.F.);
#316 = EDGE_CURVE('',#317,#317,#319,.T.);
#317 = VERTEX_POINT('',#318);
#318 = CARTESIAN_POINT('',(22.2,-20.,0.));
#319 = CIRCLE('',#320,2.2);
#320 = AXIS2_PLACEMENT_3D('',#321,#322,#323);
#321 = CARTESIAN_POINT('',(20.,-20.,0.));
#322 = DIRECTION('',(0.,0.,1.));
#323 = DIRECTION('',(1.,0.,-0.));
#324 = FACE_BOUND('',#325,.F.);
#325 = EDGE_LOOP('',(#326));
#326 = ORIENTED_EDGE('',*,*,#327,.F.);
#327 = EDGE_CURVE('',#328,#328,#330,.T.);
#328 = VERTEX_POINT('',#329);
#329 = CARTESIAN_POINT('',(-17.8,20.,0.));
#330 = CIRCLE('',#331,2.2);
#331 = AXIS2_PLACEMENT_3D('',#332,#333,#334);
#332 = CARTESIAN_POINT('',(-20.,20.,0.));
#333 = DIRECTION('',(0.,0.,1.));
#334 = DIRECTION('',(1.,0.,-0.));
#335 = FACE_BOUND('',#336,.F.);
#336 = EDGE_LOOP('',(#337));
#337 = ORIENTED_EDGE('',*,*,#338,.F.);
#338 = EDGE_CURVE('',#339,#339,#341,.T.);
#339 = VERTEX_POINT('',#340);
#340 = CARTESIAN_POINT('',(22.2,20.,0.));
#341 = CIRCLE('',#342,2.2);
#342 = AXIS2_PLACEMENT_3D('',#343,#344,#345);
#343 = CARTESIAN_POINT('',(20.,20.,0.));
#344 = DIRECTION('',(0.,0.,1.));
#345 = DIRECTION('',(1.,0.,-0.));
#346 = PLANE('',#347);
#347 = AXIS2_PLACEMENT_3D('',#348,#349,#350);
#348 = CARTESIAN_POINT('',(-25.,-25.,0.));
#349 = DIRECTION('',(0.,0.,1.));
#350 = DIRECTION('',(1.,0.,-0.));
#351 = ADVANCED_FACE('',(#352),#365,.T.);
#352 = FACE_BOUND('',#353,.T.);
#353 = EDGE_LOOP('',(#354,#355,#356,#357,#358,#364));
#354 = ORIENTED_EDGE('',*,*,#94,.F.);
#355 = ORIENTED_EDGE('',*,*,#296,.T.);
#356 = ORIENTED_EDGE('',*,*,#280,.T.);
#357 = ORIENTED_EDGE('',*,*,#226,.F.);
#358 = ORIENTED_EDGE('',*,*,#359,.F.);
#359 = EDGE_CURVE('',#111,#219,#360,.T.);
#360 = LINE('',#361,#362);
#361 = CARTESIAN_POINT('',(25.,-25.,8.));
#362 = VECTOR('',#363,1.);
#363 = DIRECTION('',(-0.,1.,0.));
#364 = ORIENTED_EDGE('',*,*,#110,.F.);
#365 = PLANE('',#366);
#366 = AXIS2_PLACEMENT_3D('',#367,#368,#369);
#367 = CARTESIAN_POINT('',(25.,-25.,0.));
#368 = DIRECTION('',(1.,0.,-0.));
#369 = DIRECTION('',(0.,0.,1.));
#370 = ADVANCED_FACE('',(#371),#389,.F.);
#371 = FACE_BOUND('',#372,.F.);
#372 = EDGE_LOOP('',(#373,#374,#375,#383));
#373 = ORIENTED_EDGE('',*,*,#118,.F.);
#374 = ORIENTED_EDGE('',*,*,#154,.T.);
#375 = ORIENTED_EDGE('',*,*,#376,.T.);
#376 = EDGE_CURVE('',#155,#377,#379,.T.);
#377 = VERTEX_POINT('',#378);
#378 = CARTESIAN_POINT('',(25.,-15.,32.));
#379 = LINE('',#380,#381);
#380 = CARTESIAN_POINT('',(-25.,-15.,32.));
#381 = VECTOR('',#382,1.);
#382 = DIRECTION('',(1.,0.,-0.));
#383 = ORIENTED_EDGE('',*,*,#384,.F.);
#384 = EDGE_CURVE('',#111,#377,#385,.T.);
#385 = LINE('',#386,#387);
#386 = CARTESIAN_POINT('',(25.,-15.,8.));
#387 = VECTOR('',#388,1.);
#388 = DIRECTION('',(0.,0.,1.));
#389 = PLANE('',#390);
#390 = AXIS2_PLACEMENT_3D('',#391,#392,#393);
#391 = CARTESIAN_POINT('',(-25.,-15.,8.));
#392 = DIRECTION('',(-0.,1.,0.));
#393 = DIRECTION('',(0.,0.,1.));
#394 = ADVANCED_FACE('',(#395),#406,.F.);
#395 = FACE_BOUND('',#396,.F.);
#396 = EDGE_LOOP('',(#397,#398,#404,#405));
#397 = ORIENTED_EDGE('',*,*,#126,.F.);
#398 = ORIENTED_EDGE('',*,*,#399,.F.);
#399 = EDGE_CURVE('',#306,#127,#400,.T.);
#400 = LINE('',#401,#402);
#401 = CARTESIAN_POINT('',(-17.8,-20.,-1.));
#402 = VECTOR('',#403,1.);
#403 = DIRECTION('',(0.,0.,1.));
#404 = ORIENTED_EDGE('',*,*,#305,.T.);
#405 = ORIENTED_EDGE('',*,*,#399,.T.);
#406 = CYLINDRICAL_SURFACE('',#407,2.2);
#407 = AXIS2_PLACEMENT_3D('',#408,#409,#410);
#408 = CARTESIAN_POINT('',(-20.,-20.,-1.));
#409 = DIRECTION('',(0.,0.,1.));
#410 = DIRECTION('',(1.,0.,-0.));
#411 = ADVANCED_FACE('',(#412),#423,.F.);
#412 = FACE_BOUND('',#413,.F.);
#413 = EDGE_LOOP('',(#414,#415,#421,#422));
#414 = ORIENTED_EDGE('',*,*,#137,.F.);
#415 = ORIENTED_EDGE('',*,*,#416,.F.);
#416 = EDGE_CURVE('',#317,#138,#417,.T.);
#417 = LINE('',#418,#419);
#418 = CARTESIAN_POINT('',(22.2,-20.,-1.));
#419 = VECTOR('',#420,1.);
#420 = DIRECTION('',(0.,0.,1.));
#421 = ORIENTED_EDGE('',*,*,#316,.T.);
#422 = ORIENTED_EDGE('',*,*,#416,.T.);
#423 = CYLINDRICAL_SURFACE('',#424,2.2);
#424 = AXIS2_PLACEMENT_3D('',#425,#426,#427);
#425 = CARTESIAN_POINT('',(20.,-20.,-1.));
#426 = DIRECTION('',(0.,0.,1.));
#427 = DIRECTION('',(1.,0.,-0.));
#428 = ADVANCED_FACE('',(#429),#447,.T.);
#429 = FACE_BOUND('',#430,.T.);
#430 = EDGE_LOOP('',(#431,#432,#433,#441));
#431 = ORIENTED_EDGE('',*,*,#171,.F.);
#432 = ORIENTED_EDGE('',*,*,#376,.T.);
#433 = ORIENTED_EDGE('',*,*,#434,.T.);
#434 = EDGE_CURVE('',#377,#435,#437,.T.);
#435 = VERTEX_POINT('',#436);
#436 = CARTESIAN_POINT('',(25.,15.,32.));
#437 = LINE('',#438,#439);
#438 = CARTESIAN_POINT('',(25.,-15.,32.));
#439 = VECTOR('',#440,1.);
#440 = DIRECTION('',(-0.,1.,0.));
#441 = ORIENTED_EDGE('',*,*,#442,.F.);
#442 = EDGE_CURVE('',#164,#435,#443,.T.);
#443 = LINE('',#444,#445);
#444 = CARTESIAN_POINT('',(-25.,15.,32.));
#445 = VECTOR('',#446,1.);
#446 = DIRECTION('',(1.,0.,-0.));
#447 = PLANE('',#448);
#448 = AXIS2_PLACEMENT_3D('',#449,#450,#451);
#449 = CARTESIAN_POINT('',(-25.,-15.,32.));
#450 = DIRECTION('',(0.,0.,1.));
#451 = DIRECTION('',(1.,0.,-0.));
#452 = ADVANCED_FACE('',(#453),#464,.T.);
#453 = FACE_BOUND('',#454,.T.);
#454 = EDGE_LOOP('',(#455,#456,#457,#458));
#455 = ORIENTED_EDGE('',*,*,#218,.F.);
#456 = ORIENTED_EDGE('',*,*,#163,.T.);
#457 = ORIENTED_EDGE('',*,*,#442,.T.);
#458 = ORIENTED_EDGE('',*,*,#459,.F.);
#459 = EDGE_CURVE('',#219,#435,#460,.T.);
#460 = LINE('',#461,#462);
#461 = CARTESIAN_POINT('',(25.,15.,8.));
#462 = VECTOR('',#463,1.);
#463 = DIRECTION('',(0.,0.,1.));
#464 = PLANE('',#465);
#465 = AXIS2_PLACEMENT_3D('',#466,#467,#468);
#466 = CARTESIAN_POINT('',(-25.,15.,8.));
#467 = DIRECTION('',(-0.,1.,0.));
#468 = DIRECTION('',(0.,0.,1.));
#469 = ADVANCED_FACE('',(#470),#495,.F.);
#470 = FACE_BOUND('',#471,.F.);
#471 = EDGE_LOOP('',(#472,#479,#480,#487));
#472 = ORIENTED_EDGE('',*,*,#473,.F.);
#473 = EDGE_CURVE('',#180,#474,#476,.T.);
#474 = VERTEX_POINT('',#475);
#475 = CARTESIAN_POINT('',(-13.53401514929,3.119191433695,18.));
#476 = B_SPLINE_CURVE_WITH_KNOTS('',1,(#477,#478),.UNSPECIFIED.,.F.,.F.,
  (2,2),(0.,1.),.PIECEWISE_BEZIER_KNOTS.);
#477 = CARTESIAN_POINT('',(-26.,2.4,18.));
#478 = CARTESIAN_POINT('',(26.,5.4,18.));
#479 = ORIENTED_EDGE('',*,*,#179,.T.);
#480 = ORIENTED_EDGE('',*,*,#481,.T.);
#481 = EDGE_CURVE('',#182,#482,#484,.T.);
#482 = VERTEX_POINT('',#483);
#483 = CARTESIAN_POINT('',(-13.53401514929,3.119191433695,19.8));
#484 = B_SPLINE_CURVE_WITH_KNOTS('',1,(#485,#486),.UNSPECIFIED.,.F.,.F.,
  (2,2),(0.,1.),.PIECEWISE_BEZIER_KNOTS.);
#485 = CARTESIAN_POINT('',(-26.,2.4,19.8));
#486 = CARTESIAN_POINT('',(26.,5.4,19.8));
#487 = ORIENTED_EDGE('',*,*,#488,.T.);
#488 = EDGE_CURVE('',#482,#474,#489,.T.);
#489 = B_SPLINE_CURVE_WITH_KNOTS('',4,(#490,#491,#492,#493,#494),
  .UNSPECIFIED.,.F.,.F.,(5,5),(0.,1.),.PIECEWISE_BEZIER_KNOTS.);
#490 = CARTESIAN_POINT('',(-13.53401514929,3.119191433695,19.8));
#491 = CARTESIAN_POINT('',(-13.53401514929,3.119191433695,19.35));
#492 = CARTESIAN_POINT('',(-13.53401514929,3.119191433695,18.9));
#493 = CARTESIAN_POINT('',(-13.53401514929,3.119191433695,18.45));
#494 = CARTESIAN_POINT('',(-13.53401514929,3.119191433695,18.));
#495 = PLANE('',#496);
#496 = AXIS2_PLACEMENT_3D('',#497,#498,#499);
#497 = CARTESIAN_POINT('',(26.,5.4,18.));
#498 = DIRECTION('',(-5.759653509667E-02,0.998339941676,0.));
#499 = DIRECTION('',(0.,0.,1.));
#500 = ADVANCED_FACE('',(#501),#563,.F.);
#501 = FACE_BOUND('',#502,.F.);
#502 = EDGE_LOOP('',(#503,#504,#505,#512,#520,#527,#535,#542,#550,#557)
  );
#503 = ORIENTED_EDGE('',*,*,#481,.F.);
#504 = ORIENTED_EDGE('',*,*,#204,.F.);
#505 = ORIENTED_EDGE('',*,*,#506,.T.);
#506 = EDGE_CURVE('',#197,#507,#509,.T.);
#507 = VERTEX_POINT('',#508);
#508 = CARTESIAN_POINT('',(-13.53401514929,-3.119191433695,19.8));
#509 = B_SPLINE_CURVE_WITH_KNOTS('',1,(#510,#511),.UNSPECIFIED.,.F.,.F.,
  (2,2),(0.,1.),.PIECEWISE_BEZIER_KNOTS.);
#510 = CARTESIAN_POINT('',(-26.,-2.4,19.8));
#511 = CARTESIAN_POINT('',(26.,-5.4,19.8));
#512 = ORIENTED_EDGE('',*,*,#513,.F.);
#513 = EDGE_CURVE('',#514,#507,#516,.T.);
#514 = VERTEX_POINT('',#515);
#515 = CARTESIAN_POINT('',(-21.,-0.95,19.8));
#516 = B_SPLINE_CURVE_WITH_KNOTS('',2,(#517,#518,#519),.UNSPECIFIED.,.F.
  ,.F.,(3,3),(0.,1.),.PIECEWISE_BEZIER_KNOTS.);
#517 = CARTESIAN_POINT('',(-21.,-0.95,19.8));
#518 = CARTESIAN_POINT('',(1.648092943239,-8.574517579797,19.8));
#519 = CARTESIAN_POINT('',(25.,-3.7,19.8));
#520 = ORIENTED_EDGE('',*,*,#521,.T.);
#521 = EDGE_CURVE('',#514,#522,#524,.T.);
#522 = VERTEX_POINT('',#523);
#523 = CARTESIAN_POINT('',(-21.,-0.45,19.8));
#524 = B_SPLINE_CURVE_WITH_KNOTS('',1,(#525,#526),.UNSPECIFIED.,.F.,.F.,
  (2,2),(2.,3.),.PIECEWISE_BEZIER_KNOTS.);
#525 = CARTESIAN_POINT('',(-21.,-0.95,19.8));
#526 = CARTESIAN_POINT('',(-21.,-0.45,19.8));
#527 = ORIENTED_EDGE('',*,*,#528,.T.);
#528 = EDGE_CURVE('',#522,#529,#531,.T.);
#529 = VERTEX_POINT('',#530);
#530 = CARTESIAN_POINT('',(25.,-0.85,19.8));
#531 = B_SPLINE_CURVE_WITH_KNOTS('',2,(#532,#533,#534),.UNSPECIFIED.,.F.
  ,.F.,(3,3),(0.,1.),.PIECEWISE_BEZIER_KNOTS.);
#532 = CARTESIAN_POINT('',(-21.,-0.45,19.8));
#533 = CARTESIAN_POINT('',(1.648092943239,-1.55902073888,19.8));
#534 = CARTESIAN_POINT('',(25.,-0.85,19.8));
#535 = ORIENTED_EDGE('',*,*,#536,.T.);
#536 = EDGE_CURVE('',#529,#537,#539,.T.);
#537 = VERTEX_POINT('',#538);
#538 = CARTESIAN_POINT('',(25.,0.85,19.8));
#539 = B_SPLINE_CURVE_WITH_KNOTS('',1,(#540,#541),.UNSPECIFIED.,.F.,.F.,
  (2,2),(0.,1.),.PIECEWISE_BEZIER_KNOTS.);
#540 = CARTESIAN_POINT('',(25.,-5.342307692308,19.8));
#541 = CARTESIAN_POINT('',(25.,5.342307692308,19.8));
#542 = ORIENTED_EDGE('',*,*,#543,.F.);
#543 = EDGE_CURVE('',#544,#537,#546,.T.);
#544 = VERTEX_POINT('',#545);
#545 = CARTESIAN_POINT('',(-21.,0.45,19.8));
#546 = B_SPLINE_CURVE_WITH_KNOTS('',2,(#547,#548,#549),.UNSPECIFIED.,.F.
  ,.F.,(3,3),(0.,1.),.PIECEWISE_BEZIER_KNOTS.);
#547 = CARTESIAN_POINT('',(-21.,0.45,19.8));
#548 = CARTESIAN_POINT('',(1.648092943239,1.55902073888,19.8));
#549 = CARTESIAN_POINT('',(25.,0.85,19.8));
#550 = ORIENTED_EDGE('',*,*,#551,.F.);
#551 = EDGE_CURVE('',#552,#544,#554,.T.);
#552 = VERTEX_POINT('',#553);
#553 = CARTESIAN_POINT('',(-21.,0.95,19.8));
#554 = B_SPLINE_CURVE_WITH_KNOTS('',1,(#555,#556),.UNSPECIFIED.,.F.,.F.,
  (2,2),(2.,3.),.PIECEWISE_BEZIER_KNOTS.);
#555 = CARTESIAN_POINT('',(-21.,0.95,19.8));
#556 = CARTESIAN_POINT('',(-21.,0.45,19.8));
#557 = ORIENTED_EDGE('',*,*,#558,.T.);
#558 = EDGE_CURVE('',#552,#482,#559,.T.);
#559 = B_SPLINE_CURVE_WITH_KNOTS('',2,(#560,#561,#562),.UNSPECIFIED.,.F.
  ,.F.,(3,3),(0.,1.),.PIECEWISE_BEZIER_KNOTS.);
#560 = CARTESIAN_POINT('',(-21.,0.95,19.8));
#561 = CARTESIAN_POINT('',(1.648092943239,8.574517579797,19.8));
#562 = CARTESIAN_POINT('',(25.,3.7,19.8));
#563 = B_SPLINE_SURFACE_WITH_KNOTS('',1,1,(
    (#564,#565)
    ,(#566,#567
    )),.UNSPECIFIED.,.F.,.F.,.F.,(2,2),(2,2),(0.,10.8),(0.,1.),
  .PIECEWISE_BEZIER_KNOTS.);
#564 = CARTESIAN_POINT('',(-26.,2.4,19.8));
#565 = CARTESIAN_POINT('',(26.,5.4,19.8));
#566 = CARTESIAN_POINT('',(-26.,-2.4,19.8));
#567 = CARTESIAN_POINT('',(26.,-5.4,19.8));
#568 = ADVANCED_FACE('',(#569),#588,.F.);
#569 = FACE_BOUND('',#570,.F.);
#570 = EDGE_LOOP('',(#571,#572,#573,#580));
#571 = ORIENTED_EDGE('',*,*,#506,.F.);
#572 = ORIENTED_EDGE('',*,*,#196,.T.);
#573 = ORIENTED_EDGE('',*,*,#574,.T.);
#574 = EDGE_CURVE('',#190,#575,#577,.T.);
#575 = VERTEX_POINT('',#576);
#576 = CARTESIAN_POINT('',(-13.53401514929,-3.119191433695,18.));
#577 = B_SPLINE_CURVE_WITH_KNOTS('',1,(#578,#579),.UNSPECIFIED.,.F.,.F.,
  (2,2),(0.,1.),.PIECEWISE_BEZIER_KNOTS.);
#578 = CARTESIAN_POINT('',(-26.,-2.4,18.));
#579 = CARTESIAN_POINT('',(26.,-5.4,18.));
#580 = ORIENTED_EDGE('',*,*,#581,.F.);
#581 = EDGE_CURVE('',#507,#575,#582,.T.);
#582 = B_SPLINE_CURVE_WITH_KNOTS('',4,(#583,#584,#585,#586,#587),
  .UNSPECIFIED.,.F.,.F.,(5,5),(0.,1.),.PIECEWISE_BEZIER_KNOTS.);
#583 = CARTESIAN_POINT('',(-13.53401514929,-3.119191433695,19.8));
#584 = CARTESIAN_POINT('',(-13.53401514929,-3.119191433695,19.35));
#585 = CARTESIAN_POINT('',(-13.53401514929,-3.119191433695,18.9));
#586 = CARTESIAN_POINT('',(-13.53401514929,-3.119191433695,18.45));
#587 = CARTESIAN_POINT('',(-13.53401514929,-3.119191433695,18.));
#588 = PLANE('',#589);
#589 = AXIS2_PLACEMENT_3D('',#590,#591,#592);
#590 = CARTESIAN_POINT('',(26.,-5.4,19.8));
#591 = DIRECTION('',(-5.759653509667E-02,-0.998339941676,-0.));
#592 = DIRECTION('',(0.,0.,-1.));
#593 = ADVANCED_FACE('',(#594),#650,.F.);
#594 = FACE_BOUND('',#595,.F.);
#595 = EDGE_LOOP('',(#596,#597,#598,#599,#607,#614,#622,#629,#637,#644)
  );
#596 = ORIENTED_EDGE('',*,*,#574,.F.);
#597 = ORIENTED_EDGE('',*,*,#189,.F.);
#598 = ORIENTED_EDGE('',*,*,#473,.T.);
#599 = ORIENTED_EDGE('',*,*,#600,.F.);
#600 = EDGE_CURVE('',#601,#474,#603,.T.);
#601 = VERTEX_POINT('',#602);
#602 = CARTESIAN_POINT('',(-21.,0.95,18.));
#603 = B_SPLINE_CURVE_WITH_KNOTS('',2,(#604,#605,#606),.UNSPECIFIED.,.F.
  ,.F.,(3,3),(0.,1.),.PIECEWISE_BEZIER_KNOTS.);
#604 = CARTESIAN_POINT('',(-21.,0.95,18.));
#605 = CARTESIAN_POINT('',(1.648092943239,8.574517579797,18.));
#606 = CARTESIAN_POINT('',(25.,3.7,18.));
#607 = ORIENTED_EDGE('',*,*,#608,.F.);
#608 = EDGE_CURVE('',#609,#601,#611,.T.);
#609 = VERTEX_POINT('',#610);
#610 = CARTESIAN_POINT('',(-21.,0.45,18.));
#611 = B_SPLINE_CURVE_WITH_KNOTS('',1,(#612,#613),.UNSPECIFIED.,.F.,.F.,
  (2,2),(0.,1.),.PIECEWISE_BEZIER_KNOTS.);
#612 = CARTESIAN_POINT('',(-21.,0.45,18.));
#613 = CARTESIAN_POINT('',(-21.,0.95,18.));
#614 = ORIENTED_EDGE('',*,*,#615,.T.);
#615 = EDGE_CURVE('',#609,#616,#618,.T.);
#616 = VERTEX_POINT('',#617);
#617 = CARTESIAN_POINT('',(25.,0.85,18.));
#618 = B_SPLINE_CURVE_WITH_KNOTS('',2,(#619,#620,#621),.UNSPECIFIED.,.F.
  ,.F.,(3,3),(0.,1.),.PIECEWISE_BEZIER_KNOTS.);
#619 = CARTESIAN_POINT('',(-21.,0.45,18.));
#620 = CARTESIAN_POINT('',(1.648092943239,1.55902073888,18.));
#621 = CARTESIAN_POINT('',(25.,0.85,18.));
#622 = ORIENTED_EDGE('',*,*,#623,.T.);
#623 = EDGE_CURVE('',#616,#624,#626,.T.);
#624 = VERTEX_POINT('',#625);
#625 = CARTESIAN_POINT('',(25.,-0.85,18.));
#626 = B_SPLINE_CURVE_WITH_KNOTS('',1,(#627,#628),.UNSPECIFIED.,.F.,.F.,
  (2,2),(0.,1.),.PIECEWISE_BEZIER_KNOTS.);
#627 = CARTESIAN_POINT('',(25.,5.342307692308,18.));
#628 = CARTESIAN_POINT('',(25.,-5.342307692308,18.));
#629 = ORIENTED_EDGE('',*,*,#630,.F.);
#630 = EDGE_CURVE('',#631,#624,#633,.T.);
#631 = VERTEX_POINT('',#632);
#632 = CARTESIAN_POINT('',(-21.,-0.45,18.));
#633 = B_SPLINE_CURVE_WITH_KNOTS('',2,(#634,#635,#636),.UNSPECIFIED.,.F.
  ,.F.,(3,3),(0.,1.),.PIECEWISE_BEZIER_KNOTS.);
#634 = CARTESIAN_POINT('',(-21.,-0.45,18.));
#635 = CARTESIAN_POINT('',(1.648092943239,-1.55902073888,18.));
#636 = CARTESIAN_POINT('',(25.,-0.85,18.));
#637 = ORIENTED_EDGE('',*,*,#638,.T.);
#638 = EDGE_CURVE('',#631,#639,#641,.T.);
#639 = VERTEX_POINT('',#640);
#640 = CARTESIAN_POINT('',(-21.,-0.95,18.));
#641 = B_SPLINE_CURVE_WITH_KNOTS('',1,(#642,#643),.UNSPECIFIED.,.F.,.F.,
  (2,2),(0.,1.),.PIECEWISE_BEZIER_KNOTS.);
#642 = CARTESIAN_POINT('',(-21.,-0.45,18.));
#643 = CARTESIAN_POINT('',(-21.,-0.95,18.));
#644 = ORIENTED_EDGE('',*,*,#645,.T.);
#645 = EDGE_CURVE('',#639,#575,#646,.T.);
#646 = B_SPLINE_CURVE_WITH_KNOTS('',2,(#647,#648,#649),.UNSPECIFIED.,.F.
  ,.F.,(3,3),(0.,1.),.PIECEWISE_BEZIER_KNOTS.);
#647 = CARTESIAN_POINT('',(-21.,-0.95,18.));
#648 = CARTESIAN_POINT('',(1.648092943239,-8.574517579797,18.));
#649 = CARTESIAN_POINT('',(25.,-3.7,18.));
#650 = B_SPLINE_SURFACE_WITH_KNOTS('',1,1,(
    (#651,#652)
    ,(#653,#654
    )),.UNSPECIFIED.,.F.,.F.,.F.,(2,2),(2,2),(0.,10.8),(0.,1.),
  .PIECEWISE_BEZIER_KNOTS.);
#651 = CARTESIAN_POINT('',(-26.,-2.4,18.));
#652 = CARTESIAN_POINT('',(26.,-5.4,18.));
#653 = CARTESIAN_POINT('',(-26.,2.4,18.));
#654 = CARTESIAN_POINT('',(26.,5.4,18.));
#655 = ADVANCED_FACE('',(#656),#667,.F.);
#656 = FACE_BOUND('',#657,.F.);
#657 = EDGE_LOOP('',(#658,#659,#665,#666));
#658 = ORIENTED_EDGE('',*,*,#242,.F.);
#659 = ORIENTED_EDGE('',*,*,#660,.F.);
#660 = EDGE_CURVE('',#328,#243,#661,.T.);
#661 = LINE('',#662,#663);
#662 = CARTESIAN_POINT('',(-17.8,20.,-1.));
#663 = VECTOR('',#664,1.);
#664 = DIRECTION('',(0.,0.,1.));
#665 = ORIENTED_EDGE('',*,*,#327,.T.);
#666 = ORIENTED_EDGE('',*,*,#660,.T.);
#667 = CYLINDRICAL_SURFACE('',#668,2.2);
#668 = AXIS2_PLACEMENT_3D('',#669,#670,#671);
#669 = CARTESIAN_POINT('',(-20.,20.,-1.));
#670 = DIRECTION('',(0.,0.,1.));
#671 = DIRECTION('',(1.,0.,-0.));
#672 = ADVANCED_FACE('',(#673),#684,.F.);
#673 = FACE_BOUND('',#674,.F.);
#674 = EDGE_LOOP('',(#675,#676,#682,#683));
#675 = ORIENTED_EDGE('',*,*,#253,.F.);
#676 = ORIENTED_EDGE('',*,*,#677,.F.);
#677 = EDGE_CURVE('',#339,#254,#678,.T.);
#678 = LINE('',#679,#680);
#679 = CARTESIAN_POINT('',(22.2,20.,-1.));
#680 = VECTOR('',#681,1.);
#681 = DIRECTION('',(0.,0.,1.));
#682 = ORIENTED_EDGE('',*,*,#338,.T.);
#683 = ORIENTED_EDGE('',*,*,#677,.T.);
#684 = CYLINDRICAL_SURFACE('',#685,2.2);
#685 = AXIS2_PLACEMENT_3D('',#686,#687,#688);
#686 = CARTESIAN_POINT('',(20.,20.,-1.));
#687 = DIRECTION('',(0.,0.,1.));
#688 = DIRECTION('',(1.,0.,-0.));
#689 = ADVANCED_FACE('',(#690,#696),#768,.T.);
#690 = FACE_BOUND('',#691,.T.);
#691 = EDGE_LOOP('',(#692,#693,#694,#695));
#692 = ORIENTED_EDGE('',*,*,#384,.F.);
#693 = ORIENTED_EDGE('',*,*,#359,.T.);
#694 = ORIENTED_EDGE('',*,*,#459,.T.);
#695 = ORIENTED_EDGE('',*,*,#434,.F.);
#696 = FACE_BOUND('',#697,.T.);
#697 = EDGE_LOOP('',(#698,#708,#715,#720,#721,#728,#735,#743,#750,#755,
    #756,#763));
#698 = ORIENTED_EDGE('',*,*,#699,.F.);
#699 = EDGE_CURVE('',#700,#702,#704,.T.);
#700 = VERTEX_POINT('',#701);
#701 = CARTESIAN_POINT('',(25.,5.342307692308,18.));
#702 = VERTEX_POINT('',#703);
#703 = CARTESIAN_POINT('',(25.,5.342307692308,19.8));
#704 = LINE('',#705,#706);
#705 = CARTESIAN_POINT('',(25.,5.342307692308,13.));
#706 = VECTOR('',#707,1.);
#707 = DIRECTION('',(0.,0.,1.));
#708 = ORIENTED_EDGE('',*,*,#709,.T.);
#709 = EDGE_CURVE('',#700,#710,#712,.T.);
#710 = VERTEX_POINT('',#711);
#711 = CARTESIAN_POINT('',(25.,3.7,18.));
#712 = B_SPLINE_CURVE_WITH_KNOTS('',1,(#713,#714),.UNSPECIFIED.,.F.,.F.,
  (2,2),(0.,1.),.PIECEWISE_BEZIER_KNOTS.);
#713 = CARTESIAN_POINT('',(25.,5.342307692308,18.));
#714 = CARTESIAN_POINT('',(25.,-5.342307692308,18.));
#715 = ORIENTED_EDGE('',*,*,#716,.T.);
#716 = EDGE_CURVE('',#710,#616,#717,.T.);
#717 = B_SPLINE_CURVE_WITH_KNOTS('',1,(#718,#719),.UNSPECIFIED.,.F.,.F.,
  (2,2),(0.,1.),.PIECEWISE_BEZIER_KNOTS.);
#718 = CARTESIAN_POINT('',(25.,5.342307692308,18.));
#719 = CARTESIAN_POINT('',(25.,-5.342307692308,18.));
#720 = ORIENTED_EDGE('',*,*,#623,.T.);
#721 = ORIENTED_EDGE('',*,*,#722,.T.);
#722 = EDGE_CURVE('',#624,#723,#725,.T.);
#723 = VERTEX_POINT('',#724);
#724 = CARTESIAN_POINT('',(25.,-3.7,18.));
#725 = B_SPLINE_CURVE_WITH_KNOTS('',1,(#726,#727),.UNSPECIFIED.,.F.,.F.,
  (2,2),(0.,1.),.PIECEWISE_BEZIER_KNOTS.);
#726 = CARTESIAN_POINT('',(25.,5.342307692308,18.));
#727 = CARTESIAN_POINT('',(25.,-5.342307692308,18.));
#728 = ORIENTED_EDGE('',*,*,#729,.T.);
#729 = EDGE_CURVE('',#723,#730,#732,.T.);
#730 = VERTEX_POINT('',#731);
#731 = CARTESIAN_POINT('',(25.,-5.342307692308,18.));
#732 = B_SPLINE_CURVE_WITH_KNOTS('',1,(#733,#734),.UNSPECIFIED.,.F.,.F.,
  (2,2),(0.,1.),.PIECEWISE_BEZIER_KNOTS.);
#733 = CARTESIAN_POINT('',(25.,5.342307692308,18.));
#734 = CARTESIAN_POINT('',(25.,-5.342307692308,18.));
#735 = ORIENTED_EDGE('',*,*,#736,.F.);
#736 = EDGE_CURVE('',#737,#730,#739,.T.);
#737 = VERTEX_POINT('',#738);
#738 = CARTESIAN_POINT('',(25.,-5.342307692308,19.8));
#739 = LINE('',#740,#741);
#740 = CARTESIAN_POINT('',(25.,-5.342307692308,13.9));
#741 = VECTOR('',#742,1.);
#742 = DIRECTION('',(-0.,0.,-1.));
#743 = ORIENTED_EDGE('',*,*,#744,.T.);
#744 = EDGE_CURVE('',#737,#745,#747,.T.);
#745 = VERTEX_POINT('',#746);
#746 = CARTESIAN_POINT('',(25.,-3.7,19.8));
#747 = B_SPLINE_CURVE_WITH_KNOTS('',1,(#748,#749),.UNSPECIFIED.,.F.,.F.,
  (2,2),(0.,1.),.PIECEWISE_BEZIER_KNOTS.);
#748 = CARTESIAN_POINT('',(25.,-5.342307692308,19.8));
#749 = CARTESIAN_POINT('',(25.,5.342307692308,19.8));
#750 = ORIENTED_EDGE('',*,*,#751,.T.);
#751 = EDGE_CURVE('',#745,#529,#752,.T.);
#752 = B_SPLINE_CURVE_WITH_KNOTS('',1,(#753,#754),.UNSPECIFIED.,.F.,.F.,
  (2,2),(0.,1.),.PIECEWISE_BEZIER_KNOTS.);
#753 = CARTESIAN_POINT('',(25.,-5.342307692308,19.8));
#754 = CARTESIAN_POINT('',(25.,5.342307692308,19.8));
#755 = ORIENTED_EDGE('',*,*,#536,.T.);
#756 = ORIENTED_EDGE('',*,*,#757,.T.);
#757 = EDGE_CURVE('',#537,#758,#760,.T.);
#758 = VERTEX_POINT('',#759);
#759 = CARTESIAN_POINT('',(25.,3.7,19.8));
#760 = B_SPLINE_CURVE_WITH_KNOTS('',1,(#761,#762),.UNSPECIFIED.,.F.,.F.,
  (2,2),(0.,1.),.PIECEWISE_BEZIER_KNOTS.);
#761 = CARTESIAN_POINT('',(25.,-5.342307692308,19.8));
#762 = CARTESIAN_POINT('',(25.,5.342307692308,19.8));
#763 = ORIENTED_EDGE('',*,*,#764,.T.);
#764 = EDGE_CURVE('',#758,#702,#765,.T.);
#765 = B_SPLINE_CURVE_WITH_KNOTS('',1,(#766,#767),.UNSPECIFIED.,.F.,.F.,
  (2,2),(0.,1.),.PIECEWISE_BEZIER_KNOTS.);
#766 = CARTESIAN_POINT('',(25.,-5.342307692308,19.8));
#767 = CARTESIAN_POINT('',(25.,5.342307692308,19.8));
#768 = PLANE('',#769);
#769 = AXIS2_PLACEMENT_3D('',#770,#771,#772);
#770 = CARTESIAN_POINT('',(25.,-15.,8.));
#771 = DIRECTION('',(1.,0.,-0.));
#772 = DIRECTION('',(0.,0.,1.));
#773 = ADVANCED_FACE('',(#774),#784,.T.);
#774 = FACE_BOUND('',#775,.T.);
#775 = EDGE_LOOP('',(#776,#777,#782,#783));
#776 = ORIENTED_EDGE('',*,*,#600,.F.);
#777 = ORIENTED_EDGE('',*,*,#778,.T.);
#778 = EDGE_CURVE('',#601,#552,#779,.T.);
#779 = B_SPLINE_CURVE_WITH_KNOTS('',1,(#780,#781),.UNSPECIFIED.,.F.,.F.,
  (2,2),(1.,2.),.PIECEWISE_BEZIER_KNOTS.);
#780 = CARTESIAN_POINT('',(-21.,0.95,18.));
#781 = CARTESIAN_POINT('',(-21.,0.95,19.8));
#782 = ORIENTED_EDGE('',*,*,#558,.T.);
#783 = ORIENTED_EDGE('',*,*,#488,.T.);
#784 = B_SPLINE_SURFACE_WITH_KNOTS('',1,2,(
    (#785,#786,#787)
    ,(#788,#789,#790
    )),.UNSPECIFIED.,.F.,.F.,.F.,(2,2),(3,3),(1.,2.),(0.,1.),
  .PIECEWISE_BEZIER_KNOTS.);
#785 = CARTESIAN_POINT('',(-21.,0.95,18.));
#786 = CARTESIAN_POINT('',(1.648092943239,8.574517579797,18.));
#787 = CARTESIAN_POINT('',(25.,3.7,18.));
#788 = CARTESIAN_POINT('',(-21.,0.95,19.8));
#789 = CARTESIAN_POINT('',(1.648092943239,8.574517579797,19.8));
#790 = CARTESIAN_POINT('',(25.,3.7,19.8));
#791 = ADVANCED_FACE('',(#792),#802,.T.);
#792 = FACE_BOUND('',#793,.T.);
#793 = EDGE_LOOP('',(#794,#795,#800,#801));
#794 = ORIENTED_EDGE('',*,*,#608,.F.);
#795 = ORIENTED_EDGE('',*,*,#796,.F.);
#796 = EDGE_CURVE('',#544,#609,#797,.T.);
#797 = B_SPLINE_CURVE_WITH_KNOTS('',1,(#798,#799),.UNSPECIFIED.,.F.,.F.,
  (2,2),(3.,4.),.PIECEWISE_BEZIER_KNOTS.);
#798 = CARTESIAN_POINT('',(-21.,0.45,19.8));
#799 = CARTESIAN_POINT('',(-21.,0.45,18.));
#800 = ORIENTED_EDGE('',*,*,#551,.F.);
#801 = ORIENTED_EDGE('',*,*,#778,.F.);
#802 = PLANE('',#803);
#803 = AXIS2_PLACEMENT_3D('',#804,#805,#806);
#804 = CARTESIAN_POINT('',(-21.,0.45,18.));
#805 = DIRECTION('',(-1.,0.,0.));
#806 = DIRECTION('',(0.,0.267643863786,0.96351790963));
#807 = ADVANCED_FACE('',(#808),#818,.T.);
#808 = FACE_BOUND('',#809,.T.);
#809 = EDGE_LOOP('',(#810,#811,#812,#817));
#810 = ORIENTED_EDGE('',*,*,#796,.T.);
#811 = ORIENTED_EDGE('',*,*,#615,.T.);
#812 = ORIENTED_EDGE('',*,*,#813,.F.);
#813 = EDGE_CURVE('',#537,#616,#814,.T.);
#814 = B_SPLINE_CURVE_WITH_KNOTS('',1,(#815,#816),.UNSPECIFIED.,.F.,.F.,
  (2,2),(3.,4.),.PIECEWISE_BEZIER_KNOTS.);
#815 = CARTESIAN_POINT('',(25.,0.85,19.8));
#816 = CARTESIAN_POINT('',(25.,0.85,18.));
#817 = ORIENTED_EDGE('',*,*,#543,.F.);
#818 = B_SPLINE_SURFACE_WITH_KNOTS('',1,2,(
    (#819,#820,#821)
    ,(#822,#823,#824
    )),.UNSPECIFIED.,.F.,.F.,.F.,(2,2),(3,3),(3.,4.),(0.,1.),
  .PIECEWISE_BEZIER_KNOTS.);
#819 = CARTESIAN_POINT('',(-21.,0.45,19.8));
#820 = CARTESIAN_POINT('',(1.648092943239,1.55902073888,19.8));
#821 = CARTESIAN_POINT('',(25.,0.85,19.8));
#822 = CARTESIAN_POINT('',(-21.,0.45,18.));
#823 = CARTESIAN_POINT('',(1.648092943239,1.55902073888,18.));
#824 = CARTESIAN_POINT('',(25.,0.85,18.));
#825 = ADVANCED_FACE('',(#826),#840,.F.);
#826 = FACE_BOUND('',#827,.F.);
#827 = EDGE_LOOP('',(#828,#833,#834,#839));
#828 = ORIENTED_EDGE('',*,*,#829,.T.);
#829 = EDGE_CURVE('',#522,#631,#830,.T.);
#830 = B_SPLINE_CURVE_WITH_KNOTS('',1,(#831,#832),.UNSPECIFIED.,.F.,.F.,
  (2,2),(3.,4.),.PIECEWISE_BEZIER_KNOTS.);
#831 = CARTESIAN_POINT('',(-21.,-0.45,19.8));
#832 = CARTESIAN_POINT('',(-21.,-0.45,18.));
#833 = ORIENTED_EDGE('',*,*,#630,.T.);
#834 = ORIENTED_EDGE('',*,*,#835,.F.);
#835 = EDGE_CURVE('',#529,#624,#836,.T.);
#836 = B_SPLINE_CURVE_WITH_KNOTS('',1,(#837,#838),.UNSPECIFIED.,.F.,.F.,
  (2,2),(3.,4.),.PIECEWISE_BEZIER_KNOTS.);
#837 = CARTESIAN_POINT('',(25.,-0.85,19.8));
#838 = CARTESIAN_POINT('',(25.,-0.85,18.));
#839 = ORIENTED_EDGE('',*,*,#528,.F.);
#840 = B_SPLINE_SURFACE_WITH_KNOTS('',1,2,(
    (#841,#842,#843)
    ,(#844,#845,#846
    )),.UNSPECIFIED.,.F.,.F.,.F.,(2,2),(3,3),(3.,4.),(0.,1.),
  .PIECEWISE_BEZIER_KNOTS.);
#841 = CARTESIAN_POINT('',(-21.,-0.45,19.8));
#842 = CARTESIAN_POINT('',(1.648092943239,-1.55902073888,19.8));
#843 = CARTESIAN_POINT('',(25.,-0.85,19.8));
#844 = CARTESIAN_POINT('',(-21.,-0.45,18.));
#845 = CARTESIAN_POINT('',(1.648092943239,-1.55902073888,18.));
#846 = CARTESIAN_POINT('',(25.,-0.85,18.));
#847 = ADVANCED_FACE('',(#848),#858,.F.);
#848 = FACE_BOUND('',#849,.F.);
#849 = EDGE_LOOP('',(#850,#851,#852,#853));
#850 = ORIENTED_EDGE('',*,*,#638,.F.);
#851 = ORIENTED_EDGE('',*,*,#829,.F.);
#852 = ORIENTED_EDGE('',*,*,#521,.F.);
#853 = ORIENTED_EDGE('',*,*,#854,.F.);
#854 = EDGE_CURVE('',#639,#514,#855,.T.);
#855 = B_SPLINE_CURVE_WITH_KNOTS('',1,(#856,#857),.UNSPECIFIED.,.F.,.F.,
  (2,2),(1.,2.),.PIECEWISE_BEZIER_KNOTS.);
#856 = CARTESIAN_POINT('',(-21.,-0.95,18.));
#857 = CARTESIAN_POINT('',(-21.,-0.95,19.8));
#858 = PLANE('',#859);
#859 = AXIS2_PLACEMENT_3D('',#860,#861,#862);
#860 = CARTESIAN_POINT('',(-21.,-0.45,18.));
#861 = DIRECTION('',(1.,0.,0.));
#862 = DIRECTION('',(0.,-0.267643863786,0.96351790963));
#863 = ADVANCED_FACE('',(#864),#870,.F.);
#864 = FACE_BOUND('',#865,.F.);
#865 = EDGE_LOOP('',(#866,#867,#868,#869));
#866 = ORIENTED_EDGE('',*,*,#645,.F.);
#867 = ORIENTED_EDGE('',*,*,#854,.T.);
#868 = ORIENTED_EDGE('',*,*,#513,.T.);
#869 = ORIENTED_EDGE('',*,*,#581,.T.);
#870 = B_SPLINE_SURFACE_WITH_KNOTS('',1,2,(
    (#871,#872,#873)
    ,(#874,#875,#876
    )),.UNSPECIFIED.,.F.,.F.,.F.,(2,2),(3,3),(1.,2.),(0.,1.),
  .PIECEWISE_BEZIER_KNOTS.);
#871 = CARTESIAN_POINT('',(-21.,-0.95,18.));
#872 = CARTESIAN_POINT('',(1.648092943239,-8.574517579797,18.));
#873 = CARTESIAN_POINT('',(25.,-3.7,18.));
#874 = CARTESIAN_POINT('',(-21.,-0.95,19.8));
#875 = CARTESIAN_POINT('',(1.648092943239,-8.574517579797,19.8));
#876 = CARTESIAN_POINT('',(25.,-3.7,19.8));
#877 = ADVANCED_FACE('',(#878),#903,.F.);
#878 = FACE_BOUND('',#879,.F.);
#879 = EDGE_LOOP('',(#880,#887,#897,#902));
#880 = ORIENTED_EDGE('',*,*,#881,.F.);
#881 = EDGE_CURVE('',#882,#700,#884,.T.);
#882 = VERTEX_POINT('',#883);
#883 = CARTESIAN_POINT('',(17.697031215156,4.920982570105,18.));
#884 = B_SPLINE_CURVE_WITH_KNOTS('',1,(#885,#886),.UNSPECIFIED.,.F.,.F.,
  (2,2),(0.,1.),.PIECEWISE_BEZIER_KNOTS.);
#885 = CARTESIAN_POINT('',(-26.,2.4,18.));
#886 = CARTESIAN_POINT('',(26.,5.4,18.));
#887 = ORIENTED_EDGE('',*,*,#888,.F.);
#888 = EDGE_CURVE('',#889,#882,#891,.T.);
#889 = VERTEX_POINT('',#890);
#890 = CARTESIAN_POINT('',(17.697031215156,4.920982570105,19.8));
#891 = B_SPLINE_CURVE_WITH_KNOTS('',4,(#892,#893,#894,#895,#896),
  .UNSPECIFIED.,.F.,.F.,(5,5),(0.,1.),.PIECEWISE_BEZIER_KNOTS.);
#892 = CARTESIAN_POINT('',(17.697031215159,4.920982570105,19.8));
#893 = CARTESIAN_POINT('',(17.697031215159,4.920982570105,19.35));
#894 = CARTESIAN_POINT('',(17.697031215159,4.920982570105,18.9));
#895 = CARTESIAN_POINT('',(17.697031215159,4.920982570105,18.45));
#896 = CARTESIAN_POINT('',(17.697031215159,4.920982570105,18.));
#897 = ORIENTED_EDGE('',*,*,#898,.T.);
#898 = EDGE_CURVE('',#889,#702,#899,.T.);
#899 = B_SPLINE_CURVE_WITH_KNOTS('',1,(#900,#901),.UNSPECIFIED.,.F.,.F.,
  (2,2),(0.,1.),.PIECEWISE_BEZIER_KNOTS.);
#900 = CARTESIAN_POINT('',(-26.,2.4,19.8));
#901 = CARTESIAN_POINT('',(26.,5.4,19.8));
#902 = ORIENTED_EDGE('',*,*,#699,.F.);
#903 = PLANE('',#904);
#904 = AXIS2_PLACEMENT_3D('',#905,#906,#907);
#905 = CARTESIAN_POINT('',(26.,5.4,18.));
#906 = DIRECTION('',(-5.759653509667E-02,0.998339941676,0.));
#907 = DIRECTION('',(0.,0.,1.));
#908 = ADVANCED_FACE('',(#909),#925,.F.);
#909 = FACE_BOUND('',#910,.F.);
#910 = EDGE_LOOP('',(#911,#919,#924));
#911 = ORIENTED_EDGE('',*,*,#912,.F.);
#912 = EDGE_CURVE('',#913,#745,#915,.T.);
#913 = VERTEX_POINT('',#914);
#914 = CARTESIAN_POINT('',(17.697031215156,-4.920982570105,19.8));
#915 = B_SPLINE_CURVE_WITH_KNOTS('',2,(#916,#917,#918),.UNSPECIFIED.,.F.
  ,.F.,(3,3),(0.,1.),.PIECEWISE_BEZIER_KNOTS.);
#916 = CARTESIAN_POINT('',(-21.,-0.95,19.8));
#917 = CARTESIAN_POINT('',(1.648092943239,-8.574517579797,19.8));
#918 = CARTESIAN_POINT('',(25.,-3.7,19.8));
#919 = ORIENTED_EDGE('',*,*,#920,.T.);
#920 = EDGE_CURVE('',#913,#737,#921,.T.);
#921 = B_SPLINE_CURVE_WITH_KNOTS('',1,(#922,#923),.UNSPECIFIED.,.F.,.F.,
  (2,2),(0.,1.),.PIECEWISE_BEZIER_KNOTS.);
#922 = CARTESIAN_POINT('',(-26.,-2.4,19.8));
#923 = CARTESIAN_POINT('',(26.,-5.4,19.8));
#924 = ORIENTED_EDGE('',*,*,#744,.T.);
#925 = B_SPLINE_SURFACE_WITH_KNOTS('',1,1,(
    (#926,#927)
    ,(#928,#929
    )),.UNSPECIFIED.,.F.,.F.,.F.,(2,2),(2,2),(0.,10.8),(0.,1.),
  .PIECEWISE_BEZIER_KNOTS.);
#926 = CARTESIAN_POINT('',(-26.,2.4,19.8));
#927 = CARTESIAN_POINT('',(26.,5.4,19.8));
#928 = CARTESIAN_POINT('',(-26.,-2.4,19.8));
#929 = CARTESIAN_POINT('',(26.,-5.4,19.8));
#930 = ADVANCED_FACE('',(#931),#941,.T.);
#931 = FACE_BOUND('',#932,.F.);
#932 = EDGE_LOOP('',(#933,#934,#939,#940));
#933 = ORIENTED_EDGE('',*,*,#722,.T.);
#934 = ORIENTED_EDGE('',*,*,#935,.T.);
#935 = EDGE_CURVE('',#723,#745,#936,.T.);
#936 = B_SPLINE_CURVE_WITH_KNOTS('',1,(#937,#938),.UNSPECIFIED.,.F.,.F.,
  (2,2),(1.,2.),.PIECEWISE_BEZIER_KNOTS.);
#937 = CARTESIAN_POINT('',(25.,-3.7,18.));
#938 = CARTESIAN_POINT('',(25.,-3.7,19.8));
#939 = ORIENTED_EDGE('',*,*,#751,.T.);
#940 = ORIENTED_EDGE('',*,*,#835,.T.);
#941 = PLANE('',#942);
#942 = AXIS2_PLACEMENT_3D('',#943,#944,#945);
#943 = CARTESIAN_POINT('',(25.,-0.85,18.));
#944 = DIRECTION('',(1.,0.,0.));
#945 = DIRECTION('',(0.,-0.845488903031,0.533992991388));
#946 = ADVANCED_FACE('',(#947),#957,.F.);
#947 = FACE_BOUND('',#948,.T.);
#948 = EDGE_LOOP('',(#949,#950,#955,#956));
#949 = ORIENTED_EDGE('',*,*,#716,.F.);
#950 = ORIENTED_EDGE('',*,*,#951,.T.);
#951 = EDGE_CURVE('',#710,#758,#952,.T.);
#952 = B_SPLINE_CURVE_WITH_KNOTS('',1,(#953,#954),.UNSPECIFIED.,.F.,.F.,
  (2,2),(1.,2.),.PIECEWISE_BEZIER_KNOTS.);
#953 = CARTESIAN_POINT('',(25.,3.7,18.));
#954 = CARTESIAN_POINT('',(25.,3.7,19.8));
#955 = ORIENTED_EDGE('',*,*,#757,.F.);
#956 = ORIENTED_EDGE('',*,*,#813,.T.);
#957 = PLANE('',#958);
#958 = AXIS2_PLACEMENT_3D('',#959,#960,#961);
#959 = CARTESIAN_POINT('',(25.,0.85,18.));
#960 = DIRECTION('',(-1.,0.,0.));
#961 = DIRECTION('',(0.,0.845488903031,0.533992991388));
#962 = ADVANCED_FACE('',(#963),#973,.F.);
#963 = FACE_BOUND('',#964,.F.);
#964 = EDGE_LOOP('',(#965,#966,#972));
#965 = ORIENTED_EDGE('',*,*,#898,.F.);
#966 = ORIENTED_EDGE('',*,*,#967,.T.);
#967 = EDGE_CURVE('',#889,#758,#968,.T.);
#968 = B_SPLINE_CURVE_WITH_KNOTS('',2,(#969,#970,#971),.UNSPECIFIED.,.F.
  ,.F.,(3,3),(0.,1.),.PIECEWISE_BEZIER_KNOTS.);
#969 = CARTESIAN_POINT('',(-21.,0.95,19.8));
#970 = CARTESIAN_POINT('',(1.648092943239,8.574517579797,19.8));
#971 = CARTESIAN_POINT('',(25.,3.7,19.8));
#972 = ORIENTED_EDGE('',*,*,#764,.T.);
#973 = B_SPLINE_SURFACE_WITH_KNOTS('',1,1,(
    (#974,#975)
    ,(#976,#977
    )),.UNSPECIFIED.,.F.,.F.,.F.,(2,2),(2,2),(0.,10.8),(0.,1.),
  .PIECEWISE_BEZIER_KNOTS.);
#974 = CARTESIAN_POINT('',(-26.,2.4,19.8));
#975 = CARTESIAN_POINT('',(26.,5.4,19.8));
#976 = CARTESIAN_POINT('',(-26.,-2.4,19.8));
#977 = CARTESIAN_POINT('',(26.,-5.4,19.8));
#978 = ADVANCED_FACE('',(#979),#998,.F.);
#979 = FACE_BOUND('',#980,.F.);
#980 = EDGE_LOOP('',(#981,#982,#992,#997));
#981 = ORIENTED_EDGE('',*,*,#920,.F.);
#982 = ORIENTED_EDGE('',*,*,#983,.T.);
#983 = EDGE_CURVE('',#913,#984,#986,.T.);
#984 = VERTEX_POINT('',#985);
#985 = CARTESIAN_POINT('',(17.697031215156,-4.920982570105,18.));
#986 = B_SPLINE_CURVE_WITH_KNOTS('',4,(#987,#988,#989,#990,#991),
  .UNSPECIFIED.,.F.,.F.,(5,5),(0.,1.),.PIECEWISE_BEZIER_KNOTS.);
#987 = CARTESIAN_POINT('',(17.697031215159,-4.920982570105,19.8));
#988 = CARTESIAN_POINT('',(17.697031215159,-4.920982570105,19.35));
#989 = CARTESIAN_POINT('',(17.697031215159,-4.920982570105,18.9));
#990 = CARTESIAN_POINT('',(17.697031215159,-4.920982570105,18.45));
#991 = CARTESIAN_POINT('',(17.697031215159,-4.920982570105,18.));
#992 = ORIENTED_EDGE('',*,*,#993,.T.);
#993 = EDGE_CURVE('',#984,#730,#994,.T.);
#994 = B_SPLINE_CURVE_WITH_KNOTS('',1,(#995,#996),.UNSPECIFIED.,.F.,.F.,
  (2,2),(0.,1.),.PIECEWISE_BEZIER_KNOTS.);
#995 = CARTESIAN_POINT('',(-26.,-2.4,18.));
#996 = CARTESIAN_POINT('',(26.,-5.4,18.));
#997 = ORIENTED_EDGE('',*,*,#736,.F.);
#998 = PLANE('',#999);
#999 = AXIS2_PLACEMENT_3D('',#1000,#1001,#1002);
#1000 = CARTESIAN_POINT('',(26.,-5.4,19.8));
#1001 = DIRECTION('',(-5.759653509667E-02,-0.998339941676,-0.));
#1002 = DIRECTION('',(0.,0.,-1.));
#1003 = ADVANCED_FACE('',(#1004),#1014,.F.);
#1004 = FACE_BOUND('',#1005,.F.);
#1005 = EDGE_LOOP('',(#1006,#1007,#1013));
#1006 = ORIENTED_EDGE('',*,*,#709,.T.);
#1007 = ORIENTED_EDGE('',*,*,#1008,.F.);
#1008 = EDGE_CURVE('',#882,#710,#1009,.T.);
#1009 = B_SPLINE_CURVE_WITH_KNOTS('',2,(#1010,#1011,#1012),
  .UNSPECIFIED.,.F.,.F.,(3,3),(0.,1.),.PIECEWISE_BEZIER_KNOTS.);
#1010 = CARTESIAN_POINT('',(-21.,0.95,18.));
#1011 = CARTESIAN_POINT('',(1.648092943239,8.574517579797,18.));
#1012 = CARTESIAN_POINT('',(25.,3.7,18.));
#1013 = ORIENTED_EDGE('',*,*,#881,.T.);
#1014 = B_SPLINE_SURFACE_WITH_KNOTS('',1,1,(
    (#1015,#1016)
    ,(#1017,#1018
    )),.UNSPECIFIED.,.F.,.F.,.F.,(2,2),(2,2),(0.,10.8),(0.,1.),
  .PIECEWISE_BEZIER_KNOTS.);
#1015 = CARTESIAN_POINT('',(-26.,-2.4,18.));
#1016 = CARTESIAN_POINT('',(26.,-5.4,18.));
#1017 = CARTESIAN_POINT('',(-26.,2.4,18.));
#1018 = CARTESIAN_POINT('',(26.,5.4,18.));
#1019 = ADVANCED_FACE('',(#1020),#1030,.F.);
#1020 = FACE_BOUND('',#1021,.F.);
#1021 = EDGE_LOOP('',(#1022,#1023,#1029));
#1022 = ORIENTED_EDGE('',*,*,#993,.F.);
#1023 = ORIENTED_EDGE('',*,*,#1024,.T.);
#1024 = EDGE_CURVE('',#984,#723,#1025,.T.);
#1025 = B_SPLINE_CURVE_WITH_KNOTS('',2,(#1026,#1027,#1028),
  .UNSPECIFIED.,.F.,.F.,(3,3),(0.,1.),.PIECEWISE_BEZIER_KNOTS.);
#1026 = CARTESIAN_POINT('',(-21.,-0.95,18.));
#1027 = CARTESIAN_POINT('',(1.648092943239,-8.574517579797,18.));
#1028 = CARTESIAN_POINT('',(25.,-3.7,18.));
#1029 = ORIENTED_EDGE('',*,*,#729,.T.);
#1030 = B_SPLINE_SURFACE_WITH_KNOTS('',1,1,(
    (#1031,#1032)
    ,(#1033,#1034
    )),.UNSPECIFIED.,.F.,.F.,.F.,(2,2),(2,2),(0.,10.8),(0.,1.),
  .PIECEWISE_BEZIER_KNOTS.);
#1031 = CARTESIAN_POINT('',(-26.,-2.4,18.));
#1032 = CARTESIAN_POINT('',(26.,-5.4,18.));
#1033 = CARTESIAN_POINT('',(-26.,2.4,18.));
#1034 = CARTESIAN_POINT('',(26.,5.4,18.));
#1035 = ADVANCED_FACE('',(#1036),#1042,.T.);
#1036 = FACE_BOUND('',#1037,.T.);
#1037 = EDGE_LOOP('',(#1038,#1039,#1040,#1041));
#1038 = ORIENTED_EDGE('',*,*,#1008,.F.);
#1039 = ORIENTED_EDGE('',*,*,#888,.F.);
#1040 = ORIENTED_EDGE('',*,*,#967,.T.);
#1041 = ORIENTED_EDGE('',*,*,#951,.F.);
#1042 = B_SPLINE_SURFACE_WITH_KNOTS('',1,2,(
    (#1043,#1044,#1045)
    ,(#1046,#1047,#1048
  )),.UNSPECIFIED.,.F.,.F.,.F.,(2,2),(3,3),(1.,2.),(0.,1.),
  .PIECEWISE_BEZIER_KNOTS.);
#1043 = CARTESIAN_POINT('',(-21.,0.95,18.));
#1044 = CARTESIAN_POINT('',(1.648092943239,8.574517579797,18.));
#1045 = CARTESIAN_POINT('',(25.,3.7,18.));
#1046 = CARTESIAN_POINT('',(-21.,0.95,19.8));
#1047 = CARTESIAN_POINT('',(1.648092943239,8.574517579797,19.8));
#1048 = CARTESIAN_POINT('',(25.,3.7,19.8));
#1049 = ADVANCED_FACE('',(#1050),#1056,.F.);
#1050 = FACE_BOUND('',#1051,.F.);
#1051 = EDGE_LOOP('',(#1052,#1053,#1054,#1055));
#1052 = ORIENTED_EDGE('',*,*,#1024,.F.);
#1053 = ORIENTED_EDGE('',*,*,#983,.F.);
#1054 = ORIENTED_EDGE('',*,*,#912,.T.);
#1055 = ORIENTED_EDGE('',*,*,#935,.F.);
#1056 = B_SPLINE_SURFACE_WITH_KNOTS('',1,2,(
    (#1057,#1058,#1059)
    ,(#1060,#1061,#1062
  )),.UNSPECIFIED.,.F.,.F.,.F.,(2,2),(3,3),(1.,2.),(0.,1.),
  .PIECEWISE_BEZIER_KNOTS.);
#1057 = CARTESIAN_POINT('',(-21.,-0.95,18.));
#1058 = CARTESIAN_POINT('',(1.648092943239,-8.574517579797,18.));
#1059 = CARTESIAN_POINT('',(25.,-3.7,18.));
#1060 = CARTESIAN_POINT('',(-21.,-0.95,19.8));
#1061 = CARTESIAN_POINT('',(1.648092943239,-8.574517579797,19.8));
#1062 = CARTESIAN_POINT('',(25.,-3.7,19.8));
#1063 = ( GEOMETRIC_REPRESENTATION_CONTEXT(3) 
GLOBAL_UNCERTAINTY_ASSIGNED_CONTEXT((#1067)) 
GLOBAL_UNIT_ASSIGNED_CONTEXT((#1064,#1065,#1066)) REPRESENTATION_CONTEXT
('Context #1','3D Context with UNIT and UNCERTAINTY') );
#1064 = ( LENGTH_UNIT() NAMED_UNIT(*) SI_UNIT(.MILLI.,.METRE.) );
#1065 = ( NAMED_UNIT(*) PLANE_ANGLE_UNIT() SI_UNIT($,.RADIAN.) );
#1066 = ( NAMED_UNIT(*) SI_UNIT($,.STERADIAN.) SOLID_ANGLE_UNIT() );
#1067 = UNCERTAINTY_MEASURE_WITH_UNIT(LENGTH_MEASURE(2.E-06),#1064,
  'distance_accuracy_value','confusion accuracy');
#1068 = PRODUCT_RELATED_PRODUCT_CATEGORY('part',$,(#7));
ENDSEC;
END-ISO-10303-21;
