ISO-10303-21;
HEADER;
FILE_DESCRIPTION(('FreeCAD Model'),'2;1');
FILE_NAME('Open CASCADE Shape Model','2026-07-27T15:54:08',('Author'),(
    ''),'Open CASCADE STEP processor 7.8','FreeCAD','Unknown');
FILE_SCHEMA(('AUTOMOTIVE_DESIGN { 1 0 10303 214 1 1 1 1 }'));
ENDSEC;
DATA;
#1 = APPLICATION_PROTOCOL_DEFINITION('international standard',
  'automotive_design',2000,#2);
#2 = APPLICATION_CONTEXT(
  'core data for automotive mechanical design processes');
#3 = SHAPE_DEFINITION_REPRESENTATION(#4,#10);
#4 = PRODUCT_DEFINITION_SHAPE('','',#5);
#5 = PRODUCT_DEFINITION('design','',#6,#9);
#6 = PRODUCT_DEFINITION_FORMATION('','',#7);
#7 = PRODUCT('spreader_plate','spreader_plate','',(#8));
#8 = PRODUCT_CONTEXT('',#2,'mechanical');
#9 = PRODUCT_DEFINITION_CONTEXT('part definition',#2,'design');
#10 = ADVANCED_BREP_SHAPE_REPRESENTATION('',(#11,#15),#1726);
#11 = AXIS2_PLACEMENT_3D('',#12,#13,#14);
#12 = CARTESIAN_POINT('',(0.,0.,0.));
#13 = DIRECTION('',(0.,0.,1.));
#14 = DIRECTION('',(1.,0.,-0.));
#15 = MANIFOLD_SOLID_BREP('',#16);
#16 = CLOSED_SHELL('',(#17,#122,#153,#199,#245,#262,#554,#589,#815,#875,
    #900,#926,#1006,#1116,#1245,#1374,#1394,#1424,#1439,#1470,#1500,
    #1515,#1543,#1559,#1589,#1604,#1633,#1644,#1656,#1673,#1690,#1702,
    #1714));
#17 = ADVANCED_FACE('',(#18,#52),#117,.F.);
#18 = FACE_BOUND('',#19,.F.);
#19 = EDGE_LOOP('',(#20,#30,#38,#46));
#20 = ORIENTED_EDGE('',*,*,#21,.F.);
#21 = EDGE_CURVE('',#22,#24,#26,.T.);
#22 = VERTEX_POINT('',#23);
#23 = CARTESIAN_POINT('',(0.,-8.,0.));
#24 = VERTEX_POINT('',#25);
#25 = CARTESIAN_POINT('',(0.,-8.,8.));
#26 = LINE('',#27,#28);
#27 = CARTESIAN_POINT('',(0.,-8.,0.));
#28 = VECTOR('',#29,1.);
#29 = DIRECTION('',(0.,0.,1.));
#30 = ORIENTED_EDGE('',*,*,#31,.T.);
#31 = EDGE_CURVE('',#22,#32,#34,.T.);
#32 = VERTEX_POINT('',#33);
#33 = CARTESIAN_POINT('',(0.,8.,0.));
#34 = LINE('',#35,#36);
#35 = CARTESIAN_POINT('',(0.,-8.,0.));
#36 = VECTOR('',#37,1.);
#37 = DIRECTION('',(-0.,1.,0.));
#38 = ORIENTED_EDGE('',*,*,#39,.T.);
#39 = EDGE_CURVE('',#32,#40,#42,.T.);
#40 = VERTEX_POINT('',#41);
#41 = CARTESIAN_POINT('',(0.,8.,8.));
#42 = LINE('',#43,#44);
#43 = CARTESIAN_POINT('',(0.,8.,0.));
#44 = VECTOR('',#45,1.);
#45 = DIRECTION('',(0.,0.,1.));
#46 = ORIENTED_EDGE('',*,*,#47,.F.);
#47 = EDGE_CURVE('',#24,#40,#48,.T.);
#48 = LINE('',#49,#50);
#49 = CARTESIAN_POINT('',(0.,-8.,8.));
#50 = VECTOR('',#51,1.);
#51 = DIRECTION('',(-0.,1.,0.));
#52 = FACE_BOUND('',#53,.F.);
#53 = EDGE_LOOP('',(#54,#65,#74,#83,#92,#101,#110));
#54 = ORIENTED_EDGE('',*,*,#55,.F.);
#55 = EDGE_CURVE('',#56,#58,#60,.T.);
#56 = VERTEX_POINT('',#57);
#57 = CARTESIAN_POINT('',(0.,-1.4,5.87625));
#58 = VERTEX_POINT('',#59);
#59 = CARTESIAN_POINT('',(0.,-0.7,2.259220271689));
#60 = CIRCLE('',#61,1.87625);
#61 = AXIS2_PLACEMENT_3D('',#62,#63,#64);
#62 = CARTESIAN_POINT('',(0.,-1.4,4.));
#63 = DIRECTION('',(1.,0.,0.));
#64 = DIRECTION('',(-0.,0.,1.));
#65 = ORIENTED_EDGE('',*,*,#66,.F.);
#66 = EDGE_CURVE('',#67,#56,#69,.T.);
#67 = VERTEX_POINT('',#68);
#68 = CARTESIAN_POINT('',(0.,-0.7,5.740779728311));
#69 = CIRCLE('',#70,1.87625);
#70 = AXIS2_PLACEMENT_3D('',#71,#72,#73);
#71 = CARTESIAN_POINT('',(0.,-1.4,4.));
#72 = DIRECTION('',(1.,0.,0.));
#73 = DIRECTION('',(-0.,0.,1.));
#74 = ORIENTED_EDGE('',*,*,#75,.F.);
#75 = EDGE_CURVE('',#76,#67,#78,.T.);
#76 = VERTEX_POINT('',#77);
#77 = CARTESIAN_POINT('',(0.,4.5954871138E-16,5.87625));
#78 = CIRCLE('',#79,1.87625);
#79 = AXIS2_PLACEMENT_3D('',#80,#81,#82);
#80 = CARTESIAN_POINT('',(0.,0.,4.));
#81 = DIRECTION('',(1.,0.,0.));
#82 = DIRECTION('',(-0.,0.,1.));
#83 = ORIENTED_EDGE('',*,*,#84,.F.);
#84 = EDGE_CURVE('',#85,#76,#87,.T.);
#85 = VERTEX_POINT('',#86);
#86 = CARTESIAN_POINT('',(0.,0.7,5.740779728311));
#87 = CIRCLE('',#88,1.87625);
#88 = AXIS2_PLACEMENT_3D('',#89,#90,#91);
#89 = CARTESIAN_POINT('',(0.,0.,4.));
#90 = DIRECTION('',(1.,0.,0.));
#91 = DIRECTION('',(-0.,0.,1.));
#92 = ORIENTED_EDGE('',*,*,#93,.F.);
#93 = EDGE_CURVE('',#94,#85,#96,.T.);
#94 = VERTEX_POINT('',#95);
#95 = CARTESIAN_POINT('',(0.,1.4,5.87625));
#96 = CIRCLE('',#97,1.87625);
#97 = AXIS2_PLACEMENT_3D('',#98,#99,#100);
#98 = CARTESIAN_POINT('',(0.,1.4,4.));
#99 = DIRECTION('',(1.,0.,0.));
#100 = DIRECTION('',(-0.,0.,1.));
#101 = ORIENTED_EDGE('',*,*,#102,.F.);
#102 = EDGE_CURVE('',#103,#94,#105,.T.);
#103 = VERTEX_POINT('',#104);
#104 = CARTESIAN_POINT('',(0.,0.7,2.259220271689));
#105 = CIRCLE('',#106,1.87625);
#106 = AXIS2_PLACEMENT_3D('',#107,#108,#109);
#107 = CARTESIAN_POINT('',(0.,1.4,4.));
#108 = DIRECTION('',(1.,0.,0.));
#109 = DIRECTION('',(-0.,0.,1.));
#110 = ORIENTED_EDGE('',*,*,#111,.F.);
#111 = EDGE_CURVE('',#58,#103,#112,.T.);
#112 = CIRCLE('',#113,1.87625);
#113 = AXIS2_PLACEMENT_3D('',#114,#115,#116);
#114 = CARTESIAN_POINT('',(0.,0.,4.));
#115 = DIRECTION('',(1.,0.,0.));
#116 = DIRECTION('',(-0.,0.,1.));
#117 = PLANE('',#118);
#118 = AXIS2_PLACEMENT_3D('',#119,#120,#121);
#119 = CARTESIAN_POINT('',(0.,-8.,0.));
#120 = DIRECTION('',(1.,0.,-0.));
#121 = DIRECTION('',(0.,0.,1.));
#122 = ADVANCED_FACE('',(#123),#148,.F.);
#123 = FACE_BOUND('',#124,.F.);
#124 = EDGE_LOOP('',(#125,#133,#134,#142));
#125 = ORIENTED_EDGE('',*,*,#126,.F.);
#126 = EDGE_CURVE('',#22,#127,#129,.T.);
#127 = VERTEX_POINT('',#128);
#128 = CARTESIAN_POINT('',(25.,-8.,0.));
#129 = LINE('',#130,#131);
#130 = CARTESIAN_POINT('',(0.,-8.,0.));
#131 = VECTOR('',#132,1.);
#132 = DIRECTION('',(1.,0.,-0.));
#133 = ORIENTED_EDGE('',*,*,#21,.T.);
#134 = ORIENTED_EDGE('',*,*,#135,.T.);
#135 = EDGE_CURVE('',#24,#136,#138,.T.);
#136 = VERTEX_POINT('',#137);
#137 = CARTESIAN_POINT('',(25.,-8.,8.));
#138 = LINE('',#139,#140);
#139 = CARTESIAN_POINT('',(0.,-8.,8.));
#140 = VECTOR('',#141,1.);
#141 = DIRECTION('',(1.,0.,-0.));
#142 = ORIENTED_EDGE('',*,*,#143,.F.);
#143 = EDGE_CURVE('',#127,#136,#144,.T.);
#144 = LINE('',#145,#146);
#145 = CARTESIAN_POINT('',(25.,-8.,0.));
#146 = VECTOR('',#147,1.);
#147 = DIRECTION('',(0.,0.,1.));
#148 = PLANE('',#149);
#149 = AXIS2_PLACEMENT_3D('',#150,#151,#152);
#150 = CARTESIAN_POINT('',(0.,-8.,0.));
#151 = DIRECTION('',(-0.,1.,0.));
#152 = DIRECTION('',(0.,0.,1.));
#153 = ADVANCED_FACE('',(#154,#172,#183),#194,.T.);
#154 = FACE_BOUND('',#155,.T.);
#155 = EDGE_LOOP('',(#156,#157,#158,#166));
#156 = ORIENTED_EDGE('',*,*,#47,.F.);
#157 = ORIENTED_EDGE('',*,*,#135,.T.);
#158 = ORIENTED_EDGE('',*,*,#159,.T.);
#159 = EDGE_CURVE('',#136,#160,#162,.T.);
#160 = VERTEX_POINT('',#161);
#161 = CARTESIAN_POINT('',(25.,8.,8.));
#162 = LINE('',#163,#164);
#163 = CARTESIAN_POINT('',(25.,-8.,8.));
#164 = VECTOR('',#165,1.);
#165 = DIRECTION('',(-0.,1.,0.));
#166 = ORIENTED_EDGE('',*,*,#167,.F.);
#167 = EDGE_CURVE('',#40,#160,#168,.T.);
#168 = LINE('',#169,#170);
#169 = CARTESIAN_POINT('',(0.,8.,8.));
#170 = VECTOR('',#171,1.);
#171 = DIRECTION('',(1.,0.,-0.));
#172 = FACE_BOUND('',#173,.T.);
#173 = EDGE_LOOP('',(#174));
#174 = ORIENTED_EDGE('',*,*,#175,.F.);
#175 = EDGE_CURVE('',#176,#176,#178,.T.);
#176 = VERTEX_POINT('',#177);
#177 = CARTESIAN_POINT('',(14.2,-4.,8.));
#178 = CIRCLE('',#179,1.7);
#179 = AXIS2_PLACEMENT_3D('',#180,#181,#182);
#180 = CARTESIAN_POINT('',(12.5,-4.,8.));
#181 = DIRECTION('',(0.,0.,1.));
#182 = DIRECTION('',(1.,0.,-0.));
#183 = FACE_BOUND('',#184,.T.);
#184 = EDGE_LOOP('',(#185));
#185 = ORIENTED_EDGE('',*,*,#186,.F.);
#186 = EDGE_CURVE('',#187,#187,#189,.T.);
#187 = VERTEX_POINT('',#188);
#188 = CARTESIAN_POINT('',(14.2,4.,8.));
#189 = CIRCLE('',#190,1.7);
#190 = AXIS2_PLACEMENT_3D('',#191,#192,#193);
#191 = CARTESIAN_POINT('',(12.5,4.,8.));
#192 = DIRECTION('',(0.,0.,1.));
#193 = DIRECTION('',(1.,0.,-0.));
#194 = PLANE('',#195);
#195 = AXIS2_PLACEMENT_3D('',#196,#197,#198);
#196 = CARTESIAN_POINT('',(0.,-8.,8.));
#197 = DIRECTION('',(0.,0.,1.));
#198 = DIRECTION('',(1.,0.,-0.));
#199 = ADVANCED_FACE('',(#200,#218,#229),#240,.F.);
#200 = FACE_BOUND('',#201,.F.);
#201 = EDGE_LOOP('',(#202,#203,#204,#212));
#202 = ORIENTED_EDGE('',*,*,#31,.F.);
#203 = ORIENTED_EDGE('',*,*,#126,.T.);
#204 = ORIENTED_EDGE('',*,*,#205,.T.);
#205 = EDGE_CURVE('',#127,#206,#208,.T.);
#206 = VERTEX_POINT('',#207);
#207 = CARTESIAN_POINT('',(25.,8.,0.));
#208 = LINE('',#209,#210);
#209 = CARTESIAN_POINT('',(25.,-8.,0.));
#210 = VECTOR('',#211,1.);
#211 = DIRECTION('',(-0.,1.,0.));
#212 = ORIENTED_EDGE('',*,*,#213,.F.);
#213 = EDGE_CURVE('',#32,#206,#214,.T.);
#214 = LINE('',#215,#216);
#215 = CARTESIAN_POINT('',(0.,8.,0.));
#216 = VECTOR('',#217,1.);
#217 = DIRECTION('',(1.,0.,-0.));
#218 = FACE_BOUND('',#219,.F.);
#219 = EDGE_LOOP('',(#220));
#220 = ORIENTED_EDGE('',*,*,#221,.F.);
#221 = EDGE_CURVE('',#222,#222,#224,.T.);
#222 = VERTEX_POINT('',#223);
#223 = CARTESIAN_POINT('',(14.2,-4.,0.));
#224 = CIRCLE('',#225,1.7);
#225 = AXIS2_PLACEMENT_3D('',#226,#227,#228);
#226 = CARTESIAN_POINT('',(12.5,-4.,0.));
#227 = DIRECTION('',(0.,0.,1.));
#228 = DIRECTION('',(1.,0.,-0.));
#229 = FACE_BOUND('',#230,.F.);
#230 = EDGE_LOOP('',(#231));
#231 = ORIENTED_EDGE('',*,*,#232,.F.);
#232 = EDGE_CURVE('',#233,#233,#235,.T.);
#233 = VERTEX_POINT('',#234);
#234 = CARTESIAN_POINT('',(14.2,4.,0.));
#235 = CIRCLE('',#236,1.7);
#236 = AXIS2_PLACEMENT_3D('',#237,#238,#239);
#237 = CARTESIAN_POINT('',(12.5,4.,0.));
#238 = DIRECTION('',(0.,0.,1.));
#239 = DIRECTION('',(1.,0.,-0.));
#240 = PLANE('',#241);
#241 = AXIS2_PLACEMENT_3D('',#242,#243,#244);
#242 = CARTESIAN_POINT('',(0.,-8.,0.));
#243 = DIRECTION('',(0.,0.,1.));
#244 = DIRECTION('',(1.,0.,-0.));
#245 = ADVANCED_FACE('',(#246),#257,.T.);
#246 = FACE_BOUND('',#247,.T.);
#247 = EDGE_LOOP('',(#248,#249,#250,#251));
#248 = ORIENTED_EDGE('',*,*,#213,.F.);
#249 = ORIENTED_EDGE('',*,*,#39,.T.);
#250 = ORIENTED_EDGE('',*,*,#167,.T.);
#251 = ORIENTED_EDGE('',*,*,#252,.F.);
#252 = EDGE_CURVE('',#206,#160,#253,.T.);
#253 = LINE('',#254,#255);
#254 = CARTESIAN_POINT('',(25.,8.,0.));
#255 = VECTOR('',#256,1.);
#256 = DIRECTION('',(0.,0.,1.));
#257 = PLANE('',#258);
#258 = AXIS2_PLACEMENT_3D('',#259,#260,#261);
#259 = CARTESIAN_POINT('',(0.,8.,0.));
#260 = DIRECTION('',(-0.,1.,0.));
#261 = DIRECTION('',(0.,0.,1.));
#262 = ADVANCED_FACE('',(#263),#549,.F.);
#263 = FACE_BOUND('',#264,.F.);
#264 = EDGE_LOOP('',(#265,#276,#307,#313,#314,#323,#332,#405,#478));
#265 = ORIENTED_EDGE('',*,*,#266,.F.);
#266 = EDGE_CURVE('',#267,#269,#271,.T.);
#267 = VERTEX_POINT('',#268);
#268 = CARTESIAN_POINT('',(1.212914480985,-2.563095468539,4.95));
#269 = VERTEX_POINT('',#270);
#270 = CARTESIAN_POINT('',(1.212914480985,-2.563095468539,3.05));
#271 = HYPERBOLA('',#272,5.880638264913,1.717135745109);
#272 = AXIS2_PLACEMENT_3D('',#273,#274,#275);
#273 = CARTESIAN_POINT('',(7.902595100306,-3.207286935585,4.));
#274 = DIRECTION('',(-9.58529009653E-02,-0.995395510024,-0.));
#275 = DIRECTION('',(-0.995395510024,9.58529009653E-02,-0.));
#276 = ORIENTED_EDGE('',*,*,#277,.T.);
#277 = EDGE_CURVE('',#267,#278,#280,.T.);
#278 = VERTEX_POINT('',#279);
#279 = CARTESIAN_POINT('',(3.,-1.4,4.95));
#280 = B_SPLINE_CURVE_WITH_KNOTS('',7,(#281,#282,#283,#284,#285,#286,
    #287,#288,#289,#290,#291,#292,#293,#294,#295,#296,#297,#298,#299,
    #300,#301,#302,#303,#304,#305,#306),.UNSPECIFIED.,.F.,.F.,(8,6,6,6,8
    ),(0.,0.460206047578,0.735308714256,0.888319021128,1.),
  .UNSPECIFIED.);
#281 = CARTESIAN_POINT('',(1.212914480985,-2.563095468539,4.95));
#282 = CARTESIAN_POINT('',(1.353176252536,-2.507179967285,4.95));
#283 = CARTESIAN_POINT('',(1.492806424682,-2.450261928945,4.95));
#284 = CARTESIAN_POINT('',(1.631738678516,-2.39213005,4.95));
#285 = CARTESIAN_POINT('',(1.769816344009,-2.33254934579,4.95));
#286 = CARTESIAN_POINT('',(1.906733744896,-2.271170570731,4.95));
#287 = CARTESIAN_POINT('',(2.042070189399,-2.207582850724,4.95));
#288 = CARTESIAN_POINT('',(2.254469292721,-2.100942814279,4.95));
#289 = CARTESIAN_POINT('',(2.33297591426,-2.059968733601,4.95));
#290 = CARTESIAN_POINT('',(2.410441387391,-2.017668689452,4.95));
#291 = CARTESIAN_POINT('',(2.486624858432,-1.973791317406,4.95));
#292 = CARTESIAN_POINT('',(2.561040781637,-1.927991852155,4.95));
#293 = CARTESIAN_POINT('',(2.633023440869,-1.87989558627,4.95));
#294 = CARTESIAN_POINT('',(2.73930756174,-1.800103584512,4.95));
#295 = CARTESIAN_POINT('',(2.77608185464,-1.770656103262,4.95));
#296 = CARTESIAN_POINT('',(2.81148447346,-1.740097213546,4.95));
#297 = CARTESIAN_POINT('',(2.845184532189,-1.708265514712,4.95));
#298 = CARTESIAN_POINT('',(2.876679104421,-1.675015639423,4.95));
#299 = CARTESIAN_POINT('',(2.905281034857,-1.640202038546,4.95));
#300 = CARTESIAN_POINT('',(2.948206617083,-1.576973065126,4.95));
#301 = CARTESIAN_POINT('',(2.964302952217,-1.549365640965,4.95));
#302 = CARTESIAN_POINT('',(2.977982387021,-1.520834829859,4.95));
#303 = CARTESIAN_POINT('',(2.988785917966,-1.491447713257,4.95));
#304 = CARTESIAN_POINT('',(2.996244491482,-1.461336026473,4.95));
#305 = CARTESIAN_POINT('',(3.,-1.430726774025,4.95));
#306 = CARTESIAN_POINT('',(3.,-1.4,4.95));
#307 = ORIENTED_EDGE('',*,*,#308,.F.);
#308 = EDGE_CURVE('',#56,#278,#309,.T.);
#309 = LINE('',#310,#311);
#310 = CARTESIAN_POINT('',(-1.,-1.4,6.185));
#311 = VECTOR('',#312,1.);
#312 = DIRECTION('',(0.955494496911,-7.225634736986E-17,-0.295008925921)
  );
#313 = ORIENTED_EDGE('',*,*,#55,.T.);
#314 = ORIENTED_EDGE('',*,*,#315,.F.);
#315 = EDGE_CURVE('',#316,#58,#318,.T.);
#316 = VERTEX_POINT('',#317);
#317 = CARTESIAN_POINT('',(2.254923491107,-0.7,3.05));
#318 = HYPERBOLA('',#319,2.267206477733,0.7);
#319 = AXIS2_PLACEMENT_3D('',#320,#321,#322);
#320 = CARTESIAN_POINT('',(6.076923076923,-0.7,4.));
#321 = DIRECTION('',(0.,-1.,0.));
#322 = DIRECTION('',(-1.,-0.,0.));
#323 = ORIENTED_EDGE('',*,*,#324,.F.);
#324 = EDGE_CURVE('',#325,#316,#327,.T.);
#325 = VERTEX_POINT('',#326);
#326 = CARTESIAN_POINT('',(2.397713817126,-0.777187256464,3.05));
#327 = HYPERBOLA('',#328,3.076923076923,0.95);
#328 = AXIS2_PLACEMENT_3D('',#329,#330,#331);
#329 = CARTESIAN_POINT('',(6.076923076923,-1.4,3.05));
#330 = DIRECTION('',(0.,0.,-1.));
#331 = DIRECTION('',(-1.,-0.,-0.));
#332 = ORIENTED_EDGE('',*,*,#333,.T.);
#333 = EDGE_CURVE('',#325,#334,#336,.T.);
#334 = VERTEX_POINT('',#335);
#335 = CARTESIAN_POINT('',(2.67225974058,-0.95,3.05));
#336 = B_SPLINE_CURVE_WITH_KNOTS('',7,(#337,#338,#339,#340,#341,#342,
    #343,#344,#345,#346,#347,#348,#349,#350,#351,#352,#353,#354,#355,
    #356,#357,#358,#359,#360,#361,#362,#363,#364,#365,#366,#367,#368,
    #369,#370,#371,#372,#373,#374,#375,#376,#377,#378,#379,#380,#381,
    #382,#383,#384,#385,#386,#387,#388,#389,#390,#391,#392,#393,#394,
    #395,#396,#397,#398,#399,#400,#401,#402,#403,#404),.UNSPECIFIED.,.F.
  ,.F.,(8,6,6,6,6,6,6,6,6,6,6,8),(0.,0.158148497975,0.218817456973,
    0.243358127072,0.25759701001,0.287660922477,0.327950865344,
    0.348654578887,0.393884448514,0.471512732196,0.660910978523,1.),
  .UNSPECIFIED.);
#337 = CARTESIAN_POINT('',(2.397713817126,-0.777187256464,3.05));
#338 = CARTESIAN_POINT('',(2.462441293462,-0.813637430524,3.05));
#339 = CARTESIAN_POINT('',(2.526057527397,-0.851201733133,3.05));
#340 = CARTESIAN_POINT('',(2.588491958659,-0.89016590883,3.05));
#341 = CARTESIAN_POINT('',(2.649446351657,-0.93079646882,3.05));
#342 = CARTESIAN_POINT('',(2.708312853076,-0.973415529481,3.05));
#343 = CARTESIAN_POINT('',(2.764236908691,-1.018354516832,3.05));
#344 = CARTESIAN_POINT('',(2.835501302201,-1.084753636287,3.05));
#345 = CARTESIAN_POINT('',(2.85459099177,-1.103595362018,3.05));
#346 = CARTESIAN_POINT('',(2.872926006864,-1.122903827678,3.05));
#347 = CARTESIAN_POINT('',(2.890388991184,-1.142706778034,3.05));
#348 = CARTESIAN_POINT('',(2.906835580327,-1.163023507251,3.05));
#349 = CARTESIAN_POINT('',(2.922099031453,-1.183863385583,3.05));
#350 = CARTESIAN_POINT('',(2.941615730214,-1.213864937576,3.05));
#351 = CARTESIAN_POINT('',(2.947012192233,-1.22258967759,3.05));
#352 = CARTESIAN_POINT('',(2.952171794438,-1.231397709161,3.05));
#353 = CARTESIAN_POINT('',(2.95708151364,-1.24028738207,3.05));
#354 = CARTESIAN_POINT('',(2.961728067472,-1.249256194335,3.05));
#355 = CARTESIAN_POINT('',(2.966098233804,-1.258300693722,3.05));
#356 = CARTESIAN_POINT('',(2.972546993658,-1.272705443455,3.05));
#357 = CARTESIAN_POINT('',(2.97481746223,-1.278018463348,3.05));
#358 = CARTESIAN_POINT('',(2.976988029462,-1.283354546207,3.05));
#359 = CARTESIAN_POINT('',(2.979056247373,-1.288712678181,3.05));
#360 = CARTESIAN_POINT('',(2.981019766422,-1.294091724306,3.05));
#361 = CARTESIAN_POINT('',(2.982876335505,-1.299490428503,3.05));
#362 = CARTESIAN_POINT('',(2.988313394665,-1.316344811159,3.05));
#363 = CARTESIAN_POINT('',(2.99151693056,-1.327864481661,3.05));
#364 = CARTESIAN_POINT('',(2.994213999934,-1.339452261202,3.05));
#365 = CARTESIAN_POINT('',(2.996387815645,-1.351092805888,3.05));
#366 = CARTESIAN_POINT('',(2.998026028939,-1.362769439728,3.05));
#367 = CARTESIAN_POINT('',(2.999121545272,-1.374464002542,3.05));
#368 = CARTESIAN_POINT('',(3.000412824183,-1.401826582071,3.05));
#369 = CARTESIAN_POINT('',(3.000175942662,-1.417496627254,3.05));
#370 = CARTESIAN_POINT('',(2.998959384198,-1.433117379875,3.05));
#371 = CARTESIAN_POINT('',(2.996780535898,-1.448646021213,3.05));
#372 = CARTESIAN_POINT('',(2.993673338889,-1.464045573535,3.05));
#373 = CARTESIAN_POINT('',(2.989684143856,-1.479284106259,3.05));
#374 = CARTESIAN_POINT('',(2.982392481507,-1.502067571617,3.05));
#375 = CARTESIAN_POINT('',(2.979698588404,-1.5097521413,3.05));
#376 = CARTESIAN_POINT('',(2.976793239383,-1.517384557724,3.05));
#377 = CARTESIAN_POINT('',(2.97368392261,-1.524962224726,3.05));
#378 = CARTESIAN_POINT('',(2.970378262298,-1.532483043424,3.05));
#379 = CARTESIAN_POINT('',(2.966884018712,-1.539945412222,3.05));
#380 = CARTESIAN_POINT('',(2.95518073958,-1.563520607558,3.05));
#381 = CARTESIAN_POINT('',(2.94629032735,-1.579407025488,3.05));
#382 = CARTESIAN_POINT('',(2.936617645498,-1.594998553362,3.05));
#383 = CARTESIAN_POINT('',(2.926239648341,-1.610292820203,3.05));
#384 = CARTESIAN_POINT('',(2.915227827915,-1.625293076386,3.05));
#385 = CARTESIAN_POINT('',(2.903645591386,-1.640007258724,3.05));
#386 = CARTESIAN_POINT('',(2.870778420142,-1.679230161387,3.05));
#387 = CARTESIAN_POINT('',(2.848496539218,-1.703193676963,3.05));
#388 = CARTESIAN_POINT('',(2.824963599731,-1.726405743609,3.05));
#389 = CARTESIAN_POINT('',(2.80039322925,-1.748926732393,3.05));
#390 = CARTESIAN_POINT('',(2.77495292857,-1.770813166043,3.05));
#391 = CARTESIAN_POINT('',(2.748767921398,-1.792121640864,3.05));
#392 = CARTESIAN_POINT('',(2.656433391554,-1.863639096927,3.05));
#393 = CARTESIAN_POINT('',(2.587147826503,-1.911190369283,3.05));
#394 = CARTESIAN_POINT('',(2.515354958593,-1.956438009748,3.05));
#395 = CARTESIAN_POINT('',(2.441742701337,-1.99975356993,3.05));
#396 = CARTESIAN_POINT('',(2.366812500237,-2.041480949046,3.05));
#397 = CARTESIAN_POINT('',(2.290813029847,-2.081873365682,3.05));
#398 = CARTESIAN_POINT('',(2.075997784472,-2.191563701336,3.05));
#399 = CARTESIAN_POINT('',(1.935347184189,-2.258301771694,3.05));
#400 = CARTESIAN_POINT('',(1.792903175176,-2.322569775053,3.05));
#401 = CARTESIAN_POINT('',(1.64916080955,-2.384831310728,3.05));
#402 = CARTESIAN_POINT('',(1.504485268614,-2.445499213187,3.05));
#403 = CARTESIAN_POINT('',(1.359048741811,-2.504838893322,3.05));
#404 = CARTESIAN_POINT('',(1.212914480985,-2.563095468539,3.05));
#405 = ORIENTED_EDGE('',*,*,#406,.T.);
#406 = EDGE_CURVE('',#334,#407,#409,.T.);
#407 = VERTEX_POINT('',#408);
#408 = CARTESIAN_POINT('',(3.,-1.40000000019,3.05));
#409 = B_SPLINE_CURVE_WITH_KNOTS('',7,(#410,#411,#412,#413,#414,#415,
    #416,#417,#418,#419,#420,#421,#422,#423,#424,#425,#426,#427,#428,
    #429,#430,#431,#432,#433,#434,#435,#436,#437,#438,#439,#440,#441,
    #442,#443,#444,#445,#446,#447,#448,#449,#450,#451,#452,#453,#454,
    #455,#456,#457,#458,#459,#460,#461,#462,#463,#464,#465,#466,#467,
    #468,#469,#470,#471,#472,#473,#474,#475,#476,#477),.UNSPECIFIED.,.F.
  ,.F.,(8,6,6,6,6,6,6,6,6,6,6,8),(0.,0.158148497975,0.218817456973,
    0.243358127072,0.25759701001,0.287660922477,0.327950865344,
    0.348654578887,0.393884448514,0.471512732196,0.660910978523,1.),
  .UNSPECIFIED.);
#410 = CARTESIAN_POINT('',(2.397713817126,-0.777187256464,3.05));
#411 = CARTESIAN_POINT('',(2.462441293462,-0.813637430524,3.05));
#412 = CARTESIAN_POINT('',(2.526057527397,-0.851201733133,3.05));
#413 = CARTESIAN_POINT('',(2.588491958659,-0.89016590883,3.05));
#414 = CARTESIAN_POINT('',(2.649446351657,-0.93079646882,3.05));
#415 = CARTESIAN_POINT('',(2.708312853076,-0.973415529481,3.05));
#416 = CARTESIAN_POINT('',(2.764236908691,-1.018354516832,3.05));
#417 = CARTESIAN_POINT('',(2.835501302201,-1.084753636287,3.05));
#418 = CARTESIAN_POINT('',(2.85459099177,-1.103595362018,3.05));
#419 = CARTESIAN_POINT('',(2.872926006864,-1.122903827678,3.05));
#420 = CARTESIAN_POINT('',(2.890388991184,-1.142706778034,3.05));
#421 = CARTESIAN_POINT('',(2.906835580327,-1.163023507251,3.05));
#422 = CARTESIAN_POINT('',(2.922099031453,-1.183863385583,3.05));
#423 = CARTESIAN_POINT('',(2.941615730214,-1.213864937576,3.05));
#424 = CARTESIAN_POINT('',(2.947012192233,-1.22258967759,3.05));
#425 = CARTESIAN_POINT('',(2.952171794438,-1.231397709161,3.05));
#426 = CARTESIAN_POINT('',(2.95708151364,-1.24028738207,3.05));
#427 = CARTESIAN_POINT('',(2.961728067472,-1.249256194335,3.05));
#428 = CARTESIAN_POINT('',(2.966098233804,-1.258300693722,3.05));
#429 = CARTESIAN_POINT('',(2.972546993658,-1.272705443455,3.05));
#430 = CARTESIAN_POINT('',(2.97481746223,-1.278018463348,3.05));
#431 = CARTESIAN_POINT('',(2.976988029462,-1.283354546207,3.05));
#432 = CARTESIAN_POINT('',(2.979056247373,-1.288712678181,3.05));
#433 = CARTESIAN_POINT('',(2.981019766422,-1.294091724306,3.05));
#434 = CARTESIAN_POINT('',(2.982876335505,-1.299490428503,3.05));
#435 = CARTESIAN_POINT('',(2.988313394665,-1.316344811159,3.05));
#436 = CARTESIAN_POINT('',(2.99151693056,-1.327864481661,3.05));
#437 = CARTESIAN_POINT('',(2.994213999934,-1.339452261202,3.05));
#438 = CARTESIAN_POINT('',(2.996387815645,-1.351092805888,3.05));
#439 = CARTESIAN_POINT('',(2.998026028939,-1.362769439728,3.05));
#440 = CARTESIAN_POINT('',(2.999121545272,-1.374464002542,3.05));
#441 = CARTESIAN_POINT('',(3.000412824183,-1.401826582071,3.05));
#442 = CARTESIAN_POINT('',(3.000175942662,-1.417496627254,3.05));
#443 = CARTESIAN_POINT('',(2.998959384198,-1.433117379875,3.05));
#444 = CARTESIAN_POINT('',(2.996780535898,-1.448646021213,3.05));
#445 = CARTESIAN_POINT('',(2.993673338889,-1.464045573535,3.05));
#446 = CARTESIAN_POINT('',(2.989684143856,-1.479284106259,3.05));
#447 = CARTESIAN_POINT('',(2.982392481507,-1.502067571617,3.05));
#448 = CARTESIAN_POINT('',(2.979698588404,-1.5097521413,3.05));
#449 = CARTESIAN_POINT('',(2.976793239383,-1.517384557724,3.05));
#450 = CARTESIAN_POINT('',(2.97368392261,-1.524962224726,3.05));
#451 = CARTESIAN_POINT('',(2.970378262298,-1.532483043424,3.05));
#452 = CARTESIAN_POINT('',(2.966884018712,-1.539945412222,3.05));
#453 = CARTESIAN_POINT('',(2.95518073958,-1.563520607558,3.05));
#454 = CARTESIAN_POINT('',(2.94629032735,-1.579407025488,3.05));
#455 = CARTESIAN_POINT('',(2.936617645498,-1.594998553362,3.05));
#456 = CARTESIAN_POINT('',(2.926239648341,-1.610292820203,3.05));
#457 = CARTESIAN_POINT('',(2.915227827915,-1.625293076386,3.05));
#458 = CARTESIAN_POINT('',(2.903645591386,-1.640007258724,3.05));
#459 = CARTESIAN_POINT('',(2.870778420142,-1.679230161387,3.05));
#460 = CARTESIAN_POINT('',(2.848496539218,-1.703193676963,3.05));
#461 = CARTESIAN_POINT('',(2.824963599731,-1.726405743609,3.05));
#462 = CARTESIAN_POINT('',(2.80039322925,-1.748926732393,3.05));
#463 = CARTESIAN_POINT('',(2.77495292857,-1.770813166043,3.05));
#464 = CARTESIAN_POINT('',(2.748767921398,-1.792121640864,3.05));
#465 = CARTESIAN_POINT('',(2.656433391554,-1.863639096927,3.05));
#466 = CARTESIAN_POINT('',(2.587147826503,-1.911190369283,3.05));
#467 = CARTESIAN_POINT('',(2.515354958593,-1.956438009748,3.05));
#468 = CARTESIAN_POINT('',(2.441742701337,-1.99975356993,3.05));
#469 = CARTESIAN_POINT('',(2.366812500237,-2.041480949046,3.05));
#470 = CARTESIAN_POINT('',(2.290813029847,-2.081873365682,3.05));
#471 = CARTESIAN_POINT('',(2.075997784472,-2.191563701336,3.05));
#472 = CARTESIAN_POINT('',(1.935347184189,-2.258301771694,3.05));
#473 = CARTESIAN_POINT('',(1.792903175176,-2.322569775053,3.05));
#474 = CARTESIAN_POINT('',(1.64916080955,-2.384831310728,3.05));
#475 = CARTESIAN_POINT('',(1.504485268614,-2.445499213187,3.05));
#476 = CARTESIAN_POINT('',(1.359048741811,-2.504838893322,3.05));
#477 = CARTESIAN_POINT('',(1.212914480985,-2.563095468539,3.05));
#478 = ORIENTED_EDGE('',*,*,#479,.T.);
#479 = EDGE_CURVE('',#407,#269,#480,.T.);
#480 = B_SPLINE_CURVE_WITH_KNOTS('',7,(#481,#482,#483,#484,#485,#486,
    #487,#488,#489,#490,#491,#492,#493,#494,#495,#496,#497,#498,#499,
    #500,#501,#502,#503,#504,#505,#506,#507,#508,#509,#510,#511,#512,
    #513,#514,#515,#516,#517,#518,#519,#520,#521,#522,#523,#524,#525,
    #526,#527,#528,#529,#530,#531,#532,#533,#534,#535,#536,#537,#538,
    #539,#540,#541,#542,#543,#544,#545,#546,#547,#548),.UNSPECIFIED.,.F.
  ,.F.,(8,6,6,6,6,6,6,6,6,6,6,8),(0.,0.158148497975,0.218817456973,
    0.243358127072,0.25759701001,0.287660922477,0.327950865344,
    0.348654578887,0.393884448514,0.471512732196,0.660910978523,1.),
  .UNSPECIFIED.);
#481 = CARTESIAN_POINT('',(2.397713817126,-0.777187256464,3.05));
#482 = CARTESIAN_POINT('',(2.462441293462,-0.813637430524,3.05));
#483 = CARTESIAN_POINT('',(2.526057527397,-0.851201733133,3.05));
#484 = CARTESIAN_POINT('',(2.588491958659,-0.89016590883,3.05));
#485 = CARTESIAN_POINT('',(2.649446351657,-0.93079646882,3.05));
#486 = CARTESIAN_POINT('',(2.708312853076,-0.973415529481,3.05));
#487 = CARTESIAN_POINT('',(2.764236908691,-1.018354516832,3.05));
#488 = CARTESIAN_POINT('',(2.835501302201,-1.084753636287,3.05));
#489 = CARTESIAN_POINT('',(2.85459099177,-1.103595362018,3.05));
#490 = CARTESIAN_POINT('',(2.872926006864,-1.122903827678,3.05));
#491 = CARTESIAN_POINT('',(2.890388991184,-1.142706778034,3.05));
#492 = CARTESIAN_POINT('',(2.906835580327,-1.163023507251,3.05));
#493 = CARTESIAN_POINT('',(2.922099031453,-1.183863385583,3.05));
#494 = CARTESIAN_POINT('',(2.941615730214,-1.213864937576,3.05));
#495 = CARTESIAN_POINT('',(2.947012192233,-1.22258967759,3.05));
#496 = CARTESIAN_POINT('',(2.952171794438,-1.231397709161,3.05));
#497 = CARTESIAN_POINT('',(2.95708151364,-1.24028738207,3.05));
#498 = CARTESIAN_POINT('',(2.961728067472,-1.249256194335,3.05));
#499 = CARTESIAN_POINT('',(2.966098233804,-1.258300693722,3.05));
#500 = CARTESIAN_POINT('',(2.972546993658,-1.272705443455,3.05));
#501 = CARTESIAN_POINT('',(2.97481746223,-1.278018463348,3.05));
#502 = CARTESIAN_POINT('',(2.976988029462,-1.283354546207,3.05));
#503 = CARTESIAN_POINT('',(2.979056247373,-1.288712678181,3.05));
#504 = CARTESIAN_POINT('',(2.981019766422,-1.294091724306,3.05));
#505 = CARTESIAN_POINT('',(2.982876335505,-1.299490428503,3.05));
#506 = CARTESIAN_POINT('',(2.988313394665,-1.316344811159,3.05));
#507 = CARTESIAN_POINT('',(2.99151693056,-1.327864481661,3.05));
#508 = CARTESIAN_POINT('',(2.994213999934,-1.339452261202,3.05));
#509 = CARTESIAN_POINT('',(2.996387815645,-1.351092805888,3.05));
#510 = CARTESIAN_POINT('',(2.998026028939,-1.362769439728,3.05));
#511 = CARTESIAN_POINT('',(2.999121545272,-1.374464002542,3.05));
#512 = CARTESIAN_POINT('',(3.000412824183,-1.401826582071,3.05));
#513 = CARTESIAN_POINT('',(3.000175942662,-1.417496627254,3.05));
#514 = CARTESIAN_POINT('',(2.998959384198,-1.433117379875,3.05));
#515 = CARTESIAN_POINT('',(2.996780535898,-1.448646021213,3.05));
#516 = CARTESIAN_POINT('',(2.993673338889,-1.464045573535,3.05));
#517 = CARTESIAN_POINT('',(2.989684143856,-1.479284106259,3.05));
#518 = CARTESIAN_POINT('',(2.982392481507,-1.502067571617,3.05));
#519 = CARTESIAN_POINT('',(2.979698588404,-1.5097521413,3.05));
#520 = CARTESIAN_POINT('',(2.976793239383,-1.517384557724,3.05));
#521 = CARTESIAN_POINT('',(2.97368392261,-1.524962224726,3.05));
#522 = CARTESIAN_POINT('',(2.970378262298,-1.532483043424,3.05));
#523 = CARTESIAN_POINT('',(2.966884018712,-1.539945412222,3.05));
#524 = CARTESIAN_POINT('',(2.95518073958,-1.563520607558,3.05));
#525 = CARTESIAN_POINT('',(2.94629032735,-1.579407025488,3.05));
#526 = CARTESIAN_POINT('',(2.936617645498,-1.594998553362,3.05));
#527 = CARTESIAN_POINT('',(2.926239648341,-1.610292820203,3.05));
#528 = CARTESIAN_POINT('',(2.915227827915,-1.625293076386,3.05));
#529 = CARTESIAN_POINT('',(2.903645591386,-1.640007258724,3.05));
#530 = CARTESIAN_POINT('',(2.870778420142,-1.679230161387,3.05));
#531 = CARTESIAN_POINT('',(2.848496539218,-1.703193676963,3.05));
#532 = CARTESIAN_POINT('',(2.824963599731,-1.726405743609,3.05));
#533 = CARTESIAN_POINT('',(2.80039322925,-1.748926732393,3.05));
#534 = CARTESIAN_POINT('',(2.77495292857,-1.770813166043,3.05));
#535 = CARTESIAN_POINT('',(2.748767921398,-1.792121640864,3.05));
#536 = CARTESIAN_POINT('',(2.656433391554,-1.863639096927,3.05));
#537 = CARTESIAN_POINT('',(2.587147826503,-1.911190369283,3.05));
#538 = CARTESIAN_POINT('',(2.515354958593,-1.956438009748,3.05));
#539 = CARTESIAN_POINT('',(2.441742701337,-1.99975356993,3.05));
#540 = CARTESIAN_POINT('',(2.366812500237,-2.041480949046,3.05));
#541 = CARTESIAN_POINT('',(2.290813029847,-2.081873365682,3.05));
#542 = CARTESIAN_POINT('',(2.075997784472,-2.191563701336,3.05));
#543 = CARTESIAN_POINT('',(1.935347184189,-2.258301771694,3.05));
#544 = CARTESIAN_POINT('',(1.792903175176,-2.322569775053,3.05));
#545 = CARTESIAN_POINT('',(1.64916080955,-2.384831310728,3.05));
#546 = CARTESIAN_POINT('',(1.504485268614,-2.445499213187,3.05));
#547 = CARTESIAN_POINT('',(1.359048741811,-2.504838893322,3.05));
#548 = CARTESIAN_POINT('',(1.212914480985,-2.563095468539,3.05));
#549 = CONICAL_SURFACE('',#550,2.185,0.299464860334);
#550 = AXIS2_PLACEMENT_3D('',#551,#552,#553);
#551 = CARTESIAN_POINT('',(-1.,-1.4,4.));
#552 = DIRECTION('',(-1.,-0.,-0.));
#553 = DIRECTION('',(-0.,0.,1.));
#554 = ADVANCED_FACE('',(#555),#584,.F.);
#555 = FACE_BOUND('',#556,.F.);
#556 = EDGE_LOOP('',(#557,#558,#559,#568,#577));
#557 = ORIENTED_EDGE('',*,*,#315,.T.);
#558 = ORIENTED_EDGE('',*,*,#111,.T.);
#559 = ORIENTED_EDGE('',*,*,#560,.F.);
#560 = EDGE_CURVE('',#561,#103,#563,.T.);
#561 = VERTEX_POINT('',#562);
#562 = CARTESIAN_POINT('',(2.254923491107,0.7,3.05));
#563 = HYPERBOLA('',#564,2.267206477733,0.7);
#564 = AXIS2_PLACEMENT_3D('',#565,#566,#567);
#565 = CARTESIAN_POINT('',(6.076923076923,0.7,4.));
#566 = DIRECTION('',(0.,-1.,0.));
#567 = DIRECTION('',(-1.,-0.,0.));
#568 = ORIENTED_EDGE('',*,*,#569,.F.);
#569 = EDGE_CURVE('',#570,#561,#572,.T.);
#570 = VERTEX_POINT('',#571);
#571 = CARTESIAN_POINT('',(3.,-1.16341445919E-16,3.05));
#572 = HYPERBOLA('',#573,3.076923076923,0.95);
#573 = AXIS2_PLACEMENT_3D('',#574,#575,#576);
#574 = CARTESIAN_POINT('',(6.076923076923,0.,3.05));
#575 = DIRECTION('',(0.,0.,-1.));
#576 = DIRECTION('',(-1.,-0.,-0.));
#577 = ORIENTED_EDGE('',*,*,#578,.F.);
#578 = EDGE_CURVE('',#316,#570,#579,.T.);
#579 = HYPERBOLA('',#580,3.076923076923,0.95);
#580 = AXIS2_PLACEMENT_3D('',#581,#582,#583);
#581 = CARTESIAN_POINT('',(6.076923076923,0.,3.05));
#582 = DIRECTION('',(0.,0.,-1.));
#583 = DIRECTION('',(-1.,-0.,-0.));
#584 = CONICAL_SURFACE('',#585,2.185,0.299464860334);
#585 = AXIS2_PLACEMENT_3D('',#586,#587,#588);
#586 = CARTESIAN_POINT('',(-1.,0.,4.));
#587 = DIRECTION('',(-1.,-0.,-0.));
#588 = DIRECTION('',(-0.,0.,1.));
#589 = ADVANCED_FACE('',(#590),#810,.F.);
#590 = FACE_BOUND('',#591,.F.);
#591 = EDGE_LOOP('',(#592,#600,#637,#646,#719,#792,#801,#808,#809));
#592 = ORIENTED_EDGE('',*,*,#593,.T.);
#593 = EDGE_CURVE('',#94,#594,#596,.T.);
#594 = VERTEX_POINT('',#595);
#595 = CARTESIAN_POINT('',(3.,1.4,4.95));
#596 = LINE('',#597,#598);
#597 = CARTESIAN_POINT('',(-1.,1.4,6.185));
#598 = VECTOR('',#599,1.);
#599 = DIRECTION('',(0.955494496911,-7.225634736986E-17,-0.295008925921)
  );
#600 = ORIENTED_EDGE('',*,*,#601,.T.);
#601 = EDGE_CURVE('',#594,#602,#604,.T.);
#602 = VERTEX_POINT('',#603);
#603 = CARTESIAN_POINT('',(1.212914480985,2.563095468539,4.95));
#604 = B_SPLINE_CURVE_WITH_KNOTS('',7,(#605,#606,#607,#608,#609,#610,
    #611,#612,#613,#614,#615,#616,#617,#618,#619,#620,#621,#622,#623,
    #624,#625,#626,#627,#628,#629,#630,#631,#632,#633,#634,#635,#636),
  .UNSPECIFIED.,.F.,.F.,(8,6,6,6,6,8),(0.,8.00594840428E-02,
    0.142986912942,0.252748912743,0.52054731417,1.),.UNSPECIFIED.);
#605 = CARTESIAN_POINT('',(3.,1.4,4.95));
#606 = CARTESIAN_POINT('',(3.,1.422008797803,4.95));
#607 = CARTESIAN_POINT('',(2.998073336655,1.443962959579,4.95));
#608 = CARTESIAN_POINT('',(2.994237141925,1.465723319533,4.95));
#609 = CARTESIAN_POINT('',(2.988589538673,1.487187486106,4.95));
#610 = CARTESIAN_POINT('',(2.981274914991,1.508280669179,4.95));
#611 = CARTESIAN_POINT('',(2.972457574011,1.52894981425,4.95));
#612 = CARTESIAN_POINT('',(2.954322775238,1.565047240117,4.95));
#613 = CARTESIAN_POINT('',(2.945513341368,1.580655765108,4.95));
#614 = CARTESIAN_POINT('',(2.935951321736,1.595978612914,4.95));
#615 = CARTESIAN_POINT('',(2.925709748578,1.61101382918,4.95));
#616 = CARTESIAN_POINT('',(2.914856445406,1.625764660416,4.95));
#617 = CARTESIAN_POINT('',(2.903451650178,1.640238703563,4.95));
#618 = CARTESIAN_POINT('',(2.870778420141,1.679230161389,4.95));
#619 = CARTESIAN_POINT('',(2.848496539216,1.703193676964,4.95));
#620 = CARTESIAN_POINT('',(2.824963599729,1.726405743611,4.95));
#621 = CARTESIAN_POINT('',(2.800393229249,1.748926732395,4.95));
#622 = CARTESIAN_POINT('',(2.774952928568,1.770813166044,4.95));
#623 = CARTESIAN_POINT('',(2.748767921396,1.792121640865,4.95));
#624 = CARTESIAN_POINT('',(2.656433391552,1.863639096929,4.95));
#625 = CARTESIAN_POINT('',(2.587147826501,1.911190369284,4.95));
#626 = CARTESIAN_POINT('',(2.51535495859,1.956438009749,4.95));
#627 = CARTESIAN_POINT('',(2.441742701335,1.999753569931,4.95));
#628 = CARTESIAN_POINT('',(2.366812500234,2.041480949048,4.95));
#629 = CARTESIAN_POINT('',(2.290813029844,2.081873365683,4.95));
#630 = CARTESIAN_POINT('',(2.075997784469,2.191563701337,4.95));
#631 = CARTESIAN_POINT('',(1.935347184186,2.258301771695,4.95));
#632 = CARTESIAN_POINT('',(1.792903175175,2.322569775053,4.95));
#633 = CARTESIAN_POINT('',(1.649160809547,2.384831310729,4.95));
#634 = CARTESIAN_POINT('',(1.504485268613,2.445499213187,4.95));
#635 = CARTESIAN_POINT('',(1.359048741811,2.504838893322,4.95));
#636 = CARTESIAN_POINT('',(1.212914480985,2.563095468539,4.95));
#637 = ORIENTED_EDGE('',*,*,#638,.F.);
#638 = EDGE_CURVE('',#639,#602,#641,.T.);
#639 = VERTEX_POINT('',#640);
#640 = CARTESIAN_POINT('',(1.212914480985,2.563095468539,3.05));
#641 = HYPERBOLA('',#642,5.880638264913,1.717135745109);
#642 = AXIS2_PLACEMENT_3D('',#643,#644,#645);
#643 = CARTESIAN_POINT('',(7.902595100306,3.207286935585,4.));
#644 = DIRECTION('',(-9.58529009653E-02,0.995395510024,0.));
#645 = DIRECTION('',(-0.995395510024,-9.58529009653E-02,-0.));
#646 = ORIENTED_EDGE('',*,*,#647,.T.);
#647 = EDGE_CURVE('',#639,#648,#650,.T.);
#648 = VERTEX_POINT('',#649);
#649 = CARTESIAN_POINT('',(3.,1.400000000445,3.05));
#650 = B_SPLINE_CURVE_WITH_KNOTS('',7,(#651,#652,#653,#654,#655,#656,
    #657,#658,#659,#660,#661,#662,#663,#664,#665,#666,#667,#668,#669,
    #670,#671,#672,#673,#674,#675,#676,#677,#678,#679,#680,#681,#682,
    #683,#684,#685,#686,#687,#688,#689,#690,#691,#692,#693,#694,#695,
    #696,#697,#698,#699,#700,#701,#702,#703,#704,#705,#706,#707,#708,
    #709,#710,#711,#712,#713,#714,#715,#716,#717,#718),.UNSPECIFIED.,.F.
  ,.F.,(8,6,6,6,6,6,6,6,6,6,6,8),(0.,0.325454947264,0.520005897533,
    0.628213865715,0.660473574763,0.677452617207,0.712274852318,
    0.749012360857,0.768213858824,0.806811130143,0.946964891585,1.),
  .UNSPECIFIED.);
#651 = CARTESIAN_POINT('',(1.212914480985,2.563095468539,3.05));
#652 = CARTESIAN_POINT('',(1.353176252536,2.507179967285,3.05));
#653 = CARTESIAN_POINT('',(1.492806424683,2.450261928945,3.05));
#654 = CARTESIAN_POINT('',(1.631738678516,2.39213005,3.05));
#655 = CARTESIAN_POINT('',(1.769816344009,2.33254934579,3.05));
#656 = CARTESIAN_POINT('',(1.906733744896,2.271170570731,3.05));
#657 = CARTESIAN_POINT('',(2.042070189399,2.207582850724,3.05));
#658 = CARTESIAN_POINT('',(2.254469292721,2.100942814279,3.05));
#659 = CARTESIAN_POINT('',(2.332975914259,2.059968733601,3.05));
#660 = CARTESIAN_POINT('',(2.410441387393,2.017668689452,3.05));
#661 = CARTESIAN_POINT('',(2.486624858431,1.973791317406,3.05));
#662 = CARTESIAN_POINT('',(2.561040781637,1.927991852155,3.05));
#663 = CARTESIAN_POINT('',(2.633023440869,1.87989558627,3.05));
#664 = CARTESIAN_POINT('',(2.73930756174,1.800103584512,3.05));
#665 = CARTESIAN_POINT('',(2.77608185464,1.770656103262,3.05));
#666 = CARTESIAN_POINT('',(2.81148447346,1.740097213546,3.05));
#667 = CARTESIAN_POINT('',(2.845184532189,1.708265514712,3.05));
#668 = CARTESIAN_POINT('',(2.876679104421,1.675015639423,3.05));
#669 = CARTESIAN_POINT('',(2.905281034857,1.640202038546,3.05));
#670 = CARTESIAN_POINT('',(2.937492790486,1.592754429571,3.05));
#671 = CARTESIAN_POINT('',(2.944550090087,1.581708701245,3.05));
#672 = CARTESIAN_POINT('',(2.951242000409,1.570512555802,3.05));
#673 = CARTESIAN_POINT('',(2.957541141663,1.559166176444,3.05));
#674 = CARTESIAN_POINT('',(2.963418632127,1.547671713104,3.05));
#675 = CARTESIAN_POINT('',(2.968845006507,1.536033592304,3.05));
#676 = CARTESIAN_POINT('',(2.976394397529,1.518061491536,3.05));
#677 = CARTESIAN_POINT('',(2.978864640356,1.511826375409,3.05));
#678 = CARTESIAN_POINT('',(2.98119752637,1.50555456112,3.05));
#679 = CARTESIAN_POINT('',(2.983388866363,1.499247373193,3.05));
#680 = CARTESIAN_POINT('',(2.985434618338,1.492906378196,3.05));
#681 = CARTESIAN_POINT('',(2.987330887512,1.486533384742,3.05));
#682 = CARTESIAN_POINT('',(2.992648716074,1.466998682572,3.05));
#683 = CARTESIAN_POINT('',(2.995579559541,1.453739431701,3.05));
#684 = CARTESIAN_POINT('',(2.99783397979,1.440372828418,3.05));
#685 = CARTESIAN_POINT('',(2.999385339636,1.426921278302,3.05));
#686 = CARTESIAN_POINT('',(3.000214690875,1.413409808274,3.05));
#687 = CARTESIAN_POINT('',(3.000312623522,1.399866419908,3.05));
#688 = CARTESIAN_POINT('',(2.999014872713,1.372033527194,3.05));
#689 = CARTESIAN_POINT('',(2.997536598106,1.357740967688,3.05));
#690 = CARTESIAN_POINT('',(2.995248022006,1.343481749574,3.05));
#691 = CARTESIAN_POINT('',(2.992164628077,1.329288594435,3.05));
#692 = CARTESIAN_POINT('',(2.988313150057,1.31519042184,3.05));
#693 = CARTESIAN_POINT('',(2.983729068953,1.30121281109,3.05));
#694 = CARTESIAN_POINT('',(2.975697061266,1.280147700255,3.05));
#695 = CARTESIAN_POINT('',(2.972751016223,1.272955553091,3.05));
#696 = CARTESIAN_POINT('',(2.969621874587,1.265804810666,3.05));
#697 = CARTESIAN_POINT('',(2.96631567129,1.258697879257,3.05));
#698 = CARTESIAN_POINT('',(2.962838576696,1.251636782238,3.05));
#699 = CARTESIAN_POINT('',(2.959196896599,1.24462316008,3.05));
#700 = CARTESIAN_POINT('',(2.947758977926,1.223658022088,3.05));
#701 = CARTESIAN_POINT('',(2.939481958755,1.209855430212,3.05));
#702 = CARTESIAN_POINT('',(2.930616880005,1.196259559706,3.05));
#703 = CARTESIAN_POINT('',(2.921213662495,1.18287508357,3.05));
#704 = CARTESIAN_POINT('',(2.911319663269,1.169702855192,3.05));
#705 = CARTESIAN_POINT('',(2.900978056301,1.156740480726,3.05));
#706 = CARTESIAN_POINT('',(2.851184301625,1.097657748256,3.05));
#707 = CARTESIAN_POINT('',(2.806847717419,1.054166575378,3.05));
#708 = CARTESIAN_POINT('',(2.758864281818,1.01299436905,3.05));
#709 = CARTESIAN_POINT('',(2.708304828801,0.973860160999,3.05));
#710 = CARTESIAN_POINT('',(2.655919711719,0.936479061326,3.05));
#711 = CARTESIAN_POINT('',(2.602102128671,0.900573861431,3.05));
#712 = CARTESIAN_POINT('',(2.526073659179,0.852679874699,3.05));
#713 = CARTESIAN_POINT('',(2.505029905303,0.839710068038,3.05));
#714 = CARTESIAN_POINT('',(2.483829674948,0.826907722083,3.05));
#715 = CARTESIAN_POINT('',(2.46248678656,0.814262897313,3.05));
#716 = CARTESIAN_POINT('',(2.441013289217,0.801766527646,3.05));
#717 = CARTESIAN_POINT('',(2.419419462626,0.789410420433,3.05));
#718 = CARTESIAN_POINT('',(2.397713817126,0.777187256464,3.05));
#719 = ORIENTED_EDGE('',*,*,#720,.T.);
#720 = EDGE_CURVE('',#648,#721,#723,.T.);
#721 = VERTEX_POINT('',#722);
#722 = CARTESIAN_POINT('',(2.672259750344,0.95,3.05));
#723 = B_SPLINE_CURVE_WITH_KNOTS('',7,(#724,#725,#726,#727,#728,#729,
    #730,#731,#732,#733,#734,#735,#736,#737,#738,#739,#740,#741,#742,
    #743,#744,#745,#746,#747,#748,#749,#750,#751,#752,#753,#754,#755,
    #756,#757,#758,#759,#760,#761,#762,#763,#764,#765,#766,#767,#768,
    #769,#770,#771,#772,#773,#774,#775,#776,#777,#778,#779,#780,#781,
    #782,#783,#784,#785,#786,#787,#788,#789,#790,#791),.UNSPECIFIED.,.F.
  ,.F.,(8,6,6,6,6,6,6,6,6,6,6,8),(0.,0.325454947264,0.520005897533,
    0.628213865715,0.660473574763,0.677452617207,0.712274852318,
    0.749012360857,0.768213858824,0.806811130143,0.946964891585,1.),
  .UNSPECIFIED.);
#724 = CARTESIAN_POINT('',(1.212914480985,2.563095468539,3.05));
#725 = CARTESIAN_POINT('',(1.353176252536,2.507179967285,3.05));
#726 = CARTESIAN_POINT('',(1.492806424683,2.450261928945,3.05));
#727 = CARTESIAN_POINT('',(1.631738678516,2.39213005,3.05));
#728 = CARTESIAN_POINT('',(1.769816344009,2.33254934579,3.05));
#729 = CARTESIAN_POINT('',(1.906733744896,2.271170570731,3.05));
#730 = CARTESIAN_POINT('',(2.042070189399,2.207582850724,3.05));
#731 = CARTESIAN_POINT('',(2.254469292721,2.100942814279,3.05));
#732 = CARTESIAN_POINT('',(2.332975914259,2.059968733601,3.05));
#733 = CARTESIAN_POINT('',(2.410441387393,2.017668689452,3.05));
#734 = CARTESIAN_POINT('',(2.486624858431,1.973791317406,3.05));
#735 = CARTESIAN_POINT('',(2.561040781637,1.927991852155,3.05));
#736 = CARTESIAN_POINT('',(2.633023440869,1.87989558627,3.05));
#737 = CARTESIAN_POINT('',(2.73930756174,1.800103584512,3.05));
#738 = CARTESIAN_POINT('',(2.77608185464,1.770656103262,3.05));
#739 = CARTESIAN_POINT('',(2.81148447346,1.740097213546,3.05));
#740 = CARTESIAN_POINT('',(2.845184532189,1.708265514712,3.05));
#741 = CARTESIAN_POINT('',(2.876679104421,1.675015639423,3.05));
#742 = CARTESIAN_POINT('',(2.905281034857,1.640202038546,3.05));
#743 = CARTESIAN_POINT('',(2.937492790486,1.592754429571,3.05));
#744 = CARTESIAN_POINT('',(2.944550090087,1.581708701245,3.05));
#745 = CARTESIAN_POINT('',(2.951242000409,1.570512555802,3.05));
#746 = CARTESIAN_POINT('',(2.957541141663,1.559166176444,3.05));
#747 = CARTESIAN_POINT('',(2.963418632127,1.547671713104,3.05));
#748 = CARTESIAN_POINT('',(2.968845006507,1.536033592304,3.05));
#749 = CARTESIAN_POINT('',(2.976394397529,1.518061491536,3.05));
#750 = CARTESIAN_POINT('',(2.978864640356,1.511826375409,3.05));
#751 = CARTESIAN_POINT('',(2.98119752637,1.50555456112,3.05));
#752 = CARTESIAN_POINT('',(2.983388866363,1.499247373193,3.05));
#753 = CARTESIAN_POINT('',(2.985434618338,1.492906378196,3.05));
#754 = CARTESIAN_POINT('',(2.987330887512,1.486533384742,3.05));
#755 = CARTESIAN_POINT('',(2.992648716074,1.466998682572,3.05));
#756 = CARTESIAN_POINT('',(2.995579559541,1.453739431701,3.05));
#757 = CARTESIAN_POINT('',(2.99783397979,1.440372828418,3.05));
#758 = CARTESIAN_POINT('',(2.999385339636,1.426921278302,3.05));
#759 = CARTESIAN_POINT('',(3.000214690875,1.413409808274,3.05));
#760 = CARTESIAN_POINT('',(3.000312623522,1.399866419908,3.05));
#761 = CARTESIAN_POINT('',(2.999014872713,1.372033527194,3.05));
#762 = CARTESIAN_POINT('',(2.997536598106,1.357740967688,3.05));
#763 = CARTESIAN_POINT('',(2.995248022006,1.343481749574,3.05));
#764 = CARTESIAN_POINT('',(2.992164628077,1.329288594435,3.05));
#765 = CARTESIAN_POINT('',(2.988313150057,1.31519042184,3.05));
#766 = CARTESIAN_POINT('',(2.983729068953,1.30121281109,3.05));
#767 = CARTESIAN_POINT('',(2.975697061266,1.280147700255,3.05));
#768 = CARTESIAN_POINT('',(2.972751016223,1.272955553091,3.05));
#769 = CARTESIAN_POINT('',(2.969621874587,1.265804810666,3.05));
#770 = CARTESIAN_POINT('',(2.96631567129,1.258697879257,3.05));
#771 = CARTESIAN_POINT('',(2.962838576696,1.251636782238,3.05));
#772 = CARTESIAN_POINT('',(2.959196896599,1.24462316008,3.05));
#773 = CARTESIAN_POINT('',(2.947758977926,1.223658022088,3.05));
#774 = CARTESIAN_POINT('',(2.939481958755,1.209855430212,3.05));
#775 = CARTESIAN_POINT('',(2.930616880005,1.196259559706,3.05));
#776 = CARTESIAN_POINT('',(2.921213662495,1.18287508357,3.05));
#777 = CARTESIAN_POINT('',(2.911319663269,1.169702855192,3.05));
#778 = CARTESIAN_POINT('',(2.900978056301,1.156740480726,3.05));
#779 = CARTESIAN_POINT('',(2.851184301625,1.097657748256,3.05));
#780 = CARTESIAN_POINT('',(2.806847717419,1.054166575378,3.05));
#781 = CARTESIAN_POINT('',(2.758864281818,1.01299436905,3.05));
#782 = CARTESIAN_POINT('',(2.708304828801,0.973860160999,3.05));
#783 = CARTESIAN_POINT('',(2.655919711719,0.936479061326,3.05));
#784 = CARTESIAN_POINT('',(2.602102128671,0.900573861431,3.05));
#785 = CARTESIAN_POINT('',(2.526073659179,0.852679874699,3.05));
#786 = CARTESIAN_POINT('',(2.505029905303,0.839710068038,3.05));
#787 = CARTESIAN_POINT('',(2.483829674948,0.826907722083,3.05));
#788 = CARTESIAN_POINT('',(2.46248678656,0.814262897313,3.05));
#789 = CARTESIAN_POINT('',(2.441013289217,0.801766527646,3.05));
#790 = CARTESIAN_POINT('',(2.419419462626,0.789410420433,3.05));
#791 = CARTESIAN_POINT('',(2.397713817126,0.777187256464,3.05));
#792 = ORIENTED_EDGE('',*,*,#793,.F.);
#793 = EDGE_CURVE('',#794,#721,#796,.T.);
#794 = VERTEX_POINT('',#795);
#795 = CARTESIAN_POINT('',(2.397713817126,0.777187256464,3.05));
#796 = HYPERBOLA('',#797,3.076923076923,0.95);
#797 = AXIS2_PLACEMENT_3D('',#798,#799,#800);
#798 = CARTESIAN_POINT('',(6.076923076923,1.4,3.05));
#799 = DIRECTION('',(0.,0.,-1.));
#800 = DIRECTION('',(-1.,-0.,-0.));
#801 = ORIENTED_EDGE('',*,*,#802,.F.);
#802 = EDGE_CURVE('',#561,#794,#803,.T.);
#803 = HYPERBOLA('',#804,3.076923076923,0.95);
#804 = AXIS2_PLACEMENT_3D('',#805,#806,#807);
#805 = CARTESIAN_POINT('',(6.076923076923,1.4,3.05));
#806 = DIRECTION('',(0.,0.,-1.));
#807 = DIRECTION('',(-1.,-0.,-0.));
#808 = ORIENTED_EDGE('',*,*,#560,.T.);
#809 = ORIENTED_EDGE('',*,*,#102,.T.);
#810 = CONICAL_SURFACE('',#811,2.185,0.299464860334);
#811 = AXIS2_PLACEMENT_3D('',#812,#813,#814);
#812 = CARTESIAN_POINT('',(-1.,1.4,4.));
#813 = DIRECTION('',(-1.,-0.,-0.));
#814 = DIRECTION('',(-0.,0.,1.));
#815 = ADVANCED_FACE('',(#816),#870,.F.);
#816 = FACE_BOUND('',#817,.F.);
#817 = EDGE_LOOP('',(#818,#843,#844,#845,#854,#863));
#818 = ORIENTED_EDGE('',*,*,#819,.T.);
#819 = EDGE_CURVE('',#820,#594,#822,.T.);
#820 = VERTEX_POINT('',#821);
#821 = CARTESIAN_POINT('',(2.672259750344,0.95,4.95));
#822 = B_SPLINE_CURVE_WITH_KNOTS('',7,(#823,#824,#825,#826,#827,#828,
    #829,#830,#831,#832,#833,#834,#835,#836,#837,#838,#839,#840,#841,
    #842),.UNSPECIFIED.,.F.,.F.,(8,6,6,8),(0.,0.540330075234,
    0.747611608726,1.),.UNSPECIFIED.);
#823 = CARTESIAN_POINT('',(2.397713817126,0.777187256464,4.95));
#824 = CARTESIAN_POINT('',(2.462441293462,0.813637430524,4.95));
#825 = CARTESIAN_POINT('',(2.526057527397,0.851201733133,4.95));
#826 = CARTESIAN_POINT('',(2.58849195866,0.89016590883,4.95));
#827 = CARTESIAN_POINT('',(2.649446351657,0.93079646882,4.95));
#828 = CARTESIAN_POINT('',(2.708312853076,0.973415529481,4.95));
#829 = CARTESIAN_POINT('',(2.764236908691,1.018354516832,4.95));
#830 = CARTESIAN_POINT('',(2.835501302201,1.084753636287,4.95));
#831 = CARTESIAN_POINT('',(2.85459099177,1.103595362018,4.95));
#832 = CARTESIAN_POINT('',(2.872926006864,1.122903827678,4.95));
#833 = CARTESIAN_POINT('',(2.890388991184,1.142706778034,4.95));
#834 = CARTESIAN_POINT('',(2.906835580327,1.163023507251,4.95));
#835 = CARTESIAN_POINT('',(2.922099031453,1.183863385583,4.95));
#836 = CARTESIAN_POINT('',(2.952914565865,1.231233787165,4.95));
#837 = CARTESIAN_POINT('',(2.967829784001,1.258050439831,4.95));
#838 = CARTESIAN_POINT('',(2.980355732466,1.285605210228,4.95));
#839 = CARTESIAN_POINT('',(2.990099490846,1.313782674808,4.95));
#840 = CARTESIAN_POINT('',(2.996716661867,1.342416121894,4.95));
#841 = CARTESIAN_POINT('',(3.,1.37126859816,4.95));
#842 = CARTESIAN_POINT('',(3.,1.4,4.95));
#843 = ORIENTED_EDGE('',*,*,#593,.F.);
#844 = ORIENTED_EDGE('',*,*,#93,.T.);
#845 = ORIENTED_EDGE('',*,*,#846,.T.);
#846 = EDGE_CURVE('',#85,#847,#849,.T.);
#847 = VERTEX_POINT('',#848);
#848 = CARTESIAN_POINT('',(2.254923491107,0.7,4.95));
#849 = HYPERBOLA('',#850,2.267206477733,0.7);
#850 = AXIS2_PLACEMENT_3D('',#851,#852,#853);
#851 = CARTESIAN_POINT('',(6.076923076923,0.7,4.));
#852 = DIRECTION('',(0.,-1.,0.));
#853 = DIRECTION('',(-1.,-0.,0.));
#854 = ORIENTED_EDGE('',*,*,#855,.F.);
#855 = EDGE_CURVE('',#856,#847,#858,.T.);
#856 = VERTEX_POINT('',#857);
#857 = CARTESIAN_POINT('',(2.397713817126,0.777187256464,4.95));
#858 = HYPERBOLA('',#859,3.076923076923,0.95);
#859 = AXIS2_PLACEMENT_3D('',#860,#861,#862);
#860 = CARTESIAN_POINT('',(6.076923076923,1.4,4.95));
#861 = DIRECTION('',(0.,0.,1.));
#862 = DIRECTION('',(-1.,0.,-0.));
#863 = ORIENTED_EDGE('',*,*,#864,.F.);
#864 = EDGE_CURVE('',#820,#856,#865,.T.);
#865 = HYPERBOLA('',#866,3.076923076923,0.95);
#866 = AXIS2_PLACEMENT_3D('',#867,#868,#869);
#867 = CARTESIAN_POINT('',(6.076923076923,1.4,4.95));
#868 = DIRECTION('',(0.,0.,1.));
#869 = DIRECTION('',(-1.,0.,-0.));
#870 = CONICAL_SURFACE('',#871,2.185,0.299464860334);
#871 = AXIS2_PLACEMENT_3D('',#872,#873,#874);
#872 = CARTESIAN_POINT('',(-1.,1.4,4.));
#873 = DIRECTION('',(-1.,-0.,-0.));
#874 = DIRECTION('',(-0.,0.,1.));
#875 = ADVANCED_FACE('',(#876),#895,.F.);
#876 = FACE_BOUND('',#877,.F.);
#877 = EDGE_LOOP('',(#878,#879,#880,#888));
#878 = ORIENTED_EDGE('',*,*,#846,.F.);
#879 = ORIENTED_EDGE('',*,*,#84,.T.);
#880 = ORIENTED_EDGE('',*,*,#881,.T.);
#881 = EDGE_CURVE('',#76,#882,#884,.T.);
#882 = VERTEX_POINT('',#883);
#883 = CARTESIAN_POINT('',(3.,2.32682891838E-16,4.95));
#884 = LINE('',#885,#886);
#885 = CARTESIAN_POINT('',(-1.,5.351706512274E-16,6.185));
#886 = VECTOR('',#887,1.);
#887 = DIRECTION('',(0.955494496911,-7.225634736986E-17,-0.295008925921)
  );
#888 = ORIENTED_EDGE('',*,*,#889,.F.);
#889 = EDGE_CURVE('',#847,#882,#890,.T.);
#890 = HYPERBOLA('',#891,3.076923076923,0.95);
#891 = AXIS2_PLACEMENT_3D('',#892,#893,#894);
#892 = CARTESIAN_POINT('',(6.076923076923,0.,4.95));
#893 = DIRECTION('',(0.,0.,1.));
#894 = DIRECTION('',(-1.,0.,-0.));
#895 = CONICAL_SURFACE('',#896,2.185,0.299464860334);
#896 = AXIS2_PLACEMENT_3D('',#897,#898,#899);
#897 = CARTESIAN_POINT('',(-1.,0.,4.));
#898 = DIRECTION('',(-1.,-0.,-0.));
#899 = DIRECTION('',(-0.,0.,1.));
#900 = ADVANCED_FACE('',(#901),#921,.F.);
#901 = FACE_BOUND('',#902,.F.);
#902 = EDGE_LOOP('',(#903,#912,#913,#914));
#903 = ORIENTED_EDGE('',*,*,#904,.F.);
#904 = EDGE_CURVE('',#882,#905,#907,.T.);
#905 = VERTEX_POINT('',#906);
#906 = CARTESIAN_POINT('',(2.254923491107,-0.7,4.95));
#907 = HYPERBOLA('',#908,3.076923076923,0.95);
#908 = AXIS2_PLACEMENT_3D('',#909,#910,#911);
#909 = CARTESIAN_POINT('',(6.076923076923,0.,4.95));
#910 = DIRECTION('',(0.,0.,1.));
#911 = DIRECTION('',(-1.,0.,-0.));
#912 = ORIENTED_EDGE('',*,*,#881,.F.);
#913 = ORIENTED_EDGE('',*,*,#75,.T.);
#914 = ORIENTED_EDGE('',*,*,#915,.T.);
#915 = EDGE_CURVE('',#67,#905,#916,.T.);
#916 = HYPERBOLA('',#917,2.267206477733,0.7);
#917 = AXIS2_PLACEMENT_3D('',#918,#919,#920);
#918 = CARTESIAN_POINT('',(6.076923076923,-0.7,4.));
#919 = DIRECTION('',(0.,-1.,0.));
#920 = DIRECTION('',(-1.,-0.,0.));
#921 = CONICAL_SURFACE('',#922,2.185,0.299464860334);
#922 = AXIS2_PLACEMENT_3D('',#923,#924,#925);
#923 = CARTESIAN_POINT('',(-1.,0.,4.));
#924 = DIRECTION('',(-1.,-0.,-0.));
#925 = DIRECTION('',(-0.,0.,1.));
#926 = ADVANCED_FACE('',(#927),#1001,.F.);
#927 = FACE_BOUND('',#928,.F.);
#928 = EDGE_LOOP('',(#929,#930,#931,#962,#993,#1000));
#929 = ORIENTED_EDGE('',*,*,#66,.T.);
#930 = ORIENTED_EDGE('',*,*,#308,.T.);
#931 = ORIENTED_EDGE('',*,*,#932,.T.);
#932 = EDGE_CURVE('',#278,#933,#935,.T.);
#933 = VERTEX_POINT('',#934);
#934 = CARTESIAN_POINT('',(2.672259726472,-0.95,4.95));
#935 = B_SPLINE_CURVE_WITH_KNOTS('',7,(#936,#937,#938,#939,#940,#941,
    #942,#943,#944,#945,#946,#947,#948,#949,#950,#951,#952,#953,#954,
    #955,#956,#957,#958,#959,#960,#961),.UNSPECIFIED.,.F.,.F.,(8,6,6,6,8
    ),(0.,0.208184677836,0.340038595715,0.818824321237,1.),
  .UNSPECIFIED.);
#936 = CARTESIAN_POINT('',(3.,-1.4,4.95));
#937 = CARTESIAN_POINT('',(3.,-1.376308532625,4.95));
#938 = CARTESIAN_POINT('',(2.997767507837,-1.352535243872,4.95));
#939 = CARTESIAN_POINT('',(2.993274459406,-1.328865629944,4.95));
#940 = CARTESIAN_POINT('',(2.986608854663,-1.305443243434,4.95));
#941 = CARTESIAN_POINT('',(2.977934412154,-1.282380086795,4.95));
#942 = CARTESIAN_POINT('',(2.967456889843,-1.25976331828,4.95));
#943 = CARTESIAN_POINT('',(2.947758977926,-1.223658022087,4.95));
#944 = CARTESIAN_POINT('',(2.939481958754,-1.209855430211,4.95));
#945 = CARTESIAN_POINT('',(2.930616880005,-1.196259559705,4.95));
#946 = CARTESIAN_POINT('',(2.921213662495,-1.182875083569,4.95));
#947 = CARTESIAN_POINT('',(2.911319663269,-1.169702855191,4.95));
#948 = CARTESIAN_POINT('',(2.9009780563,-1.156740480725,4.95));
#949 = CARTESIAN_POINT('',(2.851184301624,-1.097657748256,4.95));
#950 = CARTESIAN_POINT('',(2.806847717418,-1.054166575377,4.95));
#951 = CARTESIAN_POINT('',(2.758864281818,-1.01299436905,4.95));
#952 = CARTESIAN_POINT('',(2.708304828799,-0.973860160998,4.95));
#953 = CARTESIAN_POINT('',(2.655919711718,-0.936479061325,4.95));
#954 = CARTESIAN_POINT('',(2.60210212867,-0.90057386143,4.95));
#955 = CARTESIAN_POINT('',(2.526073659178,-0.852679874698,4.95));
#956 = CARTESIAN_POINT('',(2.505029905302,-0.839710068037,4.95));
#957 = CARTESIAN_POINT('',(2.483829674947,-0.826907722082,4.95));
#958 = CARTESIAN_POINT('',(2.462486786559,-0.814262897313,4.95));
#959 = CARTESIAN_POINT('',(2.441013289216,-0.801766527645,4.95));
#960 = CARTESIAN_POINT('',(2.419419462625,-0.789410420433,4.95));
#961 = CARTESIAN_POINT('',(2.397713817126,-0.777187256464,4.95));
#962 = ORIENTED_EDGE('',*,*,#963,.T.);
#963 = EDGE_CURVE('',#933,#964,#966,.T.);
#964 = VERTEX_POINT('',#965);
#965 = CARTESIAN_POINT('',(2.397713817126,-0.777187256464,4.95));
#966 = B_SPLINE_CURVE_WITH_KNOTS('',7,(#967,#968,#969,#970,#971,#972,
    #973,#974,#975,#976,#977,#978,#979,#980,#981,#982,#983,#984,#985,
    #986,#987,#988,#989,#990,#991,#992),.UNSPECIFIED.,.F.,.F.,(8,6,6,6,8
    ),(0.,0.208184677836,0.340038595715,0.818824321237,1.),
  .UNSPECIFIED.);
#967 = CARTESIAN_POINT('',(3.,-1.4,4.95));
#968 = CARTESIAN_POINT('',(3.,-1.376308532625,4.95));
#969 = CARTESIAN_POINT('',(2.997767507837,-1.352535243872,4.95));
#970 = CARTESIAN_POINT('',(2.993274459406,-1.328865629944,4.95));
#971 = CARTESIAN_POINT('',(2.986608854663,-1.305443243434,4.95));
#972 = CARTESIAN_POINT('',(2.977934412154,-1.282380086795,4.95));
#973 = CARTESIAN_POINT('',(2.967456889843,-1.25976331828,4.95));
#974 = CARTESIAN_POINT('',(2.947758977926,-1.223658022087,4.95));
#975 = CARTESIAN_POINT('',(2.939481958754,-1.209855430211,4.95));
#976 = CARTESIAN_POINT('',(2.930616880005,-1.196259559705,4.95));
#977 = CARTESIAN_POINT('',(2.921213662495,-1.182875083569,4.95));
#978 = CARTESIAN_POINT('',(2.911319663269,-1.169702855191,4.95));
#979 = CARTESIAN_POINT('',(2.9009780563,-1.156740480725,4.95));
#980 = CARTESIAN_POINT('',(2.851184301624,-1.097657748256,4.95));
#981 = CARTESIAN_POINT('',(2.806847717418,-1.054166575377,4.95));
#982 = CARTESIAN_POINT('',(2.758864281818,-1.01299436905,4.95));
#983 = CARTESIAN_POINT('',(2.708304828799,-0.973860160998,4.95));
#984 = CARTESIAN_POINT('',(2.655919711718,-0.936479061325,4.95));
#985 = CARTESIAN_POINT('',(2.60210212867,-0.90057386143,4.95));
#986 = CARTESIAN_POINT('',(2.526073659178,-0.852679874698,4.95));
#987 = CARTESIAN_POINT('',(2.505029905302,-0.839710068037,4.95));
#988 = CARTESIAN_POINT('',(2.483829674947,-0.826907722082,4.95));
#989 = CARTESIAN_POINT('',(2.462486786559,-0.814262897313,4.95));
#990 = CARTESIAN_POINT('',(2.441013289216,-0.801766527645,4.95));
#991 = CARTESIAN_POINT('',(2.419419462625,-0.789410420433,4.95));
#992 = CARTESIAN_POINT('',(2.397713817126,-0.777187256464,4.95));
#993 = ORIENTED_EDGE('',*,*,#994,.F.);
#994 = EDGE_CURVE('',#905,#964,#995,.T.);
#995 = HYPERBOLA('',#996,3.076923076923,0.95);
#996 = AXIS2_PLACEMENT_3D('',#997,#998,#999);
#997 = CARTESIAN_POINT('',(6.076923076923,-1.4,4.95));
#998 = DIRECTION('',(0.,0.,1.));
#999 = DIRECTION('',(-1.,0.,-0.));
#1000 = ORIENTED_EDGE('',*,*,#915,.F.);
#1001 = CONICAL_SURFACE('',#1002,2.185,0.299464860334);
#1002 = AXIS2_PLACEMENT_3D('',#1003,#1004,#1005);
#1003 = CARTESIAN_POINT('',(-1.,-1.4,4.));
#1004 = DIRECTION('',(-1.,-0.,-0.));
#1005 = DIRECTION('',(-0.,0.,1.));
#1006 = ADVANCED_FACE('',(#1007,#1013,#1045,#1079),#1111,.T.);
#1007 = FACE_BOUND('',#1008,.T.);
#1008 = EDGE_LOOP('',(#1009,#1010,#1011,#1012));
#1009 = ORIENTED_EDGE('',*,*,#143,.F.);
#1010 = ORIENTED_EDGE('',*,*,#205,.T.);
#1011 = ORIENTED_EDGE('',*,*,#252,.T.);
#1012 = ORIENTED_EDGE('',*,*,#159,.F.);
#1013 = FACE_BOUND('',#1014,.T.);
#1014 = EDGE_LOOP('',(#1015,#1025,#1032,#1040));
#1015 = ORIENTED_EDGE('',*,*,#1016,.F.);
#1016 = EDGE_CURVE('',#1017,#1019,#1021,.T.);
#1017 = VERTEX_POINT('',#1018);
#1018 = CARTESIAN_POINT('',(25.,4.853703703704,3.05));
#1019 = VERTEX_POINT('',#1020);
#1020 = CARTESIAN_POINT('',(25.,4.853703703704,4.95));
#1021 = LINE('',#1022,#1023);
#1022 = CARTESIAN_POINT('',(25.,4.853703703704,1.525));
#1023 = VECTOR('',#1024,1.);
#1024 = DIRECTION('',(0.,0.,1.));
#1025 = ORIENTED_EDGE('',*,*,#1026,.T.);
#1026 = EDGE_CURVE('',#1017,#1027,#1029,.T.);
#1027 = VERTEX_POINT('',#1028);
#1028 = CARTESIAN_POINT('',(25.,2.953703703704,3.05));
#1029 = B_SPLINE_CURVE_WITH_KNOTS('',1,(#1030,#1031),.UNSPECIFIED.,.F.,
  .F.,(2,2),(0.,1.),.PIECEWISE_BEZIER_KNOTS.);
#1030 = CARTESIAN_POINT('',(25.,4.853703703704,3.05));
#1031 = CARTESIAN_POINT('',(25.,2.953703703704,3.05));
#1032 = ORIENTED_EDGE('',*,*,#1033,.F.);
#1033 = EDGE_CURVE('',#1034,#1027,#1036,.T.);
#1034 = VERTEX_POINT('',#1035);
#1035 = CARTESIAN_POINT('',(25.,2.953703703704,4.95));
#1036 = LINE('',#1037,#1038);
#1037 = CARTESIAN_POINT('',(25.,2.953703703704,2.475));
#1038 = VECTOR('',#1039,1.);
#1039 = DIRECTION('',(0.,-0.,-1.));
#1040 = ORIENTED_EDGE('',*,*,#1041,.T.);
#1041 = EDGE_CURVE('',#1034,#1019,#1042,.T.);
#1042 = B_SPLINE_CURVE_WITH_KNOTS('',1,(#1043,#1044),.UNSPECIFIED.,.F.,
  .F.,(2,2),(0.,1.),.PIECEWISE_BEZIER_KNOTS.);
#1043 = CARTESIAN_POINT('',(25.,2.953703703704,4.95));
#1044 = CARTESIAN_POINT('',(25.,4.853703703704,4.95));
#1045 = FACE_BOUND('',#1046,.T.);
#1046 = EDGE_LOOP('',(#1047,#1057,#1065,#1073));
#1047 = ORIENTED_EDGE('',*,*,#1048,.F.);
#1048 = EDGE_CURVE('',#1049,#1051,#1053,.T.);
#1049 = VERTEX_POINT('',#1050);
#1050 = CARTESIAN_POINT('',(25.,-0.95,3.05));
#1051 = VERTEX_POINT('',#1052);
#1052 = CARTESIAN_POINT('',(25.,0.95,3.05));
#1053 = LINE('',#1054,#1055);
#1054 = CARTESIAN_POINT('',(25.,-4.475,3.05));
#1055 = VECTOR('',#1056,1.);
#1056 = DIRECTION('',(0.,1.,0.));
#1057 = ORIENTED_EDGE('',*,*,#1058,.F.);
#1058 = EDGE_CURVE('',#1059,#1049,#1061,.T.);
#1059 = VERTEX_POINT('',#1060);
#1060 = CARTESIAN_POINT('',(25.,-0.95,4.95));
#1061 = LINE('',#1062,#1063);
#1062 = CARTESIAN_POINT('',(25.,-0.95,2.475));
#1063 = VECTOR('',#1064,1.);
#1064 = DIRECTION('',(0.,-0.,-1.));
#1065 = ORIENTED_EDGE('',*,*,#1066,.F.);
#1066 = EDGE_CURVE('',#1067,#1059,#1069,.T.);
#1067 = VERTEX_POINT('',#1068);
#1068 = CARTESIAN_POINT('',(25.,0.95,4.95));
#1069 = LINE('',#1070,#1071);
#1070 = CARTESIAN_POINT('',(25.,-3.525,4.95));
#1071 = VECTOR('',#1072,1.);
#1072 = DIRECTION('',(0.,-1.,0.));
#1073 = ORIENTED_EDGE('',*,*,#1074,.F.);
#1074 = EDGE_CURVE('',#1051,#1067,#1075,.T.);
#1075 = LINE('',#1076,#1077);
#1076 = CARTESIAN_POINT('',(25.,0.95,1.525));
#1077 = VECTOR('',#1078,1.);
#1078 = DIRECTION('',(0.,-0.,1.));
#1079 = FACE_BOUND('',#1080,.T.);
#1080 = EDGE_LOOP('',(#1081,#1091,#1098,#1106));
#1081 = ORIENTED_EDGE('',*,*,#1082,.F.);
#1082 = EDGE_CURVE('',#1083,#1085,#1087,.T.);
#1083 = VERTEX_POINT('',#1084);
#1084 = CARTESIAN_POINT('',(25.,-2.953703703704,3.05));
#1085 = VERTEX_POINT('',#1086);
#1086 = CARTESIAN_POINT('',(25.,-2.953703703704,4.95));
#1087 = LINE('',#1088,#1089);
#1088 = CARTESIAN_POINT('',(25.,-2.953703703704,1.525));
#1089 = VECTOR('',#1090,1.);
#1090 = DIRECTION('',(0.,0.,1.));
#1091 = ORIENTED_EDGE('',*,*,#1092,.T.);
#1092 = EDGE_CURVE('',#1083,#1093,#1095,.T.);
#1093 = VERTEX_POINT('',#1094);
#1094 = CARTESIAN_POINT('',(25.,-4.853703703704,3.05));
#1095 = B_SPLINE_CURVE_WITH_KNOTS('',1,(#1096,#1097),.UNSPECIFIED.,.F.,
  .F.,(2,2),(0.,1.),.PIECEWISE_BEZIER_KNOTS.);
#1096 = CARTESIAN_POINT('',(25.,-2.953703703704,3.05));
#1097 = CARTESIAN_POINT('',(25.,-4.853703703704,3.05));
#1098 = ORIENTED_EDGE('',*,*,#1099,.F.);
#1099 = EDGE_CURVE('',#1100,#1093,#1102,.T.);
#1100 = VERTEX_POINT('',#1101);
#1101 = CARTESIAN_POINT('',(25.,-4.853703703704,4.95));
#1102 = LINE('',#1103,#1104);
#1103 = CARTESIAN_POINT('',(25.,-4.853703703704,2.475));
#1104 = VECTOR('',#1105,1.);
#1105 = DIRECTION('',(-0.,0.,-1.));
#1106 = ORIENTED_EDGE('',*,*,#1107,.T.);
#1107 = EDGE_CURVE('',#1100,#1085,#1108,.T.);
#1108 = B_SPLINE_CURVE_WITH_KNOTS('',1,(#1109,#1110),.UNSPECIFIED.,.F.,
  .F.,(2,2),(0.,1.),.PIECEWISE_BEZIER_KNOTS.);
#1109 = CARTESIAN_POINT('',(25.,-4.853703703704,4.95));
#1110 = CARTESIAN_POINT('',(25.,-2.953703703704,4.95));
#1111 = PLANE('',#1112);
#1112 = AXIS2_PLACEMENT_3D('',#1113,#1114,#1115);
#1113 = CARTESIAN_POINT('',(25.,-8.,0.));
#1114 = DIRECTION('',(1.,0.,-0.));
#1115 = DIRECTION('',(0.,0.,1.));
#1116 = ADVANCED_FACE('',(#1117,#1128),#1240,.F.);
#1117 = FACE_BOUND('',#1118,.F.);
#1118 = EDGE_LOOP('',(#1119,#1120,#1126,#1127));
#1119 = ORIENTED_EDGE('',*,*,#175,.F.);
#1120 = ORIENTED_EDGE('',*,*,#1121,.F.);
#1121 = EDGE_CURVE('',#222,#176,#1122,.T.);
#1122 = LINE('',#1123,#1124);
#1123 = CARTESIAN_POINT('',(14.2,-4.,-1.));
#1124 = VECTOR('',#1125,1.);
#1125 = DIRECTION('',(0.,0.,1.));
#1126 = ORIENTED_EDGE('',*,*,#221,.T.);
#1127 = ORIENTED_EDGE('',*,*,#1121,.T.);
#1128 = FACE_BOUND('',#1129,.F.);
#1129 = EDGE_LOOP('',(#1130,#1140,#1187,#1195));
#1130 = ORIENTED_EDGE('',*,*,#1131,.F.);
#1131 = EDGE_CURVE('',#1132,#1134,#1136,.T.);
#1132 = VERTEX_POINT('',#1133);
#1133 = CARTESIAN_POINT('',(10.877136819764,-3.493724286348,3.05));
#1134 = VERTEX_POINT('',#1135);
#1135 = CARTESIAN_POINT('',(10.877136819764,-3.493724286348,4.95));
#1136 = LINE('',#1137,#1138);
#1137 = CARTESIAN_POINT('',(10.877136819764,-3.493724286348,-1.));
#1138 = VECTOR('',#1139,1.);
#1139 = DIRECTION('',(0.,0.,1.));
#1140 = ORIENTED_EDGE('',*,*,#1141,.F.);
#1141 = EDGE_CURVE('',#1142,#1132,#1144,.T.);
#1142 = VERTEX_POINT('',#1143);
#1143 = CARTESIAN_POINT('',(14.189651263307,-3.812707158689,3.05));
#1144 = B_SPLINE_CURVE_WITH_KNOTS('',5,(#1145,#1146,#1147,#1148,#1149,
    #1150,#1151,#1152,#1153,#1154,#1155,#1156,#1157,#1158,#1159,#1160,
    #1161,#1162,#1163,#1164,#1165,#1166,#1167,#1168,#1169,#1170,#1171,
    #1172,#1173,#1174,#1175,#1176,#1177,#1178,#1179,#1180,#1181,#1182,
    #1183,#1184,#1185,#1186),.UNSPECIFIED.,.F.,.F.,(6,4,4,4,4,4,4,4,4,4,
    6),(0.,0.137054737858,0.298847368272,0.37560494066,0.416780425002,
    0.499360818669,0.583103806155,0.624314783621,0.701097554489,
    0.862911434128,1.),.UNSPECIFIED.);
#1145 = CARTESIAN_POINT('',(14.189651263307,-3.812707158689,3.05));
#1146 = CARTESIAN_POINT('',(14.177421964818,-3.702381267452,3.05));
#1147 = CARTESIAN_POINT('',(14.156102823816,-3.59227789647,3.05));
#1148 = CARTESIAN_POINT('',(14.125493876017,-3.48295095954,3.05));
#1149 = CARTESIAN_POINT('',(14.085291473271,-3.375103857685,3.05));
#1150 = CARTESIAN_POINT('',(13.975863854207,-3.145108124927,3.05));
#1151 = CARTESIAN_POINT('',(13.902741074757,-3.023959139816,3.05));
#1152 = CARTESIAN_POINT('',(13.8150732102,-2.907545784552,3.05));
#1153 = CARTESIAN_POINT('',(13.712194305225,-2.798190192014,3.05));
#1154 = CARTESIAN_POINT('',(13.538254369447,-2.651899100821,3.05));
#1155 = CARTESIAN_POINT('',(13.478907333875,-2.60712425768,3.05));
#1156 = CARTESIAN_POINT('',(13.416220397156,-2.564989021342,3.05));
#1157 = CARTESIAN_POINT('',(13.350313757387,-2.525897329126,3.05));
#1158 = CARTESIAN_POINT('',(13.244513987103,-2.471134733458,3.05));
#1159 = CARTESIAN_POINT('',(13.206725288754,-2.453007211095,3.05));
#1160 = CARTESIAN_POINT('',(13.168128844442,-2.435935972408,3.05));
#1161 = CARTESIAN_POINT('',(13.128779610537,-2.419981857031,3.05));
#1162 = CARTESIAN_POINT('',(13.008455059445,-2.375562060118,3.05));
#1163 = CARTESIAN_POINT('',(12.925397152565,-2.350641582673,3.05));
#1164 = CARTESIAN_POINT('',(12.840160622451,-2.330914761685,3.05));
#1165 = CARTESIAN_POINT('',(12.753484527445,-2.316721515139,3.05));
#1166 = CARTESIAN_POINT('',(12.577815865827,-2.299457926415,3.05));
#1167 = CARTESIAN_POINT('',(12.488774427586,-2.296543701727,3.05));
#1168 = CARTESIAN_POINT('',(12.400074322287,-2.299503402752,3.05));
#1169 = CARTESIAN_POINT('',(12.312542190295,-2.308139314446,3.05));
#1170 = CARTESIAN_POINT('',(12.184719700701,-2.328945650817,3.05));
#1171 = CARTESIAN_POINT('',(12.143010855576,-2.33709415539,3.05));
#1172 = CARTESIAN_POINT('',(12.101828406759,-2.346485183351,3.05));
#1173 = CARTESIAN_POINT('',(12.061238088108,-2.35706938698,3.05));
#1174 = CARTESIAN_POINT('',(11.946869272515,-2.390632936725,3.05));
#1175 = CARTESIAN_POINT('',(11.874687664156,-2.416426146358,3.05));
#1176 = CARTESIAN_POINT('',(11.805086963963,-2.445823929288,3.05));
#1177 = CARTESIAN_POINT('',(11.738262403244,-2.478452393291,3.05));
#1178 = CARTESIAN_POINT('',(11.539559268192,-2.5888586425,3.05));
#1179 = CARTESIAN_POINT('',(11.417683251927,-2.67656881222,3.05));
#1180 = CARTESIAN_POINT('',(11.309393129035,-2.77411292377,3.05));
#1181 = CARTESIAN_POINT('',(11.214478501366,-2.879084140449,3.05));
#1182 = CARTESIAN_POINT('',(11.063135720628,-3.083991779523,3.05));
#1183 = CARTESIAN_POINT('',(11.003074118757,-3.18220335822,3.05));
#1184 = CARTESIAN_POINT('',(10.952150667144,-3.283700724259,3.05));
#1185 = CARTESIAN_POINT('',(10.910201684168,-3.387735099915,3.05));
#1186 = CARTESIAN_POINT('',(10.877136819764,-3.493724286348,3.05));
#1187 = ORIENTED_EDGE('',*,*,#1188,.T.);
#1188 = EDGE_CURVE('',#1142,#1189,#1191,.T.);
#1189 = VERTEX_POINT('',#1190);
#1190 = CARTESIAN_POINT('',(14.189651263307,-3.812707158689,4.95));
#1191 = LINE('',#1192,#1193);
#1192 = CARTESIAN_POINT('',(14.189651263307,-3.812707158689,-1.));
#1193 = VECTOR('',#1194,1.);
#1194 = DIRECTION('',(0.,0.,1.));
#1195 = ORIENTED_EDGE('',*,*,#1196,.F.);
#1196 = EDGE_CURVE('',#1134,#1189,#1197,.T.);
#1197 = B_SPLINE_CURVE_WITH_KNOTS('',5,(#1198,#1199,#1200,#1201,#1202,
    #1203,#1204,#1205,#1206,#1207,#1208,#1209,#1210,#1211,#1212,#1213,
    #1214,#1215,#1216,#1217,#1218,#1219,#1220,#1221,#1222,#1223,#1224,
    #1225,#1226,#1227,#1228,#1229,#1230,#1231,#1232,#1233,#1234,#1235,
    #1236,#1237,#1238,#1239),.UNSPECIFIED.,.F.,.F.,(6,4,4,4,4,4,4,4,4,4,
    6),(0.,0.137060096993,0.298863527627,0.375626177484,0.416803515245,
    0.499175152552,0.582806336496,0.624111071095,0.700957054889,
    0.862800878765,1.),.UNSPECIFIED.);
#1198 = CARTESIAN_POINT('',(10.877136819764,-3.493724286348,4.95));
#1199 = CARTESIAN_POINT('',(10.910194675854,-3.387757565015,4.95));
#1200 = CARTESIAN_POINT('',(10.952132887942,-3.283744818137,4.95));
#1201 = CARTESIAN_POINT('',(11.003041743535,-3.182267889344,4.95));
#1202 = CARTESIAN_POINT('',(11.0630848035,-3.084075043118,4.95));
#1203 = CARTESIAN_POINT('',(11.214389964232,-2.879187118667,4.95));
#1204 = CARTESIAN_POINT('',(11.309287658641,-2.774217594492,4.95));
#1205 = CARTESIAN_POINT('',(11.417558813249,-2.67667301027,4.95));
#1206 = CARTESIAN_POINT('',(11.539413922328,-2.588959273241,4.95));
#1207 = CARTESIAN_POINT('',(11.738071993613,-2.478548782094,4.95));
#1208 = CARTESIAN_POINT('',(11.804872117964,-2.445921647354,4.95));
#1209 = CARTESIAN_POINT('',(11.874447185402,-2.416522827778,4.95));
#1210 = CARTESIAN_POINT('',(11.946602269671,-2.390725882583,4.95));
#1211 = CARTESIAN_POINT('',(12.060907600814,-2.357158592529,4.95));
#1212 = CARTESIAN_POINT('',(12.101460515703,-2.346575209437,4.95));
#1213 = CARTESIAN_POINT('',(12.142604903955,-2.33718276943,4.95));
#1214 = CARTESIAN_POINT('',(12.184275241015,-2.329030519703,4.95));
#1215 = CARTESIAN_POINT('',(12.310647602638,-2.308422871804,4.95));
#1216 = CARTESIAN_POINT('',(12.396708603384,-2.299818323311,4.95));
#1217 = CARTESIAN_POINT('',(12.483914043403,-2.296698478411,4.95));
#1218 = CARTESIAN_POINT('',(12.571480072286,-2.299255264165,4.95));
#1219 = CARTESIAN_POINT('',(12.746886944545,-2.315682811819,4.95));
#1220 = CARTESIAN_POINT('',(12.834744683613,-2.329729082269,4.95));
#1221 = CARTESIAN_POINT('',(12.921159275542,-2.349463476868,4.95));
#1222 = CARTESIAN_POINT('',(13.005358639884,-2.374537350498,4.95));
#1223 = CARTESIAN_POINT('',(13.126914720471,-2.419237099873,4.95));
#1224 = CARTESIAN_POINT('',(13.166415237393,-2.435199259944,4.95));
#1225 = CARTESIAN_POINT('',(13.205159816809,-2.452287234703,4.95));
#1226 = CARTESIAN_POINT('',(13.243092751199,-2.470439661053,4.95));
#1227 = CARTESIAN_POINT('',(13.34915588798,-2.525224505613,4.95));
#1228 = CARTESIAN_POINT('',(13.415182327952,-2.564318512374,4.95));
#1229 = CARTESIAN_POINT('',(13.477983183604,-2.606467191677,4.95));
#1230 = CARTESIAN_POINT('',(13.537437163749,-2.651264909117,4.95));
#1231 = CARTESIAN_POINT('',(13.711587482258,-2.797569014514,4.95));
#1232 = CARTESIAN_POINT('',(13.814568805184,-2.90692499617,4.95));
#1233 = CARTESIAN_POINT('',(13.902327373925,-3.023351631846,4.95));
#1234 = CARTESIAN_POINT('',(13.975529507423,-3.144522326169,4.95));
#1235 = CARTESIAN_POINT('',(14.085121314092,-3.374647571001,4.95));
#1236 = CARTESIAN_POINT('',(14.125396724636,-3.482604073583,4.95));
#1237 = CARTESIAN_POINT('',(14.156057719419,-3.592045006208,4.95));
#1238 = CARTESIAN_POINT('',(14.177409028839,-3.702264566281,4.95));
#1239 = CARTESIAN_POINT('',(14.189651263307,-3.812707158689,4.95));
#1240 = CYLINDRICAL_SURFACE('',#1241,1.7);
#1241 = AXIS2_PLACEMENT_3D('',#1242,#1243,#1244);
#1242 = CARTESIAN_POINT('',(12.5,-4.,-1.));
#1243 = DIRECTION('',(0.,0.,1.));
#1244 = DIRECTION('',(1.,0.,-0.));
#1245 = ADVANCED_FACE('',(#1246,#1257),#1369,.F.);
#1246 = FACE_BOUND('',#1247,.F.);
#1247 = EDGE_LOOP('',(#1248,#1249,#1255,#1256));
#1248 = ORIENTED_EDGE('',*,*,#186,.F.);
#1249 = ORIENTED_EDGE('',*,*,#1250,.F.);
#1250 = EDGE_CURVE('',#233,#187,#1251,.T.);
#1251 = LINE('',#1252,#1253);
#1252 = CARTESIAN_POINT('',(14.2,4.,-1.));
#1253 = VECTOR('',#1254,1.);
#1254 = DIRECTION('',(0.,0.,1.));
#1255 = ORIENTED_EDGE('',*,*,#232,.T.);
#1256 = ORIENTED_EDGE('',*,*,#1250,.T.);
#1257 = FACE_BOUND('',#1258,.F.);
#1258 = EDGE_LOOP('',(#1259,#1308,#1316,#1363));
#1259 = ORIENTED_EDGE('',*,*,#1260,.F.);
#1260 = EDGE_CURVE('',#1261,#1263,#1265,.T.);
#1261 = VERTEX_POINT('',#1262);
#1262 = CARTESIAN_POINT('',(10.877136819764,3.493724286348,3.05));
#1263 = VERTEX_POINT('',#1264);
#1264 = CARTESIAN_POINT('',(14.189651263307,3.812707158689,3.05));
#1265 = B_SPLINE_CURVE_WITH_KNOTS('',5,(#1266,#1267,#1268,#1269,#1270,
    #1271,#1272,#1273,#1274,#1275,#1276,#1277,#1278,#1279,#1280,#1281,
    #1282,#1283,#1284,#1285,#1286,#1287,#1288,#1289,#1290,#1291,#1292,
    #1293,#1294,#1295,#1296,#1297,#1298,#1299,#1300,#1301,#1302,#1303,
    #1304,#1305,#1306,#1307),.UNSPECIFIED.,.F.,.F.,(6,4,4,4,4,4,4,4,4,4,
    6),(0.,0.137060096993,0.298863527627,0.375626177484,0.416803515245,
    0.499175152552,0.582806336496,0.624111071094,0.700957054889,
    0.862800878765,1.),.UNSPECIFIED.);
#1266 = CARTESIAN_POINT('',(10.877136819764,3.493724286348,3.05));
#1267 = CARTESIAN_POINT('',(10.910194675854,3.387757565015,3.05));
#1268 = CARTESIAN_POINT('',(10.952132887942,3.283744818137,3.05));
#1269 = CARTESIAN_POINT('',(11.003041743535,3.182267889343,3.05));
#1270 = CARTESIAN_POINT('',(11.0630848035,3.084075043118,3.05));
#1271 = CARTESIAN_POINT('',(11.214389964232,2.879187118667,3.05));
#1272 = CARTESIAN_POINT('',(11.309287658641,2.774217594492,3.05));
#1273 = CARTESIAN_POINT('',(11.417558813249,2.67667301027,3.05));
#1274 = CARTESIAN_POINT('',(11.539413922328,2.588959273241,3.05));
#1275 = CARTESIAN_POINT('',(11.738071993613,2.478548782094,3.05));
#1276 = CARTESIAN_POINT('',(11.804872117964,2.445921647354,3.05));
#1277 = CARTESIAN_POINT('',(11.874447185402,2.416522827778,3.05));
#1278 = CARTESIAN_POINT('',(11.946602269671,2.390725882583,3.05));
#1279 = CARTESIAN_POINT('',(12.060907600814,2.357158592529,3.05));
#1280 = CARTESIAN_POINT('',(12.101460515703,2.346575209437,3.05));
#1281 = CARTESIAN_POINT('',(12.142604903955,2.33718276943,3.05));
#1282 = CARTESIAN_POINT('',(12.184275241015,2.329030519703,3.05));
#1283 = CARTESIAN_POINT('',(12.310647602638,2.308422871804,3.05));
#1284 = CARTESIAN_POINT('',(12.396708603384,2.299818323311,3.05));
#1285 = CARTESIAN_POINT('',(12.483914043403,2.296698478411,3.05));
#1286 = CARTESIAN_POINT('',(12.571480072287,2.299255264165,3.05));
#1287 = CARTESIAN_POINT('',(12.746886944545,2.315682811819,3.05));
#1288 = CARTESIAN_POINT('',(12.834744683613,2.329729082269,3.05));
#1289 = CARTESIAN_POINT('',(12.921159275542,2.349463476868,3.05));
#1290 = CARTESIAN_POINT('',(13.005358639884,2.374537350498,3.05));
#1291 = CARTESIAN_POINT('',(13.126914720471,2.419237099873,3.05));
#1292 = CARTESIAN_POINT('',(13.166415237393,2.435199259944,3.05));
#1293 = CARTESIAN_POINT('',(13.205159816809,2.452287234703,3.05));
#1294 = CARTESIAN_POINT('',(13.243092751199,2.470439661053,3.05));
#1295 = CARTESIAN_POINT('',(13.34915588798,2.525224505613,3.05));
#1296 = CARTESIAN_POINT('',(13.415182327952,2.564318512374,3.05));
#1297 = CARTESIAN_POINT('',(13.477983183604,2.606467191677,3.05));
#1298 = CARTESIAN_POINT('',(13.537437163749,2.651264909117,3.05));
#1299 = CARTESIAN_POINT('',(13.711587482258,2.797569014514,3.05));
#1300 = CARTESIAN_POINT('',(13.814568805184,2.90692499617,3.05));
#1301 = CARTESIAN_POINT('',(13.902327373925,3.023351631846,3.05));
#1302 = CARTESIAN_POINT('',(13.975529507423,3.144522326169,3.05));
#1303 = CARTESIAN_POINT('',(14.085121314092,3.374647571001,3.05));
#1304 = CARTESIAN_POINT('',(14.125396724636,3.482604073583,3.05));
#1305 = CARTESIAN_POINT('',(14.156057719419,3.592045006208,3.05));
#1306 = CARTESIAN_POINT('',(14.177409028839,3.702264566281,3.05));
#1307 = CARTESIAN_POINT('',(14.189651263307,3.812707158689,3.05));
#1308 = ORIENTED_EDGE('',*,*,#1309,.T.);
#1309 = EDGE_CURVE('',#1261,#1310,#1312,.T.);
#1310 = VERTEX_POINT('',#1311);
#1311 = CARTESIAN_POINT('',(10.877136819764,3.493724286348,4.95));
#1312 = LINE('',#1313,#1314);
#1313 = CARTESIAN_POINT('',(10.877136819764,3.493724286348,-1.));
#1314 = VECTOR('',#1315,1.);
#1315 = DIRECTION('',(0.,0.,1.));
#1316 = ORIENTED_EDGE('',*,*,#1317,.F.);
#1317 = EDGE_CURVE('',#1318,#1310,#1320,.T.);
#1318 = VERTEX_POINT('',#1319);
#1319 = CARTESIAN_POINT('',(14.189651263307,3.812707158689,4.95));
#1320 = B_SPLINE_CURVE_WITH_KNOTS('',5,(#1321,#1322,#1323,#1324,#1325,
    #1326,#1327,#1328,#1329,#1330,#1331,#1332,#1333,#1334,#1335,#1336,
    #1337,#1338,#1339,#1340,#1341,#1342,#1343,#1344,#1345,#1346,#1347,
    #1348,#1349,#1350,#1351,#1352,#1353,#1354,#1355,#1356,#1357,#1358,
    #1359,#1360,#1361,#1362),.UNSPECIFIED.,.F.,.F.,(6,4,4,4,4,4,4,4,4,4,
    6),(0.,0.137054737858,0.298847368272,0.37560494066,0.416780425002,
    0.49936081867,0.583103806155,0.624314783621,0.701097554489,
    0.862911434128,1.),.UNSPECIFIED.);
#1321 = CARTESIAN_POINT('',(14.189651263307,3.812707158689,4.95));
#1322 = CARTESIAN_POINT('',(14.177421964818,3.702381267452,4.95));
#1323 = CARTESIAN_POINT('',(14.156102823816,3.59227789647,4.95));
#1324 = CARTESIAN_POINT('',(14.125493876017,3.48295095954,4.95));
#1325 = CARTESIAN_POINT('',(14.085291473271,3.375103857685,4.95));
#1326 = CARTESIAN_POINT('',(13.975863854207,3.145108124927,4.95));
#1327 = CARTESIAN_POINT('',(13.902741074757,3.023959139816,4.95));
#1328 = CARTESIAN_POINT('',(13.815073210199,2.907545784552,4.95));
#1329 = CARTESIAN_POINT('',(13.712194305225,2.798190192014,4.95));
#1330 = CARTESIAN_POINT('',(13.538254369447,2.651899100821,4.95));
#1331 = CARTESIAN_POINT('',(13.478907333875,2.60712425768,4.95));
#1332 = CARTESIAN_POINT('',(13.416220397156,2.564989021342,4.95));
#1333 = CARTESIAN_POINT('',(13.350313757387,2.525897329126,4.95));
#1334 = CARTESIAN_POINT('',(13.244513987103,2.471134733458,4.95));
#1335 = CARTESIAN_POINT('',(13.206725288754,2.453007211095,4.95));
#1336 = CARTESIAN_POINT('',(13.168128844442,2.435935972408,4.95));
#1337 = CARTESIAN_POINT('',(13.128779610537,2.419981857031,4.95));
#1338 = CARTESIAN_POINT('',(13.008455059445,2.375562060118,4.95));
#1339 = CARTESIAN_POINT('',(12.925397152565,2.350641582673,4.95));
#1340 = CARTESIAN_POINT('',(12.840160622451,2.330914761685,4.95));
#1341 = CARTESIAN_POINT('',(12.753484527445,2.316721515139,4.95));
#1342 = CARTESIAN_POINT('',(12.577815865827,2.299457926415,4.95));
#1343 = CARTESIAN_POINT('',(12.488774427586,2.296543701727,4.95));
#1344 = CARTESIAN_POINT('',(12.400074322287,2.299503402752,4.95));
#1345 = CARTESIAN_POINT('',(12.312542190295,2.308139314446,4.95));
#1346 = CARTESIAN_POINT('',(12.184719700701,2.328945650817,4.95));
#1347 = CARTESIAN_POINT('',(12.143010855576,2.33709415539,4.95));
#1348 = CARTESIAN_POINT('',(12.101828406759,2.346485183351,4.95));
#1349 = CARTESIAN_POINT('',(12.061238088108,2.35706938698,4.95));
#1350 = CARTESIAN_POINT('',(11.946869272515,2.390632936725,4.95));
#1351 = CARTESIAN_POINT('',(11.874687664156,2.416426146358,4.95));
#1352 = CARTESIAN_POINT('',(11.805086963963,2.445823929288,4.95));
#1353 = CARTESIAN_POINT('',(11.738262403244,2.478452393291,4.95));
#1354 = CARTESIAN_POINT('',(11.539559268192,2.5888586425,4.95));
#1355 = CARTESIAN_POINT('',(11.417683251927,2.67656881222,4.95));
#1356 = CARTESIAN_POINT('',(11.309393129035,2.77411292377,4.95));
#1357 = CARTESIAN_POINT('',(11.214478501366,2.879084140449,4.95));
#1358 = CARTESIAN_POINT('',(11.063135720628,3.083991779523,4.95));
#1359 = CARTESIAN_POINT('',(11.003074118757,3.18220335822,4.95));
#1360 = CARTESIAN_POINT('',(10.952150667144,3.283700724259,4.95));
#1361 = CARTESIAN_POINT('',(10.910201684168,3.387735099915,4.95));
#1362 = CARTESIAN_POINT('',(10.877136819764,3.493724286348,4.95));
#1363 = ORIENTED_EDGE('',*,*,#1364,.F.);
#1364 = EDGE_CURVE('',#1263,#1318,#1365,.T.);
#1365 = LINE('',#1366,#1367);
#1366 = CARTESIAN_POINT('',(14.189651263307,3.812707158689,-1.));
#1367 = VECTOR('',#1368,1.);
#1368 = DIRECTION('',(0.,0.,1.));
#1369 = CYLINDRICAL_SURFACE('',#1370,1.7);
#1370 = AXIS2_PLACEMENT_3D('',#1371,#1372,#1373);
#1371 = CARTESIAN_POINT('',(12.5,4.,-1.));
#1372 = DIRECTION('',(0.,0.,1.));
#1373 = DIRECTION('',(1.,0.,-0.));
#1374 = ADVANCED_FACE('',(#1375),#1389,.F.);
#1375 = FACE_BOUND('',#1376,.F.);
#1376 = EDGE_LOOP('',(#1377,#1382,#1383,#1388));
#1377 = ORIENTED_EDGE('',*,*,#1378,.F.);
#1378 = EDGE_CURVE('',#267,#1134,#1379,.T.);
#1379 = B_SPLINE_CURVE_WITH_KNOTS('',1,(#1380,#1381),.UNSPECIFIED.,.F.,
  .F.,(2,2),(0.,1.),.PIECEWISE_BEZIER_KNOTS.);
#1380 = CARTESIAN_POINT('',(-1.,-2.35,4.95));
#1381 = CARTESIAN_POINT('',(26.,-4.95,4.95));
#1382 = ORIENTED_EDGE('',*,*,#266,.T.);
#1383 = ORIENTED_EDGE('',*,*,#1384,.T.);
#1384 = EDGE_CURVE('',#269,#1132,#1385,.T.);
#1385 = B_SPLINE_CURVE_WITH_KNOTS('',1,(#1386,#1387),.UNSPECIFIED.,.F.,
  .F.,(2,2),(0.,1.),.PIECEWISE_BEZIER_KNOTS.);
#1386 = CARTESIAN_POINT('',(-1.,-2.35,3.05));
#1387 = CARTESIAN_POINT('',(26.,-4.95,3.05));
#1388 = ORIENTED_EDGE('',*,*,#1131,.T.);
#1389 = PLANE('',#1390);
#1390 = AXIS2_PLACEMENT_3D('',#1391,#1392,#1393);
#1391 = CARTESIAN_POINT('',(26.,-4.95,4.95));
#1392 = DIRECTION('',(-9.58529009653E-02,-0.995395510024,-0.));
#1393 = DIRECTION('',(0.,0.,-1.));
#1394 = ADVANCED_FACE('',(#1395),#1419,.F.);
#1395 = FACE_BOUND('',#1396,.F.);
#1396 = EDGE_LOOP('',(#1397,#1398,#1399,#1400,#1407,#1412,#1413,#1418));
#1397 = ORIENTED_EDGE('',*,*,#1384,.F.);
#1398 = ORIENTED_EDGE('',*,*,#479,.F.);
#1399 = ORIENTED_EDGE('',*,*,#406,.F.);
#1400 = ORIENTED_EDGE('',*,*,#1401,.T.);
#1401 = EDGE_CURVE('',#334,#1402,#1404,.T.);
#1402 = VERTEX_POINT('',#1403);
#1403 = CARTESIAN_POINT('',(4.192307692307,-0.95,3.05));
#1404 = B_SPLINE_CURVE_WITH_KNOTS('',1,(#1405,#1406),.UNSPECIFIED.,.F.,
  .F.,(2,2),(0.,1.),.PIECEWISE_BEZIER_KNOTS.);
#1405 = CARTESIAN_POINT('',(-1.,-0.95,3.05));
#1406 = CARTESIAN_POINT('',(26.,-0.95,3.05));
#1407 = ORIENTED_EDGE('',*,*,#1408,.T.);
#1408 = EDGE_CURVE('',#1402,#1083,#1409,.T.);
#1409 = B_SPLINE_CURVE_WITH_KNOTS('',1,(#1410,#1411),.UNSPECIFIED.,.F.,
  .F.,(2,2),(0.,1.),.PIECEWISE_BEZIER_KNOTS.);
#1410 = CARTESIAN_POINT('',(-1.,-0.45,3.05));
#1411 = CARTESIAN_POINT('',(26.,-3.05,3.05));
#1412 = ORIENTED_EDGE('',*,*,#1092,.T.);
#1413 = ORIENTED_EDGE('',*,*,#1414,.F.);
#1414 = EDGE_CURVE('',#1142,#1093,#1415,.T.);
#1415 = B_SPLINE_CURVE_WITH_KNOTS('',1,(#1416,#1417),.UNSPECIFIED.,.F.,
  .F.,(2,2),(0.,1.),.PIECEWISE_BEZIER_KNOTS.);
#1416 = CARTESIAN_POINT('',(-1.,-2.35,3.05));
#1417 = CARTESIAN_POINT('',(26.,-4.95,3.05));
#1418 = ORIENTED_EDGE('',*,*,#1141,.T.);
#1419 = B_SPLINE_SURFACE_WITH_KNOTS('',1,1,(
    (#1420,#1421)
    ,(#1422,#1423
    )),.UNSPECIFIED.,.F.,.F.,.F.,(2,2),(2,2),(0.,1.9),(0.,1.),
  .PIECEWISE_BEZIER_KNOTS.);
#1420 = CARTESIAN_POINT('',(-1.,-2.35,3.05));
#1421 = CARTESIAN_POINT('',(26.,-4.95,3.05));
#1422 = CARTESIAN_POINT('',(-1.,-0.45,3.05));
#1423 = CARTESIAN_POINT('',(26.,-3.05,3.05));
#1424 = ADVANCED_FACE('',(#1425),#1434,.F.);
#1425 = FACE_BOUND('',#1426,.F.);
#1426 = EDGE_LOOP('',(#1427,#1428,#1429));
#1427 = ORIENTED_EDGE('',*,*,#1401,.F.);
#1428 = ORIENTED_EDGE('',*,*,#333,.F.);
#1429 = ORIENTED_EDGE('',*,*,#1430,.T.);
#1430 = EDGE_CURVE('',#325,#1402,#1431,.T.);
#1431 = B_SPLINE_CURVE_WITH_KNOTS('',1,(#1432,#1433),.UNSPECIFIED.,.F.,
  .F.,(2,2),(0.,1.),.PIECEWISE_BEZIER_KNOTS.);
#1432 = CARTESIAN_POINT('',(-1.,-0.45,3.05));
#1433 = CARTESIAN_POINT('',(26.,-3.05,3.05));
#1434 = B_SPLINE_SURFACE_WITH_KNOTS('',1,1,(
    (#1435,#1436)
    ,(#1437,#1438
    )),.UNSPECIFIED.,.F.,.F.,.F.,(2,2),(2,2),(0.,1.9),(0.,1.),
  .PIECEWISE_BEZIER_KNOTS.);
#1435 = CARTESIAN_POINT('',(-1.,-2.35,3.05));
#1436 = CARTESIAN_POINT('',(26.,-4.95,3.05));
#1437 = CARTESIAN_POINT('',(-1.,-0.45,3.05));
#1438 = CARTESIAN_POINT('',(26.,-3.05,3.05));
#1439 = ADVANCED_FACE('',(#1440),#1465,.F.);
#1440 = FACE_BOUND('',#1441,.F.);
#1441 = EDGE_LOOP('',(#1442,#1443,#1444,#1445,#1446,#1447,#1454,#1459,
    #1460));
#1442 = ORIENTED_EDGE('',*,*,#1430,.F.);
#1443 = ORIENTED_EDGE('',*,*,#324,.T.);
#1444 = ORIENTED_EDGE('',*,*,#578,.T.);
#1445 = ORIENTED_EDGE('',*,*,#569,.T.);
#1446 = ORIENTED_EDGE('',*,*,#802,.T.);
#1447 = ORIENTED_EDGE('',*,*,#1448,.T.);
#1448 = EDGE_CURVE('',#794,#1449,#1451,.T.);
#1449 = VERTEX_POINT('',#1450);
#1450 = CARTESIAN_POINT('',(4.192307692308,0.95,3.05));
#1451 = B_SPLINE_CURVE_WITH_KNOTS('',1,(#1452,#1453),.UNSPECIFIED.,.F.,
  .F.,(2,2),(0.,1.),.PIECEWISE_BEZIER_KNOTS.);
#1452 = CARTESIAN_POINT('',(-1.,0.45,3.05));
#1453 = CARTESIAN_POINT('',(26.,3.05,3.05));
#1454 = ORIENTED_EDGE('',*,*,#1455,.T.);
#1455 = EDGE_CURVE('',#1449,#1051,#1456,.T.);
#1456 = B_SPLINE_CURVE_WITH_KNOTS('',1,(#1457,#1458),.UNSPECIFIED.,.F.,
  .F.,(2,2),(0.,1.),.PIECEWISE_BEZIER_KNOTS.);
#1457 = CARTESIAN_POINT('',(-1.,0.95,3.05));
#1458 = CARTESIAN_POINT('',(26.,0.95,3.05));
#1459 = ORIENTED_EDGE('',*,*,#1048,.F.);
#1460 = ORIENTED_EDGE('',*,*,#1461,.F.);
#1461 = EDGE_CURVE('',#1402,#1049,#1462,.T.);
#1462 = B_SPLINE_CURVE_WITH_KNOTS('',1,(#1463,#1464),.UNSPECIFIED.,.F.,
  .F.,(2,2),(0.,1.),.PIECEWISE_BEZIER_KNOTS.);
#1463 = CARTESIAN_POINT('',(-1.,-0.95,3.05));
#1464 = CARTESIAN_POINT('',(26.,-0.95,3.05));
#1465 = PLANE('',#1466);
#1466 = AXIS2_PLACEMENT_3D('',#1467,#1468,#1469);
#1467 = CARTESIAN_POINT('',(26.,-0.95,3.05));
#1468 = DIRECTION('',(0.,0.,-1.));
#1469 = DIRECTION('',(0.,1.,0.));
#1470 = ADVANCED_FACE('',(#1471),#1495,.F.);
#1471 = FACE_BOUND('',#1472,.F.);
#1472 = EDGE_LOOP('',(#1473,#1480,#1485,#1486,#1487,#1488,#1489,#1494));
#1473 = ORIENTED_EDGE('',*,*,#1474,.F.);
#1474 = EDGE_CURVE('',#1475,#1085,#1477,.T.);
#1475 = VERTEX_POINT('',#1476);
#1476 = CARTESIAN_POINT('',(4.192307692307,-0.95,4.95));
#1477 = B_SPLINE_CURVE_WITH_KNOTS('',1,(#1478,#1479),.UNSPECIFIED.,.F.,
  .F.,(2,2),(0.,1.),.PIECEWISE_BEZIER_KNOTS.);
#1478 = CARTESIAN_POINT('',(-1.,-0.45,4.95));
#1479 = CARTESIAN_POINT('',(26.,-3.05,4.95));
#1480 = ORIENTED_EDGE('',*,*,#1481,.F.);
#1481 = EDGE_CURVE('',#933,#1475,#1482,.T.);
#1482 = B_SPLINE_CURVE_WITH_KNOTS('',1,(#1483,#1484),.UNSPECIFIED.,.F.,
  .F.,(2,2),(0.,1.),.PIECEWISE_BEZIER_KNOTS.);
#1483 = CARTESIAN_POINT('',(-1.,-0.95,4.95));
#1484 = CARTESIAN_POINT('',(26.,-0.95,4.95));
#1485 = ORIENTED_EDGE('',*,*,#932,.F.);
#1486 = ORIENTED_EDGE('',*,*,#277,.F.);
#1487 = ORIENTED_EDGE('',*,*,#1378,.T.);
#1488 = ORIENTED_EDGE('',*,*,#1196,.T.);
#1489 = ORIENTED_EDGE('',*,*,#1490,.T.);
#1490 = EDGE_CURVE('',#1189,#1100,#1491,.T.);
#1491 = B_SPLINE_CURVE_WITH_KNOTS('',1,(#1492,#1493),.UNSPECIFIED.,.F.,
  .F.,(2,2),(0.,1.),.PIECEWISE_BEZIER_KNOTS.);
#1492 = CARTESIAN_POINT('',(-1.,-2.35,4.95));
#1493 = CARTESIAN_POINT('',(26.,-4.95,4.95));
#1494 = ORIENTED_EDGE('',*,*,#1107,.T.);
#1495 = B_SPLINE_SURFACE_WITH_KNOTS('',1,1,(
    (#1496,#1497)
    ,(#1498,#1499
    )),.UNSPECIFIED.,.F.,.F.,.F.,(2,2),(2,2),(0.,1.9),(0.,1.),
  .PIECEWISE_BEZIER_KNOTS.);
#1496 = CARTESIAN_POINT('',(-1.,-0.45,4.95));
#1497 = CARTESIAN_POINT('',(26.,-3.05,4.95));
#1498 = CARTESIAN_POINT('',(-1.,-2.35,4.95));
#1499 = CARTESIAN_POINT('',(26.,-4.95,4.95));
#1500 = ADVANCED_FACE('',(#1501),#1510,.F.);
#1501 = FACE_BOUND('',#1502,.F.);
#1502 = EDGE_LOOP('',(#1503,#1504,#1505));
#1503 = ORIENTED_EDGE('',*,*,#1448,.F.);
#1504 = ORIENTED_EDGE('',*,*,#793,.T.);
#1505 = ORIENTED_EDGE('',*,*,#1506,.T.);
#1506 = EDGE_CURVE('',#721,#1449,#1507,.T.);
#1507 = B_SPLINE_CURVE_WITH_KNOTS('',1,(#1508,#1509),.UNSPECIFIED.,.F.,
  .F.,(2,2),(0.,1.),.PIECEWISE_BEZIER_KNOTS.);
#1508 = CARTESIAN_POINT('',(-1.,0.95,3.05));
#1509 = CARTESIAN_POINT('',(26.,0.95,3.05));
#1510 = PLANE('',#1511);
#1511 = AXIS2_PLACEMENT_3D('',#1512,#1513,#1514);
#1512 = CARTESIAN_POINT('',(26.,-0.95,3.05));
#1513 = DIRECTION('',(0.,0.,-1.));
#1514 = DIRECTION('',(0.,1.,0.));
#1515 = ADVANCED_FACE('',(#1516),#1538,.F.);
#1516 = FACE_BOUND('',#1517,.F.);
#1517 = EDGE_LOOP('',(#1518,#1519,#1524,#1525,#1530,#1531,#1536,#1537));
#1518 = ORIENTED_EDGE('',*,*,#647,.F.);
#1519 = ORIENTED_EDGE('',*,*,#1520,.T.);
#1520 = EDGE_CURVE('',#639,#1261,#1521,.T.);
#1521 = B_SPLINE_CURVE_WITH_KNOTS('',1,(#1522,#1523),.UNSPECIFIED.,.F.,
  .F.,(2,2),(0.,1.),.PIECEWISE_BEZIER_KNOTS.);
#1522 = CARTESIAN_POINT('',(-1.,2.35,3.05));
#1523 = CARTESIAN_POINT('',(26.,4.95,3.05));
#1524 = ORIENTED_EDGE('',*,*,#1260,.T.);
#1525 = ORIENTED_EDGE('',*,*,#1526,.T.);
#1526 = EDGE_CURVE('',#1263,#1017,#1527,.T.);
#1527 = B_SPLINE_CURVE_WITH_KNOTS('',1,(#1528,#1529),.UNSPECIFIED.,.F.,
  .F.,(2,2),(0.,1.),.PIECEWISE_BEZIER_KNOTS.);
#1528 = CARTESIAN_POINT('',(-1.,2.35,3.05));
#1529 = CARTESIAN_POINT('',(26.,4.95,3.05));
#1530 = ORIENTED_EDGE('',*,*,#1026,.T.);
#1531 = ORIENTED_EDGE('',*,*,#1532,.F.);
#1532 = EDGE_CURVE('',#1449,#1027,#1533,.T.);
#1533 = B_SPLINE_CURVE_WITH_KNOTS('',1,(#1534,#1535),.UNSPECIFIED.,.F.,
  .F.,(2,2),(0.,1.),.PIECEWISE_BEZIER_KNOTS.);
#1534 = CARTESIAN_POINT('',(-1.,0.45,3.05));
#1535 = CARTESIAN_POINT('',(26.,3.05,3.05));
#1536 = ORIENTED_EDGE('',*,*,#1506,.F.);
#1537 = ORIENTED_EDGE('',*,*,#720,.F.);
#1538 = B_SPLINE_SURFACE_WITH_KNOTS('',1,1,(
    (#1539,#1540)
    ,(#1541,#1542
    )),.UNSPECIFIED.,.F.,.F.,.F.,(2,2),(2,2),(0.,1.9),(0.,1.),
  .PIECEWISE_BEZIER_KNOTS.);
#1539 = CARTESIAN_POINT('',(-1.,0.45,3.05));
#1540 = CARTESIAN_POINT('',(26.,3.05,3.05));
#1541 = CARTESIAN_POINT('',(-1.,2.35,3.05));
#1542 = CARTESIAN_POINT('',(26.,4.95,3.05));
#1543 = ADVANCED_FACE('',(#1544),#1554,.F.);
#1544 = FACE_BOUND('',#1545,.F.);
#1545 = EDGE_LOOP('',(#1546,#1547,#1548,#1553));
#1546 = ORIENTED_EDGE('',*,*,#1520,.F.);
#1547 = ORIENTED_EDGE('',*,*,#638,.T.);
#1548 = ORIENTED_EDGE('',*,*,#1549,.T.);
#1549 = EDGE_CURVE('',#602,#1310,#1550,.T.);
#1550 = B_SPLINE_CURVE_WITH_KNOTS('',1,(#1551,#1552),.UNSPECIFIED.,.F.,
  .F.,(2,2),(0.,1.),.PIECEWISE_BEZIER_KNOTS.);
#1551 = CARTESIAN_POINT('',(-1.,2.35,4.95));
#1552 = CARTESIAN_POINT('',(26.,4.95,4.95));
#1553 = ORIENTED_EDGE('',*,*,#1309,.F.);
#1554 = PLANE('',#1555);
#1555 = AXIS2_PLACEMENT_3D('',#1556,#1557,#1558);
#1556 = CARTESIAN_POINT('',(26.,4.95,3.05));
#1557 = DIRECTION('',(-9.58529009653E-02,0.995395510024,0.));
#1558 = DIRECTION('',(0.,0.,1.));
#1559 = ADVANCED_FACE('',(#1560),#1584,.F.);
#1560 = FACE_BOUND('',#1561,.F.);
#1561 = EDGE_LOOP('',(#1562,#1563,#1564,#1565,#1572,#1577,#1578,#1583));
#1562 = ORIENTED_EDGE('',*,*,#1549,.F.);
#1563 = ORIENTED_EDGE('',*,*,#601,.F.);
#1564 = ORIENTED_EDGE('',*,*,#819,.F.);
#1565 = ORIENTED_EDGE('',*,*,#1566,.T.);
#1566 = EDGE_CURVE('',#820,#1567,#1569,.T.);
#1567 = VERTEX_POINT('',#1568);
#1568 = CARTESIAN_POINT('',(4.192307692308,0.95,4.95));
#1569 = B_SPLINE_CURVE_WITH_KNOTS('',1,(#1570,#1571),.UNSPECIFIED.,.F.,
  .F.,(2,2),(0.,1.),.PIECEWISE_BEZIER_KNOTS.);
#1570 = CARTESIAN_POINT('',(-1.,0.95,4.95));
#1571 = CARTESIAN_POINT('',(26.,0.95,4.95));
#1572 = ORIENTED_EDGE('',*,*,#1573,.T.);
#1573 = EDGE_CURVE('',#1567,#1034,#1574,.T.);
#1574 = B_SPLINE_CURVE_WITH_KNOTS('',1,(#1575,#1576),.UNSPECIFIED.,.F.,
  .F.,(2,2),(0.,1.),.PIECEWISE_BEZIER_KNOTS.);
#1575 = CARTESIAN_POINT('',(-1.,0.45,4.95));
#1576 = CARTESIAN_POINT('',(26.,3.05,4.95));
#1577 = ORIENTED_EDGE('',*,*,#1041,.T.);
#1578 = ORIENTED_EDGE('',*,*,#1579,.F.);
#1579 = EDGE_CURVE('',#1318,#1019,#1580,.T.);
#1580 = B_SPLINE_CURVE_WITH_KNOTS('',1,(#1581,#1582),.UNSPECIFIED.,.F.,
  .F.,(2,2),(0.,1.),.PIECEWISE_BEZIER_KNOTS.);
#1581 = CARTESIAN_POINT('',(-1.,2.35,4.95));
#1582 = CARTESIAN_POINT('',(26.,4.95,4.95));
#1583 = ORIENTED_EDGE('',*,*,#1317,.T.);
#1584 = B_SPLINE_SURFACE_WITH_KNOTS('',1,1,(
    (#1585,#1586)
    ,(#1587,#1588
    )),.UNSPECIFIED.,.F.,.F.,.F.,(2,2),(2,2),(0.,1.9),(0.,1.),
  .PIECEWISE_BEZIER_KNOTS.);
#1585 = CARTESIAN_POINT('',(-1.,2.35,4.95));
#1586 = CARTESIAN_POINT('',(26.,4.95,4.95));
#1587 = CARTESIAN_POINT('',(-1.,0.45,4.95));
#1588 = CARTESIAN_POINT('',(26.,3.05,4.95));
#1589 = ADVANCED_FACE('',(#1590),#1599,.F.);
#1590 = FACE_BOUND('',#1591,.F.);
#1591 = EDGE_LOOP('',(#1592,#1593,#1594));
#1592 = ORIENTED_EDGE('',*,*,#1566,.F.);
#1593 = ORIENTED_EDGE('',*,*,#864,.T.);
#1594 = ORIENTED_EDGE('',*,*,#1595,.T.);
#1595 = EDGE_CURVE('',#856,#1567,#1596,.T.);
#1596 = B_SPLINE_CURVE_WITH_KNOTS('',1,(#1597,#1598),.UNSPECIFIED.,.F.,
  .F.,(2,2),(0.,1.),.PIECEWISE_BEZIER_KNOTS.);
#1597 = CARTESIAN_POINT('',(-1.,0.45,4.95));
#1598 = CARTESIAN_POINT('',(26.,3.05,4.95));
#1599 = PLANE('',#1600);
#1600 = AXIS2_PLACEMENT_3D('',#1601,#1602,#1603);
#1601 = CARTESIAN_POINT('',(26.,0.95,4.95));
#1602 = DIRECTION('',(-0.,0.,1.));
#1603 = DIRECTION('',(0.,-1.,0.));
#1604 = ADVANCED_FACE('',(#1605),#1628,.F.);
#1605 = FACE_BOUND('',#1606,.F.);
#1606 = EDGE_LOOP('',(#1607,#1612,#1613,#1614,#1615,#1616,#1617,#1622,
    #1627));
#1607 = ORIENTED_EDGE('',*,*,#1608,.F.);
#1608 = EDGE_CURVE('',#1567,#1067,#1609,.T.);
#1609 = B_SPLINE_CURVE_WITH_KNOTS('',1,(#1610,#1611),.UNSPECIFIED.,.F.,
  .F.,(2,2),(0.,1.),.PIECEWISE_BEZIER_KNOTS.);
#1610 = CARTESIAN_POINT('',(-1.,0.95,4.95));
#1611 = CARTESIAN_POINT('',(26.,0.95,4.95));
#1612 = ORIENTED_EDGE('',*,*,#1595,.F.);
#1613 = ORIENTED_EDGE('',*,*,#855,.T.);
#1614 = ORIENTED_EDGE('',*,*,#889,.T.);
#1615 = ORIENTED_EDGE('',*,*,#904,.T.);
#1616 = ORIENTED_EDGE('',*,*,#994,.T.);
#1617 = ORIENTED_EDGE('',*,*,#1618,.T.);
#1618 = EDGE_CURVE('',#964,#1475,#1619,.T.);
#1619 = B_SPLINE_CURVE_WITH_KNOTS('',1,(#1620,#1621),.UNSPECIFIED.,.F.,
  .F.,(2,2),(0.,1.),.PIECEWISE_BEZIER_KNOTS.);
#1620 = CARTESIAN_POINT('',(-1.,-0.45,4.95));
#1621 = CARTESIAN_POINT('',(26.,-3.05,4.95));
#1622 = ORIENTED_EDGE('',*,*,#1623,.T.);
#1623 = EDGE_CURVE('',#1475,#1059,#1624,.T.);
#1624 = B_SPLINE_CURVE_WITH_KNOTS('',1,(#1625,#1626),.UNSPECIFIED.,.F.,
  .F.,(2,2),(0.,1.),.PIECEWISE_BEZIER_KNOTS.);
#1625 = CARTESIAN_POINT('',(-1.,-0.95,4.95));
#1626 = CARTESIAN_POINT('',(26.,-0.95,4.95));
#1627 = ORIENTED_EDGE('',*,*,#1066,.F.);
#1628 = PLANE('',#1629);
#1629 = AXIS2_PLACEMENT_3D('',#1630,#1631,#1632);
#1630 = CARTESIAN_POINT('',(26.,0.95,4.95));
#1631 = DIRECTION('',(-0.,0.,1.));
#1632 = DIRECTION('',(0.,-1.,0.));
#1633 = ADVANCED_FACE('',(#1634),#1639,.F.);
#1634 = FACE_BOUND('',#1635,.F.);
#1635 = EDGE_LOOP('',(#1636,#1637,#1638));
#1636 = ORIENTED_EDGE('',*,*,#1618,.F.);
#1637 = ORIENTED_EDGE('',*,*,#963,.F.);
#1638 = ORIENTED_EDGE('',*,*,#1481,.T.);
#1639 = B_SPLINE_SURFACE_WITH_KNOTS('',1,1,(
    (#1640,#1641)
    ,(#1642,#1643
    )),.UNSPECIFIED.,.F.,.F.,.F.,(2,2),(2,2),(0.,1.9),(0.,1.),
  .PIECEWISE_BEZIER_KNOTS.);
#1640 = CARTESIAN_POINT('',(-1.,-0.45,4.95));
#1641 = CARTESIAN_POINT('',(26.,-3.05,4.95));
#1642 = CARTESIAN_POINT('',(-1.,-2.35,4.95));
#1643 = CARTESIAN_POINT('',(26.,-4.95,4.95));
#1644 = ADVANCED_FACE('',(#1645),#1651,.F.);
#1645 = FACE_BOUND('',#1646,.F.);
#1646 = EDGE_LOOP('',(#1647,#1648,#1649,#1650));
#1647 = ORIENTED_EDGE('',*,*,#1526,.F.);
#1648 = ORIENTED_EDGE('',*,*,#1364,.T.);
#1649 = ORIENTED_EDGE('',*,*,#1579,.T.);
#1650 = ORIENTED_EDGE('',*,*,#1016,.F.);
#1651 = PLANE('',#1652);
#1652 = AXIS2_PLACEMENT_3D('',#1653,#1654,#1655);
#1653 = CARTESIAN_POINT('',(26.,4.95,3.05));
#1654 = DIRECTION('',(-9.58529009653E-02,0.995395510024,0.));
#1655 = DIRECTION('',(0.,0.,1.));
#1656 = ADVANCED_FACE('',(#1657),#1668,.F.);
#1657 = FACE_BOUND('',#1658,.F.);
#1658 = EDGE_LOOP('',(#1659,#1660,#1666,#1667));
#1659 = ORIENTED_EDGE('',*,*,#1573,.F.);
#1660 = ORIENTED_EDGE('',*,*,#1661,.T.);
#1661 = EDGE_CURVE('',#1567,#1449,#1662,.T.);
#1662 = LINE('',#1663,#1664);
#1663 = CARTESIAN_POINT('',(4.192307692307,0.95,4.));
#1664 = VECTOR('',#1665,1.);
#1665 = DIRECTION('',(0.,0.,-1.));
#1666 = ORIENTED_EDGE('',*,*,#1532,.T.);
#1667 = ORIENTED_EDGE('',*,*,#1033,.F.);
#1668 = PLANE('',#1669);
#1669 = AXIS2_PLACEMENT_3D('',#1670,#1671,#1672);
#1670 = CARTESIAN_POINT('',(26.,3.05,4.95));
#1671 = DIRECTION('',(9.58529009653E-02,-0.995395510024,0.));
#1672 = DIRECTION('',(0.,0.,-1.));
#1673 = ADVANCED_FACE('',(#1674),#1685,.F.);
#1674 = FACE_BOUND('',#1675,.F.);
#1675 = EDGE_LOOP('',(#1676,#1677,#1683,#1684));
#1676 = ORIENTED_EDGE('',*,*,#1623,.F.);
#1677 = ORIENTED_EDGE('',*,*,#1678,.T.);
#1678 = EDGE_CURVE('',#1475,#1402,#1679,.T.);
#1679 = LINE('',#1680,#1681);
#1680 = CARTESIAN_POINT('',(4.192307692307,-0.95,4.));
#1681 = VECTOR('',#1682,1.);
#1682 = DIRECTION('',(0.,-0.,-1.));
#1683 = ORIENTED_EDGE('',*,*,#1461,.T.);
#1684 = ORIENTED_EDGE('',*,*,#1058,.F.);
#1685 = PLANE('',#1686);
#1686 = AXIS2_PLACEMENT_3D('',#1687,#1688,#1689);
#1687 = CARTESIAN_POINT('',(26.,-0.95,4.95));
#1688 = DIRECTION('',(0.,-1.,0.));
#1689 = DIRECTION('',(0.,0.,-1.));
#1690 = ADVANCED_FACE('',(#1691),#1697,.F.);
#1691 = FACE_BOUND('',#1692,.F.);
#1692 = EDGE_LOOP('',(#1693,#1694,#1695,#1696));
#1693 = ORIENTED_EDGE('',*,*,#1455,.F.);
#1694 = ORIENTED_EDGE('',*,*,#1661,.F.);
#1695 = ORIENTED_EDGE('',*,*,#1608,.T.);
#1696 = ORIENTED_EDGE('',*,*,#1074,.F.);
#1697 = PLANE('',#1698);
#1698 = AXIS2_PLACEMENT_3D('',#1699,#1700,#1701);
#1699 = CARTESIAN_POINT('',(26.,0.95,3.05));
#1700 = DIRECTION('',(0.,1.,0.));
#1701 = DIRECTION('',(0.,-0.,1.));
#1702 = ADVANCED_FACE('',(#1703),#1709,.F.);
#1703 = FACE_BOUND('',#1704,.F.);
#1704 = EDGE_LOOP('',(#1705,#1706,#1707,#1708));
#1705 = ORIENTED_EDGE('',*,*,#1408,.F.);
#1706 = ORIENTED_EDGE('',*,*,#1678,.F.);
#1707 = ORIENTED_EDGE('',*,*,#1474,.T.);
#1708 = ORIENTED_EDGE('',*,*,#1082,.F.);
#1709 = PLANE('',#1710);
#1710 = AXIS2_PLACEMENT_3D('',#1711,#1712,#1713);
#1711 = CARTESIAN_POINT('',(26.,-3.05,3.05));
#1712 = DIRECTION('',(9.58529009653E-02,0.995395510024,-0.));
#1713 = DIRECTION('',(0.,0.,1.));
#1714 = ADVANCED_FACE('',(#1715),#1721,.F.);
#1715 = FACE_BOUND('',#1716,.F.);
#1716 = EDGE_LOOP('',(#1717,#1718,#1719,#1720));
#1717 = ORIENTED_EDGE('',*,*,#1490,.F.);
#1718 = ORIENTED_EDGE('',*,*,#1188,.F.);
#1719 = ORIENTED_EDGE('',*,*,#1414,.T.);
#1720 = ORIENTED_EDGE('',*,*,#1099,.F.);
#1721 = PLANE('',#1722);
#1722 = AXIS2_PLACEMENT_3D('',#1723,#1724,#1725);
#1723 = CARTESIAN_POINT('',(26.,-4.95,4.95));
#1724 = DIRECTION('',(-9.58529009653E-02,-0.995395510024,-0.));
#1725 = DIRECTION('',(0.,0.,-1.));
#1726 = ( GEOMETRIC_REPRESENTATION_CONTEXT(3) 
GLOBAL_UNCERTAINTY_ASSIGNED_CONTEXT((#1730)) 
GLOBAL_UNIT_ASSIGNED_CONTEXT((#1727,#1728,#1729)) REPRESENTATION_CONTEXT
('Context #1','3D Context with UNIT and UNCERTAINTY') );
#1727 = ( LENGTH_UNIT() NAMED_UNIT(*) SI_UNIT(.MILLI.,.METRE.) );
#1728 = ( NAMED_UNIT(*) PLANE_ANGLE_UNIT() SI_UNIT($,.RADIAN.) );
#1729 = ( NAMED_UNIT(*) SI_UNIT($,.STERADIAN.) SOLID_ANGLE_UNIT() );
#1730 = UNCERTAINTY_MEASURE_WITH_UNIT(LENGTH_MEASURE(2.E-06),#1727,
  'distance_accuracy_value','confusion accuracy');
#1731 = PRODUCT_RELATED_PRODUCT_CATEGORY('part',$,(#7));
ENDSEC;
END-ISO-10303-21;
