ISO-10303-21;
HEADER;
FILE_DESCRIPTION(('FreeCAD Model'),'2;1');
FILE_NAME('Open CASCADE Shape Model','2026-07-27T15:54:10',('Author'),(
    ''),'Open CASCADE STEP processor 7.8','FreeCAD','Unknown');
FILE_SCHEMA(('AUTOMOTIVE_DESIGN { 1 0 10303 214 1 1 1 1 }'));
ENDSEC;
DATA;
#1 = APPLICATION_PROTOCOL_DEFINITION('international standard',
  'automotive_design',2000,#2);
#2 = APPLICATION_CONTEXT(
  'core data for automotive mechanical design processes');
#3 = SHAPE_DEFINITION_REPRESENTATION(#4,#10);
#4 = PRODUCT_DEFINITION_SHAPE('','',#5);
#5 = PRODUCT_DEFINITION('design','',#6,#9);
#6 = PRODUCT_DEFINITION_FORMATION('','',#7);
#7 = PRODUCT('strip_die','strip_die','',(#8));
#8 = PRODUCT_CONTEXT('',#2,'mechanical');
#9 = PRODUCT_DEFINITION_CONTEXT('part definition',#2,'design');
#10 = SHAPE_REPRESENTATION('',(#11,#15,#1847),#1997);
#11 = AXIS2_PLACEMENT_3D('',#12,#13,#14);
#12 = CARTESIAN_POINT('',(0.,0.,0.));
#13 = DIRECTION('',(0.,0.,1.));
#14 = DIRECTION('',(1.,0.,-0.));
#15 = MANIFOLD_SOLID_BREP('',#16);
#16 = CLOSED_SHELL('',(#17,#90,#121,#145,#169,#186,#429,#672,#915,#936,
    #959,#983,#999,#1022,#1046,#1062,#1096,#1137,#1147,#1173,#1196,#1220
    ,#1236,#1259,#1283,#1299,#1333,#1366,#1390,#1416,#1442,#1465,#1489,
    #1505,#1528,#1552,#1568,#1584,#1618,#1642,#1661,#1678,#1690,#1700,
    #1717,#1734,#1746,#1756,#1781,#1798,#1810,#1827,#1837));
#17 = ADVANCED_FACE('',(#18,#52,#63,#74),#85,.F.);
#18 = FACE_BOUND('',#19,.F.);
#19 = EDGE_LOOP('',(#20,#30,#38,#46));
#20 = ORIENTED_EDGE('',*,*,#21,.F.);
#21 = EDGE_CURVE('',#22,#24,#26,.T.);
#22 = VERTEX_POINT('',#23);
#23 = CARTESIAN_POINT('',(-20.,-8.,0.));
#24 = VERTEX_POINT('',#25);
#25 = CARTESIAN_POINT('',(-20.,-8.,36.7));
#26 = LINE('',#27,#28);
#27 = CARTESIAN_POINT('',(-20.,-8.,0.));
#28 = VECTOR('',#29,1.);
#29 = DIRECTION('',(0.,0.,1.));
#30 = ORIENTED_EDGE('',*,*,#31,.T.);
#31 = EDGE_CURVE('',#22,#32,#34,.T.);
#32 = VERTEX_POINT('',#33);
#33 = CARTESIAN_POINT('',(-20.,8.,0.));
#34 = LINE('',#35,#36);
#35 = CARTESIAN_POINT('',(-20.,-8.,0.));
#36 = VECTOR('',#37,1.);
#37 = DIRECTION('',(-0.,1.,0.));
#38 = ORIENTED_EDGE('',*,*,#39,.T.);
#39 = EDGE_CURVE('',#32,#40,#42,.T.);
#40 = VERTEX_POINT('',#41);
#41 = CARTESIAN_POINT('',(-20.,8.,36.7));
#42 = LINE('',#43,#44);
#43 = CARTESIAN_POINT('',(-20.,8.,0.));
#44 = VECTOR('',#45,1.);
#45 = DIRECTION('',(0.,0.,1.));
#46 = ORIENTED_EDGE('',*,*,#47,.T.);
#47 = EDGE_CURVE('',#40,#24,#48,.T.);
#48 = LINE('',#49,#50);
#49 = CARTESIAN_POINT('',(-20.,-9.,36.7));
#50 = VECTOR('',#51,1.);
#51 = DIRECTION('',(0.,-1.,0.));
#52 = FACE_BOUND('',#53,.F.);
#53 = EDGE_LOOP('',(#54));
#54 = ORIENTED_EDGE('',*,*,#55,.F.);
#55 = EDGE_CURVE('',#56,#56,#58,.T.);
#56 = VERTEX_POINT('',#57);
#57 = CARTESIAN_POINT('',(-20.,4.,34.95));
#58 = CIRCLE('',#59,0.95);
#59 = AXIS2_PLACEMENT_3D('',#60,#61,#62);
#60 = CARTESIAN_POINT('',(-20.,4.,34.));
#61 = DIRECTION('',(1.,0.,0.));
#62 = DIRECTION('',(-0.,0.,1.));
#63 = FACE_BOUND('',#64,.F.);
#64 = EDGE_LOOP('',(#65));
#65 = ORIENTED_EDGE('',*,*,#66,.F.);
#66 = EDGE_CURVE('',#67,#67,#69,.T.);
#67 = VERTEX_POINT('',#68);
#68 = CARTESIAN_POINT('',(-20.,2.32682891838E-16,34.95));
#69 = CIRCLE('',#70,0.95);
#70 = AXIS2_PLACEMENT_3D('',#71,#72,#73);
#71 = CARTESIAN_POINT('',(-20.,0.,34.));
#72 = DIRECTION('',(1.,0.,0.));
#73 = DIRECTION('',(-0.,0.,1.));
#74 = FACE_BOUND('',#75,.F.);
#75 = EDGE_LOOP('',(#76));
#76 = ORIENTED_EDGE('',*,*,#77,.F.);
#77 = EDGE_CURVE('',#78,#78,#80,.T.);
#78 = VERTEX_POINT('',#79);
#79 = CARTESIAN_POINT('',(-20.,-4.,34.95));
#80 = CIRCLE('',#81,0.95);
#81 = AXIS2_PLACEMENT_3D('',#82,#83,#84);
#82 = CARTESIAN_POINT('',(-20.,-4.,34.));
#83 = DIRECTION('',(1.,0.,0.));
#84 = DIRECTION('',(-0.,0.,1.));
#85 = PLANE('',#86);
#86 = AXIS2_PLACEMENT_3D('',#87,#88,#89);
#87 = CARTESIAN_POINT('',(-20.,-8.,0.));
#88 = DIRECTION('',(1.,0.,-0.));
#89 = DIRECTION('',(0.,0.,1.));
#90 = ADVANCED_FACE('',(#91),#116,.F.);
#91 = FACE_BOUND('',#92,.F.);
#92 = EDGE_LOOP('',(#93,#103,#109,#110));
#93 = ORIENTED_EDGE('',*,*,#94,.F.);
#94 = EDGE_CURVE('',#95,#97,#99,.T.);
#95 = VERTEX_POINT('',#96);
#96 = CARTESIAN_POINT('',(20.,-8.,0.));
#97 = VERTEX_POINT('',#98);
#98 = CARTESIAN_POINT('',(20.,-8.,36.7));
#99 = LINE('',#100,#101);
#100 = CARTESIAN_POINT('',(20.,-8.,0.));
#101 = VECTOR('',#102,1.);
#102 = DIRECTION('',(0.,0.,1.));
#103 = ORIENTED_EDGE('',*,*,#104,.F.);
#104 = EDGE_CURVE('',#22,#95,#105,.T.);
#105 = LINE('',#106,#107);
#106 = CARTESIAN_POINT('',(-20.,-8.,0.));
#107 = VECTOR('',#108,1.);
#108 = DIRECTION('',(1.,0.,-0.));
#109 = ORIENTED_EDGE('',*,*,#21,.T.);
#110 = ORIENTED_EDGE('',*,*,#111,.T.);
#111 = EDGE_CURVE('',#24,#97,#112,.T.);
#112 = LINE('',#113,#114);
#113 = CARTESIAN_POINT('',(-21.,-8.,36.7));
#114 = VECTOR('',#115,1.);
#115 = DIRECTION('',(1.,0.,-0.));
#116 = PLANE('',#117);
#117 = AXIS2_PLACEMENT_3D('',#118,#119,#120);
#118 = CARTESIAN_POINT('',(-20.,-8.,0.));
#119 = DIRECTION('',(-0.,1.,0.));
#120 = DIRECTION('',(0.,0.,1.));
#121 = ADVANCED_FACE('',(#122),#140,.T.);
#122 = FACE_BOUND('',#123,.T.);
#123 = EDGE_LOOP('',(#124,#132,#133,#134));
#124 = ORIENTED_EDGE('',*,*,#125,.F.);
#125 = EDGE_CURVE('',#40,#126,#128,.T.);
#126 = VERTEX_POINT('',#127);
#127 = CARTESIAN_POINT('',(20.,8.,36.7));
#128 = LINE('',#129,#130);
#129 = CARTESIAN_POINT('',(-21.,8.,36.7));
#130 = VECTOR('',#131,1.);
#131 = DIRECTION('',(1.,0.,-0.));
#132 = ORIENTED_EDGE('',*,*,#47,.T.);
#133 = ORIENTED_EDGE('',*,*,#111,.T.);
#134 = ORIENTED_EDGE('',*,*,#135,.F.);
#135 = EDGE_CURVE('',#126,#97,#136,.T.);
#136 = LINE('',#137,#138);
#137 = CARTESIAN_POINT('',(20.,-9.,36.7));
#138 = VECTOR('',#139,1.);
#139 = DIRECTION('',(0.,-1.,0.));
#140 = PLANE('',#141);
#141 = AXIS2_PLACEMENT_3D('',#142,#143,#144);
#142 = CARTESIAN_POINT('',(-22.,-10.,36.7));
#143 = DIRECTION('',(0.,0.,1.));
#144 = DIRECTION('',(1.,0.,-0.));
#145 = ADVANCED_FACE('',(#146),#164,.T.);
#146 = FACE_BOUND('',#147,.T.);
#147 = EDGE_LOOP('',(#148,#156,#162,#163));
#148 = ORIENTED_EDGE('',*,*,#149,.F.);
#149 = EDGE_CURVE('',#150,#126,#152,.T.);
#150 = VERTEX_POINT('',#151);
#151 = CARTESIAN_POINT('',(20.,8.,0.));
#152 = LINE('',#153,#154);
#153 = CARTESIAN_POINT('',(20.,8.,0.));
#154 = VECTOR('',#155,1.);
#155 = DIRECTION('',(0.,0.,1.));
#156 = ORIENTED_EDGE('',*,*,#157,.F.);
#157 = EDGE_CURVE('',#32,#150,#158,.T.);
#158 = LINE('',#159,#160);
#159 = CARTESIAN_POINT('',(-20.,8.,0.));
#160 = VECTOR('',#161,1.);
#161 = DIRECTION('',(1.,0.,-0.));
#162 = ORIENTED_EDGE('',*,*,#39,.T.);
#163 = ORIENTED_EDGE('',*,*,#125,.T.);
#164 = PLANE('',#165);
#165 = AXIS2_PLACEMENT_3D('',#166,#167,#168);
#166 = CARTESIAN_POINT('',(-20.,8.,0.));
#167 = DIRECTION('',(-0.,1.,0.));
#168 = DIRECTION('',(0.,0.,1.));
#169 = ADVANCED_FACE('',(#170),#181,.F.);
#170 = FACE_BOUND('',#171,.F.);
#171 = EDGE_LOOP('',(#172,#173,#174,#180));
#172 = ORIENTED_EDGE('',*,*,#31,.F.);
#173 = ORIENTED_EDGE('',*,*,#104,.T.);
#174 = ORIENTED_EDGE('',*,*,#175,.T.);
#175 = EDGE_CURVE('',#95,#150,#176,.T.);
#176 = LINE('',#177,#178);
#177 = CARTESIAN_POINT('',(20.,-8.,0.));
#178 = VECTOR('',#179,1.);
#179 = DIRECTION('',(-0.,1.,0.));
#180 = ORIENTED_EDGE('',*,*,#157,.F.);
#181 = PLANE('',#182);
#182 = AXIS2_PLACEMENT_3D('',#183,#184,#185);
#183 = CARTESIAN_POINT('',(-20.,-8.,0.));
#184 = DIRECTION('',(0.,0.,1.));
#185 = DIRECTION('',(1.,0.,-0.));
#186 = ADVANCED_FACE('',(#187,#265),#424,.F.);
#187 = FACE_BOUND('',#188,.F.);
#188 = EDGE_LOOP('',(#189,#200,#208,#215,#216,#225,#233,#242,#248,#249,
    #250,#259));
#189 = ORIENTED_EDGE('',*,*,#190,.T.);
#190 = EDGE_CURVE('',#191,#193,#195,.T.);
#191 = VERTEX_POINT('',#192);
#192 = CARTESIAN_POINT('',(0.6,4.722508483643,34.616831817486));
#193 = VERTEX_POINT('',#194);
#194 = CARTESIAN_POINT('',(0.6,4.,34.95));
#195 = CIRCLE('',#196,0.95);
#196 = AXIS2_PLACEMENT_3D('',#197,#198,#199);
#197 = CARTESIAN_POINT('',(0.6,4.,34.));
#198 = DIRECTION('',(1.,0.,0.));
#199 = DIRECTION('',(-0.,0.,1.));
#200 = ORIENTED_EDGE('',*,*,#201,.T.);
#201 = EDGE_CURVE('',#193,#202,#204,.T.);
#202 = VERTEX_POINT('',#203);
#203 = CARTESIAN_POINT('',(20.,4.,34.95));
#204 = LINE('',#205,#206);
#205 = CARTESIAN_POINT('',(-22.,4.,34.95));
#206 = VECTOR('',#207,1.);
#207 = DIRECTION('',(1.,0.,0.));
#208 = ORIENTED_EDGE('',*,*,#209,.F.);
#209 = EDGE_CURVE('',#202,#202,#210,.T.);
#210 = CIRCLE('',#211,0.95);
#211 = AXIS2_PLACEMENT_3D('',#212,#213,#214);
#212 = CARTESIAN_POINT('',(20.,4.,34.));
#213 = DIRECTION('',(1.,0.,0.));
#214 = DIRECTION('',(-0.,0.,1.));
#215 = ORIENTED_EDGE('',*,*,#201,.F.);
#216 = ORIENTED_EDGE('',*,*,#217,.T.);
#217 = EDGE_CURVE('',#193,#218,#220,.T.);
#218 = VERTEX_POINT('',#219);
#219 = CARTESIAN_POINT('',(0.6,3.277491516357,34.616831817486));
#220 = CIRCLE('',#221,0.95);
#221 = AXIS2_PLACEMENT_3D('',#222,#223,#224);
#222 = CARTESIAN_POINT('',(0.6,4.,34.));
#223 = DIRECTION('',(1.,0.,0.));
#224 = DIRECTION('',(-0.,0.,1.));
#225 = ORIENTED_EDGE('',*,*,#226,.F.);
#226 = EDGE_CURVE('',#227,#218,#229,.T.);
#227 = VERTEX_POINT('',#228);
#228 = CARTESIAN_POINT('',(-0.6,3.277491516357,34.616831817486));
#229 = LINE('',#230,#231);
#230 = CARTESIAN_POINT('',(-22.,3.277491516357,34.616831817486));
#231 = VECTOR('',#232,1.);
#232 = DIRECTION('',(1.,0.,0.));
#233 = ORIENTED_EDGE('',*,*,#234,.F.);
#234 = EDGE_CURVE('',#235,#227,#237,.T.);
#235 = VERTEX_POINT('',#236);
#236 = CARTESIAN_POINT('',(-0.6,4.,34.95));
#237 = CIRCLE('',#238,0.95);
#238 = AXIS2_PLACEMENT_3D('',#239,#240,#241);
#239 = CARTESIAN_POINT('',(-0.6,4.,34.));
#240 = DIRECTION('',(1.,0.,0.));
#241 = DIRECTION('',(-0.,0.,1.));
#242 = ORIENTED_EDGE('',*,*,#243,.F.);
#243 = EDGE_CURVE('',#56,#235,#244,.T.);
#244 = LINE('',#245,#246);
#245 = CARTESIAN_POINT('',(-22.,4.,34.95));
#246 = VECTOR('',#247,1.);
#247 = DIRECTION('',(1.,0.,0.));
#248 = ORIENTED_EDGE('',*,*,#55,.T.);
#249 = ORIENTED_EDGE('',*,*,#243,.T.);
#250 = ORIENTED_EDGE('',*,*,#251,.F.);
#251 = EDGE_CURVE('',#252,#235,#254,.T.);
#252 = VERTEX_POINT('',#253);
#253 = CARTESIAN_POINT('',(-0.6,4.722508483643,34.616831817486));
#254 = CIRCLE('',#255,0.95);
#255 = AXIS2_PLACEMENT_3D('',#256,#257,#258);
#256 = CARTESIAN_POINT('',(-0.6,4.,34.));
#257 = DIRECTION('',(1.,0.,0.));
#258 = DIRECTION('',(-0.,0.,1.));
#259 = ORIENTED_EDGE('',*,*,#260,.T.);
#260 = EDGE_CURVE('',#252,#191,#261,.T.);
#261 = LINE('',#262,#263);
#262 = CARTESIAN_POINT('',(-22.,4.722508483643,34.616831817486));
#263 = VECTOR('',#264,1.);
#264 = DIRECTION('',(1.,0.,0.));
#265 = FACE_BOUND('',#266,.F.);
#266 = EDGE_LOOP('',(#267,#277,#309,#346,#354));
#267 = ORIENTED_EDGE('',*,*,#268,.T.);
#268 = EDGE_CURVE('',#269,#271,#273,.T.);
#269 = VERTEX_POINT('',#270);
#270 = CARTESIAN_POINT('',(-7.984313483298,3.05,34.));
#271 = VERTEX_POINT('',#272);
#272 = CARTESIAN_POINT('',(-4.015686516702,3.05,34.));
#273 = LINE('',#274,#275);
#274 = CARTESIAN_POINT('',(-22.,3.05,34.));
#275 = VECTOR('',#276,1.);
#276 = DIRECTION('',(1.,0.,0.));
#277 = ORIENTED_EDGE('',*,*,#278,.T.);
#278 = EDGE_CURVE('',#271,#279,#281,.T.);
#279 = VERTEX_POINT('',#280);
#280 = CARTESIAN_POINT('',(-3.8,4.,33.05));
#281 = B_SPLINE_CURVE_WITH_KNOTS('',6,(#282,#283,#284,#285,#286,#287,
    #288,#289,#290,#291,#292,#293,#294,#295,#296,#297,#298,#299,#300,
    #301,#302,#303,#304,#305,#306,#307,#308),.UNSPECIFIED.,.F.,.F.,(7,5,
    5,5,5,7),(0.,0.313849025212,0.520699434212,0.597107033674,
    0.710373779345,1.),.UNSPECIFIED.);
#282 = CARTESIAN_POINT('',(-4.015686516701,3.05,34.0000006));
#283 = CARTESIAN_POINT('',(-4.015686538953,3.049999953522,
    33.926410633088));
#284 = CARTESIAN_POINT('',(-4.012411633136,3.056840455756,
    33.852893626269));
#285 = CARTESIAN_POINT('',(-4.005873657473,3.070496477173,
    33.780095730781));
#286 = CARTESIAN_POINT('',(-3.996317991824,3.090910372404,33.70867219762
    ));
#287 = CARTESIAN_POINT('',(-3.984222231159,3.117980156772,
    33.639316410049));
#288 = CARTESIAN_POINT('',(-3.960982739955,3.173573010031,
    33.528905565518));
#289 = CARTESIAN_POINT('',(-3.950913627577,3.198470374024,33.48623130128
    ));
#290 = CARTESIAN_POINT('',(-3.94017624934,3.226146998114,33.444916683663
    ));
#291 = CARTESIAN_POINT('',(-3.928963380368,3.256566821779,
    33.405147070879));
#292 = CARTESIAN_POINT('',(-3.917485618376,3.289686290876,
    33.367122467712));
#293 = CARTESIAN_POINT('',(-3.901709824783,3.338659722041,
    33.317738317232));
#294 = CARTESIAN_POINT('',(-3.89744857093,3.352230714536,33.304684864079
    ));
#295 = CARTESIAN_POINT('',(-3.893192779253,3.366159479999,
    33.291910150637));
#296 = CARTESIAN_POINT('',(-3.888953952871,3.380442572582,
    33.279425693133));
#297 = CARTESIAN_POINT('',(-3.884743832792,3.395075952892,
    33.267243488121));
#298 = CARTESIAN_POINT('',(-3.874393621077,3.43225993318,33.2377836479)
  );
#299 = CARTESIAN_POINT('',(-3.868301150818,3.455227822647,
    33.220880197835));
#300 = CARTESIAN_POINT('',(-3.862337504803,3.478939481896,
    33.204709926122));
#301 = CARTESIAN_POINT('',(-3.856542784572,3.503373339888,
    33.189316803804));
#302 = CARTESIAN_POINT('',(-3.850956675542,3.528505429044,
    33.174744509128));
#303 = CARTESIAN_POINT('',(-3.831968448063,3.620290819288,
    33.125984481461));
#304 = CARTESIAN_POINT('',(-3.819881917595,3.690937863711,
    33.096438413429));
#305 = CARTESIAN_POINT('',(-3.810142150832,3.765358826194,
    33.073487755783));
#306 = CARTESIAN_POINT('',(-3.803397020971,3.842467863504,
    33.057866595373));
#307 = CARTESIAN_POINT('',(-3.8,3.921084051827,33.05));
#308 = CARTESIAN_POINT('',(-3.8,4.,33.05));
#309 = ORIENTED_EDGE('',*,*,#310,.T.);
#310 = EDGE_CURVE('',#279,#311,#313,.T.);
#311 = VERTEX_POINT('',#312);
#312 = CARTESIAN_POINT('',(-4.015686516702,4.95,34.));
#313 = B_SPLINE_CURVE_WITH_KNOTS('',6,(#314,#315,#316,#317,#318,#319,
    #320,#321,#322,#323,#324,#325,#326,#327,#328,#329,#330,#331,#332,
    #333,#334,#335,#336,#337,#338,#339,#340,#341,#342,#343,#344,#345),
  .UNSPECIFIED.,.F.,.F.,(7,5,5,5,5,5,7),(0.,0.28724010987,0.399896414128
    ,0.479526497558,0.683425769193,0.913288745688,1.),.UNSPECIFIED.);
#314 = CARTESIAN_POINT('',(-3.8,4.,33.05));
#315 = CARTESIAN_POINT('',(-3.8,4.0782669198,33.05));
#316 = CARTESIAN_POINT('',(-3.803341371825,4.156242180003,33.05773773312
    ));
#317 = CARTESIAN_POINT('',(-3.80997692455,4.232745866198,33.073105093226
    ));
#318 = CARTESIAN_POINT('',(-3.81956416542,4.306623376169,33.095689725566
    ));
#319 = CARTESIAN_POINT('',(-3.831474963859,4.376811587238,
    33.124778864019));
#320 = CARTESIAN_POINT('',(-3.850231179181,4.468171276242,
    33.172859425903));
#321 = CARTESIAN_POINT('',(-3.855763650303,4.493246460694,
    33.187263317254));
#322 = CARTESIAN_POINT('',(-3.861506097901,4.517633192296,
    33.202483404134));
#323 = CARTESIAN_POINT('',(-3.867419458124,4.541307479414,
    33.218476598296));
#324 = CARTESIAN_POINT('',(-3.873464214829,4.564247698737,
    33.235199465379));
#325 = CARTESIAN_POINT('',(-3.883937705926,4.602117201176,33.26491344816
    ));
#326 = CARTESIAN_POINT('',(-3.888321240521,4.617425112742,
    33.277562705832));
#327 = CARTESIAN_POINT('',(-3.892737411352,4.632352987576,
    33.290541806473));
#328 = CARTESIAN_POINT('',(-3.897172904894,4.646896191916,
    33.303837124236));
#329 = CARTESIAN_POINT('',(-3.901614686111,4.661050800634,
    33.317435598881));
#330 = CARTESIAN_POINT('',(-3.917406974569,4.710054351507,
    33.366888994589));
#331 = CARTESIAN_POINT('',(-3.928721478682,4.742725481267,
    33.404358588823));
#332 = CARTESIAN_POINT('',(-3.93978057029,4.772773409727,33.443526088164
    ));
#333 = CARTESIAN_POINT('',(-3.950382387504,4.800156320894,33.48419975299
    ));
#334 = CARTESIAN_POINT('',(-3.960341829991,4.82483950423,33.526201713924
    ));
#335 = CARTESIAN_POINT('',(-3.979816339476,4.871537070379,
    33.618026972953));
#336 = CARTESIAN_POINT('',(-3.989117393835,4.892820689103,
    33.668183581125));
#337 = CARTESIAN_POINT('',(-3.997154855559,4.910568600525,
    33.719557036267));
#338 = CARTESIAN_POINT('',(-4.003728109063,4.924732381552,
    33.771880865455));
#339 = CARTESIAN_POINT('',(-4.008690999894,4.935279003868,
    33.824900189512));
#340 = CARTESIAN_POINT('',(-4.013196418545,4.944785601039,
    33.898541597497));
#341 = CARTESIAN_POINT('',(-4.014189515333,4.946870479875,
    33.918772739801));
#342 = CARTESIAN_POINT('',(-4.014937273892,4.948435022098,
    33.939049317238));
#343 = CARTESIAN_POINT('',(-4.015436767833,4.949478348682,
    33.959356272542));
#344 = CARTESIAN_POINT('',(-4.015686522846,4.950000012835,33.97967845091
    ));
#345 = CARTESIAN_POINT('',(-4.015686516701,4.95,34.0000006));
#346 = ORIENTED_EDGE('',*,*,#347,.F.);
#347 = EDGE_CURVE('',#348,#311,#350,.T.);
#348 = VERTEX_POINT('',#349);
#349 = CARTESIAN_POINT('',(-7.984313483298,4.95,34.));
#350 = LINE('',#351,#352);
#351 = CARTESIAN_POINT('',(-22.,4.95,34.));
#352 = VECTOR('',#353,1.);
#353 = DIRECTION('',(1.,0.,0.));
#354 = ORIENTED_EDGE('',*,*,#355,.F.);
#355 = EDGE_CURVE('',#269,#348,#356,.T.);
#356 = B_SPLINE_CURVE_WITH_KNOTS('',6,(#357,#358,#359,#360,#361,#362,
    #363,#364,#365,#366,#367,#368,#369,#370,#371,#372,#373,#374,#375,
    #376,#377,#378,#379,#380,#381,#382,#383,#384,#385,#386,#387,#388,
    #389,#390,#391,#392,#393,#394,#395,#396,#397,#398,#399,#400,#401,
    #402,#403,#404,#405,#406,#407,#408,#409,#410,#411,#412,#413,#414,
    #415,#416,#417,#418,#419,#420,#421,#422,#423),.UNSPECIFIED.,.F.,.F.,
  (7,5,5,5,5,5,5,5,5,5,5,5,5,7),(0.,0.156856745717,0.260237286677,
    0.298424588331,0.355033504392,0.406363179066,0.499983233587,
    0.592339797644,0.643744082274,0.700052631081,0.739853816366,
    0.841767971674,0.956659461468,1.),.UNSPECIFIED.);
#357 = CARTESIAN_POINT('',(-7.984313483299,3.05,34.0000006));
#358 = CARTESIAN_POINT('',(-7.984313461047,3.049999953522,
    33.926410633088));
#359 = CARTESIAN_POINT('',(-7.987588366864,3.056840455756,
    33.852893626269));
#360 = CARTESIAN_POINT('',(-7.994126342527,3.070496477173,33.78009573078
    ));
#361 = CARTESIAN_POINT('',(-8.003682008176,3.090910372404,33.70867219762
    ));
#362 = CARTESIAN_POINT('',(-8.015777768841,3.117980156772,
    33.639316410049));
#363 = CARTESIAN_POINT('',(-8.039017260045,3.173573010031,
    33.528905565518));
#364 = CARTESIAN_POINT('',(-8.049086372423,3.198470374024,33.48623130128
    ));
#365 = CARTESIAN_POINT('',(-8.05982375066,3.226146998114,33.444916683663
    ));
#366 = CARTESIAN_POINT('',(-8.071036619632,3.256566821779,
    33.405147070879));
#367 = CARTESIAN_POINT('',(-8.082514381624,3.289686290876,
    33.367122467712));
#368 = CARTESIAN_POINT('',(-8.098290175217,3.338659722041,
    33.317738317232));
#369 = CARTESIAN_POINT('',(-8.10255142907,3.352230714536,33.304684864079
    ));
#370 = CARTESIAN_POINT('',(-8.106807220747,3.366159479999,
    33.291910150637));
#371 = CARTESIAN_POINT('',(-8.111046047129,3.380442572582,
    33.279425693133));
#372 = CARTESIAN_POINT('',(-8.115256167208,3.395075952892,
    33.267243488121));
#373 = CARTESIAN_POINT('',(-8.125606378923,3.43225993318,33.2377836479)
  );
#374 = CARTESIAN_POINT('',(-8.131698849182,3.455227822647,
    33.220880197835));
#375 = CARTESIAN_POINT('',(-8.137662495197,3.478939481896,
    33.204709926122));
#376 = CARTESIAN_POINT('',(-8.143457215428,3.503373339888,
    33.189316803804));
#377 = CARTESIAN_POINT('',(-8.149043324458,3.528505429044,
    33.174744509128));
#378 = CARTESIAN_POINT('',(-8.159221948358,3.577706912848,
    33.148606735947));
#379 = CARTESIAN_POINT('',(-8.163858910465,3.601657671539,
    33.136887205108));
#380 = CARTESIAN_POINT('',(-8.168261010082,3.626131889855,
    33.125915586825));
#381 = CARTESIAN_POINT('',(-8.172398831629,3.651097790345,
    33.115727096587));
#382 = CARTESIAN_POINT('',(-8.176244973187,3.676521589555,
    33.106354413576));
#383 = CARTESIAN_POINT('',(-8.186210713738,3.749507780459,33.08227579562
    ));
#384 = CARTESIAN_POINT('',(-8.191597914214,3.798087214925,
    33.069526728024));
#385 = CARTESIAN_POINT('',(-8.195764275817,3.847781338181,
    33.059808046546));
#386 = CARTESIAN_POINT('',(-8.198587135937,3.898240527475,
    33.053272473574));
#387 = CARTESIAN_POINT('',(-8.2,3.949101697943,33.05));
#388 = CARTESIAN_POINT('',(-8.2,4.050211381721,33.05));
#389 = CARTESIAN_POINT('',(-8.198625005756,4.100386559899,
    33.053184734631));
#390 = CARTESIAN_POINT('',(-8.195877808513,4.150175143441,
    33.059545206316));
#391 = CARTESIAN_POINT('',(-8.191821422858,4.199228346194,
    33.069005448695));
#392 = CARTESIAN_POINT('',(-8.186572198598,4.247209954901,
    33.081420553978));
#393 = CARTESIAN_POINT('',(-8.176797986967,4.319742682131,
    33.105009271883));
#394 = CARTESIAN_POINT('',(-8.172982498248,4.34525885547,33.114295427011
    ));
#395 = CARTESIAN_POINT('',(-8.168871789398,4.370319431495,
    33.124403058674));
#396 = CARTESIAN_POINT('',(-8.164493258843,4.394890043194,
    33.135299441825));
#397 = CARTESIAN_POINT('',(-8.159876380526,4.418938342221,33.14694923338
    ));
#398 = CARTESIAN_POINT('',(-8.149768820819,4.468171276242,
    33.172859425903));
#399 = CARTESIAN_POINT('',(-8.144236349697,4.493246460694,
    33.187263317254));
#400 = CARTESIAN_POINT('',(-8.138493902099,4.517633192296,
    33.202483404134));
#401 = CARTESIAN_POINT('',(-8.132580541876,4.541307479414,
    33.218476598296));
#402 = CARTESIAN_POINT('',(-8.126535785171,4.564247698737,
    33.235199465379));
#403 = CARTESIAN_POINT('',(-8.116062294074,4.602117201176,33.26491344816
    ));
#404 = CARTESIAN_POINT('',(-8.111678759479,4.617425112742,
    33.277562705832));
#405 = CARTESIAN_POINT('',(-8.107262588648,4.632352987576,
    33.290541806473));
#406 = CARTESIAN_POINT('',(-8.102827095106,4.646896191916,
    33.303837124236));
#407 = CARTESIAN_POINT('',(-8.098385313889,4.661050800634,
    33.317435598881));
#408 = CARTESIAN_POINT('',(-8.082593025431,4.710054351507,
    33.366888994589));
#409 = CARTESIAN_POINT('',(-8.071278521318,4.742725481267,
    33.404358588823));
#410 = CARTESIAN_POINT('',(-8.06021942971,4.772773409727,33.443526088164
    ));
#411 = CARTESIAN_POINT('',(-8.049617612496,4.800156320894,33.48419975299
    ));
#412 = CARTESIAN_POINT('',(-8.039658170009,4.82483950423,33.526201713924
    ));
#413 = CARTESIAN_POINT('',(-8.020183660524,4.871537070379,
    33.618026972953));
#414 = CARTESIAN_POINT('',(-8.010882606165,4.892820689103,
    33.668183581125));
#415 = CARTESIAN_POINT('',(-8.002845144441,4.910568600525,
    33.719557036267));
#416 = CARTESIAN_POINT('',(-7.996271890937,4.924732381552,
    33.771880865455));
#417 = CARTESIAN_POINT('',(-7.991309000106,4.935279003868,
    33.824900189512));
#418 = CARTESIAN_POINT('',(-7.986803581455,4.944785601039,
    33.898541597497));
#419 = CARTESIAN_POINT('',(-7.985810484667,4.946870479875,
    33.918772739801));
#420 = CARTESIAN_POINT('',(-7.985062726108,4.948435022098,
    33.939049317238));
#421 = CARTESIAN_POINT('',(-7.984563232167,4.949478348682,
    33.959356272542));
#422 = CARTESIAN_POINT('',(-7.984313477154,4.950000012835,33.97967845091
    ));
#423 = CARTESIAN_POINT('',(-7.984313483299,4.95,34.0000006));
#424 = CYLINDRICAL_SURFACE('',#425,0.95);
#425 = AXIS2_PLACEMENT_3D('',#426,#427,#428);
#426 = CARTESIAN_POINT('',(-22.,4.,34.));
#427 = DIRECTION('',(1.,0.,0.));
#428 = DIRECTION('',(-0.,0.,1.));
#429 = ADVANCED_FACE('',(#430,#508),#667,.F.);
#430 = FACE_BOUND('',#431,.F.);
#431 = EDGE_LOOP('',(#432,#443,#451,#458,#459,#468,#476,#485,#491,#492,
    #493,#502));
#432 = ORIENTED_EDGE('',*,*,#433,.T.);
#433 = EDGE_CURVE('',#434,#436,#438,.T.);
#434 = VERTEX_POINT('',#435);
#435 = CARTESIAN_POINT('',(0.6,0.722508483643,34.616831817486));
#436 = VERTEX_POINT('',#437);
#437 = CARTESIAN_POINT('',(0.6,2.273637483815E-16,34.95));
#438 = CIRCLE('',#439,0.95);
#439 = AXIS2_PLACEMENT_3D('',#440,#441,#442);
#440 = CARTESIAN_POINT('',(0.6,0.,34.));
#441 = DIRECTION('',(1.,0.,0.));
#442 = DIRECTION('',(-0.,0.,1.));
#443 = ORIENTED_EDGE('',*,*,#444,.T.);
#444 = EDGE_CURVE('',#436,#445,#447,.T.);
#445 = VERTEX_POINT('',#446);
#446 = CARTESIAN_POINT('',(20.,2.32682891838E-16,34.95));
#447 = LINE('',#448,#449);
#448 = CARTESIAN_POINT('',(-22.,2.32682891838E-16,34.95));
#449 = VECTOR('',#450,1.);
#450 = DIRECTION('',(1.,0.,0.));
#451 = ORIENTED_EDGE('',*,*,#452,.F.);
#452 = EDGE_CURVE('',#445,#445,#453,.T.);
#453 = CIRCLE('',#454,0.95);
#454 = AXIS2_PLACEMENT_3D('',#455,#456,#457);
#455 = CARTESIAN_POINT('',(20.,0.,34.));
#456 = DIRECTION('',(1.,0.,0.));
#457 = DIRECTION('',(-0.,0.,1.));
#458 = ORIENTED_EDGE('',*,*,#444,.F.);
#459 = ORIENTED_EDGE('',*,*,#460,.T.);
#460 = EDGE_CURVE('',#436,#461,#463,.T.);
#461 = VERTEX_POINT('',#462);
#462 = CARTESIAN_POINT('',(0.6,-0.722508483643,34.616831817486));
#463 = CIRCLE('',#464,0.95);
#464 = AXIS2_PLACEMENT_3D('',#465,#466,#467);
#465 = CARTESIAN_POINT('',(0.6,0.,34.));
#466 = DIRECTION('',(1.,0.,0.));
#467 = DIRECTION('',(-0.,0.,1.));
#468 = ORIENTED_EDGE('',*,*,#469,.F.);
#469 = EDGE_CURVE('',#470,#461,#472,.T.);
#470 = VERTEX_POINT('',#471);
#471 = CARTESIAN_POINT('',(-0.6,-0.722508483643,34.616831817486));
#472 = LINE('',#473,#474);
#473 = CARTESIAN_POINT('',(-22.,-0.722508483643,34.616831817486));
#474 = VECTOR('',#475,1.);
#475 = DIRECTION('',(1.,0.,0.));
#476 = ORIENTED_EDGE('',*,*,#477,.F.);
#477 = EDGE_CURVE('',#478,#470,#480,.T.);
#478 = VERTEX_POINT('',#479);
#479 = CARTESIAN_POINT('',(-0.6,2.273637483815E-16,34.95));
#480 = CIRCLE('',#481,0.95);
#481 = AXIS2_PLACEMENT_3D('',#482,#483,#484);
#482 = CARTESIAN_POINT('',(-0.6,0.,34.));
#483 = DIRECTION('',(1.,0.,0.));
#484 = DIRECTION('',(-0.,0.,1.));
#485 = ORIENTED_EDGE('',*,*,#486,.F.);
#486 = EDGE_CURVE('',#67,#478,#487,.T.);
#487 = LINE('',#488,#489);
#488 = CARTESIAN_POINT('',(-22.,2.32682891838E-16,34.95));
#489 = VECTOR('',#490,1.);
#490 = DIRECTION('',(1.,0.,0.));
#491 = ORIENTED_EDGE('',*,*,#66,.T.);
#492 = ORIENTED_EDGE('',*,*,#486,.T.);
#493 = ORIENTED_EDGE('',*,*,#494,.F.);
#494 = EDGE_CURVE('',#495,#478,#497,.T.);
#495 = VERTEX_POINT('',#496);
#496 = CARTESIAN_POINT('',(-0.6,0.722508483643,34.616831817486));
#497 = CIRCLE('',#498,0.95);
#498 = AXIS2_PLACEMENT_3D('',#499,#500,#501);
#499 = CARTESIAN_POINT('',(-0.6,0.,34.));
#500 = DIRECTION('',(1.,0.,0.));
#501 = DIRECTION('',(-0.,0.,1.));
#502 = ORIENTED_EDGE('',*,*,#503,.T.);
#503 = EDGE_CURVE('',#495,#434,#504,.T.);
#504 = LINE('',#505,#506);
#505 = CARTESIAN_POINT('',(-22.,0.722508483643,34.616831817486));
#506 = VECTOR('',#507,1.);
#507 = DIRECTION('',(1.,0.,0.));
#508 = FACE_BOUND('',#509,.F.);
#509 = EDGE_LOOP('',(#510,#520,#552,#589,#597));
#510 = ORIENTED_EDGE('',*,*,#511,.T.);
#511 = EDGE_CURVE('',#512,#514,#516,.T.);
#512 = VERTEX_POINT('',#513);
#513 = CARTESIAN_POINT('',(-7.984313483298,-0.95,34.));
#514 = VERTEX_POINT('',#515);
#515 = CARTESIAN_POINT('',(-4.015686516702,-0.95,34.));
#516 = LINE('',#517,#518);
#517 = CARTESIAN_POINT('',(-22.,-0.95,34.));
#518 = VECTOR('',#519,1.);
#519 = DIRECTION('',(1.,0.,0.));
#520 = ORIENTED_EDGE('',*,*,#521,.T.);
#521 = EDGE_CURVE('',#514,#522,#524,.T.);
#522 = VERTEX_POINT('',#523);
#523 = CARTESIAN_POINT('',(-3.8,-5.388445916248E-16,33.05));
#524 = B_SPLINE_CURVE_WITH_KNOTS('',6,(#525,#526,#527,#528,#529,#530,
    #531,#532,#533,#534,#535,#536,#537,#538,#539,#540,#541,#542,#543,
    #544,#545,#546,#547,#548,#549,#550,#551),.UNSPECIFIED.,.F.,.F.,(7,5,
    5,5,5,7),(0.,0.313849025212,0.520699434212,0.597107033674,
    0.710373779345,1.),.UNSPECIFIED.);
#525 = CARTESIAN_POINT('',(-4.015686516701,-0.95,34.0000006));
#526 = CARTESIAN_POINT('',(-4.015686538953,-0.950000046478,
    33.926410633088));
#527 = CARTESIAN_POINT('',(-4.012411633136,-0.943159544244,
    33.852893626269));
#528 = CARTESIAN_POINT('',(-4.005873657473,-0.929503522827,
    33.780095730781));
#529 = CARTESIAN_POINT('',(-3.996317991824,-0.909089627596,
    33.70867219762));
#530 = CARTESIAN_POINT('',(-3.984222231159,-0.882019843228,
    33.639316410049));
#531 = CARTESIAN_POINT('',(-3.960982739955,-0.826426989969,
    33.528905565518));
#532 = CARTESIAN_POINT('',(-3.950913627577,-0.801529625976,
    33.48623130128));
#533 = CARTESIAN_POINT('',(-3.94017624934,-0.773853001886,
    33.444916683663));
#534 = CARTESIAN_POINT('',(-3.928963380368,-0.743433178222,
    33.405147070879));
#535 = CARTESIAN_POINT('',(-3.917485618376,-0.710313709124,
    33.367122467712));
#536 = CARTESIAN_POINT('',(-3.901709824783,-0.661340277959,
    33.317738317232));
#537 = CARTESIAN_POINT('',(-3.89744857093,-0.647769285464,
    33.304684864079));
#538 = CARTESIAN_POINT('',(-3.893192779253,-0.633840520001,
    33.291910150637));
#539 = CARTESIAN_POINT('',(-3.888953952871,-0.619557427418,
    33.279425693133));
#540 = CARTESIAN_POINT('',(-3.884743832792,-0.604924047108,
    33.267243488121));
#541 = CARTESIAN_POINT('',(-3.874393621077,-0.56774006682,33.2377836479)
  );
#542 = CARTESIAN_POINT('',(-3.868301150818,-0.544772177353,
    33.220880197835));
#543 = CARTESIAN_POINT('',(-3.862337504803,-0.521060518104,
    33.204709926122));
#544 = CARTESIAN_POINT('',(-3.856542784572,-0.496626660112,
    33.189316803804));
#545 = CARTESIAN_POINT('',(-3.850956675542,-0.471494570956,
    33.174744509128));
#546 = CARTESIAN_POINT('',(-3.831968448063,-0.379709180712,
    33.125984481461));
#547 = CARTESIAN_POINT('',(-3.819881917595,-0.309062136289,
    33.096438413429));
#548 = CARTESIAN_POINT('',(-3.810142150832,-0.234641173806,
    33.073487755783));
#549 = CARTESIAN_POINT('',(-3.803397020971,-0.157532136496,
    33.057866595373));
#550 = CARTESIAN_POINT('',(-3.8,-7.891594817334E-02,33.05));
#551 = CARTESIAN_POINT('',(-3.8,-3.330669073875E-16,33.05));
#552 = ORIENTED_EDGE('',*,*,#553,.T.);
#553 = EDGE_CURVE('',#522,#554,#556,.T.);
#554 = VERTEX_POINT('',#555);
#555 = CARTESIAN_POINT('',(-4.015686516702,0.95,34.));
#556 = B_SPLINE_CURVE_WITH_KNOTS('',6,(#557,#558,#559,#560,#561,#562,
    #563,#564,#565,#566,#567,#568,#569,#570,#571,#572,#573,#574,#575,
    #576,#577,#578,#579,#580,#581,#582,#583,#584,#585,#586,#587,#588),
  .UNSPECIFIED.,.F.,.F.,(7,5,5,5,5,5,7),(0.,0.28724010987,0.399896414128
    ,0.479526497558,0.683425769193,0.913288745688,1.),.UNSPECIFIED.);
#557 = CARTESIAN_POINT('',(-3.8,-5.81707229595E-17,33.05));
#558 = CARTESIAN_POINT('',(-3.8,7.826691979957E-02,33.05));
#559 = CARTESIAN_POINT('',(-3.803341371825,0.156242180003,33.05773773312
    ));
#560 = CARTESIAN_POINT('',(-3.80997692455,0.232745866198,33.073105093226
    ));
#561 = CARTESIAN_POINT('',(-3.81956416542,0.306623376169,33.095689725566
    ));
#562 = CARTESIAN_POINT('',(-3.831474963859,0.376811587238,
    33.124778864019));
#563 = CARTESIAN_POINT('',(-3.850231179181,0.468171276242,
    33.172859425903));
#564 = CARTESIAN_POINT('',(-3.855763650303,0.493246460694,
    33.187263317254));
#565 = CARTESIAN_POINT('',(-3.861506097901,0.517633192296,
    33.202483404134));
#566 = CARTESIAN_POINT('',(-3.867419458124,0.541307479414,
    33.218476598296));
#567 = CARTESIAN_POINT('',(-3.873464214829,0.564247698737,
    33.235199465379));
#568 = CARTESIAN_POINT('',(-3.883937705926,0.602117201176,33.26491344816
    ));
#569 = CARTESIAN_POINT('',(-3.888321240521,0.617425112742,
    33.277562705832));
#570 = CARTESIAN_POINT('',(-3.892737411352,0.632352987576,
    33.290541806473));
#571 = CARTESIAN_POINT('',(-3.897172904894,0.646896191916,
    33.303837124236));
#572 = CARTESIAN_POINT('',(-3.901614686111,0.661050800634,
    33.317435598881));
#573 = CARTESIAN_POINT('',(-3.917406974569,0.710054351507,
    33.366888994589));
#574 = CARTESIAN_POINT('',(-3.928721478682,0.742725481267,
    33.404358588823));
#575 = CARTESIAN_POINT('',(-3.93978057029,0.772773409727,33.443526088164
    ));
#576 = CARTESIAN_POINT('',(-3.950382387504,0.800156320894,33.48419975299
    ));
#577 = CARTESIAN_POINT('',(-3.960341829991,0.82483950423,33.526201713924
    ));
#578 = CARTESIAN_POINT('',(-3.979816339476,0.871537070379,
    33.618026972953));
#579 = CARTESIAN_POINT('',(-3.989117393835,0.892820689103,
    33.668183581125));
#580 = CARTESIAN_POINT('',(-3.997154855559,0.910568600525,
    33.719557036267));
#581 = CARTESIAN_POINT('',(-4.003728109063,0.924732381552,
    33.771880865455));
#582 = CARTESIAN_POINT('',(-4.008690999894,0.935279003868,
    33.824900189512));
#583 = CARTESIAN_POINT('',(-4.013196418545,0.944785601039,
    33.898541597497));
#584 = CARTESIAN_POINT('',(-4.014189515333,0.946870479875,
    33.918772739801));
#585 = CARTESIAN_POINT('',(-4.014937273892,0.948435022098,
    33.939049317238));
#586 = CARTESIAN_POINT('',(-4.015436767833,0.949478348682,
    33.959356272542));
#587 = CARTESIAN_POINT('',(-4.015686522846,0.950000012835,33.97967845091
    ));
#588 = CARTESIAN_POINT('',(-4.015686516701,0.95,34.0000006));
#589 = ORIENTED_EDGE('',*,*,#590,.F.);
#590 = EDGE_CURVE('',#591,#554,#593,.T.);
#591 = VERTEX_POINT('',#592);
#592 = CARTESIAN_POINT('',(-7.984313483298,0.95,34.));
#593 = LINE('',#594,#595);
#594 = CARTESIAN_POINT('',(-22.,0.95,34.));
#595 = VECTOR('',#596,1.);
#596 = DIRECTION('',(1.,0.,0.));
#597 = ORIENTED_EDGE('',*,*,#598,.F.);
#598 = EDGE_CURVE('',#512,#591,#599,.T.);
#599 = B_SPLINE_CURVE_WITH_KNOTS('',6,(#600,#601,#602,#603,#604,#605,
    #606,#607,#608,#609,#610,#611,#612,#613,#614,#615,#616,#617,#618,
    #619,#620,#621,#622,#623,#624,#625,#626,#627,#628,#629,#630,#631,
    #632,#633,#634,#635,#636,#637,#638,#639,#640,#641,#642,#643,#644,
    #645,#646,#647,#648,#649,#650,#651,#652,#653,#654,#655,#656,#657,
    #658,#659,#660,#661,#662,#663,#664,#665,#666),.UNSPECIFIED.,.F.,.F.,
  (7,5,5,5,5,5,5,5,5,5,5,5,5,7),(0.,0.156856745717,0.260237286677,
    0.298424588331,0.355033504392,0.406363179066,0.499983233587,
    0.592339797644,0.643744082274,0.700052631081,0.739853816366,
    0.841767971674,0.956659461468,1.),.UNSPECIFIED.);
#600 = CARTESIAN_POINT('',(-7.984313483299,-0.95,34.0000006));
#601 = CARTESIAN_POINT('',(-7.984313461047,-0.950000046478,
    33.926410633088));
#602 = CARTESIAN_POINT('',(-7.987588366864,-0.943159544244,
    33.852893626269));
#603 = CARTESIAN_POINT('',(-7.994126342527,-0.929503522827,
    33.780095730781));
#604 = CARTESIAN_POINT('',(-8.003682008176,-0.909089627596,
    33.70867219762));
#605 = CARTESIAN_POINT('',(-8.015777768841,-0.882019843228,
    33.639316410049));
#606 = CARTESIAN_POINT('',(-8.039017260045,-0.826426989969,
    33.528905565518));
#607 = CARTESIAN_POINT('',(-8.049086372423,-0.801529625976,
    33.48623130128));
#608 = CARTESIAN_POINT('',(-8.05982375066,-0.773853001886,
    33.444916683663));
#609 = CARTESIAN_POINT('',(-8.071036619632,-0.743433178221,
    33.405147070879));
#610 = CARTESIAN_POINT('',(-8.082514381624,-0.710313709124,
    33.367122467712));
#611 = CARTESIAN_POINT('',(-8.098290175217,-0.661340277959,
    33.317738317232));
#612 = CARTESIAN_POINT('',(-8.10255142907,-0.647769285464,
    33.304684864079));
#613 = CARTESIAN_POINT('',(-8.106807220747,-0.633840520001,
    33.291910150637));
#614 = CARTESIAN_POINT('',(-8.111046047129,-0.619557427418,
    33.279425693133));
#615 = CARTESIAN_POINT('',(-8.115256167208,-0.604924047108,
    33.267243488121));
#616 = CARTESIAN_POINT('',(-8.125606378923,-0.56774006682,33.2377836479)
  );
#617 = CARTESIAN_POINT('',(-8.131698849182,-0.544772177353,
    33.220880197835));
#618 = CARTESIAN_POINT('',(-8.137662495197,-0.521060518104,
    33.204709926122));
#619 = CARTESIAN_POINT('',(-8.143457215428,-0.496626660112,
    33.189316803804));
#620 = CARTESIAN_POINT('',(-8.149043324458,-0.471494570956,
    33.174744509128));
#621 = CARTESIAN_POINT('',(-8.159221948358,-0.422293087152,
    33.148606735947));
#622 = CARTESIAN_POINT('',(-8.163858910465,-0.398342328461,
    33.136887205108));
#623 = CARTESIAN_POINT('',(-8.168261010082,-0.373868110145,
    33.125915586825));
#624 = CARTESIAN_POINT('',(-8.172398831629,-0.348902209655,
    33.115727096587));
#625 = CARTESIAN_POINT('',(-8.176244973187,-0.323478410445,
    33.106354413576));
#626 = CARTESIAN_POINT('',(-8.186210713738,-0.250492219541,
    33.08227579562));
#627 = CARTESIAN_POINT('',(-8.191597914214,-0.201912785075,
    33.069526728024));
#628 = CARTESIAN_POINT('',(-8.195764275817,-0.152218661819,
    33.059808046546));
#629 = CARTESIAN_POINT('',(-8.198587135937,-0.101759472525,
    33.053272473574));
#630 = CARTESIAN_POINT('',(-8.2,-5.089830205695E-02,33.05));
#631 = CARTESIAN_POINT('',(-8.2,5.021138172064E-02,33.05));
#632 = CARTESIAN_POINT('',(-8.198625005756,0.100386559899,
    33.053184734631));
#633 = CARTESIAN_POINT('',(-8.195877808513,0.150175143441,
    33.059545206316));
#634 = CARTESIAN_POINT('',(-8.191821422858,0.199228346194,
    33.069005448695));
#635 = CARTESIAN_POINT('',(-8.186572198598,0.247209954901,
    33.081420553978));
#636 = CARTESIAN_POINT('',(-8.176797986967,0.319742682131,
    33.105009271883));
#637 = CARTESIAN_POINT('',(-8.172982498248,0.34525885547,33.114295427011
    ));
#638 = CARTESIAN_POINT('',(-8.168871789398,0.370319431495,
    33.124403058674));
#639 = CARTESIAN_POINT('',(-8.164493258843,0.394890043194,
    33.135299441825));
#640 = CARTESIAN_POINT('',(-8.159876380526,0.418938342221,33.14694923338
    ));
#641 = CARTESIAN_POINT('',(-8.149768820819,0.468171276242,
    33.172859425903));
#642 = CARTESIAN_POINT('',(-8.144236349697,0.493246460694,
    33.187263317254));
#643 = CARTESIAN_POINT('',(-8.138493902099,0.517633192296,
    33.202483404134));
#644 = CARTESIAN_POINT('',(-8.132580541876,0.541307479414,
    33.218476598296));
#645 = CARTESIAN_POINT('',(-8.126535785171,0.564247698737,
    33.235199465379));
#646 = CARTESIAN_POINT('',(-8.116062294074,0.602117201176,33.26491344816
    ));
#647 = CARTESIAN_POINT('',(-8.111678759479,0.617425112742,
    33.277562705832));
#648 = CARTESIAN_POINT('',(-8.107262588648,0.632352987576,
    33.290541806473));
#649 = CARTESIAN_POINT('',(-8.102827095106,0.646896191916,
    33.303837124236));
#650 = CARTESIAN_POINT('',(-8.098385313889,0.661050800634,
    33.317435598881));
#651 = CARTESIAN_POINT('',(-8.082593025431,0.710054351507,
    33.366888994589));
#652 = CARTESIAN_POINT('',(-8.071278521318,0.742725481267,
    33.404358588823));
#653 = CARTESIAN_POINT('',(-8.06021942971,0.772773409727,33.443526088164
    ));
#654 = CARTESIAN_POINT('',(-8.049617612496,0.800156320894,33.48419975299
    ));
#655 = CARTESIAN_POINT('',(-8.039658170009,0.82483950423,33.526201713924
    ));
#656 = CARTESIAN_POINT('',(-8.020183660524,0.871537070379,
    33.618026972953));
#657 = CARTESIAN_POINT('',(-8.010882606165,0.892820689103,
    33.668183581125));
#658 = CARTESIAN_POINT('',(-8.002845144441,0.910568600525,
    33.719557036267));
#659 = CARTESIAN_POINT('',(-7.996271890937,0.924732381552,
    33.771880865455));
#660 = CARTESIAN_POINT('',(-7.991309000106,0.935279003868,
    33.824900189512));
#661 = CARTESIAN_POINT('',(-7.986803581455,0.944785601039,
    33.898541597497));
#662 = CARTESIAN_POINT('',(-7.985810484667,0.946870479875,
    33.918772739801));
#663 = CARTESIAN_POINT('',(-7.985062726108,0.948435022098,
    33.939049317238));
#664 = CARTESIAN_POINT('',(-7.984563232167,0.949478348682,
    33.959356272542));
#665 = CARTESIAN_POINT('',(-7.984313477154,0.950000012835,33.97967845091
    ));
#666 = CARTESIAN_POINT('',(-7.984313483299,0.95,34.0000006));
#667 = CYLINDRICAL_SURFACE('',#668,0.95);
#668 = AXIS2_PLACEMENT_3D('',#669,#670,#671);
#669 = CARTESIAN_POINT('',(-22.,0.,34.));
#670 = DIRECTION('',(1.,0.,0.));
#671 = DIRECTION('',(-0.,0.,1.));
#672 = ADVANCED_FACE('',(#673,#751),#910,.F.);
#673 = FACE_BOUND('',#674,.F.);
#674 = EDGE_LOOP('',(#675,#686,#694,#701,#702,#711,#719,#728,#734,#735,
    #736,#745));
#675 = ORIENTED_EDGE('',*,*,#676,.T.);
#676 = EDGE_CURVE('',#677,#679,#681,.T.);
#677 = VERTEX_POINT('',#678);
#678 = CARTESIAN_POINT('',(0.6,-3.277491516357,34.616831817486));
#679 = VERTEX_POINT('',#680);
#680 = CARTESIAN_POINT('',(0.6,-4.,34.95));
#681 = CIRCLE('',#682,0.95);
#682 = AXIS2_PLACEMENT_3D('',#683,#684,#685);
#683 = CARTESIAN_POINT('',(0.6,-4.,34.));
#684 = DIRECTION('',(1.,0.,0.));
#685 = DIRECTION('',(-0.,0.,1.));
#686 = ORIENTED_EDGE('',*,*,#687,.T.);
#687 = EDGE_CURVE('',#679,#688,#690,.T.);
#688 = VERTEX_POINT('',#689);
#689 = CARTESIAN_POINT('',(20.,-4.,34.95));
#690 = LINE('',#691,#692);
#691 = CARTESIAN_POINT('',(-22.,-4.,34.95));
#692 = VECTOR('',#693,1.);
#693 = DIRECTION('',(1.,0.,0.));
#694 = ORIENTED_EDGE('',*,*,#695,.F.);
#695 = EDGE_CURVE('',#688,#688,#696,.T.);
#696 = CIRCLE('',#697,0.95);
#697 = AXIS2_PLACEMENT_3D('',#698,#699,#700);
#698 = CARTESIAN_POINT('',(20.,-4.,34.));
#699 = DIRECTION('',(1.,0.,0.));
#700 = DIRECTION('',(-0.,0.,1.));
#701 = ORIENTED_EDGE('',*,*,#687,.F.);
#702 = ORIENTED_EDGE('',*,*,#703,.T.);
#703 = EDGE_CURVE('',#679,#704,#706,.T.);
#704 = VERTEX_POINT('',#705);
#705 = CARTESIAN_POINT('',(0.6,-4.722508483643,34.616831817486));
#706 = CIRCLE('',#707,0.95);
#707 = AXIS2_PLACEMENT_3D('',#708,#709,#710);
#708 = CARTESIAN_POINT('',(0.6,-4.,34.));
#709 = DIRECTION('',(1.,0.,0.));
#710 = DIRECTION('',(-0.,0.,1.));
#711 = ORIENTED_EDGE('',*,*,#712,.F.);
#712 = EDGE_CURVE('',#713,#704,#715,.T.);
#713 = VERTEX_POINT('',#714);
#714 = CARTESIAN_POINT('',(-0.6,-4.722508483643,34.616831817486));
#715 = LINE('',#716,#717);
#716 = CARTESIAN_POINT('',(-22.,-4.722508483643,34.616831817486));
#717 = VECTOR('',#718,1.);
#718 = DIRECTION('',(1.,0.,0.));
#719 = ORIENTED_EDGE('',*,*,#720,.F.);
#720 = EDGE_CURVE('',#721,#713,#723,.T.);
#721 = VERTEX_POINT('',#722);
#722 = CARTESIAN_POINT('',(-0.6,-4.,34.95));
#723 = CIRCLE('',#724,0.95);
#724 = AXIS2_PLACEMENT_3D('',#725,#726,#727);
#725 = CARTESIAN_POINT('',(-0.6,-4.,34.));
#726 = DIRECTION('',(1.,0.,0.));
#727 = DIRECTION('',(-0.,0.,1.));
#728 = ORIENTED_EDGE('',*,*,#729,.F.);
#729 = EDGE_CURVE('',#78,#721,#730,.T.);
#730 = LINE('',#731,#732);
#731 = CARTESIAN_POINT('',(-22.,-4.,34.95));
#732 = VECTOR('',#733,1.);
#733 = DIRECTION('',(1.,0.,0.));
#734 = ORIENTED_EDGE('',*,*,#77,.T.);
#735 = ORIENTED_EDGE('',*,*,#729,.T.);
#736 = ORIENTED_EDGE('',*,*,#737,.F.);
#737 = EDGE_CURVE('',#738,#721,#740,.T.);
#738 = VERTEX_POINT('',#739);
#739 = CARTESIAN_POINT('',(-0.6,-3.277491516357,34.616831817486));
#740 = CIRCLE('',#741,0.95);
#741 = AXIS2_PLACEMENT_3D('',#742,#743,#744);
#742 = CARTESIAN_POINT('',(-0.6,-4.,34.));
#743 = DIRECTION('',(1.,0.,0.));
#744 = DIRECTION('',(-0.,0.,1.));
#745 = ORIENTED_EDGE('',*,*,#746,.T.);
#746 = EDGE_CURVE('',#738,#677,#747,.T.);
#747 = LINE('',#748,#749);
#748 = CARTESIAN_POINT('',(-22.,-3.277491516357,34.616831817486));
#749 = VECTOR('',#750,1.);
#750 = DIRECTION('',(1.,0.,0.));
#751 = FACE_BOUND('',#752,.F.);
#752 = EDGE_LOOP('',(#753,#763,#795,#832,#840));
#753 = ORIENTED_EDGE('',*,*,#754,.T.);
#754 = EDGE_CURVE('',#755,#757,#759,.T.);
#755 = VERTEX_POINT('',#756);
#756 = CARTESIAN_POINT('',(-7.984313483298,-4.95,34.));
#757 = VERTEX_POINT('',#758);
#758 = CARTESIAN_POINT('',(-4.015686516702,-4.95,34.));
#759 = LINE('',#760,#761);
#760 = CARTESIAN_POINT('',(-22.,-4.95,34.));
#761 = VECTOR('',#762,1.);
#762 = DIRECTION('',(1.,0.,0.));
#763 = ORIENTED_EDGE('',*,*,#764,.T.);
#764 = EDGE_CURVE('',#757,#765,#767,.T.);
#765 = VERTEX_POINT('',#766);
#766 = CARTESIAN_POINT('',(-3.8,-4.,33.05));
#767 = B_SPLINE_CURVE_WITH_KNOTS('',6,(#768,#769,#770,#771,#772,#773,
    #774,#775,#776,#777,#778,#779,#780,#781,#782,#783,#784,#785,#786,
    #787,#788,#789,#790,#791,#792,#793,#794),.UNSPECIFIED.,.F.,.F.,(7,5,
    5,5,5,7),(0.,0.313849025212,0.520699434212,0.597107033674,
    0.710373779345,1.),.UNSPECIFIED.);
#768 = CARTESIAN_POINT('',(-4.015686516701,-4.95,34.0000006));
#769 = CARTESIAN_POINT('',(-4.015686538953,-4.950000046478,
    33.926410633088));
#770 = CARTESIAN_POINT('',(-4.012411633136,-4.943159544244,
    33.852893626269));
#771 = CARTESIAN_POINT('',(-4.005873657473,-4.929503522827,
    33.780095730781));
#772 = CARTESIAN_POINT('',(-3.996317991824,-4.909089627596,
    33.70867219762));
#773 = CARTESIAN_POINT('',(-3.984222231159,-4.882019843228,
    33.639316410049));
#774 = CARTESIAN_POINT('',(-3.960982739955,-4.826426989969,
    33.528905565518));
#775 = CARTESIAN_POINT('',(-3.950913627577,-4.801529625976,
    33.48623130128));
#776 = CARTESIAN_POINT('',(-3.94017624934,-4.773853001886,
    33.444916683663));
#777 = CARTESIAN_POINT('',(-3.928963380368,-4.743433178221,
    33.405147070879));
#778 = CARTESIAN_POINT('',(-3.917485618376,-4.710313709124,
    33.367122467712));
#779 = CARTESIAN_POINT('',(-3.901709824783,-4.661340277959,
    33.317738317232));
#780 = CARTESIAN_POINT('',(-3.89744857093,-4.647769285464,
    33.304684864079));
#781 = CARTESIAN_POINT('',(-3.893192779253,-4.633840520001,
    33.291910150637));
#782 = CARTESIAN_POINT('',(-3.888953952871,-4.619557427418,
    33.279425693133));
#783 = CARTESIAN_POINT('',(-3.884743832792,-4.604924047108,
    33.267243488121));
#784 = CARTESIAN_POINT('',(-3.874393621077,-4.56774006682,33.2377836479)
  );
#785 = CARTESIAN_POINT('',(-3.868301150818,-4.544772177353,
    33.220880197835));
#786 = CARTESIAN_POINT('',(-3.862337504803,-4.521060518104,
    33.204709926122));
#787 = CARTESIAN_POINT('',(-3.856542784572,-4.496626660112,
    33.189316803804));
#788 = CARTESIAN_POINT('',(-3.850956675542,-4.471494570956,
    33.174744509128));
#789 = CARTESIAN_POINT('',(-3.831968448063,-4.379709180712,
    33.125984481461));
#790 = CARTESIAN_POINT('',(-3.819881917595,-4.30906213629,
    33.096438413429));
#791 = CARTESIAN_POINT('',(-3.810142150832,-4.234641173806,
    33.073487755783));
#792 = CARTESIAN_POINT('',(-3.803397020971,-4.157532136496,
    33.057866595373));
#793 = CARTESIAN_POINT('',(-3.8,-4.078915948173,33.05));
#794 = CARTESIAN_POINT('',(-3.8,-4.,33.05));
#795 = ORIENTED_EDGE('',*,*,#796,.T.);
#796 = EDGE_CURVE('',#765,#797,#799,.T.);
#797 = VERTEX_POINT('',#798);
#798 = CARTESIAN_POINT('',(-4.015686516702,-3.05,34.));
#799 = B_SPLINE_CURVE_WITH_KNOTS('',6,(#800,#801,#802,#803,#804,#805,
    #806,#807,#808,#809,#810,#811,#812,#813,#814,#815,#816,#817,#818,
    #819,#820,#821,#822,#823,#824,#825,#826,#827,#828,#829,#830,#831),
  .UNSPECIFIED.,.F.,.F.,(7,5,5,5,5,5,7),(0.,0.28724010987,0.399896414128
    ,0.479526497558,0.683425769193,0.913288745688,1.),.UNSPECIFIED.);
#800 = CARTESIAN_POINT('',(-3.8,-4.,33.05));
#801 = CARTESIAN_POINT('',(-3.8,-3.9217330802,33.05));
#802 = CARTESIAN_POINT('',(-3.803341371825,-3.843757819997,
    33.05773773312));
#803 = CARTESIAN_POINT('',(-3.80997692455,-3.767254133802,
    33.073105093226));
#804 = CARTESIAN_POINT('',(-3.81956416542,-3.693376623831,
    33.095689725566));
#805 = CARTESIAN_POINT('',(-3.831474963859,-3.623188412762,
    33.124778864019));
#806 = CARTESIAN_POINT('',(-3.850231179181,-3.531828723758,
    33.172859425903));
#807 = CARTESIAN_POINT('',(-3.855763650303,-3.506753539306,
    33.187263317254));
#808 = CARTESIAN_POINT('',(-3.861506097901,-3.482366807704,
    33.202483404134));
#809 = CARTESIAN_POINT('',(-3.867419458124,-3.458692520586,
    33.218476598296));
#810 = CARTESIAN_POINT('',(-3.873464214829,-3.435752301263,
    33.235199465379));
#811 = CARTESIAN_POINT('',(-3.883937705926,-3.397882798824,
    33.26491344816));
#812 = CARTESIAN_POINT('',(-3.888321240521,-3.382574887258,
    33.277562705832));
#813 = CARTESIAN_POINT('',(-3.892737411352,-3.367647012424,
    33.290541806473));
#814 = CARTESIAN_POINT('',(-3.897172904894,-3.353103808084,
    33.303837124236));
#815 = CARTESIAN_POINT('',(-3.901614686111,-3.338949199366,
    33.317435598881));
#816 = CARTESIAN_POINT('',(-3.917406974569,-3.289945648493,
    33.366888994589));
#817 = CARTESIAN_POINT('',(-3.928721478682,-3.257274518733,
    33.404358588823));
#818 = CARTESIAN_POINT('',(-3.93978057029,-3.227226590273,
    33.443526088164));
#819 = CARTESIAN_POINT('',(-3.950382387504,-3.199843679106,
    33.48419975299));
#820 = CARTESIAN_POINT('',(-3.960341829991,-3.17516049577,
    33.526201713924));
#821 = CARTESIAN_POINT('',(-3.979816339476,-3.128462929621,
    33.618026972953));
#822 = CARTESIAN_POINT('',(-3.989117393835,-3.107179310897,
    33.668183581125));
#823 = CARTESIAN_POINT('',(-3.997154855559,-3.089431399475,
    33.719557036267));
#824 = CARTESIAN_POINT('',(-4.003728109063,-3.075267618448,
    33.771880865455));
#825 = CARTESIAN_POINT('',(-4.008690999894,-3.064720996132,
    33.824900189512));
#826 = CARTESIAN_POINT('',(-4.013196418545,-3.055214398961,
    33.898541597497));
#827 = CARTESIAN_POINT('',(-4.014189515333,-3.053129520125,
    33.918772739801));
#828 = CARTESIAN_POINT('',(-4.014937273892,-3.051564977902,
    33.939049317238));
#829 = CARTESIAN_POINT('',(-4.015436767833,-3.050521651318,
    33.959356272542));
#830 = CARTESIAN_POINT('',(-4.015686522846,-3.049999987165,
    33.97967845091));
#831 = CARTESIAN_POINT('',(-4.015686516701,-3.05,34.0000006));
#832 = ORIENTED_EDGE('',*,*,#833,.F.);
#833 = EDGE_CURVE('',#834,#797,#836,.T.);
#834 = VERTEX_POINT('',#835);
#835 = CARTESIAN_POINT('',(-7.984313483298,-3.05,34.));
#836 = LINE('',#837,#838);
#837 = CARTESIAN_POINT('',(-22.,-3.05,34.));
#838 = VECTOR('',#839,1.);
#839 = DIRECTION('',(1.,0.,0.));
#840 = ORIENTED_EDGE('',*,*,#841,.F.);
#841 = EDGE_CURVE('',#755,#834,#842,.T.);
#842 = B_SPLINE_CURVE_WITH_KNOTS('',6,(#843,#844,#845,#846,#847,#848,
    #849,#850,#851,#852,#853,#854,#855,#856,#857,#858,#859,#860,#861,
    #862,#863,#864,#865,#866,#867,#868,#869,#870,#871,#872,#873,#874,
    #875,#876,#877,#878,#879,#880,#881,#882,#883,#884,#885,#886,#887,
    #888,#889,#890,#891,#892,#893,#894,#895,#896,#897,#898,#899,#900,
    #901,#902,#903,#904,#905,#906,#907,#908,#909),.UNSPECIFIED.,.F.,.F.,
  (7,5,5,5,5,5,5,5,5,5,5,5,5,7),(0.,0.156856745717,0.260237286677,
    0.298424588331,0.355033504392,0.406363179066,0.499983233587,
    0.592339797643,0.643744082274,0.700052631081,0.739853816366,
    0.841767971674,0.956659461468,1.),.UNSPECIFIED.);
#843 = CARTESIAN_POINT('',(-7.984313483299,-4.95,34.0000006));
#844 = CARTESIAN_POINT('',(-7.984313461047,-4.950000046478,
    33.926410633088));
#845 = CARTESIAN_POINT('',(-7.987588366864,-4.943159544244,
    33.852893626269));
#846 = CARTESIAN_POINT('',(-7.994126342527,-4.929503522827,
    33.780095730781));
#847 = CARTESIAN_POINT('',(-8.003682008176,-4.909089627596,
    33.70867219762));
#848 = CARTESIAN_POINT('',(-8.015777768841,-4.882019843228,
    33.639316410049));
#849 = CARTESIAN_POINT('',(-8.039017260045,-4.826426989969,
    33.528905565518));
#850 = CARTESIAN_POINT('',(-8.049086372423,-4.801529625976,
    33.48623130128));
#851 = CARTESIAN_POINT('',(-8.05982375066,-4.773853001886,
    33.444916683663));
#852 = CARTESIAN_POINT('',(-8.071036619632,-4.743433178222,
    33.405147070879));
#853 = CARTESIAN_POINT('',(-8.082514381624,-4.710313709124,
    33.367122467712));
#854 = CARTESIAN_POINT('',(-8.098290175217,-4.661340277959,
    33.317738317232));
#855 = CARTESIAN_POINT('',(-8.10255142907,-4.647769285464,
    33.304684864079));
#856 = CARTESIAN_POINT('',(-8.106807220747,-4.633840520001,
    33.291910150637));
#857 = CARTESIAN_POINT('',(-8.111046047129,-4.619557427418,
    33.279425693133));
#858 = CARTESIAN_POINT('',(-8.115256167208,-4.604924047108,
    33.267243488121));
#859 = CARTESIAN_POINT('',(-8.125606378923,-4.56774006682,33.2377836479)
  );
#860 = CARTESIAN_POINT('',(-8.131698849182,-4.544772177353,
    33.220880197835));
#861 = CARTESIAN_POINT('',(-8.137662495197,-4.521060518104,
    33.204709926122));
#862 = CARTESIAN_POINT('',(-8.143457215428,-4.496626660112,
    33.189316803804));
#863 = CARTESIAN_POINT('',(-8.149043324458,-4.471494570956,
    33.174744509128));
#864 = CARTESIAN_POINT('',(-8.159221948358,-4.422293087152,
    33.148606735947));
#865 = CARTESIAN_POINT('',(-8.163858910465,-4.398342328461,
    33.136887205108));
#866 = CARTESIAN_POINT('',(-8.168261010082,-4.373868110145,
    33.125915586825));
#867 = CARTESIAN_POINT('',(-8.172398831629,-4.348902209655,
    33.115727096587));
#868 = CARTESIAN_POINT('',(-8.176244973187,-4.323478410445,
    33.106354413576));
#869 = CARTESIAN_POINT('',(-8.186210713738,-4.250492219541,
    33.08227579562));
#870 = CARTESIAN_POINT('',(-8.191597914214,-4.201912785075,
    33.069526728024));
#871 = CARTESIAN_POINT('',(-8.195764275817,-4.152218661819,
    33.059808046546));
#872 = CARTESIAN_POINT('',(-8.198587135937,-4.101759472525,
    33.053272473574));
#873 = CARTESIAN_POINT('',(-8.2,-4.050898302057,33.05));
#874 = CARTESIAN_POINT('',(-8.2,-3.949788618279,33.05));
#875 = CARTESIAN_POINT('',(-8.198625005756,-3.899613440101,
    33.053184734631));
#876 = CARTESIAN_POINT('',(-8.195877808513,-3.849824856559,
    33.059545206316));
#877 = CARTESIAN_POINT('',(-8.191821422858,-3.800771653806,
    33.069005448695));
#878 = CARTESIAN_POINT('',(-8.186572198598,-3.752790045099,
    33.081420553978));
#879 = CARTESIAN_POINT('',(-8.176797986967,-3.680257317869,
    33.105009271883));
#880 = CARTESIAN_POINT('',(-8.172982498248,-3.65474114453,
    33.114295427011));
#881 = CARTESIAN_POINT('',(-8.168871789398,-3.629680568505,
    33.124403058674));
#882 = CARTESIAN_POINT('',(-8.164493258843,-3.605109956806,
    33.135299441825));
#883 = CARTESIAN_POINT('',(-8.159876380526,-3.581061657779,
    33.14694923338));
#884 = CARTESIAN_POINT('',(-8.149768820819,-3.531828723758,
    33.172859425903));
#885 = CARTESIAN_POINT('',(-8.144236349697,-3.506753539306,
    33.187263317254));
#886 = CARTESIAN_POINT('',(-8.138493902099,-3.482366807704,
    33.202483404134));
#887 = CARTESIAN_POINT('',(-8.132580541876,-3.458692520586,
    33.218476598296));
#888 = CARTESIAN_POINT('',(-8.126535785171,-3.435752301263,
    33.235199465379));
#889 = CARTESIAN_POINT('',(-8.116062294074,-3.397882798824,
    33.26491344816));
#890 = CARTESIAN_POINT('',(-8.111678759479,-3.382574887258,
    33.277562705832));
#891 = CARTESIAN_POINT('',(-8.107262588648,-3.367647012424,
    33.290541806473));
#892 = CARTESIAN_POINT('',(-8.102827095106,-3.353103808084,
    33.303837124236));
#893 = CARTESIAN_POINT('',(-8.098385313889,-3.338949199366,
    33.317435598881));
#894 = CARTESIAN_POINT('',(-8.082593025431,-3.289945648493,
    33.366888994589));
#895 = CARTESIAN_POINT('',(-8.071278521318,-3.257274518733,
    33.404358588823));
#896 = CARTESIAN_POINT('',(-8.06021942971,-3.227226590273,
    33.443526088164));
#897 = CARTESIAN_POINT('',(-8.049617612496,-3.199843679106,
    33.48419975299));
#898 = CARTESIAN_POINT('',(-8.039658170009,-3.17516049577,
    33.526201713924));
#899 = CARTESIAN_POINT('',(-8.020183660524,-3.128462929621,
    33.618026972953));
#900 = CARTESIAN_POINT('',(-8.010882606165,-3.107179310897,
    33.668183581125));
#901 = CARTESIAN_POINT('',(-8.002845144441,-3.089431399475,
    33.719557036267));
#902 = CARTESIAN_POINT('',(-7.996271890937,-3.075267618448,
    33.771880865455));
#903 = CARTESIAN_POINT('',(-7.991309000106,-3.064720996132,
    33.824900189512));
#904 = CARTESIAN_POINT('',(-7.986803581455,-3.055214398961,
    33.898541597497));
#905 = CARTESIAN_POINT('',(-7.985810484667,-3.053129520125,
    33.918772739801));
#906 = CARTESIAN_POINT('',(-7.985062726108,-3.051564977902,
    33.939049317238));
#907 = CARTESIAN_POINT('',(-7.984563232167,-3.050521651318,
    33.959356272542));
#908 = CARTESIAN_POINT('',(-7.984313477154,-3.049999987165,
    33.97967845091));
#909 = CARTESIAN_POINT('',(-7.984313483299,-3.05,34.0000006));
#910 = CYLINDRICAL_SURFACE('',#911,0.95);
#911 = AXIS2_PLACEMENT_3D('',#912,#913,#914);
#912 = CARTESIAN_POINT('',(-22.,-4.,34.));
#913 = DIRECTION('',(1.,0.,0.));
#914 = DIRECTION('',(-0.,0.,1.));
#915 = ADVANCED_FACE('',(#916,#922,#925,#928),#931,.T.);
#916 = FACE_BOUND('',#917,.T.);
#917 = EDGE_LOOP('',(#918,#919,#920,#921));
#918 = ORIENTED_EDGE('',*,*,#94,.F.);
#919 = ORIENTED_EDGE('',*,*,#175,.T.);
#920 = ORIENTED_EDGE('',*,*,#149,.T.);
#921 = ORIENTED_EDGE('',*,*,#135,.T.);
#922 = FACE_BOUND('',#923,.T.);
#923 = EDGE_LOOP('',(#924));
#924 = ORIENTED_EDGE('',*,*,#209,.F.);
#925 = FACE_BOUND('',#926,.T.);
#926 = EDGE_LOOP('',(#927));
#927 = ORIENTED_EDGE('',*,*,#452,.F.);
#928 = FACE_BOUND('',#929,.T.);
#929 = EDGE_LOOP('',(#930));
#930 = ORIENTED_EDGE('',*,*,#695,.F.);
#931 = PLANE('',#932);
#932 = AXIS2_PLACEMENT_3D('',#933,#934,#935);
#933 = CARTESIAN_POINT('',(20.,-8.,0.));
#934 = DIRECTION('',(1.,0.,-0.));
#935 = DIRECTION('',(0.,0.,1.));
#936 = ADVANCED_FACE('',(#937),#954,.T.);
#937 = FACE_BOUND('',#938,.T.);
#938 = EDGE_LOOP('',(#939,#940,#948));
#939 = ORIENTED_EDGE('',*,*,#190,.T.);
#940 = ORIENTED_EDGE('',*,*,#941,.T.);
#941 = EDGE_CURVE('',#193,#942,#944,.T.);
#942 = VERTEX_POINT('',#943);
#943 = CARTESIAN_POINT('',(0.6,5.3,34.95));
#944 = LINE('',#945,#946);
#945 = CARTESIAN_POINT('',(0.6,2.7,34.95));
#946 = VECTOR('',#947,1.);
#947 = DIRECTION('',(0.,1.,0.));
#948 = ORIENTED_EDGE('',*,*,#949,.T.);
#949 = EDGE_CURVE('',#942,#191,#950,.T.);
#950 = LINE('',#951,#952);
#951 = CARTESIAN_POINT('',(0.6,5.3,34.95));
#952 = VECTOR('',#953,1.);
#953 = DIRECTION('',(0.,-0.866185586049,-0.49972245349));
#954 = PLANE('',#955);
#955 = AXIS2_PLACEMENT_3D('',#956,#957,#958);
#956 = CARTESIAN_POINT('',(0.6,4.,34.74905535505));
#957 = DIRECTION('',(-1.,-0.,-0.));
#958 = DIRECTION('',(0.,0.,-1.));
#959 = ADVANCED_FACE('',(#960),#978,.F.);
#960 = FACE_BOUND('',#961,.F.);
#961 = EDGE_LOOP('',(#962,#970,#976,#977));
#962 = ORIENTED_EDGE('',*,*,#963,.F.);
#963 = EDGE_CURVE('',#964,#252,#966,.T.);
#964 = VERTEX_POINT('',#965);
#965 = CARTESIAN_POINT('',(-0.6,5.3,34.95));
#966 = LINE('',#967,#968);
#967 = CARTESIAN_POINT('',(-0.6,5.3,34.95));
#968 = VECTOR('',#969,1.);
#969 = DIRECTION('',(0.,-0.866185586049,-0.49972245349));
#970 = ORIENTED_EDGE('',*,*,#971,.T.);
#971 = EDGE_CURVE('',#964,#942,#972,.T.);
#972 = LINE('',#973,#974);
#973 = CARTESIAN_POINT('',(-0.6,5.3,34.95));
#974 = VECTOR('',#975,1.);
#975 = DIRECTION('',(1.,0.,0.));
#976 = ORIENTED_EDGE('',*,*,#949,.T.);
#977 = ORIENTED_EDGE('',*,*,#260,.F.);
#978 = PLANE('',#979);
#979 = AXIS2_PLACEMENT_3D('',#980,#981,#982);
#980 = CARTESIAN_POINT('',(-0.6,5.3,34.95));
#981 = DIRECTION('',(0.,0.49972245349,-0.866185586049));
#982 = DIRECTION('',(0.,-0.866185586049,-0.49972245349));
#983 = ADVANCED_FACE('',(#984),#994,.F.);
#984 = FACE_BOUND('',#985,.F.);
#985 = EDGE_LOOP('',(#986,#987,#993));
#986 = ORIENTED_EDGE('',*,*,#251,.T.);
#987 = ORIENTED_EDGE('',*,*,#988,.T.);
#988 = EDGE_CURVE('',#235,#964,#989,.T.);
#989 = LINE('',#990,#991);
#990 = CARTESIAN_POINT('',(-0.6,2.7,34.95));
#991 = VECTOR('',#992,1.);
#992 = DIRECTION('',(0.,1.,0.));
#993 = ORIENTED_EDGE('',*,*,#963,.T.);
#994 = PLANE('',#995);
#995 = AXIS2_PLACEMENT_3D('',#996,#997,#998);
#996 = CARTESIAN_POINT('',(-0.6,4.,34.74905535505));
#997 = DIRECTION('',(-1.,-0.,-0.));
#998 = DIRECTION('',(0.,0.,-1.));
#999 = ADVANCED_FACE('',(#1000),#1017,.F.);
#1000 = FACE_BOUND('',#1001,.F.);
#1001 = EDGE_LOOP('',(#1002,#1010,#1016));
#1002 = ORIENTED_EDGE('',*,*,#1003,.T.);
#1003 = EDGE_CURVE('',#227,#1004,#1006,.T.);
#1004 = VERTEX_POINT('',#1005);
#1005 = CARTESIAN_POINT('',(-0.6,2.7,34.95));
#1006 = LINE('',#1007,#1008);
#1007 = CARTESIAN_POINT('',(-0.6,4.,34.2));
#1008 = VECTOR('',#1009,1.);
#1009 = DIRECTION('',(0.,-0.866185586049,0.49972245349));
#1010 = ORIENTED_EDGE('',*,*,#1011,.T.);
#1011 = EDGE_CURVE('',#1004,#235,#1012,.T.);
#1012 = LINE('',#1013,#1014);
#1013 = CARTESIAN_POINT('',(-0.6,2.7,34.95));
#1014 = VECTOR('',#1015,1.);
#1015 = DIRECTION('',(0.,1.,0.));
#1016 = ORIENTED_EDGE('',*,*,#234,.T.);
#1017 = PLANE('',#1018);
#1018 = AXIS2_PLACEMENT_3D('',#1019,#1020,#1021);
#1019 = CARTESIAN_POINT('',(-0.6,4.,34.74905535505));
#1020 = DIRECTION('',(-1.,-0.,-0.));
#1021 = DIRECTION('',(0.,0.,-1.));
#1022 = ADVANCED_FACE('',(#1023),#1041,.F.);
#1023 = FACE_BOUND('',#1024,.F.);
#1024 = EDGE_LOOP('',(#1025,#1026,#1027,#1035));
#1025 = ORIENTED_EDGE('',*,*,#1003,.F.);
#1026 = ORIENTED_EDGE('',*,*,#226,.T.);
#1027 = ORIENTED_EDGE('',*,*,#1028,.T.);
#1028 = EDGE_CURVE('',#218,#1029,#1031,.T.);
#1029 = VERTEX_POINT('',#1030);
#1030 = CARTESIAN_POINT('',(0.6,2.7,34.95));
#1031 = LINE('',#1032,#1033);
#1032 = CARTESIAN_POINT('',(0.6,4.,34.2));
#1033 = VECTOR('',#1034,1.);
#1034 = DIRECTION('',(0.,-0.866185586049,0.49972245349));
#1035 = ORIENTED_EDGE('',*,*,#1036,.F.);
#1036 = EDGE_CURVE('',#1004,#1029,#1037,.T.);
#1037 = LINE('',#1038,#1039);
#1038 = CARTESIAN_POINT('',(-0.6,2.7,34.95));
#1039 = VECTOR('',#1040,1.);
#1040 = DIRECTION('',(1.,0.,0.));
#1041 = PLANE('',#1042);
#1042 = AXIS2_PLACEMENT_3D('',#1043,#1044,#1045);
#1043 = CARTESIAN_POINT('',(-0.6,4.,34.2));
#1044 = DIRECTION('',(0.,-0.49972245349,-0.866185586049));
#1045 = DIRECTION('',(0.,-0.866185586049,0.49972245349));
#1046 = ADVANCED_FACE('',(#1047),#1057,.T.);
#1047 = FACE_BOUND('',#1048,.T.);
#1048 = EDGE_LOOP('',(#1049,#1050,#1056));
#1049 = ORIENTED_EDGE('',*,*,#1028,.T.);
#1050 = ORIENTED_EDGE('',*,*,#1051,.T.);
#1051 = EDGE_CURVE('',#1029,#193,#1052,.T.);
#1052 = LINE('',#1053,#1054);
#1053 = CARTESIAN_POINT('',(0.6,2.7,34.95));
#1054 = VECTOR('',#1055,1.);
#1055 = DIRECTION('',(0.,1.,0.));
#1056 = ORIENTED_EDGE('',*,*,#217,.T.);
#1057 = PLANE('',#1058);
#1058 = AXIS2_PLACEMENT_3D('',#1059,#1060,#1061);
#1059 = CARTESIAN_POINT('',(0.6,4.,34.74905535505));
#1060 = DIRECTION('',(-1.,-0.,-0.));
#1061 = DIRECTION('',(0.,0.,-1.));
#1062 = ADVANCED_FACE('',(#1063),#1091,.F.);
#1063 = FACE_BOUND('',#1064,.F.);
#1064 = EDGE_LOOP('',(#1065,#1074,#1083,#1090));
#1065 = ORIENTED_EDGE('',*,*,#1066,.T.);
#1066 = EDGE_CURVE('',#269,#1067,#1069,.T.);
#1067 = VERTEX_POINT('',#1068);
#1068 = CARTESIAN_POINT('',(-6.916515138991,2.,34.));
#1069 = CIRCLE('',#1070,2.2);
#1070 = AXIS2_PLACEMENT_3D('',#1071,#1072,#1073);
#1071 = CARTESIAN_POINT('',(-6.,4.,34.));
#1072 = DIRECTION('',(0.,0.,1.));
#1073 = DIRECTION('',(1.,0.,-0.));
#1074 = ORIENTED_EDGE('',*,*,#1075,.F.);
#1075 = EDGE_CURVE('',#1076,#1067,#1078,.T.);
#1076 = VERTEX_POINT('',#1077);
#1077 = CARTESIAN_POINT('',(-5.083484861009,2.,34.));
#1078 = CIRCLE('',#1079,2.2);
#1079 = AXIS2_PLACEMENT_3D('',#1080,#1081,#1082);
#1080 = CARTESIAN_POINT('',(-6.,0.,34.));
#1081 = DIRECTION('',(0.,0.,1.));
#1082 = DIRECTION('',(1.,0.,-0.));
#1083 = ORIENTED_EDGE('',*,*,#1084,.T.);
#1084 = EDGE_CURVE('',#1076,#271,#1085,.T.);
#1085 = CIRCLE('',#1086,2.2);
#1086 = AXIS2_PLACEMENT_3D('',#1087,#1088,#1089);
#1087 = CARTESIAN_POINT('',(-6.,4.,34.));
#1088 = DIRECTION('',(0.,0.,1.));
#1089 = DIRECTION('',(1.,0.,-0.));
#1090 = ORIENTED_EDGE('',*,*,#268,.F.);
#1091 = PLANE('',#1092);
#1092 = AXIS2_PLACEMENT_3D('',#1093,#1094,#1095);
#1093 = CARTESIAN_POINT('',(-6.,4.,34.));
#1094 = DIRECTION('',(0.,0.,1.));
#1095 = DIRECTION('',(1.,0.,-0.));
#1096 = ADVANCED_FACE('',(#1097),#1132,.F.);
#1097 = FACE_BOUND('',#1098,.F.);
#1098 = EDGE_LOOP('',(#1099,#1107,#1108,#1109,#1116,#1117,#1125));
#1099 = ORIENTED_EDGE('',*,*,#1100,.T.);
#1100 = EDGE_CURVE('',#1101,#1067,#1103,.T.);
#1101 = VERTEX_POINT('',#1102);
#1102 = CARTESIAN_POINT('',(-6.916515138991,2.,4.));
#1103 = LINE('',#1104,#1105);
#1104 = CARTESIAN_POINT('',(-6.916515138991,2.,4.));
#1105 = VECTOR('',#1106,1.);
#1106 = DIRECTION('',(0.,0.,1.));
#1107 = ORIENTED_EDGE('',*,*,#1066,.F.);
#1108 = ORIENTED_EDGE('',*,*,#355,.T.);
#1109 = ORIENTED_EDGE('',*,*,#1110,.F.);
#1110 = EDGE_CURVE('',#311,#348,#1111,.T.);
#1111 = CIRCLE('',#1112,2.2);
#1112 = AXIS2_PLACEMENT_3D('',#1113,#1114,#1115);
#1113 = CARTESIAN_POINT('',(-6.,4.,34.));
#1114 = DIRECTION('',(0.,0.,1.));
#1115 = DIRECTION('',(1.,0.,-0.));
#1116 = ORIENTED_EDGE('',*,*,#310,.F.);
#1117 = ORIENTED_EDGE('',*,*,#1118,.F.);
#1118 = EDGE_CURVE('',#1119,#279,#1121,.T.);
#1119 = VERTEX_POINT('',#1120);
#1120 = CARTESIAN_POINT('',(-3.8,4.,4.));
#1121 = LINE('',#1122,#1123);
#1122 = CARTESIAN_POINT('',(-3.8,4.,4.));
#1123 = VECTOR('',#1124,1.);
#1124 = DIRECTION('',(0.,0.,1.));
#1125 = ORIENTED_EDGE('',*,*,#1126,.T.);
#1126 = EDGE_CURVE('',#1119,#1101,#1127,.T.);
#1127 = CIRCLE('',#1128,2.2);
#1128 = AXIS2_PLACEMENT_3D('',#1129,#1130,#1131);
#1129 = CARTESIAN_POINT('',(-6.,4.,4.));
#1130 = DIRECTION('',(0.,0.,1.));
#1131 = DIRECTION('',(1.,0.,-0.));
#1132 = CYLINDRICAL_SURFACE('',#1133,2.2);
#1133 = AXIS2_PLACEMENT_3D('',#1134,#1135,#1136);
#1134 = CARTESIAN_POINT('',(-6.,4.,4.));
#1135 = DIRECTION('',(0.,0.,1.));
#1136 = DIRECTION('',(1.,0.,-0.));
#1137 = ADVANCED_FACE('',(#1138),#1142,.F.);
#1138 = FACE_BOUND('',#1139,.F.);
#1139 = EDGE_LOOP('',(#1140,#1141));
#1140 = ORIENTED_EDGE('',*,*,#1110,.T.);
#1141 = ORIENTED_EDGE('',*,*,#347,.T.);
#1142 = PLANE('',#1143);
#1143 = AXIS2_PLACEMENT_3D('',#1144,#1145,#1146);
#1144 = CARTESIAN_POINT('',(-6.,4.,34.));
#1145 = DIRECTION('',(0.,0.,1.));
#1146 = DIRECTION('',(1.,0.,-0.));
#1147 = ADVANCED_FACE('',(#1148),#1168,.F.);
#1148 = FACE_BOUND('',#1149,.F.);
#1149 = EDGE_LOOP('',(#1150,#1151,#1159,#1166,#1167));
#1150 = ORIENTED_EDGE('',*,*,#1084,.F.);
#1151 = ORIENTED_EDGE('',*,*,#1152,.F.);
#1152 = EDGE_CURVE('',#1153,#1076,#1155,.T.);
#1153 = VERTEX_POINT('',#1154);
#1154 = CARTESIAN_POINT('',(-5.083484861009,2.,4.));
#1155 = LINE('',#1156,#1157);
#1156 = CARTESIAN_POINT('',(-5.083484861009,2.,4.));
#1157 = VECTOR('',#1158,1.);
#1158 = DIRECTION('',(0.,0.,1.));
#1159 = ORIENTED_EDGE('',*,*,#1160,.T.);
#1160 = EDGE_CURVE('',#1153,#1119,#1161,.T.);
#1161 = CIRCLE('',#1162,2.2);
#1162 = AXIS2_PLACEMENT_3D('',#1163,#1164,#1165);
#1163 = CARTESIAN_POINT('',(-6.,4.,4.));
#1164 = DIRECTION('',(0.,0.,1.));
#1165 = DIRECTION('',(1.,0.,-0.));
#1166 = ORIENTED_EDGE('',*,*,#1118,.T.);
#1167 = ORIENTED_EDGE('',*,*,#278,.F.);
#1168 = CYLINDRICAL_SURFACE('',#1169,2.2);
#1169 = AXIS2_PLACEMENT_3D('',#1170,#1171,#1172);
#1170 = CARTESIAN_POINT('',(-6.,4.,4.));
#1171 = DIRECTION('',(0.,0.,1.));
#1172 = DIRECTION('',(1.,0.,-0.));
#1173 = ADVANCED_FACE('',(#1174),#1191,.T.);
#1174 = FACE_BOUND('',#1175,.T.);
#1175 = EDGE_LOOP('',(#1176,#1177,#1185));
#1176 = ORIENTED_EDGE('',*,*,#433,.T.);
#1177 = ORIENTED_EDGE('',*,*,#1178,.T.);
#1178 = EDGE_CURVE('',#436,#1179,#1181,.T.);
#1179 = VERTEX_POINT('',#1180);
#1180 = CARTESIAN_POINT('',(0.6,1.3,34.95));
#1181 = LINE('',#1182,#1183);
#1182 = CARTESIAN_POINT('',(0.6,-1.3,34.95));
#1183 = VECTOR('',#1184,1.);
#1184 = DIRECTION('',(0.,1.,0.));
#1185 = ORIENTED_EDGE('',*,*,#1186,.T.);
#1186 = EDGE_CURVE('',#1179,#434,#1187,.T.);
#1187 = LINE('',#1188,#1189);
#1188 = CARTESIAN_POINT('',(0.6,1.3,34.95));
#1189 = VECTOR('',#1190,1.);
#1190 = DIRECTION('',(0.,-0.866185586049,-0.49972245349));
#1191 = PLANE('',#1192);
#1192 = AXIS2_PLACEMENT_3D('',#1193,#1194,#1195);
#1193 = CARTESIAN_POINT('',(0.6,0.,34.74905535505));
#1194 = DIRECTION('',(-1.,-0.,-0.));
#1195 = DIRECTION('',(0.,0.,-1.));
#1196 = ADVANCED_FACE('',(#1197),#1215,.F.);
#1197 = FACE_BOUND('',#1198,.F.);
#1198 = EDGE_LOOP('',(#1199,#1207,#1213,#1214));
#1199 = ORIENTED_EDGE('',*,*,#1200,.F.);
#1200 = EDGE_CURVE('',#1201,#495,#1203,.T.);
#1201 = VERTEX_POINT('',#1202);
#1202 = CARTESIAN_POINT('',(-0.6,1.3,34.95));
#1203 = LINE('',#1204,#1205);
#1204 = CARTESIAN_POINT('',(-0.6,1.3,34.95));
#1205 = VECTOR('',#1206,1.);
#1206 = DIRECTION('',(0.,-0.866185586049,-0.49972245349));
#1207 = ORIENTED_EDGE('',*,*,#1208,.T.);
#1208 = EDGE_CURVE('',#1201,#1179,#1209,.T.);
#1209 = LINE('',#1210,#1211);
#1210 = CARTESIAN_POINT('',(-0.6,1.3,34.95));
#1211 = VECTOR('',#1212,1.);
#1212 = DIRECTION('',(1.,0.,0.));
#1213 = ORIENTED_EDGE('',*,*,#1186,.T.);
#1214 = ORIENTED_EDGE('',*,*,#503,.F.);
#1215 = PLANE('',#1216);
#1216 = AXIS2_PLACEMENT_3D('',#1217,#1218,#1219);
#1217 = CARTESIAN_POINT('',(-0.6,1.3,34.95));
#1218 = DIRECTION('',(0.,0.49972245349,-0.866185586049));
#1219 = DIRECTION('',(0.,-0.866185586049,-0.49972245349));
#1220 = ADVANCED_FACE('',(#1221),#1231,.F.);
#1221 = FACE_BOUND('',#1222,.F.);
#1222 = EDGE_LOOP('',(#1223,#1224,#1230));
#1223 = ORIENTED_EDGE('',*,*,#494,.T.);
#1224 = ORIENTED_EDGE('',*,*,#1225,.T.);
#1225 = EDGE_CURVE('',#478,#1201,#1226,.T.);
#1226 = LINE('',#1227,#1228);
#1227 = CARTESIAN_POINT('',(-0.6,-1.3,34.95));
#1228 = VECTOR('',#1229,1.);
#1229 = DIRECTION('',(0.,1.,0.));
#1230 = ORIENTED_EDGE('',*,*,#1200,.T.);
#1231 = PLANE('',#1232);
#1232 = AXIS2_PLACEMENT_3D('',#1233,#1234,#1235);
#1233 = CARTESIAN_POINT('',(-0.6,0.,34.74905535505));
#1234 = DIRECTION('',(-1.,-0.,-0.));
#1235 = DIRECTION('',(0.,0.,-1.));
#1236 = ADVANCED_FACE('',(#1237),#1254,.F.);
#1237 = FACE_BOUND('',#1238,.F.);
#1238 = EDGE_LOOP('',(#1239,#1247,#1253));
#1239 = ORIENTED_EDGE('',*,*,#1240,.T.);
#1240 = EDGE_CURVE('',#470,#1241,#1243,.T.);
#1241 = VERTEX_POINT('',#1242);
#1242 = CARTESIAN_POINT('',(-0.6,-1.3,34.95));
#1243 = LINE('',#1244,#1245);
#1244 = CARTESIAN_POINT('',(-0.6,0.,34.2));
#1245 = VECTOR('',#1246,1.);
#1246 = DIRECTION('',(0.,-0.866185586049,0.49972245349));
#1247 = ORIENTED_EDGE('',*,*,#1248,.T.);
#1248 = EDGE_CURVE('',#1241,#478,#1249,.T.);
#1249 = LINE('',#1250,#1251);
#1250 = CARTESIAN_POINT('',(-0.6,-1.3,34.95));
#1251 = VECTOR('',#1252,1.);
#1252 = DIRECTION('',(0.,1.,0.));
#1253 = ORIENTED_EDGE('',*,*,#477,.T.);
#1254 = PLANE('',#1255);
#1255 = AXIS2_PLACEMENT_3D('',#1256,#1257,#1258);
#1256 = CARTESIAN_POINT('',(-0.6,0.,34.74905535505));
#1257 = DIRECTION('',(-1.,-0.,-0.));
#1258 = DIRECTION('',(0.,0.,-1.));
#1259 = ADVANCED_FACE('',(#1260),#1278,.F.);
#1260 = FACE_BOUND('',#1261,.F.);
#1261 = EDGE_LOOP('',(#1262,#1263,#1264,#1272));
#1262 = ORIENTED_EDGE('',*,*,#1240,.F.);
#1263 = ORIENTED_EDGE('',*,*,#469,.T.);
#1264 = ORIENTED_EDGE('',*,*,#1265,.T.);
#1265 = EDGE_CURVE('',#461,#1266,#1268,.T.);
#1266 = VERTEX_POINT('',#1267);
#1267 = CARTESIAN_POINT('',(0.6,-1.3,34.95));
#1268 = LINE('',#1269,#1270);
#1269 = CARTESIAN_POINT('',(0.6,0.,34.2));
#1270 = VECTOR('',#1271,1.);
#1271 = DIRECTION('',(0.,-0.866185586049,0.49972245349));
#1272 = ORIENTED_EDGE('',*,*,#1273,.F.);
#1273 = EDGE_CURVE('',#1241,#1266,#1274,.T.);
#1274 = LINE('',#1275,#1276);
#1275 = CARTESIAN_POINT('',(-0.6,-1.3,34.95));
#1276 = VECTOR('',#1277,1.);
#1277 = DIRECTION('',(1.,0.,0.));
#1278 = PLANE('',#1279);
#1279 = AXIS2_PLACEMENT_3D('',#1280,#1281,#1282);
#1280 = CARTESIAN_POINT('',(-0.6,0.,34.2));
#1281 = DIRECTION('',(0.,-0.49972245349,-0.866185586049));
#1282 = DIRECTION('',(0.,-0.866185586049,0.49972245349));
#1283 = ADVANCED_FACE('',(#1284),#1294,.T.);
#1284 = FACE_BOUND('',#1285,.T.);
#1285 = EDGE_LOOP('',(#1286,#1287,#1293));
#1286 = ORIENTED_EDGE('',*,*,#1265,.T.);
#1287 = ORIENTED_EDGE('',*,*,#1288,.T.);
#1288 = EDGE_CURVE('',#1266,#436,#1289,.T.);
#1289 = LINE('',#1290,#1291);
#1290 = CARTESIAN_POINT('',(0.6,-1.3,34.95));
#1291 = VECTOR('',#1292,1.);
#1292 = DIRECTION('',(0.,1.,0.));
#1293 = ORIENTED_EDGE('',*,*,#460,.T.);
#1294 = PLANE('',#1295);
#1295 = AXIS2_PLACEMENT_3D('',#1296,#1297,#1298);
#1296 = CARTESIAN_POINT('',(0.6,0.,34.74905535505));
#1297 = DIRECTION('',(-1.,-0.,-0.));
#1298 = DIRECTION('',(0.,0.,-1.));
#1299 = ADVANCED_FACE('',(#1300),#1328,.F.);
#1300 = FACE_BOUND('',#1301,.F.);
#1301 = EDGE_LOOP('',(#1302,#1311,#1320,#1327));
#1302 = ORIENTED_EDGE('',*,*,#1303,.T.);
#1303 = EDGE_CURVE('',#512,#1304,#1306,.T.);
#1304 = VERTEX_POINT('',#1305);
#1305 = CARTESIAN_POINT('',(-6.916515138991,-2.,34.));
#1306 = CIRCLE('',#1307,2.2);
#1307 = AXIS2_PLACEMENT_3D('',#1308,#1309,#1310);
#1308 = CARTESIAN_POINT('',(-6.,0.,34.));
#1309 = DIRECTION('',(0.,0.,1.));
#1310 = DIRECTION('',(1.,0.,-0.));
#1311 = ORIENTED_EDGE('',*,*,#1312,.F.);
#1312 = EDGE_CURVE('',#1313,#1304,#1315,.T.);
#1313 = VERTEX_POINT('',#1314);
#1314 = CARTESIAN_POINT('',(-5.083484861009,-2.,34.));
#1315 = CIRCLE('',#1316,2.2);
#1316 = AXIS2_PLACEMENT_3D('',#1317,#1318,#1319);
#1317 = CARTESIAN_POINT('',(-6.,-4.,34.));
#1318 = DIRECTION('',(0.,0.,1.));
#1319 = DIRECTION('',(1.,0.,-0.));
#1320 = ORIENTED_EDGE('',*,*,#1321,.T.);
#1321 = EDGE_CURVE('',#1313,#514,#1322,.T.);
#1322 = CIRCLE('',#1323,2.2);
#1323 = AXIS2_PLACEMENT_3D('',#1324,#1325,#1326);
#1324 = CARTESIAN_POINT('',(-6.,0.,34.));
#1325 = DIRECTION('',(0.,0.,1.));
#1326 = DIRECTION('',(1.,0.,-0.));
#1327 = ORIENTED_EDGE('',*,*,#511,.F.);
#1328 = PLANE('',#1329);
#1329 = AXIS2_PLACEMENT_3D('',#1330,#1331,#1332);
#1330 = CARTESIAN_POINT('',(-6.,0.,34.));
#1331 = DIRECTION('',(0.,0.,1.));
#1332 = DIRECTION('',(1.,0.,-0.));
#1333 = ADVANCED_FACE('',(#1334),#1361,.F.);
#1334 = FACE_BOUND('',#1335,.F.);
#1335 = EDGE_LOOP('',(#1336,#1345,#1351,#1352,#1353,#1360));
#1336 = ORIENTED_EDGE('',*,*,#1337,.T.);
#1337 = EDGE_CURVE('',#1101,#1338,#1340,.T.);
#1338 = VERTEX_POINT('',#1339);
#1339 = CARTESIAN_POINT('',(-6.916515138991,-2.,4.));
#1340 = CIRCLE('',#1341,2.2);
#1341 = AXIS2_PLACEMENT_3D('',#1342,#1343,#1344);
#1342 = CARTESIAN_POINT('',(-6.,0.,4.));
#1343 = DIRECTION('',(0.,0.,1.));
#1344 = DIRECTION('',(1.,0.,-0.));
#1345 = ORIENTED_EDGE('',*,*,#1346,.T.);
#1346 = EDGE_CURVE('',#1338,#1304,#1347,.T.);
#1347 = LINE('',#1348,#1349);
#1348 = CARTESIAN_POINT('',(-6.916515138991,-2.,4.));
#1349 = VECTOR('',#1350,1.);
#1350 = DIRECTION('',(0.,0.,1.));
#1351 = ORIENTED_EDGE('',*,*,#1303,.F.);
#1352 = ORIENTED_EDGE('',*,*,#598,.T.);
#1353 = ORIENTED_EDGE('',*,*,#1354,.F.);
#1354 = EDGE_CURVE('',#1067,#591,#1355,.T.);
#1355 = CIRCLE('',#1356,2.2);
#1356 = AXIS2_PLACEMENT_3D('',#1357,#1358,#1359);
#1357 = CARTESIAN_POINT('',(-6.,0.,34.));
#1358 = DIRECTION('',(0.,0.,1.));
#1359 = DIRECTION('',(1.,0.,-0.));
#1360 = ORIENTED_EDGE('',*,*,#1100,.F.);
#1361 = CYLINDRICAL_SURFACE('',#1362,2.2);
#1362 = AXIS2_PLACEMENT_3D('',#1363,#1364,#1365);
#1363 = CARTESIAN_POINT('',(-6.,0.,4.));
#1364 = DIRECTION('',(0.,0.,1.));
#1365 = DIRECTION('',(1.,0.,-0.));
#1366 = ADVANCED_FACE('',(#1367),#1385,.F.);
#1367 = FACE_BOUND('',#1368,.F.);
#1368 = EDGE_LOOP('',(#1369,#1370,#1377,#1384));
#1369 = ORIENTED_EDGE('',*,*,#590,.T.);
#1370 = ORIENTED_EDGE('',*,*,#1371,.T.);
#1371 = EDGE_CURVE('',#554,#1076,#1372,.T.);
#1372 = CIRCLE('',#1373,2.2);
#1373 = AXIS2_PLACEMENT_3D('',#1374,#1375,#1376);
#1374 = CARTESIAN_POINT('',(-6.,0.,34.));
#1375 = DIRECTION('',(0.,0.,1.));
#1376 = DIRECTION('',(1.,0.,-0.));
#1377 = ORIENTED_EDGE('',*,*,#1378,.F.);
#1378 = EDGE_CURVE('',#1067,#1076,#1379,.T.);
#1379 = CIRCLE('',#1380,2.2);
#1380 = AXIS2_PLACEMENT_3D('',#1381,#1382,#1383);
#1381 = CARTESIAN_POINT('',(-6.,4.,34.));
#1382 = DIRECTION('',(0.,0.,1.));
#1383 = DIRECTION('',(1.,0.,-0.));
#1384 = ORIENTED_EDGE('',*,*,#1354,.T.);
#1385 = PLANE('',#1386);
#1386 = AXIS2_PLACEMENT_3D('',#1387,#1388,#1389);
#1387 = CARTESIAN_POINT('',(-6.,0.,34.));
#1388 = DIRECTION('',(0.,0.,1.));
#1389 = DIRECTION('',(1.,0.,-0.));
#1390 = ADVANCED_FACE('',(#1391),#1411,.F.);
#1391 = FACE_BOUND('',#1392,.F.);
#1392 = EDGE_LOOP('',(#1393,#1402,#1403,#1404,#1405));
#1393 = ORIENTED_EDGE('',*,*,#1394,.T.);
#1394 = EDGE_CURVE('',#1395,#1153,#1397,.T.);
#1395 = VERTEX_POINT('',#1396);
#1396 = CARTESIAN_POINT('',(-3.8,-5.388445916248E-16,4.));
#1397 = CIRCLE('',#1398,2.2);
#1398 = AXIS2_PLACEMENT_3D('',#1399,#1400,#1401);
#1399 = CARTESIAN_POINT('',(-6.,0.,4.));
#1400 = DIRECTION('',(0.,0.,1.));
#1401 = DIRECTION('',(1.,0.,-0.));
#1402 = ORIENTED_EDGE('',*,*,#1152,.T.);
#1403 = ORIENTED_EDGE('',*,*,#1371,.F.);
#1404 = ORIENTED_EDGE('',*,*,#553,.F.);
#1405 = ORIENTED_EDGE('',*,*,#1406,.F.);
#1406 = EDGE_CURVE('',#1395,#522,#1407,.T.);
#1407 = LINE('',#1408,#1409);
#1408 = CARTESIAN_POINT('',(-3.8,-5.388445916248E-16,4.));
#1409 = VECTOR('',#1410,1.);
#1410 = DIRECTION('',(0.,0.,1.));
#1411 = CYLINDRICAL_SURFACE('',#1412,2.2);
#1412 = AXIS2_PLACEMENT_3D('',#1413,#1414,#1415);
#1413 = CARTESIAN_POINT('',(-6.,0.,4.));
#1414 = DIRECTION('',(0.,0.,1.));
#1415 = DIRECTION('',(1.,0.,-0.));
#1416 = ADVANCED_FACE('',(#1417),#1437,.F.);
#1417 = FACE_BOUND('',#1418,.F.);
#1418 = EDGE_LOOP('',(#1419,#1420,#1428,#1435,#1436));
#1419 = ORIENTED_EDGE('',*,*,#1321,.F.);
#1420 = ORIENTED_EDGE('',*,*,#1421,.F.);
#1421 = EDGE_CURVE('',#1422,#1313,#1424,.T.);
#1422 = VERTEX_POINT('',#1423);
#1423 = CARTESIAN_POINT('',(-5.083484861009,-2.,4.));
#1424 = LINE('',#1425,#1426);
#1425 = CARTESIAN_POINT('',(-5.083484861009,-2.,4.));
#1426 = VECTOR('',#1427,1.);
#1427 = DIRECTION('',(0.,0.,1.));
#1428 = ORIENTED_EDGE('',*,*,#1429,.T.);
#1429 = EDGE_CURVE('',#1422,#1395,#1430,.T.);
#1430 = CIRCLE('',#1431,2.2);
#1431 = AXIS2_PLACEMENT_3D('',#1432,#1433,#1434);
#1432 = CARTESIAN_POINT('',(-6.,0.,4.));
#1433 = DIRECTION('',(0.,0.,1.));
#1434 = DIRECTION('',(1.,0.,-0.));
#1435 = ORIENTED_EDGE('',*,*,#1406,.T.);
#1436 = ORIENTED_EDGE('',*,*,#521,.F.);
#1437 = CYLINDRICAL_SURFACE('',#1438,2.2);
#1438 = AXIS2_PLACEMENT_3D('',#1439,#1440,#1441);
#1439 = CARTESIAN_POINT('',(-6.,0.,4.));
#1440 = DIRECTION('',(0.,0.,1.));
#1441 = DIRECTION('',(1.,0.,-0.));
#1442 = ADVANCED_FACE('',(#1443),#1460,.T.);
#1443 = FACE_BOUND('',#1444,.T.);
#1444 = EDGE_LOOP('',(#1445,#1446,#1454));
#1445 = ORIENTED_EDGE('',*,*,#676,.T.);
#1446 = ORIENTED_EDGE('',*,*,#1447,.T.);
#1447 = EDGE_CURVE('',#679,#1448,#1450,.T.);
#1448 = VERTEX_POINT('',#1449);
#1449 = CARTESIAN_POINT('',(0.6,-2.7,34.95));
#1450 = LINE('',#1451,#1452);
#1451 = CARTESIAN_POINT('',(0.6,-5.3,34.95));
#1452 = VECTOR('',#1453,1.);
#1453 = DIRECTION('',(0.,1.,0.));
#1454 = ORIENTED_EDGE('',*,*,#1455,.T.);
#1455 = EDGE_CURVE('',#1448,#677,#1456,.T.);
#1456 = LINE('',#1457,#1458);
#1457 = CARTESIAN_POINT('',(0.6,-2.7,34.95));
#1458 = VECTOR('',#1459,1.);
#1459 = DIRECTION('',(0.,-0.866185586049,-0.49972245349));
#1460 = PLANE('',#1461);
#1461 = AXIS2_PLACEMENT_3D('',#1462,#1463,#1464);
#1462 = CARTESIAN_POINT('',(0.6,-4.,34.74905535505));
#1463 = DIRECTION('',(-1.,-0.,-0.));
#1464 = DIRECTION('',(0.,0.,-1.));
#1465 = ADVANCED_FACE('',(#1466),#1484,.F.);
#1466 = FACE_BOUND('',#1467,.F.);
#1467 = EDGE_LOOP('',(#1468,#1476,#1482,#1483));
#1468 = ORIENTED_EDGE('',*,*,#1469,.F.);
#1469 = EDGE_CURVE('',#1470,#738,#1472,.T.);
#1470 = VERTEX_POINT('',#1471);
#1471 = CARTESIAN_POINT('',(-0.6,-2.7,34.95));
#1472 = LINE('',#1473,#1474);
#1473 = CARTESIAN_POINT('',(-0.6,-2.7,34.95));
#1474 = VECTOR('',#1475,1.);
#1475 = DIRECTION('',(0.,-0.866185586049,-0.49972245349));
#1476 = ORIENTED_EDGE('',*,*,#1477,.T.);
#1477 = EDGE_CURVE('',#1470,#1448,#1478,.T.);
#1478 = LINE('',#1479,#1480);
#1479 = CARTESIAN_POINT('',(-0.6,-2.7,34.95));
#1480 = VECTOR('',#1481,1.);
#1481 = DIRECTION('',(1.,0.,0.));
#1482 = ORIENTED_EDGE('',*,*,#1455,.T.);
#1483 = ORIENTED_EDGE('',*,*,#746,.F.);
#1484 = PLANE('',#1485);
#1485 = AXIS2_PLACEMENT_3D('',#1486,#1487,#1488);
#1486 = CARTESIAN_POINT('',(-0.6,-2.7,34.95));
#1487 = DIRECTION('',(0.,0.49972245349,-0.866185586049));
#1488 = DIRECTION('',(0.,-0.866185586049,-0.49972245349));
#1489 = ADVANCED_FACE('',(#1490),#1500,.F.);
#1490 = FACE_BOUND('',#1491,.F.);
#1491 = EDGE_LOOP('',(#1492,#1493,#1499));
#1492 = ORIENTED_EDGE('',*,*,#737,.T.);
#1493 = ORIENTED_EDGE('',*,*,#1494,.T.);
#1494 = EDGE_CURVE('',#721,#1470,#1495,.T.);
#1495 = LINE('',#1496,#1497);
#1496 = CARTESIAN_POINT('',(-0.6,-5.3,34.95));
#1497 = VECTOR('',#1498,1.);
#1498 = DIRECTION('',(0.,1.,0.));
#1499 = ORIENTED_EDGE('',*,*,#1469,.T.);
#1500 = PLANE('',#1501);
#1501 = AXIS2_PLACEMENT_3D('',#1502,#1503,#1504);
#1502 = CARTESIAN_POINT('',(-0.6,-4.,34.74905535505));
#1503 = DIRECTION('',(-1.,-0.,-0.));
#1504 = DIRECTION('',(0.,0.,-1.));
#1505 = ADVANCED_FACE('',(#1506),#1523,.F.);
#1506 = FACE_BOUND('',#1507,.F.);
#1507 = EDGE_LOOP('',(#1508,#1516,#1522));
#1508 = ORIENTED_EDGE('',*,*,#1509,.T.);
#1509 = EDGE_CURVE('',#713,#1510,#1512,.T.);
#1510 = VERTEX_POINT('',#1511);
#1511 = CARTESIAN_POINT('',(-0.6,-5.3,34.95));
#1512 = LINE('',#1513,#1514);
#1513 = CARTESIAN_POINT('',(-0.6,-4.,34.2));
#1514 = VECTOR('',#1515,1.);
#1515 = DIRECTION('',(0.,-0.866185586049,0.49972245349));
#1516 = ORIENTED_EDGE('',*,*,#1517,.T.);
#1517 = EDGE_CURVE('',#1510,#721,#1518,.T.);
#1518 = LINE('',#1519,#1520);
#1519 = CARTESIAN_POINT('',(-0.6,-5.3,34.95));
#1520 = VECTOR('',#1521,1.);
#1521 = DIRECTION('',(0.,1.,0.));
#1522 = ORIENTED_EDGE('',*,*,#720,.T.);
#1523 = PLANE('',#1524);
#1524 = AXIS2_PLACEMENT_3D('',#1525,#1526,#1527);
#1525 = CARTESIAN_POINT('',(-0.6,-4.,34.74905535505));
#1526 = DIRECTION('',(-1.,-0.,-0.));
#1527 = DIRECTION('',(0.,0.,-1.));
#1528 = ADVANCED_FACE('',(#1529),#1547,.F.);
#1529 = FACE_BOUND('',#1530,.F.);
#1530 = EDGE_LOOP('',(#1531,#1532,#1533,#1541));
#1531 = ORIENTED_EDGE('',*,*,#1509,.F.);
#1532 = ORIENTED_EDGE('',*,*,#712,.T.);
#1533 = ORIENTED_EDGE('',*,*,#1534,.T.);
#1534 = EDGE_CURVE('',#704,#1535,#1537,.T.);
#1535 = VERTEX_POINT('',#1536);
#1536 = CARTESIAN_POINT('',(0.6,-5.3,34.95));
#1537 = LINE('',#1538,#1539);
#1538 = CARTESIAN_POINT('',(0.6,-4.,34.2));
#1539 = VECTOR('',#1540,1.);
#1540 = DIRECTION('',(0.,-0.866185586049,0.49972245349));
#1541 = ORIENTED_EDGE('',*,*,#1542,.F.);
#1542 = EDGE_CURVE('',#1510,#1535,#1543,.T.);
#1543 = LINE('',#1544,#1545);
#1544 = CARTESIAN_POINT('',(-0.6,-5.3,34.95));
#1545 = VECTOR('',#1546,1.);
#1546 = DIRECTION('',(1.,0.,0.));
#1547 = PLANE('',#1548);
#1548 = AXIS2_PLACEMENT_3D('',#1549,#1550,#1551);
#1549 = CARTESIAN_POINT('',(-0.6,-4.,34.2));
#1550 = DIRECTION('',(0.,-0.49972245349,-0.866185586049));
#1551 = DIRECTION('',(0.,-0.866185586049,0.49972245349));
#1552 = ADVANCED_FACE('',(#1553),#1563,.T.);
#1553 = FACE_BOUND('',#1554,.T.);
#1554 = EDGE_LOOP('',(#1555,#1556,#1562));
#1555 = ORIENTED_EDGE('',*,*,#1534,.T.);
#1556 = ORIENTED_EDGE('',*,*,#1557,.T.);
#1557 = EDGE_CURVE('',#1535,#679,#1558,.T.);
#1558 = LINE('',#1559,#1560);
#1559 = CARTESIAN_POINT('',(0.6,-5.3,34.95));
#1560 = VECTOR('',#1561,1.);
#1561 = DIRECTION('',(0.,1.,0.));
#1562 = ORIENTED_EDGE('',*,*,#703,.T.);
#1563 = PLANE('',#1564);
#1564 = AXIS2_PLACEMENT_3D('',#1565,#1566,#1567);
#1565 = CARTESIAN_POINT('',(0.6,-4.,34.74905535505));
#1566 = DIRECTION('',(-1.,-0.,-0.));
#1567 = DIRECTION('',(0.,0.,-1.));
#1568 = ADVANCED_FACE('',(#1569),#1579,.F.);
#1569 = FACE_BOUND('',#1570,.F.);
#1570 = EDGE_LOOP('',(#1571,#1578));
#1571 = ORIENTED_EDGE('',*,*,#1572,.T.);
#1572 = EDGE_CURVE('',#755,#757,#1573,.T.);
#1573 = CIRCLE('',#1574,2.2);
#1574 = AXIS2_PLACEMENT_3D('',#1575,#1576,#1577);
#1575 = CARTESIAN_POINT('',(-6.,-4.,34.));
#1576 = DIRECTION('',(0.,0.,1.));
#1577 = DIRECTION('',(1.,0.,-0.));
#1578 = ORIENTED_EDGE('',*,*,#754,.F.);
#1579 = PLANE('',#1580);
#1580 = AXIS2_PLACEMENT_3D('',#1581,#1582,#1583);
#1581 = CARTESIAN_POINT('',(-6.,-4.,34.));
#1582 = DIRECTION('',(0.,0.,1.));
#1583 = DIRECTION('',(1.,0.,-0.));
#1584 = ADVANCED_FACE('',(#1585),#1613,.F.);
#1585 = FACE_BOUND('',#1586,.F.);
#1586 = EDGE_LOOP('',(#1587,#1595,#1596,#1597,#1598,#1605,#1606));
#1587 = ORIENTED_EDGE('',*,*,#1588,.T.);
#1588 = EDGE_CURVE('',#1589,#765,#1591,.T.);
#1589 = VERTEX_POINT('',#1590);
#1590 = CARTESIAN_POINT('',(-3.8,-4.,4.));
#1591 = LINE('',#1592,#1593);
#1592 = CARTESIAN_POINT('',(-3.8,-4.,4.));
#1593 = VECTOR('',#1594,1.);
#1594 = DIRECTION('',(0.,0.,1.));
#1595 = ORIENTED_EDGE('',*,*,#764,.F.);
#1596 = ORIENTED_EDGE('',*,*,#1572,.F.);
#1597 = ORIENTED_EDGE('',*,*,#841,.T.);
#1598 = ORIENTED_EDGE('',*,*,#1599,.F.);
#1599 = EDGE_CURVE('',#1304,#834,#1600,.T.);
#1600 = CIRCLE('',#1601,2.2);
#1601 = AXIS2_PLACEMENT_3D('',#1602,#1603,#1604);
#1602 = CARTESIAN_POINT('',(-6.,-4.,34.));
#1603 = DIRECTION('',(0.,0.,1.));
#1604 = DIRECTION('',(1.,0.,-0.));
#1605 = ORIENTED_EDGE('',*,*,#1346,.F.);
#1606 = ORIENTED_EDGE('',*,*,#1607,.T.);
#1607 = EDGE_CURVE('',#1338,#1589,#1608,.T.);
#1608 = CIRCLE('',#1609,2.2);
#1609 = AXIS2_PLACEMENT_3D('',#1610,#1611,#1612);
#1610 = CARTESIAN_POINT('',(-6.,-4.,4.));
#1611 = DIRECTION('',(0.,0.,1.));
#1612 = DIRECTION('',(1.,0.,-0.));
#1613 = CYLINDRICAL_SURFACE('',#1614,2.2);
#1614 = AXIS2_PLACEMENT_3D('',#1615,#1616,#1617);
#1615 = CARTESIAN_POINT('',(-6.,-4.,4.));
#1616 = DIRECTION('',(0.,0.,1.));
#1617 = DIRECTION('',(1.,0.,-0.));
#1618 = ADVANCED_FACE('',(#1619),#1637,.F.);
#1619 = FACE_BOUND('',#1620,.F.);
#1620 = EDGE_LOOP('',(#1621,#1622,#1623,#1630));
#1621 = ORIENTED_EDGE('',*,*,#1599,.T.);
#1622 = ORIENTED_EDGE('',*,*,#833,.T.);
#1623 = ORIENTED_EDGE('',*,*,#1624,.T.);
#1624 = EDGE_CURVE('',#797,#1313,#1625,.T.);
#1625 = CIRCLE('',#1626,2.2);
#1626 = AXIS2_PLACEMENT_3D('',#1627,#1628,#1629);
#1627 = CARTESIAN_POINT('',(-6.,-4.,34.));
#1628 = DIRECTION('',(0.,0.,1.));
#1629 = DIRECTION('',(1.,0.,-0.));
#1630 = ORIENTED_EDGE('',*,*,#1631,.F.);
#1631 = EDGE_CURVE('',#1304,#1313,#1632,.T.);
#1632 = CIRCLE('',#1633,2.2);
#1633 = AXIS2_PLACEMENT_3D('',#1634,#1635,#1636);
#1634 = CARTESIAN_POINT('',(-6.,0.,34.));
#1635 = DIRECTION('',(0.,0.,1.));
#1636 = DIRECTION('',(1.,0.,-0.));
#1637 = PLANE('',#1638);
#1638 = AXIS2_PLACEMENT_3D('',#1639,#1640,#1641);
#1639 = CARTESIAN_POINT('',(-6.,-4.,34.));
#1640 = DIRECTION('',(0.,0.,1.));
#1641 = DIRECTION('',(1.,0.,-0.));
#1642 = ADVANCED_FACE('',(#1643),#1656,.F.);
#1643 = FACE_BOUND('',#1644,.F.);
#1644 = EDGE_LOOP('',(#1645,#1646,#1647,#1648,#1655));
#1645 = ORIENTED_EDGE('',*,*,#1624,.F.);
#1646 = ORIENTED_EDGE('',*,*,#796,.F.);
#1647 = ORIENTED_EDGE('',*,*,#1588,.F.);
#1648 = ORIENTED_EDGE('',*,*,#1649,.T.);
#1649 = EDGE_CURVE('',#1589,#1422,#1650,.T.);
#1650 = CIRCLE('',#1651,2.2);
#1651 = AXIS2_PLACEMENT_3D('',#1652,#1653,#1654);
#1652 = CARTESIAN_POINT('',(-6.,-4.,4.));
#1653 = DIRECTION('',(0.,0.,1.));
#1654 = DIRECTION('',(1.,0.,-0.));
#1655 = ORIENTED_EDGE('',*,*,#1421,.T.);
#1656 = CYLINDRICAL_SURFACE('',#1657,2.2);
#1657 = AXIS2_PLACEMENT_3D('',#1658,#1659,#1660);
#1658 = CARTESIAN_POINT('',(-6.,-4.,4.));
#1659 = DIRECTION('',(0.,0.,1.));
#1660 = DIRECTION('',(1.,0.,-0.));
#1661 = ADVANCED_FACE('',(#1662),#1673,.F.);
#1662 = FACE_BOUND('',#1663,.F.);
#1663 = EDGE_LOOP('',(#1664,#1665,#1671,#1672));
#1664 = ORIENTED_EDGE('',*,*,#988,.F.);
#1665 = ORIENTED_EDGE('',*,*,#1666,.T.);
#1666 = EDGE_CURVE('',#235,#193,#1667,.T.);
#1667 = LINE('',#1668,#1669);
#1668 = CARTESIAN_POINT('',(-22.,4.,34.95));
#1669 = VECTOR('',#1670,1.);
#1670 = DIRECTION('',(1.,0.,0.));
#1671 = ORIENTED_EDGE('',*,*,#941,.T.);
#1672 = ORIENTED_EDGE('',*,*,#971,.F.);
#1673 = PLANE('',#1674);
#1674 = AXIS2_PLACEMENT_3D('',#1675,#1676,#1677);
#1675 = CARTESIAN_POINT('',(-0.6,2.7,34.95));
#1676 = DIRECTION('',(0.,0.,1.));
#1677 = DIRECTION('',(0.,1.,0.));
#1678 = ADVANCED_FACE('',(#1679),#1685,.F.);
#1679 = FACE_BOUND('',#1680,.F.);
#1680 = EDGE_LOOP('',(#1681,#1682,#1683,#1684));
#1681 = ORIENTED_EDGE('',*,*,#1011,.F.);
#1682 = ORIENTED_EDGE('',*,*,#1036,.T.);
#1683 = ORIENTED_EDGE('',*,*,#1051,.T.);
#1684 = ORIENTED_EDGE('',*,*,#1666,.F.);
#1685 = PLANE('',#1686);
#1686 = AXIS2_PLACEMENT_3D('',#1687,#1688,#1689);
#1687 = CARTESIAN_POINT('',(-0.6,2.7,34.95));
#1688 = DIRECTION('',(0.,0.,1.));
#1689 = DIRECTION('',(0.,1.,0.));
#1690 = ADVANCED_FACE('',(#1691),#1695,.F.);
#1691 = FACE_BOUND('',#1692,.F.);
#1692 = EDGE_LOOP('',(#1693,#1694));
#1693 = ORIENTED_EDGE('',*,*,#1378,.T.);
#1694 = ORIENTED_EDGE('',*,*,#1075,.T.);
#1695 = PLANE('',#1696);
#1696 = AXIS2_PLACEMENT_3D('',#1697,#1698,#1699);
#1697 = CARTESIAN_POINT('',(-6.,0.,34.));
#1698 = DIRECTION('',(0.,0.,1.));
#1699 = DIRECTION('',(1.,0.,-0.));
#1700 = ADVANCED_FACE('',(#1701),#1712,.T.);
#1701 = FACE_BOUND('',#1702,.T.);
#1702 = EDGE_LOOP('',(#1703,#1704,#1705));
#1703 = ORIENTED_EDGE('',*,*,#1160,.T.);
#1704 = ORIENTED_EDGE('',*,*,#1126,.T.);
#1705 = ORIENTED_EDGE('',*,*,#1706,.F.);
#1706 = EDGE_CURVE('',#1153,#1101,#1707,.T.);
#1707 = CIRCLE('',#1708,2.2);
#1708 = AXIS2_PLACEMENT_3D('',#1709,#1710,#1711);
#1709 = CARTESIAN_POINT('',(-6.,0.,4.));
#1710 = DIRECTION('',(0.,0.,1.));
#1711 = DIRECTION('',(1.,0.,-0.));
#1712 = PLANE('',#1713);
#1713 = AXIS2_PLACEMENT_3D('',#1714,#1715,#1716);
#1714 = CARTESIAN_POINT('',(-6.,4.,4.));
#1715 = DIRECTION('',(0.,0.,1.));
#1716 = DIRECTION('',(1.,0.,-0.));
#1717 = ADVANCED_FACE('',(#1718),#1729,.F.);
#1718 = FACE_BOUND('',#1719,.F.);
#1719 = EDGE_LOOP('',(#1720,#1721,#1727,#1728));
#1720 = ORIENTED_EDGE('',*,*,#1225,.F.);
#1721 = ORIENTED_EDGE('',*,*,#1722,.T.);
#1722 = EDGE_CURVE('',#478,#436,#1723,.T.);
#1723 = LINE('',#1724,#1725);
#1724 = CARTESIAN_POINT('',(-22.,2.32682891838E-16,34.95));
#1725 = VECTOR('',#1726,1.);
#1726 = DIRECTION('',(1.,0.,0.));
#1727 = ORIENTED_EDGE('',*,*,#1178,.T.);
#1728 = ORIENTED_EDGE('',*,*,#1208,.F.);
#1729 = PLANE('',#1730);
#1730 = AXIS2_PLACEMENT_3D('',#1731,#1732,#1733);
#1731 = CARTESIAN_POINT('',(-0.6,-1.3,34.95));
#1732 = DIRECTION('',(0.,0.,1.));
#1733 = DIRECTION('',(0.,1.,0.));
#1734 = ADVANCED_FACE('',(#1735),#1741,.F.);
#1735 = FACE_BOUND('',#1736,.F.);
#1736 = EDGE_LOOP('',(#1737,#1738,#1739,#1740));
#1737 = ORIENTED_EDGE('',*,*,#1248,.F.);
#1738 = ORIENTED_EDGE('',*,*,#1273,.T.);
#1739 = ORIENTED_EDGE('',*,*,#1288,.T.);
#1740 = ORIENTED_EDGE('',*,*,#1722,.F.);
#1741 = PLANE('',#1742);
#1742 = AXIS2_PLACEMENT_3D('',#1743,#1744,#1745);
#1743 = CARTESIAN_POINT('',(-0.6,-1.3,34.95));
#1744 = DIRECTION('',(0.,0.,1.));
#1745 = DIRECTION('',(0.,1.,0.));
#1746 = ADVANCED_FACE('',(#1747),#1751,.F.);
#1747 = FACE_BOUND('',#1748,.F.);
#1748 = EDGE_LOOP('',(#1749,#1750));
#1749 = ORIENTED_EDGE('',*,*,#1312,.T.);
#1750 = ORIENTED_EDGE('',*,*,#1631,.T.);
#1751 = PLANE('',#1752);
#1752 = AXIS2_PLACEMENT_3D('',#1753,#1754,#1755);
#1753 = CARTESIAN_POINT('',(-6.,-4.,34.));
#1754 = DIRECTION('',(0.,0.,1.));
#1755 = DIRECTION('',(1.,0.,-0.));
#1756 = ADVANCED_FACE('',(#1757),#1776,.T.);
#1757 = FACE_BOUND('',#1758,.T.);
#1758 = EDGE_LOOP('',(#1759,#1766,#1767,#1768,#1775));
#1759 = ORIENTED_EDGE('',*,*,#1760,.F.);
#1760 = EDGE_CURVE('',#1422,#1338,#1761,.T.);
#1761 = CIRCLE('',#1762,2.2);
#1762 = AXIS2_PLACEMENT_3D('',#1763,#1764,#1765);
#1763 = CARTESIAN_POINT('',(-6.,-4.,4.));
#1764 = DIRECTION('',(0.,0.,1.));
#1765 = DIRECTION('',(1.,0.,-0.));
#1766 = ORIENTED_EDGE('',*,*,#1429,.T.);
#1767 = ORIENTED_EDGE('',*,*,#1394,.T.);
#1768 = ORIENTED_EDGE('',*,*,#1769,.F.);
#1769 = EDGE_CURVE('',#1101,#1153,#1770,.T.);
#1770 = CIRCLE('',#1771,2.2);
#1771 = AXIS2_PLACEMENT_3D('',#1772,#1773,#1774);
#1772 = CARTESIAN_POINT('',(-6.,4.,4.));
#1773 = DIRECTION('',(0.,0.,1.));
#1774 = DIRECTION('',(1.,0.,-0.));
#1775 = ORIENTED_EDGE('',*,*,#1337,.T.);
#1776 = PLANE('',#1777);
#1777 = AXIS2_PLACEMENT_3D('',#1778,#1779,#1780);
#1778 = CARTESIAN_POINT('',(-6.,0.,4.));
#1779 = DIRECTION('',(0.,0.,1.));
#1780 = DIRECTION('',(1.,0.,-0.));
#1781 = ADVANCED_FACE('',(#1782),#1793,.F.);
#1782 = FACE_BOUND('',#1783,.F.);
#1783 = EDGE_LOOP('',(#1784,#1785,#1791,#1792));
#1784 = ORIENTED_EDGE('',*,*,#1494,.F.);
#1785 = ORIENTED_EDGE('',*,*,#1786,.T.);
#1786 = EDGE_CURVE('',#721,#679,#1787,.T.);
#1787 = LINE('',#1788,#1789);
#1788 = CARTESIAN_POINT('',(-22.,-4.,34.95));
#1789 = VECTOR('',#1790,1.);
#1790 = DIRECTION('',(1.,0.,0.));
#1791 = ORIENTED_EDGE('',*,*,#1447,.T.);
#1792 = ORIENTED_EDGE('',*,*,#1477,.F.);
#1793 = PLANE('',#1794);
#1794 = AXIS2_PLACEMENT_3D('',#1795,#1796,#1797);
#1795 = CARTESIAN_POINT('',(-0.6,-5.3,34.95));
#1796 = DIRECTION('',(0.,0.,1.));
#1797 = DIRECTION('',(0.,1.,0.));
#1798 = ADVANCED_FACE('',(#1799),#1805,.F.);
#1799 = FACE_BOUND('',#1800,.F.);
#1800 = EDGE_LOOP('',(#1801,#1802,#1803,#1804));
#1801 = ORIENTED_EDGE('',*,*,#1517,.F.);
#1802 = ORIENTED_EDGE('',*,*,#1542,.T.);
#1803 = ORIENTED_EDGE('',*,*,#1557,.T.);
#1804 = ORIENTED_EDGE('',*,*,#1786,.F.);
#1805 = PLANE('',#1806);
#1806 = AXIS2_PLACEMENT_3D('',#1807,#1808,#1809);
#1807 = CARTESIAN_POINT('',(-0.6,-5.3,34.95));
#1808 = DIRECTION('',(0.,0.,1.));
#1809 = DIRECTION('',(0.,1.,0.));
#1810 = ADVANCED_FACE('',(#1811),#1822,.T.);
#1811 = FACE_BOUND('',#1812,.T.);
#1812 = EDGE_LOOP('',(#1813,#1814,#1815));
#1813 = ORIENTED_EDGE('',*,*,#1607,.T.);
#1814 = ORIENTED_EDGE('',*,*,#1649,.T.);
#1815 = ORIENTED_EDGE('',*,*,#1816,.F.);
#1816 = EDGE_CURVE('',#1338,#1422,#1817,.T.);
#1817 = CIRCLE('',#1818,2.2);
#1818 = AXIS2_PLACEMENT_3D('',#1819,#1820,#1821);
#1819 = CARTESIAN_POINT('',(-6.,0.,4.));
#1820 = DIRECTION('',(0.,0.,1.));
#1821 = DIRECTION('',(1.,0.,-0.));
#1822 = PLANE('',#1823);
#1823 = AXIS2_PLACEMENT_3D('',#1824,#1825,#1826);
#1824 = CARTESIAN_POINT('',(-6.,-4.,4.));
#1825 = DIRECTION('',(0.,0.,1.));
#1826 = DIRECTION('',(1.,0.,-0.));
#1827 = ADVANCED_FACE('',(#1828),#1832,.T.);
#1828 = FACE_BOUND('',#1829,.T.);
#1829 = EDGE_LOOP('',(#1830,#1831));
#1830 = ORIENTED_EDGE('',*,*,#1769,.T.);
#1831 = ORIENTED_EDGE('',*,*,#1706,.T.);
#1832 = PLANE('',#1833);
#1833 = AXIS2_PLACEMENT_3D('',#1834,#1835,#1836);
#1834 = CARTESIAN_POINT('',(-6.,0.,4.));
#1835 = DIRECTION('',(0.,0.,1.));
#1836 = DIRECTION('',(1.,0.,-0.));
#1837 = ADVANCED_FACE('',(#1838),#1842,.T.);
#1838 = FACE_BOUND('',#1839,.T.);
#1839 = EDGE_LOOP('',(#1840,#1841));
#1840 = ORIENTED_EDGE('',*,*,#1816,.T.);
#1841 = ORIENTED_EDGE('',*,*,#1760,.T.);
#1842 = PLANE('',#1843);
#1843 = AXIS2_PLACEMENT_3D('',#1844,#1845,#1846);
#1844 = CARTESIAN_POINT('',(-6.,-4.,4.));
#1845 = DIRECTION('',(0.,0.,1.));
#1846 = DIRECTION('',(1.,0.,-0.));
#1847 = MANIFOLD_SOLID_BREP('',#1848);
#1848 = CLOSED_SHELL('',(#1849,#1889,#1920,#1944,#1968,#1985));
#1849 = ADVANCED_FACE('',(#1850),#1884,.F.);
#1850 = FACE_BOUND('',#1851,.F.);
#1851 = EDGE_LOOP('',(#1852,#1862,#1870,#1878));
#1852 = ORIENTED_EDGE('',*,*,#1853,.F.);
#1853 = EDGE_CURVE('',#1854,#1856,#1858,.T.);
#1854 = VERTEX_POINT('',#1855);
#1855 = CARTESIAN_POINT('',(-20.,-8.,37.8));
#1856 = VERTEX_POINT('',#1857);
#1857 = CARTESIAN_POINT('',(-20.,-8.,52.));
#1858 = LINE('',#1859,#1860);
#1859 = CARTESIAN_POINT('',(-20.,-8.,0.));
#1860 = VECTOR('',#1861,1.);
#1861 = DIRECTION('',(0.,0.,1.));
#1862 = ORIENTED_EDGE('',*,*,#1863,.F.);
#1863 = EDGE_CURVE('',#1864,#1854,#1866,.T.);
#1864 = VERTEX_POINT('',#1865);
#1865 = CARTESIAN_POINT('',(-20.,8.,37.8));
#1866 = LINE('',#1867,#1868);
#1867 = CARTESIAN_POINT('',(-20.,-9.,37.8));
#1868 = VECTOR('',#1869,1.);
#1869 = DIRECTION('',(0.,-1.,0.));
#1870 = ORIENTED_EDGE('',*,*,#1871,.T.);
#1871 = EDGE_CURVE('',#1864,#1872,#1874,.T.);
#1872 = VERTEX_POINT('',#1873);
#1873 = CARTESIAN_POINT('',(-20.,8.,52.));
#1874 = LINE('',#1875,#1876);
#1875 = CARTESIAN_POINT('',(-20.,8.,0.));
#1876 = VECTOR('',#1877,1.);
#1877 = DIRECTION('',(0.,0.,1.));
#1878 = ORIENTED_EDGE('',*,*,#1879,.F.);
#1879 = EDGE_CURVE('',#1856,#1872,#1880,.T.);
#1880 = LINE('',#1881,#1882);
#1881 = CARTESIAN_POINT('',(-20.,-8.,52.));
#1882 = VECTOR('',#1883,1.);
#1883 = DIRECTION('',(-0.,1.,0.));
#1884 = PLANE('',#1885);
#1885 = AXIS2_PLACEMENT_3D('',#1886,#1887,#1888);
#1886 = CARTESIAN_POINT('',(-20.,-8.,0.));
#1887 = DIRECTION('',(1.,0.,-0.));
#1888 = DIRECTION('',(0.,0.,1.));
#1889 = ADVANCED_FACE('',(#1890),#1915,.F.);
#1890 = FACE_BOUND('',#1891,.F.);
#1891 = EDGE_LOOP('',(#1892,#1902,#1908,#1909));
#1892 = ORIENTED_EDGE('',*,*,#1893,.F.);
#1893 = EDGE_CURVE('',#1894,#1896,#1898,.T.);
#1894 = VERTEX_POINT('',#1895);
#1895 = CARTESIAN_POINT('',(20.,-8.,37.8));
#1896 = VERTEX_POINT('',#1897);
#1897 = CARTESIAN_POINT('',(20.,-8.,52.));
#1898 = LINE('',#1899,#1900);
#1899 = CARTESIAN_POINT('',(20.,-8.,0.));
#1900 = VECTOR('',#1901,1.);
#1901 = DIRECTION('',(0.,0.,1.));
#1902 = ORIENTED_EDGE('',*,*,#1903,.F.);
#1903 = EDGE_CURVE('',#1854,#1894,#1904,.T.);
#1904 = LINE('',#1905,#1906);
#1905 = CARTESIAN_POINT('',(-21.,-8.,37.8));
#1906 = VECTOR('',#1907,1.);
#1907 = DIRECTION('',(1.,0.,-0.));
#1908 = ORIENTED_EDGE('',*,*,#1853,.T.);
#1909 = ORIENTED_EDGE('',*,*,#1910,.T.);
#1910 = EDGE_CURVE('',#1856,#1896,#1911,.T.);
#1911 = LINE('',#1912,#1913);
#1912 = CARTESIAN_POINT('',(-20.,-8.,52.));
#1913 = VECTOR('',#1914,1.);
#1914 = DIRECTION('',(1.,0.,-0.));
#1915 = PLANE('',#1916);
#1916 = AXIS2_PLACEMENT_3D('',#1917,#1918,#1919);
#1917 = CARTESIAN_POINT('',(-20.,-8.,0.));
#1918 = DIRECTION('',(-0.,1.,0.));
#1919 = DIRECTION('',(0.,0.,1.));
#1920 = ADVANCED_FACE('',(#1921),#1939,.T.);
#1921 = FACE_BOUND('',#1922,.T.);
#1922 = EDGE_LOOP('',(#1923,#1924,#1925,#1933));
#1923 = ORIENTED_EDGE('',*,*,#1879,.F.);
#1924 = ORIENTED_EDGE('',*,*,#1910,.T.);
#1925 = ORIENTED_EDGE('',*,*,#1926,.T.);
#1926 = EDGE_CURVE('',#1896,#1927,#1929,.T.);
#1927 = VERTEX_POINT('',#1928);
#1928 = CARTESIAN_POINT('',(20.,8.,52.));
#1929 = LINE('',#1930,#1931);
#1930 = CARTESIAN_POINT('',(20.,-8.,52.));
#1931 = VECTOR('',#1932,1.);
#1932 = DIRECTION('',(-0.,1.,0.));
#1933 = ORIENTED_EDGE('',*,*,#1934,.F.);
#1934 = EDGE_CURVE('',#1872,#1927,#1935,.T.);
#1935 = LINE('',#1936,#1937);
#1936 = CARTESIAN_POINT('',(-20.,8.,52.));
#1937 = VECTOR('',#1938,1.);
#1938 = DIRECTION('',(1.,0.,-0.));
#1939 = PLANE('',#1940);
#1940 = AXIS2_PLACEMENT_3D('',#1941,#1942,#1943);
#1941 = CARTESIAN_POINT('',(-20.,-8.,52.));
#1942 = DIRECTION('',(0.,0.,1.));
#1943 = DIRECTION('',(1.,0.,-0.));
#1944 = ADVANCED_FACE('',(#1945),#1963,.T.);
#1945 = FACE_BOUND('',#1946,.T.);
#1946 = EDGE_LOOP('',(#1947,#1955,#1961,#1962));
#1947 = ORIENTED_EDGE('',*,*,#1948,.F.);
#1948 = EDGE_CURVE('',#1949,#1927,#1951,.T.);
#1949 = VERTEX_POINT('',#1950);
#1950 = CARTESIAN_POINT('',(20.,8.,37.8));
#1951 = LINE('',#1952,#1953);
#1952 = CARTESIAN_POINT('',(20.,8.,0.));
#1953 = VECTOR('',#1954,1.);
#1954 = DIRECTION('',(0.,0.,1.));
#1955 = ORIENTED_EDGE('',*,*,#1956,.F.);
#1956 = EDGE_CURVE('',#1864,#1949,#1957,.T.);
#1957 = LINE('',#1958,#1959);
#1958 = CARTESIAN_POINT('',(-21.,8.,37.8));
#1959 = VECTOR('',#1960,1.);
#1960 = DIRECTION('',(1.,0.,-0.));
#1961 = ORIENTED_EDGE('',*,*,#1871,.T.);
#1962 = ORIENTED_EDGE('',*,*,#1934,.T.);
#1963 = PLANE('',#1964);
#1964 = AXIS2_PLACEMENT_3D('',#1965,#1966,#1967);
#1965 = CARTESIAN_POINT('',(-20.,8.,0.));
#1966 = DIRECTION('',(-0.,1.,0.));
#1967 = DIRECTION('',(0.,0.,1.));
#1968 = ADVANCED_FACE('',(#1969),#1980,.F.);
#1969 = FACE_BOUND('',#1970,.F.);
#1970 = EDGE_LOOP('',(#1971,#1972,#1973,#1974));
#1971 = ORIENTED_EDGE('',*,*,#1956,.F.);
#1972 = ORIENTED_EDGE('',*,*,#1863,.T.);
#1973 = ORIENTED_EDGE('',*,*,#1903,.T.);
#1974 = ORIENTED_EDGE('',*,*,#1975,.F.);
#1975 = EDGE_CURVE('',#1949,#1894,#1976,.T.);
#1976 = LINE('',#1977,#1978);
#1977 = CARTESIAN_POINT('',(20.,-9.,37.8));
#1978 = VECTOR('',#1979,1.);
#1979 = DIRECTION('',(0.,-1.,0.));
#1980 = PLANE('',#1981);
#1981 = AXIS2_PLACEMENT_3D('',#1982,#1983,#1984);
#1982 = CARTESIAN_POINT('',(-22.,-10.,37.8));
#1983 = DIRECTION('',(0.,0.,1.));
#1984 = DIRECTION('',(1.,0.,-0.));
#1985 = ADVANCED_FACE('',(#1986),#1992,.T.);
#1986 = FACE_BOUND('',#1987,.T.);
#1987 = EDGE_LOOP('',(#1988,#1989,#1990,#1991));
#1988 = ORIENTED_EDGE('',*,*,#1893,.F.);
#1989 = ORIENTED_EDGE('',*,*,#1975,.F.);
#1990 = ORIENTED_EDGE('',*,*,#1948,.T.);
#1991 = ORIENTED_EDGE('',*,*,#1926,.F.);
#1992 = PLANE('',#1993);
#1993 = AXIS2_PLACEMENT_3D('',#1994,#1995,#1996);
#1994 = CARTESIAN_POINT('',(20.,-8.,0.));
#1995 = DIRECTION('',(1.,0.,-0.));
#1996 = DIRECTION('',(0.,0.,1.));
#1997 = ( GEOMETRIC_REPRESENTATION_CONTEXT(3) 
GLOBAL_UNCERTAINTY_ASSIGNED_CONTEXT((#2001)) 
GLOBAL_UNIT_ASSIGNED_CONTEXT((#1998,#1999,#2000)) REPRESENTATION_CONTEXT
('Context #1','3D Context with UNIT and UNCERTAINTY') );
#1998 = ( LENGTH_UNIT() NAMED_UNIT(*) SI_UNIT(.MILLI.,.METRE.) );
#1999 = ( NAMED_UNIT(*) PLANE_ANGLE_UNIT() SI_UNIT($,.RADIAN.) );
#2000 = ( NAMED_UNIT(*) SI_UNIT($,.STERADIAN.) SOLID_ANGLE_UNIT() );
#2001 = UNCERTAINTY_MEASURE_WITH_UNIT(LENGTH_MEASURE(1.E-07),#1998,
  'distance_accuracy_value','confusion accuracy');
#2002 = PRODUCT_RELATED_PRODUCT_CATEGORY('part',$,(#7));
ENDSEC;
END-ISO-10303-21;
