ISO-10303-21;
HEADER;
FILE_DESCRIPTION(('FreeCAD Model'),'2;1');
FILE_NAME('Open CASCADE Shape Model','2026-07-27T14:10:44',('Author'),(
    ''),'Open CASCADE STEP processor 7.8','FreeCAD','Unknown');
FILE_SCHEMA(('AUTOMOTIVE_DESIGN { 1 0 10303 214 1 1 1 1 }'));
ENDSEC;
DATA;
#1 = APPLICATION_PROTOCOL_DEFINITION('international standard',
  'automotive_design',2000,#2);
#2 = APPLICATION_CONTEXT(
  'core data for automotive mechanical design processes');
#3 = SHAPE_DEFINITION_REPRESENTATION(#4,#10);
#4 = PRODUCT_DEFINITION_SHAPE('','',#5);
#5 = PRODUCT_DEFINITION('design','',#6,#9);
#6 = PRODUCT_DEFINITION_FORMATION('','',#7);
#7 = PRODUCT('wrist_mount','wrist_mount','',(#8));
#8 = PRODUCT_CONTEXT('',#2,'mechanical');
#9 = PRODUCT_DEFINITION_CONTEXT('part definition',#2,'design');
#10 = ADVANCED_BREP_SHAPE_REPRESENTATION('',(#11,#15),#900);
#11 = AXIS2_PLACEMENT_3D('',#12,#13,#14);
#12 = CARTESIAN_POINT('',(0.,0.,0.));
#13 = DIRECTION('',(0.,0.,1.));
#14 = DIRECTION('',(1.,0.,-0.));
#15 = MANIFOLD_SOLID_BREP('',#16);
#16 = CLOSED_SHELL('',(#17,#98,#257,#292,#352,#383,#465,#491,#522,#539,
    #561,#578,#616,#640,#665,#676,#693,#718,#743,#775,#807,#824,#841,
    #858,#870,#879,#888));
#17 = ADVANCED_FACE('',(#18),#93,.T.);
#18 = FACE_BOUND('',#19,.T.);
#19 = EDGE_LOOP('',(#20,#53,#61,#70,#78,#87));
#20 = ORIENTED_EDGE('',*,*,#21,.F.);
#21 = EDGE_CURVE('',#22,#24,#26,.T.);
#22 = VERTEX_POINT('',#23);
#23 = CARTESIAN_POINT('',(6.6,1.396097351028E-15,13.));
#24 = VERTEX_POINT('',#25);
#25 = CARTESIAN_POINT('',(3.4,3.184081677783E-15,13.));
#26 = B_SPLINE_CURVE_WITH_KNOTS('',7,(#27,#28,#29,#30,#31,#32,#33,#34,
    #35,#36,#37,#38,#39,#40,#41,#42,#43,#44,#45,#46,#47,#48,#49,#50,#51,
    #52),.UNSPECIFIED.,.F.,.F.,(8,6,6,6,8),(0.,0.25803281548,
    0.499907648462,0.742106761581,1.),.UNSPECIFIED.);
#27 = CARTESIAN_POINT('',(6.6,1.396097351028E-15,13.));
#28 = CARTESIAN_POINT('',(6.6,0.219283862646,13.));
#29 = CARTESIAN_POINT('',(6.564938033524,0.432934541479,12.995684539871)
  );
#30 = CARTESIAN_POINT('',(6.498054427627,0.634472225332,12.98745348095)
  );
#31 = CARTESIAN_POINT('',(6.403850520158,0.818483940765,12.976443692442)
  );
#32 = CARTESIAN_POINT('',(6.288033902668,0.980823149219,12.964239971753)
  );
#33 = CARTESIAN_POINT('',(6.157434850149,1.119024582676,12.952252744848)
  );
#34 = CARTESIAN_POINT('',(5.890935685706,1.339491865045,12.931250652411)
  );
#35 = CARTESIAN_POINT('',(5.752541749504,1.427479432953,12.921833704632)
  );
#36 = CARTESIAN_POINT('',(5.607527005346,1.497078428774,12.913782699376)
  );
#37 = CARTESIAN_POINT('',(5.458117019347,1.548745772889,12.907519300813)
  );
#38 = CARTESIAN_POINT('',(5.306102230517,1.582940006053,12.903278510594)
  );
#39 = CARTESIAN_POINT('',(5.152959982873,1.6,12.901162738296));
#40 = CARTESIAN_POINT('',(4.846834944596,1.6,12.901162738296));
#41 = CARTESIAN_POINT('',(4.693698987352,1.58289427341,12.903284179604)
  );
#42 = CARTESIAN_POINT('',(4.54183419174,1.548693173516,12.90752583443));
#43 = CARTESIAN_POINT('',(4.392616961173,1.497093416694,12.913780046415)
  );
#44 = CARTESIAN_POINT('',(4.247723420997,1.427607715303,12.92181792238)
  );
#45 = CARTESIAN_POINT('',(4.109285804322,1.339675097532,12.93123319737)
  );
#46 = CARTESIAN_POINT('',(3.842587790281,1.119043312469,12.952250960616)
  );
#47 = CARTESIAN_POINT('',(3.711979130397,0.980843885459,12.964238386317)
  );
#48 = CARTESIAN_POINT('',(3.596142846558,0.818487552829,12.976444024878)
  );
#49 = CARTESIAN_POINT('',(3.501926852724,0.634447145629,12.987455778587)
  );
#50 = CARTESIAN_POINT('',(3.435047270317,0.43288547739,12.995686351212)
  );
#51 = CARTESIAN_POINT('',(3.4,0.219237914486,13.));
#52 = CARTESIAN_POINT('',(3.4,1.885956070687E-15,13.));
#53 = ORIENTED_EDGE('',*,*,#54,.T.);
#54 = EDGE_CURVE('',#22,#55,#57,.T.);
#55 = VERTEX_POINT('',#56);
#56 = CARTESIAN_POINT('',(10.,3.184081677783E-15,13.));
#57 = LINE('',#58,#59);
#58 = CARTESIAN_POINT('',(0.,3.184081677783E-15,13.));
#59 = VECTOR('',#60,1.);
#60 = DIRECTION('',(1.,0.,0.));
#61 = ORIENTED_EDGE('',*,*,#62,.F.);
#62 = EDGE_CURVE('',#63,#55,#65,.T.);
#63 = VERTEX_POINT('',#64);
#64 = CARTESIAN_POINT('',(10.,5.,12.));
#65 = CIRCLE('',#66,13.);
#66 = AXIS2_PLACEMENT_3D('',#67,#68,#69);
#67 = CARTESIAN_POINT('',(10.,0.,0.));
#68 = DIRECTION('',(1.,0.,0.));
#69 = DIRECTION('',(-0.,0.,1.));
#70 = ORIENTED_EDGE('',*,*,#71,.F.);
#71 = EDGE_CURVE('',#72,#63,#74,.T.);
#72 = VERTEX_POINT('',#73);
#73 = CARTESIAN_POINT('',(0.,5.,12.));
#74 = LINE('',#75,#76);
#75 = CARTESIAN_POINT('',(0.,5.,12.));
#76 = VECTOR('',#77,1.);
#77 = DIRECTION('',(1.,0.,0.));
#78 = ORIENTED_EDGE('',*,*,#79,.T.);
#79 = EDGE_CURVE('',#72,#80,#82,.T.);
#80 = VERTEX_POINT('',#81);
#81 = CARTESIAN_POINT('',(0.,3.184081677783E-15,13.));
#82 = CIRCLE('',#83,13.);
#83 = AXIS2_PLACEMENT_3D('',#84,#85,#86);
#84 = CARTESIAN_POINT('',(0.,0.,0.));
#85 = DIRECTION('',(1.,0.,0.));
#86 = DIRECTION('',(-0.,0.,1.));
#87 = ORIENTED_EDGE('',*,*,#88,.T.);
#88 = EDGE_CURVE('',#80,#24,#89,.T.);
#89 = LINE('',#90,#91);
#90 = CARTESIAN_POINT('',(0.,3.184081677783E-15,13.));
#91 = VECTOR('',#92,1.);
#92 = DIRECTION('',(1.,0.,0.));
#93 = CYLINDRICAL_SURFACE('',#94,13.);
#94 = AXIS2_PLACEMENT_3D('',#95,#96,#97);
#95 = CARTESIAN_POINT('',(0.,0.,0.));
#96 = DIRECTION('',(1.,0.,0.));
#97 = DIRECTION('',(-0.,0.,1.));
#98 = ADVANCED_FACE('',(#99),#252,.F.);
#99 = FACE_BOUND('',#100,.F.);
#100 = EDGE_LOOP('',(#101,#102,#110,#167,#222,#223));
#101 = ORIENTED_EDGE('',*,*,#21,.F.);
#102 = ORIENTED_EDGE('',*,*,#103,.F.);
#103 = EDGE_CURVE('',#104,#22,#106,.T.);
#104 = VERTEX_POINT('',#105);
#105 = CARTESIAN_POINT('',(6.6,3.061616997868E-16,4.1));
#106 = LINE('',#107,#108);
#107 = CARTESIAN_POINT('',(6.6,-3.918869757272E-16,0.));
#108 = VECTOR('',#109,1.);
#109 = DIRECTION('',(0.,0.,1.));
#110 = ORIENTED_EDGE('',*,*,#111,.T.);
#111 = EDGE_CURVE('',#104,#112,#114,.T.);
#112 = VERTEX_POINT('',#113);
#113 = CARTESIAN_POINT('',(3.4,1.004210375301E-15,4.1));
#114 = B_SPLINE_CURVE_WITH_KNOTS('',6,(#115,#116,#117,#118,#119,#120,
    #121,#122,#123,#124,#125,#126,#127,#128,#129,#130,#131,#132,#133,
    #134,#135,#136,#137,#138,#139,#140,#141,#142,#143,#144,#145,#146,
    #147,#148,#149,#150,#151,#152,#153,#154,#155,#156,#157,#158,#159,
    #160,#161,#162,#163,#164,#165,#166),.UNSPECIFIED.,.F.,.F.,(7,5,5,5,5
    ,5,5,5,5,5,7),(0.,0.140712588703,0.20269734378,0.251526577202,
    0.426072449451,0.499989261943,0.572665942805,0.747977400005,
    0.795993110403,0.859370157232,1.),.UNSPECIFIED.);
#115 = CARTESIAN_POINT('',(6.6,3.061616997868E-16,4.1));
#116 = CARTESIAN_POINT('',(6.6,0.137462224951,4.1));
#117 = CARTESIAN_POINT('',(6.585828059933,0.273962377245,4.094469516746)
  );
#118 = CARTESIAN_POINT('',(6.557856420166,0.407062279469,4.083553632826)
  );
#119 = CARTESIAN_POINT('',(6.517185965287,0.534409145721,4.067993918924)
  );
#120 = CARTESIAN_POINT('',(6.465633747291,0.653915072342,4.04906673771)
  );
#121 = CARTESIAN_POINT('',(6.379486628262,0.81244118291,4.019001603917)
  );
#122 = CARTESIAN_POINT('',(6.351443971107,0.859263281072,4.009396336403)
  );
#123 = CARTESIAN_POINT('',(6.321831895456,0.904400860984,3.999470711297)
  );
#124 = CARTESIAN_POINT('',(6.29077367438,0.947831719143,3.989313383265)
  );
#125 = CARTESIAN_POINT('',(6.258386787374,0.989540317424,3.979009382159)
  );
#126 = CARTESIAN_POINT('',(6.198311826662,1.061009553477,3.960469319891)
  );
#127 = CARTESIAN_POINT('',(6.171080676995,1.091432673891,3.952257058793)
  );
#128 = CARTESIAN_POINT('',(6.143139318419,1.120787433886,3.944039749743)
  );
#129 = CARTESIAN_POINT('',(6.114533319219,1.149076169547,3.935852889307)
  );
#130 = CARTESIAN_POINT('',(6.085304391307,1.176302728108,3.927729776872)
  );
#131 = CARTESIAN_POINT('',(5.948916715761,1.296019299356,3.89100354138)
  );
#132 = CARTESIAN_POINT('',(5.83478770977,1.376130497829,3.863496043101)
  );
#133 = CARTESIAN_POINT('',(5.714888818646,1.442927895365,3.838624094684)
  );
#134 = CARTESIAN_POINT('',(5.590613796286,1.49659160614,3.81752689377));
#135 = CARTESIAN_POINT('',(5.463103251437,1.537247715798,3.80102138195)
  );
#136 = CARTESIAN_POINT('',(5.27842713008,1.576589286319,3.784775629276)
  );
#137 = CARTESIAN_POINT('',(5.223114635607,1.585952984507,3.780858114327)
  );
#138 = CARTESIAN_POINT('',(5.167522672107,1.592976179373,3.777894285873)
  );
#139 = CARTESIAN_POINT('',(5.111744075378,1.597658615751,3.775909678691)
  );
#140 = CARTESIAN_POINT('',(5.055872016133,1.6,3.774917217635));
#141 = CARTESIAN_POINT('',(4.945065370803,1.6,3.774917217635));
#142 = CARTESIAN_POINT('',(4.890130703816,1.597736529013,3.775876649063)
  );
#143 = CARTESIAN_POINT('',(4.8352848734,1.593209887758,3.777795226719));
#144 = CARTESIAN_POINT('',(4.78061644351,1.586420353644,3.78066086885));
#145 = CARTESIAN_POINT('',(4.726213667687,1.577368180764,3.784449697143)
  );
#146 = CARTESIAN_POINT('',(4.541786489522,1.538760448445,3.800406352476)
  );
#147 = CARTESIAN_POINT('',(4.413619789836,1.498334204163,3.816838441995)
  );
#148 = CARTESIAN_POINT('',(4.288687810651,1.444787774056,3.837921910955)
  );
#149 = CARTESIAN_POINT('',(4.16814433561,1.377994918848,3.862834273997)
  );
#150 = CARTESIAN_POINT('',(4.053398721984,1.297774365101,3.890424709868)
  );
#151 = CARTESIAN_POINT('',(3.916911973144,1.178321282311,3.927121184929)
  );
#152 = CARTESIAN_POINT('',(3.888131365765,1.151616963701,3.935103880498)
  );
#153 = CARTESIAN_POINT('',(3.8599509462,1.123885860803,3.943149950367));
#154 = CARTESIAN_POINT('',(3.832410215531,1.095124266114,3.95122782715)
  );
#155 = CARTESIAN_POINT('',(3.805552257467,1.065329840671,3.959303894513)
  );
#156 = CARTESIAN_POINT('',(3.744936101561,0.993810724639,3.977952811567)
  );
#157 = CARTESIAN_POINT('',(3.711711176629,0.951309375976,3.988500350812)
  );
#158 = CARTESIAN_POINT('',(3.679868096093,0.907007033665,3.99889985722)
  );
#159 = CARTESIAN_POINT('',(3.64953192426,0.860919783903,4.009060678517)
  );
#160 = CARTESIAN_POINT('',(3.620834126848,0.813070936158,4.018888162477)
  );
#161 = CARTESIAN_POINT('',(3.534176774797,0.653478127901,4.049136213642)
  );
#162 = CARTESIAN_POINT('',(3.482694879713,0.53403529298,4.068039577562)
  );
#163 = CARTESIAN_POINT('',(3.442084151781,0.406773518376,4.083576831008)
  );
#164 = CARTESIAN_POINT('',(3.414153253835,0.273771699356,4.094476807639)
  );
#165 = CARTESIAN_POINT('',(3.4,0.137371575165,4.1));
#166 = CARTESIAN_POINT('',(3.4,7.960204194458E-16,4.1));
#167 = ORIENTED_EDGE('',*,*,#168,.T.);
#168 = EDGE_CURVE('',#112,#104,#169,.T.);
#169 = B_SPLINE_CURVE_WITH_KNOTS('',6,(#170,#171,#172,#173,#174,#175,
    #176,#177,#178,#179,#180,#181,#182,#183,#184,#185,#186,#187,#188,
    #189,#190,#191,#192,#193,#194,#195,#196,#197,#198,#199,#200,#201,
    #202,#203,#204,#205,#206,#207,#208,#209,#210,#211,#212,#213,#214,
    #215,#216,#217,#218,#219,#220,#221),.UNSPECIFIED.,.F.,.F.,(7,5,5,5,5
    ,5,5,5,5,5,7),(0.,0.140712588701,0.202697343777,0.251526577199,
    0.426072449446,0.499989261937,0.572665942798,0.747977399996,
    0.795993110393,0.859370157224,1.),.UNSPECIFIED.);
#170 = CARTESIAN_POINT('',(3.4,2.22044604925E-16,4.1));
#171 = CARTESIAN_POINT('',(3.4,-0.137462224951,4.1));
#172 = CARTESIAN_POINT('',(3.414171940067,-0.273962377245,4.094469516746
    ));
#173 = CARTESIAN_POINT('',(3.442143579833,-0.407062279469,4.083553632826
    ));
#174 = CARTESIAN_POINT('',(3.482814034713,-0.534409145721,4.067993918924
    ));
#175 = CARTESIAN_POINT('',(3.534366252709,-0.653915072342,4.04906673771)
  );
#176 = CARTESIAN_POINT('',(3.620513371738,-0.81244118291,4.019001603917)
  );
#177 = CARTESIAN_POINT('',(3.648556028893,-0.859263281072,4.009396336403
    ));
#178 = CARTESIAN_POINT('',(3.678168104544,-0.904400860984,3.999470711297
    ));
#179 = CARTESIAN_POINT('',(3.70922632562,-0.947831719143,3.989313383265)
  );
#180 = CARTESIAN_POINT('',(3.741613212626,-0.989540317424,3.979009382159
    ));
#181 = CARTESIAN_POINT('',(3.801688173338,-1.061009553477,3.960469319891
    ));
#182 = CARTESIAN_POINT('',(3.828919323005,-1.091432673891,3.952257058793
    ));
#183 = CARTESIAN_POINT('',(3.856860681581,-1.120787433886,3.944039749743
    ));
#184 = CARTESIAN_POINT('',(3.885466680781,-1.149076169547,3.935852889307
    ));
#185 = CARTESIAN_POINT('',(3.914695608693,-1.176302728108,3.927729776872
    ));
#186 = CARTESIAN_POINT('',(4.051083284239,-1.296019299356,3.89100354138)
  );
#187 = CARTESIAN_POINT('',(4.165212290231,-1.376130497829,3.863496043101
    ));
#188 = CARTESIAN_POINT('',(4.285111181354,-1.442927895365,3.838624094684
    ));
#189 = CARTESIAN_POINT('',(4.409386203714,-1.49659160614,3.81752689377)
  );
#190 = CARTESIAN_POINT('',(4.536896748563,-1.537247715798,3.80102138195)
  );
#191 = CARTESIAN_POINT('',(4.72157286992,-1.576589286319,3.784775629276)
  );
#192 = CARTESIAN_POINT('',(4.776885364393,-1.585952984507,3.780858114327
    ));
#193 = CARTESIAN_POINT('',(4.832477327893,-1.592976179373,3.777894285873
    ));
#194 = CARTESIAN_POINT('',(4.888255924622,-1.597658615751,3.775909678691
    ));
#195 = CARTESIAN_POINT('',(4.944127983867,-1.6,3.774917217635));
#196 = CARTESIAN_POINT('',(5.054934629197,-1.6,3.774917217635));
#197 = CARTESIAN_POINT('',(5.109869296184,-1.597736529013,3.775876649063
    ));
#198 = CARTESIAN_POINT('',(5.1647151266,-1.593209887758,3.777795226719)
  );
#199 = CARTESIAN_POINT('',(5.21938355649,-1.586420353644,3.78066086885)
  );
#200 = CARTESIAN_POINT('',(5.273786332313,-1.577368180764,3.784449697143
    ));
#201 = CARTESIAN_POINT('',(5.458213510478,-1.538760448445,3.800406352476
    ));
#202 = CARTESIAN_POINT('',(5.586380210164,-1.498334204163,3.816838441995
    ));
#203 = CARTESIAN_POINT('',(5.711312189349,-1.444787774056,3.837921910955
    ));
#204 = CARTESIAN_POINT('',(5.83185566439,-1.377994918848,3.862834273997)
  );
#205 = CARTESIAN_POINT('',(5.946601278016,-1.297774365101,3.890424709868
    ));
#206 = CARTESIAN_POINT('',(6.083088026856,-1.178321282311,3.927121184929
    ));
#207 = CARTESIAN_POINT('',(6.111868634235,-1.151616963701,3.935103880498
    ));
#208 = CARTESIAN_POINT('',(6.1400490538,-1.123885860803,3.943149950367)
  );
#209 = CARTESIAN_POINT('',(6.167589784469,-1.095124266114,3.95122782715)
  );
#210 = CARTESIAN_POINT('',(6.194447742533,-1.065329840671,3.959303894513
    ));
#211 = CARTESIAN_POINT('',(6.25506389844,-0.993810724638,3.977952811568)
  );
#212 = CARTESIAN_POINT('',(6.288288823371,-0.951309375976,3.988500350812
    ));
#213 = CARTESIAN_POINT('',(6.320131903906,-0.907007033667,3.99889985722)
  );
#214 = CARTESIAN_POINT('',(6.35046807574,-0.860919783903,4.009060678517)
  );
#215 = CARTESIAN_POINT('',(6.379165873153,-0.813070936156,4.018888162477
    ));
#216 = CARTESIAN_POINT('',(6.465823225203,-0.653478127902,4.049136213642
    ));
#217 = CARTESIAN_POINT('',(6.517305120287,-0.53403529298,4.068039577562)
  );
#218 = CARTESIAN_POINT('',(6.557915848219,-0.406773518376,4.083576831008
    ));
#219 = CARTESIAN_POINT('',(6.585846746165,-0.273771699356,4.094476807639
    ));
#220 = CARTESIAN_POINT('',(6.6,-0.137371575165,4.1));
#221 = CARTESIAN_POINT('',(6.6,-2.22044604925E-16,4.1));
#222 = ORIENTED_EDGE('',*,*,#103,.T.);
#223 = ORIENTED_EDGE('',*,*,#224,.F.);
#224 = EDGE_CURVE('',#24,#22,#225,.T.);
#225 = B_SPLINE_CURVE_WITH_KNOTS('',7,(#226,#227,#228,#229,#230,#231,
    #232,#233,#234,#235,#236,#237,#238,#239,#240,#241,#242,#243,#244,
    #245,#246,#247,#248,#249,#250,#251),.UNSPECIFIED.,.F.,.F.,(8,6,6,6,8
    ),(0.,0.257818614275,0.500067971213,0.742216338119,1.),
  .UNSPECIFIED.);
#226 = CARTESIAN_POINT('',(3.4,2.22044604925E-16,13.));
#227 = CARTESIAN_POINT('',(3.4,-0.219283862646,13.));
#228 = CARTESIAN_POINT('',(3.435061966476,-0.432934541479,
    12.995684539871));
#229 = CARTESIAN_POINT('',(3.501945572373,-0.634472225332,12.98745348095
    ));
#230 = CARTESIAN_POINT('',(3.596149479842,-0.818483940765,
    12.976443692442));
#231 = CARTESIAN_POINT('',(3.711966097332,-0.980823149219,
    12.964239971753));
#232 = CARTESIAN_POINT('',(3.842565149851,-1.119024582676,
    12.952252744848));
#233 = CARTESIAN_POINT('',(4.109371266038,-1.339745797612,
    12.931226462358));
#234 = CARTESIAN_POINT('',(4.247811723062,-1.427645592569,12.92181293632
    ));
#235 = CARTESIAN_POINT('',(4.392644122289,-1.497086088744,
    12.913780688735));
#236 = CARTESIAN_POINT('',(4.541789100113,-1.548668736424,
    12.907528874237));
#237 = CARTESIAN_POINT('',(4.693616930574,-1.582880001043,
    12.903285947869));
#238 = CARTESIAN_POINT('',(4.84677106581,-1.6,12.901162738296));
#239 = CARTESIAN_POINT('',(5.153165055403,-1.6,12.901162738296));
#240 = CARTESIAN_POINT('',(5.306301012647,-1.58289427341,12.903284179604
    ));
#241 = CARTESIAN_POINT('',(5.45816580826,-1.548693173516,12.90752583443)
  );
#242 = CARTESIAN_POINT('',(5.607383038827,-1.497093416694,
    12.913780046415));
#243 = CARTESIAN_POINT('',(5.752276579004,-1.427607715303,12.92181792238
    ));
#244 = CARTESIAN_POINT('',(5.890714195679,-1.339675097531,12.93123319737
    ));
#245 = CARTESIAN_POINT('',(6.157382583074,-1.119067821762,
    12.952248625819));
#246 = CARTESIAN_POINT('',(6.288011051118,-0.980865004901,
    12.964236877831));
#247 = CARTESIAN_POINT('',(6.403872757201,-0.818480922437,
    12.976445349424));
#248 = CARTESIAN_POINT('',(6.498098575585,-0.634405423392,
    12.987458926572));
#249 = CARTESIAN_POINT('',(6.564969307437,-0.432822722709,
    12.995688387558));
#250 = CARTESIAN_POINT('',(6.6,-0.219186044724,13.));
#251 = CARTESIAN_POINT('',(6.6,-2.22044604925E-16,13.));
#252 = CYLINDRICAL_SURFACE('',#253,1.6);
#253 = AXIS2_PLACEMENT_3D('',#254,#255,#256);
#254 = CARTESIAN_POINT('',(5.,0.,0.));
#255 = DIRECTION('',(0.,0.,1.));
#256 = DIRECTION('',(1.,0.,-0.));
#257 = ADVANCED_FACE('',(#258),#287,.T.);
#258 = FACE_BOUND('',#259,.T.);
#259 = EDGE_LOOP('',(#260,#261,#262,#263,#272,#280));
#260 = ORIENTED_EDGE('',*,*,#54,.F.);
#261 = ORIENTED_EDGE('',*,*,#224,.F.);
#262 = ORIENTED_EDGE('',*,*,#88,.F.);
#263 = ORIENTED_EDGE('',*,*,#264,.T.);
#264 = EDGE_CURVE('',#80,#265,#267,.T.);
#265 = VERTEX_POINT('',#266);
#266 = CARTESIAN_POINT('',(0.,-8.306623862918,-10.));
#267 = CIRCLE('',#268,13.);
#268 = AXIS2_PLACEMENT_3D('',#269,#270,#271);
#269 = CARTESIAN_POINT('',(0.,0.,0.));
#270 = DIRECTION('',(1.,0.,0.));
#271 = DIRECTION('',(-0.,0.,1.));
#272 = ORIENTED_EDGE('',*,*,#273,.T.);
#273 = EDGE_CURVE('',#265,#274,#276,.T.);
#274 = VERTEX_POINT('',#275);
#275 = CARTESIAN_POINT('',(10.,-8.306623862918,-10.));
#276 = LINE('',#277,#278);
#277 = CARTESIAN_POINT('',(0.,-8.306623862918,-10.));
#278 = VECTOR('',#279,1.);
#279 = DIRECTION('',(1.,0.,0.));
#280 = ORIENTED_EDGE('',*,*,#281,.F.);
#281 = EDGE_CURVE('',#55,#274,#282,.T.);
#282 = CIRCLE('',#283,13.);
#283 = AXIS2_PLACEMENT_3D('',#284,#285,#286);
#284 = CARTESIAN_POINT('',(10.,0.,0.));
#285 = DIRECTION('',(1.,0.,0.));
#286 = DIRECTION('',(-0.,0.,1.));
#287 = CYLINDRICAL_SURFACE('',#288,13.);
#288 = AXIS2_PLACEMENT_3D('',#289,#290,#291);
#289 = CARTESIAN_POINT('',(0.,0.,0.));
#290 = DIRECTION('',(1.,0.,0.));
#291 = DIRECTION('',(-0.,0.,1.));
#292 = ADVANCED_FACE('',(#293,#336),#347,.F.);
#293 = FACE_BOUND('',#294,.F.);
#294 = EDGE_LOOP('',(#295,#303,#304,#305,#313,#321,#330));
#295 = ORIENTED_EDGE('',*,*,#296,.T.);
#296 = EDGE_CURVE('',#297,#72,#299,.T.);
#297 = VERTEX_POINT('',#298);
#298 = CARTESIAN_POINT('',(0.,5.,10.));
#299 = LINE('',#300,#301);
#300 = CARTESIAN_POINT('',(0.,5.,10.));
#301 = VECTOR('',#302,1.);
#302 = DIRECTION('',(0.,0.,1.));
#303 = ORIENTED_EDGE('',*,*,#79,.T.);
#304 = ORIENTED_EDGE('',*,*,#264,.T.);
#305 = ORIENTED_EDGE('',*,*,#306,.T.);
#306 = EDGE_CURVE('',#265,#307,#309,.T.);
#307 = VERTEX_POINT('',#308);
#308 = CARTESIAN_POINT('',(0.,-5.,-10.));
#309 = LINE('',#310,#311);
#310 = CARTESIAN_POINT('',(0.,-13.,-10.));
#311 = VECTOR('',#312,1.);
#312 = DIRECTION('',(-0.,1.,0.));
#313 = ORIENTED_EDGE('',*,*,#314,.F.);
#314 = EDGE_CURVE('',#315,#307,#317,.T.);
#315 = VERTEX_POINT('',#316);
#316 = CARTESIAN_POINT('',(0.,-5.,-12.));
#317 = LINE('',#318,#319);
#318 = CARTESIAN_POINT('',(0.,-5.,-16.));
#319 = VECTOR('',#320,1.);
#320 = DIRECTION('',(0.,0.,1.));
#321 = ORIENTED_EDGE('',*,*,#322,.T.);
#322 = EDGE_CURVE('',#315,#323,#325,.T.);
#323 = VERTEX_POINT('',#324);
#324 = CARTESIAN_POINT('',(0.,8.306623862917,10.));
#325 = CIRCLE('',#326,13.);
#326 = AXIS2_PLACEMENT_3D('',#327,#328,#329);
#327 = CARTESIAN_POINT('',(0.,0.,0.));
#328 = DIRECTION('',(1.,0.,0.));
#329 = DIRECTION('',(-0.,0.,1.));
#330 = ORIENTED_EDGE('',*,*,#331,.F.);
#331 = EDGE_CURVE('',#297,#323,#332,.T.);
#332 = LINE('',#333,#334);
#333 = CARTESIAN_POINT('',(0.,5.,10.));
#334 = VECTOR('',#335,1.);
#335 = DIRECTION('',(-0.,1.,0.));
#336 = FACE_BOUND('',#337,.F.);
#337 = EDGE_LOOP('',(#338));
#338 = ORIENTED_EDGE('',*,*,#339,.F.);
#339 = EDGE_CURVE('',#340,#340,#342,.T.);
#340 = VERTEX_POINT('',#341);
#341 = CARTESIAN_POINT('',(0.,1.004210375301E-15,4.1));
#342 = CIRCLE('',#343,4.1);
#343 = AXIS2_PLACEMENT_3D('',#344,#345,#346);
#344 = CARTESIAN_POINT('',(0.,0.,0.));
#345 = DIRECTION('',(1.,0.,0.));
#346 = DIRECTION('',(-0.,0.,1.));
#347 = PLANE('',#348);
#348 = AXIS2_PLACEMENT_3D('',#349,#350,#351);
#349 = CARTESIAN_POINT('',(0.,0.,0.));
#350 = DIRECTION('',(1.,0.,0.));
#351 = DIRECTION('',(-0.,0.,1.));
#352 = ADVANCED_FACE('',(#353),#378,.F.);
#353 = FACE_BOUND('',#354,.F.);
#354 = EDGE_LOOP('',(#355,#356,#364,#372));
#355 = ORIENTED_EDGE('',*,*,#71,.F.);
#356 = ORIENTED_EDGE('',*,*,#357,.T.);
#357 = EDGE_CURVE('',#72,#358,#360,.T.);
#358 = VERTEX_POINT('',#359);
#359 = CARTESIAN_POINT('',(0.,5.,16.));
#360 = LINE('',#361,#362);
#361 = CARTESIAN_POINT('',(0.,5.,10.));
#362 = VECTOR('',#363,1.);
#363 = DIRECTION('',(0.,0.,1.));
#364 = ORIENTED_EDGE('',*,*,#365,.T.);
#365 = EDGE_CURVE('',#358,#366,#368,.T.);
#366 = VERTEX_POINT('',#367);
#367 = CARTESIAN_POINT('',(10.,5.,16.));
#368 = LINE('',#369,#370);
#369 = CARTESIAN_POINT('',(0.,5.,16.));
#370 = VECTOR('',#371,1.);
#371 = DIRECTION('',(1.,0.,-0.));
#372 = ORIENTED_EDGE('',*,*,#373,.F.);
#373 = EDGE_CURVE('',#63,#366,#374,.T.);
#374 = LINE('',#375,#376);
#375 = CARTESIAN_POINT('',(10.,5.,10.));
#376 = VECTOR('',#377,1.);
#377 = DIRECTION('',(0.,0.,1.));
#378 = PLANE('',#379);
#379 = AXIS2_PLACEMENT_3D('',#380,#381,#382);
#380 = CARTESIAN_POINT('',(0.,5.,10.));
#381 = DIRECTION('',(-0.,1.,0.));
#382 = DIRECTION('',(0.,0.,1.));
#383 = ADVANCED_FACE('',(#384,#427,#438,#449),#460,.T.);
#384 = FACE_BOUND('',#385,.T.);
#385 = EDGE_LOOP('',(#386,#394,#395,#396,#404,#412,#421));
#386 = ORIENTED_EDGE('',*,*,#387,.T.);
#387 = EDGE_CURVE('',#388,#63,#390,.T.);
#388 = VERTEX_POINT('',#389);
#389 = CARTESIAN_POINT('',(10.,5.,10.));
#390 = LINE('',#391,#392);
#391 = CARTESIAN_POINT('',(10.,5.,10.));
#392 = VECTOR('',#393,1.);
#393 = DIRECTION('',(0.,0.,1.));
#394 = ORIENTED_EDGE('',*,*,#62,.T.);
#395 = ORIENTED_EDGE('',*,*,#281,.T.);
#396 = ORIENTED_EDGE('',*,*,#397,.T.);
#397 = EDGE_CURVE('',#274,#398,#400,.T.);
#398 = VERTEX_POINT('',#399);
#399 = CARTESIAN_POINT('',(10.,-5.,-10.));
#400 = LINE('',#401,#402);
#401 = CARTESIAN_POINT('',(10.,-13.,-10.));
#402 = VECTOR('',#403,1.);
#403 = DIRECTION('',(-0.,1.,0.));
#404 = ORIENTED_EDGE('',*,*,#405,.F.);
#405 = EDGE_CURVE('',#406,#398,#408,.T.);
#406 = VERTEX_POINT('',#407);
#407 = CARTESIAN_POINT('',(10.,-5.,-12.));
#408 = LINE('',#409,#410);
#409 = CARTESIAN_POINT('',(10.,-5.,-16.));
#410 = VECTOR('',#411,1.);
#411 = DIRECTION('',(0.,0.,1.));
#412 = ORIENTED_EDGE('',*,*,#413,.T.);
#413 = EDGE_CURVE('',#406,#414,#416,.T.);
#414 = VERTEX_POINT('',#415);
#415 = CARTESIAN_POINT('',(10.,8.306623862917,10.));
#416 = CIRCLE('',#417,13.);
#417 = AXIS2_PLACEMENT_3D('',#418,#419,#420);
#418 = CARTESIAN_POINT('',(10.,0.,0.));
#419 = DIRECTION('',(1.,0.,0.));
#420 = DIRECTION('',(-0.,0.,1.));
#421 = ORIENTED_EDGE('',*,*,#422,.F.);
#422 = EDGE_CURVE('',#388,#414,#423,.T.);
#423 = LINE('',#424,#425);
#424 = CARTESIAN_POINT('',(10.,5.,10.));
#425 = VECTOR('',#426,1.);
#426 = DIRECTION('',(-0.,1.,0.));
#427 = FACE_BOUND('',#428,.T.);
#428 = EDGE_LOOP('',(#429));
#429 = ORIENTED_EDGE('',*,*,#430,.F.);
#430 = EDGE_CURVE('',#431,#431,#433,.T.);
#431 = VERTEX_POINT('',#432);
#432 = CARTESIAN_POINT('',(10.,11.,1.35));
#433 = CIRCLE('',#434,1.35);
#434 = AXIS2_PLACEMENT_3D('',#435,#436,#437);
#435 = CARTESIAN_POINT('',(10.,11.,0.));
#436 = DIRECTION('',(1.,0.,0.));
#437 = DIRECTION('',(-0.,0.,1.));
#438 = FACE_BOUND('',#439,.T.);
#439 = EDGE_LOOP('',(#440));
#440 = ORIENTED_EDGE('',*,*,#441,.F.);
#441 = EDGE_CURVE('',#442,#442,#444,.T.);
#442 = VERTEX_POINT('',#443);
#443 = CARTESIAN_POINT('',(10.,1.004210375301E-15,4.1));
#444 = CIRCLE('',#445,4.1);
#445 = AXIS2_PLACEMENT_3D('',#446,#447,#448);
#446 = CARTESIAN_POINT('',(10.,0.,0.));
#447 = DIRECTION('',(1.,0.,0.));
#448 = DIRECTION('',(-0.,0.,1.));
#449 = FACE_BOUND('',#450,.T.);
#450 = EDGE_LOOP('',(#451));
#451 = ORIENTED_EDGE('',*,*,#452,.F.);
#452 = EDGE_CURVE('',#453,#453,#455,.T.);
#453 = VERTEX_POINT('',#454);
#454 = CARTESIAN_POINT('',(10.,-11.,1.35));
#455 = CIRCLE('',#456,1.35);
#456 = AXIS2_PLACEMENT_3D('',#457,#458,#459);
#457 = CARTESIAN_POINT('',(10.,-11.,0.));
#458 = DIRECTION('',(1.,0.,0.));
#459 = DIRECTION('',(-0.,0.,1.));
#460 = PLANE('',#461);
#461 = AXIS2_PLACEMENT_3D('',#462,#463,#464);
#462 = CARTESIAN_POINT('',(10.,0.,0.));
#463 = DIRECTION('',(1.,0.,0.));
#464 = DIRECTION('',(-0.,0.,1.));
#465 = ADVANCED_FACE('',(#466),#486,.F.);
#466 = FACE_BOUND('',#467,.F.);
#467 = EDGE_LOOP('',(#468,#474,#475,#476,#477,#483,#484,#485));
#468 = ORIENTED_EDGE('',*,*,#469,.T.);
#469 = EDGE_CURVE('',#104,#442,#470,.T.);
#470 = LINE('',#471,#472);
#471 = CARTESIAN_POINT('',(-2.,1.004210375301E-15,4.1));
#472 = VECTOR('',#473,1.);
#473 = DIRECTION('',(1.,0.,0.));
#474 = ORIENTED_EDGE('',*,*,#441,.F.);
#475 = ORIENTED_EDGE('',*,*,#469,.F.);
#476 = ORIENTED_EDGE('',*,*,#168,.F.);
#477 = ORIENTED_EDGE('',*,*,#478,.F.);
#478 = EDGE_CURVE('',#340,#112,#479,.T.);
#479 = LINE('',#480,#481);
#480 = CARTESIAN_POINT('',(-2.,1.004210375301E-15,4.1));
#481 = VECTOR('',#482,1.);
#482 = DIRECTION('',(1.,0.,0.));
#483 = ORIENTED_EDGE('',*,*,#339,.T.);
#484 = ORIENTED_EDGE('',*,*,#478,.T.);
#485 = ORIENTED_EDGE('',*,*,#111,.F.);
#486 = CYLINDRICAL_SURFACE('',#487,4.1);
#487 = AXIS2_PLACEMENT_3D('',#488,#489,#490);
#488 = CARTESIAN_POINT('',(-2.,0.,0.));
#489 = DIRECTION('',(1.,0.,0.));
#490 = DIRECTION('',(-0.,0.,1.));
#491 = ADVANCED_FACE('',(#492),#517,.T.);
#492 = FACE_BOUND('',#493,.T.);
#493 = EDGE_LOOP('',(#494,#502,#510,#516));
#494 = ORIENTED_EDGE('',*,*,#495,.F.);
#495 = EDGE_CURVE('',#496,#265,#498,.T.);
#496 = VERTEX_POINT('',#497);
#497 = CARTESIAN_POINT('',(0.,-13.,-10.));
#498 = LINE('',#499,#500);
#499 = CARTESIAN_POINT('',(0.,-13.,-10.));
#500 = VECTOR('',#501,1.);
#501 = DIRECTION('',(-0.,1.,0.));
#502 = ORIENTED_EDGE('',*,*,#503,.T.);
#503 = EDGE_CURVE('',#496,#504,#506,.T.);
#504 = VERTEX_POINT('',#505);
#505 = CARTESIAN_POINT('',(10.,-13.,-10.));
#506 = LINE('',#507,#508);
#507 = CARTESIAN_POINT('',(0.,-13.,-10.));
#508 = VECTOR('',#509,1.);
#509 = DIRECTION('',(1.,0.,-0.));
#510 = ORIENTED_EDGE('',*,*,#511,.T.);
#511 = EDGE_CURVE('',#504,#274,#512,.T.);
#512 = LINE('',#513,#514);
#513 = CARTESIAN_POINT('',(10.,-13.,-10.));
#514 = VECTOR('',#515,1.);
#515 = DIRECTION('',(-0.,1.,0.));
#516 = ORIENTED_EDGE('',*,*,#273,.F.);
#517 = PLANE('',#518);
#518 = AXIS2_PLACEMENT_3D('',#519,#520,#521);
#519 = CARTESIAN_POINT('',(0.,-13.,-10.));
#520 = DIRECTION('',(0.,0.,1.));
#521 = DIRECTION('',(1.,0.,-0.));
#522 = ADVANCED_FACE('',(#523),#534,.F.);
#523 = FACE_BOUND('',#524,.F.);
#524 = EDGE_LOOP('',(#525,#526,#533));
#525 = ORIENTED_EDGE('',*,*,#331,.T.);
#526 = ORIENTED_EDGE('',*,*,#527,.T.);
#527 = EDGE_CURVE('',#323,#72,#528,.T.);
#528 = CIRCLE('',#529,13.);
#529 = AXIS2_PLACEMENT_3D('',#530,#531,#532);
#530 = CARTESIAN_POINT('',(0.,0.,0.));
#531 = DIRECTION('',(1.,0.,0.));
#532 = DIRECTION('',(-0.,0.,1.));
#533 = ORIENTED_EDGE('',*,*,#296,.F.);
#534 = PLANE('',#535);
#535 = AXIS2_PLACEMENT_3D('',#536,#537,#538);
#536 = CARTESIAN_POINT('',(0.,0.,0.));
#537 = DIRECTION('',(1.,0.,0.));
#538 = DIRECTION('',(-0.,0.,1.));
#539 = ADVANCED_FACE('',(#540),#556,.T.);
#540 = FACE_BOUND('',#541,.T.);
#541 = EDGE_LOOP('',(#542,#543,#549,#550));
#542 = ORIENTED_EDGE('',*,*,#413,.F.);
#543 = ORIENTED_EDGE('',*,*,#544,.F.);
#544 = EDGE_CURVE('',#315,#406,#545,.T.);
#545 = LINE('',#546,#547);
#546 = CARTESIAN_POINT('',(0.,-5.,-12.));
#547 = VECTOR('',#548,1.);
#548 = DIRECTION('',(1.,0.,0.));
#549 = ORIENTED_EDGE('',*,*,#322,.T.);
#550 = ORIENTED_EDGE('',*,*,#551,.T.);
#551 = EDGE_CURVE('',#323,#414,#552,.T.);
#552 = LINE('',#553,#554);
#553 = CARTESIAN_POINT('',(0.,8.306623862918,10.));
#554 = VECTOR('',#555,1.);
#555 = DIRECTION('',(1.,0.,0.));
#556 = CYLINDRICAL_SURFACE('',#557,13.);
#557 = AXIS2_PLACEMENT_3D('',#558,#559,#560);
#558 = CARTESIAN_POINT('',(0.,0.,0.));
#559 = DIRECTION('',(1.,0.,0.));
#560 = DIRECTION('',(-0.,0.,1.));
#561 = ADVANCED_FACE('',(#562),#573,.F.);
#562 = FACE_BOUND('',#563,.F.);
#563 = EDGE_LOOP('',(#564,#565,#572));
#564 = ORIENTED_EDGE('',*,*,#306,.F.);
#565 = ORIENTED_EDGE('',*,*,#566,.T.);
#566 = EDGE_CURVE('',#265,#315,#567,.T.);
#567 = CIRCLE('',#568,13.);
#568 = AXIS2_PLACEMENT_3D('',#569,#570,#571);
#569 = CARTESIAN_POINT('',(0.,0.,0.));
#570 = DIRECTION('',(1.,0.,0.));
#571 = DIRECTION('',(-0.,0.,1.));
#572 = ORIENTED_EDGE('',*,*,#314,.T.);
#573 = PLANE('',#574);
#574 = AXIS2_PLACEMENT_3D('',#575,#576,#577);
#575 = CARTESIAN_POINT('',(0.,0.,0.));
#576 = DIRECTION('',(1.,0.,0.));
#577 = DIRECTION('',(-0.,0.,1.));
#578 = ADVANCED_FACE('',(#579),#611,.T.);
#579 = FACE_BOUND('',#580,.T.);
#580 = EDGE_LOOP('',(#581,#582,#589,#597,#605));
#581 = ORIENTED_EDGE('',*,*,#373,.F.);
#582 = ORIENTED_EDGE('',*,*,#583,.F.);
#583 = EDGE_CURVE('',#414,#63,#584,.T.);
#584 = CIRCLE('',#585,13.);
#585 = AXIS2_PLACEMENT_3D('',#586,#587,#588);
#586 = CARTESIAN_POINT('',(10.,0.,0.));
#587 = DIRECTION('',(1.,0.,0.));
#588 = DIRECTION('',(-0.,0.,1.));
#589 = ORIENTED_EDGE('',*,*,#590,.T.);
#590 = EDGE_CURVE('',#414,#591,#593,.T.);
#591 = VERTEX_POINT('',#592);
#592 = CARTESIAN_POINT('',(10.,13.,10.));
#593 = LINE('',#594,#595);
#594 = CARTESIAN_POINT('',(10.,5.,10.));
#595 = VECTOR('',#596,1.);
#596 = DIRECTION('',(-0.,1.,0.));
#597 = ORIENTED_EDGE('',*,*,#598,.T.);
#598 = EDGE_CURVE('',#591,#599,#601,.T.);
#599 = VERTEX_POINT('',#600);
#600 = CARTESIAN_POINT('',(10.,13.,16.));
#601 = LINE('',#602,#603);
#602 = CARTESIAN_POINT('',(10.,13.,10.));
#603 = VECTOR('',#604,1.);
#604 = DIRECTION('',(0.,0.,1.));
#605 = ORIENTED_EDGE('',*,*,#606,.F.);
#606 = EDGE_CURVE('',#366,#599,#607,.T.);
#607 = LINE('',#608,#609);
#608 = CARTESIAN_POINT('',(10.,5.,16.));
#609 = VECTOR('',#610,1.);
#610 = DIRECTION('',(-0.,1.,0.));
#611 = PLANE('',#612);
#612 = AXIS2_PLACEMENT_3D('',#613,#614,#615);
#613 = CARTESIAN_POINT('',(10.,5.,10.));
#614 = DIRECTION('',(1.,0.,-0.));
#615 = DIRECTION('',(0.,0.,1.));
#616 = ADVANCED_FACE('',(#617),#635,.T.);
#617 = FACE_BOUND('',#618,.T.);
#618 = EDGE_LOOP('',(#619,#627,#628,#629));
#619 = ORIENTED_EDGE('',*,*,#620,.F.);
#620 = EDGE_CURVE('',#358,#621,#623,.T.);
#621 = VERTEX_POINT('',#622);
#622 = CARTESIAN_POINT('',(0.,13.,16.));
#623 = LINE('',#624,#625);
#624 = CARTESIAN_POINT('',(0.,5.,16.));
#625 = VECTOR('',#626,1.);
#626 = DIRECTION('',(-0.,1.,0.));
#627 = ORIENTED_EDGE('',*,*,#365,.T.);
#628 = ORIENTED_EDGE('',*,*,#606,.T.);
#629 = ORIENTED_EDGE('',*,*,#630,.F.);
#630 = EDGE_CURVE('',#621,#599,#631,.T.);
#631 = LINE('',#632,#633);
#632 = CARTESIAN_POINT('',(0.,13.,16.));
#633 = VECTOR('',#634,1.);
#634 = DIRECTION('',(1.,0.,-0.));
#635 = PLANE('',#636);
#636 = AXIS2_PLACEMENT_3D('',#637,#638,#639);
#637 = CARTESIAN_POINT('',(0.,5.,16.));
#638 = DIRECTION('',(0.,0.,1.));
#639 = DIRECTION('',(1.,0.,-0.));
#640 = ADVANCED_FACE('',(#641),#660,.F.);
#641 = FACE_BOUND('',#642,.F.);
#642 = EDGE_LOOP('',(#643,#644,#645,#653,#659));
#643 = ORIENTED_EDGE('',*,*,#357,.F.);
#644 = ORIENTED_EDGE('',*,*,#527,.F.);
#645 = ORIENTED_EDGE('',*,*,#646,.T.);
#646 = EDGE_CURVE('',#323,#647,#649,.T.);
#647 = VERTEX_POINT('',#648);
#648 = CARTESIAN_POINT('',(0.,13.,10.));
#649 = LINE('',#650,#651);
#650 = CARTESIAN_POINT('',(0.,5.,10.));
#651 = VECTOR('',#652,1.);
#652 = DIRECTION('',(-0.,1.,0.));
#653 = ORIENTED_EDGE('',*,*,#654,.T.);
#654 = EDGE_CURVE('',#647,#621,#655,.T.);
#655 = LINE('',#656,#657);
#656 = CARTESIAN_POINT('',(0.,13.,10.));
#657 = VECTOR('',#658,1.);
#658 = DIRECTION('',(0.,0.,1.));
#659 = ORIENTED_EDGE('',*,*,#620,.F.);
#660 = PLANE('',#661);
#661 = AXIS2_PLACEMENT_3D('',#662,#663,#664);
#662 = CARTESIAN_POINT('',(0.,5.,10.));
#663 = DIRECTION('',(1.,0.,-0.));
#664 = DIRECTION('',(0.,0.,1.));
#665 = ADVANCED_FACE('',(#666),#671,.T.);
#666 = FACE_BOUND('',#667,.T.);
#667 = EDGE_LOOP('',(#668,#669,#670));
#668 = ORIENTED_EDGE('',*,*,#422,.T.);
#669 = ORIENTED_EDGE('',*,*,#583,.T.);
#670 = ORIENTED_EDGE('',*,*,#387,.F.);
#671 = PLANE('',#672);
#672 = AXIS2_PLACEMENT_3D('',#673,#674,#675);
#673 = CARTESIAN_POINT('',(10.,0.,0.));
#674 = DIRECTION('',(1.,0.,0.));
#675 = DIRECTION('',(-0.,0.,1.));
#676 = ADVANCED_FACE('',(#677),#688,.T.);
#677 = FACE_BOUND('',#678,.T.);
#678 = EDGE_LOOP('',(#679,#680,#687));
#679 = ORIENTED_EDGE('',*,*,#397,.F.);
#680 = ORIENTED_EDGE('',*,*,#681,.T.);
#681 = EDGE_CURVE('',#274,#406,#682,.T.);
#682 = CIRCLE('',#683,13.);
#683 = AXIS2_PLACEMENT_3D('',#684,#685,#686);
#684 = CARTESIAN_POINT('',(10.,0.,0.));
#685 = DIRECTION('',(1.,0.,0.));
#686 = DIRECTION('',(-0.,0.,1.));
#687 = ORIENTED_EDGE('',*,*,#405,.T.);
#688 = PLANE('',#689);
#689 = AXIS2_PLACEMENT_3D('',#690,#691,#692);
#690 = CARTESIAN_POINT('',(10.,0.,0.));
#691 = DIRECTION('',(1.,0.,0.));
#692 = DIRECTION('',(-0.,0.,1.));
#693 = ADVANCED_FACE('',(#694),#713,.F.);
#694 = FACE_BOUND('',#695,.F.);
#695 = EDGE_LOOP('',(#696,#697,#705,#712));
#696 = ORIENTED_EDGE('',*,*,#430,.F.);
#697 = ORIENTED_EDGE('',*,*,#698,.F.);
#698 = EDGE_CURVE('',#699,#431,#701,.T.);
#699 = VERTEX_POINT('',#700);
#700 = CARTESIAN_POINT('',(3.,11.,1.35));
#701 = LINE('',#702,#703);
#702 = CARTESIAN_POINT('',(3.,11.,1.35));
#703 = VECTOR('',#704,1.);
#704 = DIRECTION('',(1.,0.,0.));
#705 = ORIENTED_EDGE('',*,*,#706,.T.);
#706 = EDGE_CURVE('',#699,#699,#707,.T.);
#707 = CIRCLE('',#708,1.35);
#708 = AXIS2_PLACEMENT_3D('',#709,#710,#711);
#709 = CARTESIAN_POINT('',(3.,11.,0.));
#710 = DIRECTION('',(1.,0.,0.));
#711 = DIRECTION('',(-0.,0.,1.));
#712 = ORIENTED_EDGE('',*,*,#698,.T.);
#713 = CYLINDRICAL_SURFACE('',#714,1.35);
#714 = AXIS2_PLACEMENT_3D('',#715,#716,#717);
#715 = CARTESIAN_POINT('',(3.,11.,0.));
#716 = DIRECTION('',(1.,0.,0.));
#717 = DIRECTION('',(-0.,0.,1.));
#718 = ADVANCED_FACE('',(#719),#738,.F.);
#719 = FACE_BOUND('',#720,.F.);
#720 = EDGE_LOOP('',(#721,#722,#730,#737));
#721 = ORIENTED_EDGE('',*,*,#452,.F.);
#722 = ORIENTED_EDGE('',*,*,#723,.F.);
#723 = EDGE_CURVE('',#724,#453,#726,.T.);
#724 = VERTEX_POINT('',#725);
#725 = CARTESIAN_POINT('',(3.,-11.,1.35));
#726 = LINE('',#727,#728);
#727 = CARTESIAN_POINT('',(3.,-11.,1.35));
#728 = VECTOR('',#729,1.);
#729 = DIRECTION('',(1.,0.,0.));
#730 = ORIENTED_EDGE('',*,*,#731,.T.);
#731 = EDGE_CURVE('',#724,#724,#732,.T.);
#732 = CIRCLE('',#733,1.35);
#733 = AXIS2_PLACEMENT_3D('',#734,#735,#736);
#734 = CARTESIAN_POINT('',(3.,-11.,0.));
#735 = DIRECTION('',(1.,0.,0.));
#736 = DIRECTION('',(-0.,0.,1.));
#737 = ORIENTED_EDGE('',*,*,#723,.T.);
#738 = CYLINDRICAL_SURFACE('',#739,1.35);
#739 = AXIS2_PLACEMENT_3D('',#740,#741,#742);
#740 = CARTESIAN_POINT('',(3.,-11.,0.));
#741 = DIRECTION('',(1.,0.,0.));
#742 = DIRECTION('',(-0.,0.,1.));
#743 = ADVANCED_FACE('',(#744),#770,.F.);
#744 = FACE_BOUND('',#745,.F.);
#745 = EDGE_LOOP('',(#746,#747,#755,#763,#769));
#746 = ORIENTED_EDGE('',*,*,#495,.F.);
#747 = ORIENTED_EDGE('',*,*,#748,.F.);
#748 = EDGE_CURVE('',#749,#496,#751,.T.);
#749 = VERTEX_POINT('',#750);
#750 = CARTESIAN_POINT('',(0.,-13.,-16.));
#751 = LINE('',#752,#753);
#752 = CARTESIAN_POINT('',(0.,-13.,-16.));
#753 = VECTOR('',#754,1.);
#754 = DIRECTION('',(0.,0.,1.));
#755 = ORIENTED_EDGE('',*,*,#756,.T.);
#756 = EDGE_CURVE('',#749,#757,#759,.T.);
#757 = VERTEX_POINT('',#758);
#758 = CARTESIAN_POINT('',(0.,-5.,-16.));
#759 = LINE('',#760,#761);
#760 = CARTESIAN_POINT('',(0.,-13.,-16.));
#761 = VECTOR('',#762,1.);
#762 = DIRECTION('',(-0.,1.,0.));
#763 = ORIENTED_EDGE('',*,*,#764,.T.);
#764 = EDGE_CURVE('',#757,#315,#765,.T.);
#765 = LINE('',#766,#767);
#766 = CARTESIAN_POINT('',(0.,-5.,-16.));
#767 = VECTOR('',#768,1.);
#768 = DIRECTION('',(0.,0.,1.));
#769 = ORIENTED_EDGE('',*,*,#566,.F.);
#770 = PLANE('',#771);
#771 = AXIS2_PLACEMENT_3D('',#772,#773,#774);
#772 = CARTESIAN_POINT('',(0.,-13.,-16.));
#773 = DIRECTION('',(1.,0.,-0.));
#774 = DIRECTION('',(0.,0.,1.));
#775 = ADVANCED_FACE('',(#776),#802,.T.);
#776 = FACE_BOUND('',#777,.T.);
#777 = EDGE_LOOP('',(#778,#779,#787,#795,#801));
#778 = ORIENTED_EDGE('',*,*,#511,.F.);
#779 = ORIENTED_EDGE('',*,*,#780,.F.);
#780 = EDGE_CURVE('',#781,#504,#783,.T.);
#781 = VERTEX_POINT('',#782);
#782 = CARTESIAN_POINT('',(10.,-13.,-16.));
#783 = LINE('',#784,#785);
#784 = CARTESIAN_POINT('',(10.,-13.,-16.));
#785 = VECTOR('',#786,1.);
#786 = DIRECTION('',(0.,0.,1.));
#787 = ORIENTED_EDGE('',*,*,#788,.T.);
#788 = EDGE_CURVE('',#781,#789,#791,.T.);
#789 = VERTEX_POINT('',#790);
#790 = CARTESIAN_POINT('',(10.,-5.,-16.));
#791 = LINE('',#792,#793);
#792 = CARTESIAN_POINT('',(10.,-13.,-16.));
#793 = VECTOR('',#794,1.);
#794 = DIRECTION('',(-0.,1.,0.));
#795 = ORIENTED_EDGE('',*,*,#796,.T.);
#796 = EDGE_CURVE('',#789,#406,#797,.T.);
#797 = LINE('',#798,#799);
#798 = CARTESIAN_POINT('',(10.,-5.,-16.));
#799 = VECTOR('',#800,1.);
#800 = DIRECTION('',(0.,0.,1.));
#801 = ORIENTED_EDGE('',*,*,#681,.F.);
#802 = PLANE('',#803);
#803 = AXIS2_PLACEMENT_3D('',#804,#805,#806);
#804 = CARTESIAN_POINT('',(10.,-13.,-16.));
#805 = DIRECTION('',(1.,0.,-0.));
#806 = DIRECTION('',(0.,0.,1.));
#807 = ADVANCED_FACE('',(#808),#819,.F.);
#808 = FACE_BOUND('',#809,.F.);
#809 = EDGE_LOOP('',(#810,#816,#817,#818));
#810 = ORIENTED_EDGE('',*,*,#811,.F.);
#811 = EDGE_CURVE('',#749,#781,#812,.T.);
#812 = LINE('',#813,#814);
#813 = CARTESIAN_POINT('',(0.,-13.,-16.));
#814 = VECTOR('',#815,1.);
#815 = DIRECTION('',(1.,0.,-0.));
#816 = ORIENTED_EDGE('',*,*,#748,.T.);
#817 = ORIENTED_EDGE('',*,*,#503,.T.);
#818 = ORIENTED_EDGE('',*,*,#780,.F.);
#819 = PLANE('',#820);
#820 = AXIS2_PLACEMENT_3D('',#821,#822,#823);
#821 = CARTESIAN_POINT('',(0.,-13.,-16.));
#822 = DIRECTION('',(-0.,1.,0.));
#823 = DIRECTION('',(0.,0.,1.));
#824 = ADVANCED_FACE('',(#825),#836,.F.);
#825 = FACE_BOUND('',#826,.F.);
#826 = EDGE_LOOP('',(#827,#828,#829,#830));
#827 = ORIENTED_EDGE('',*,*,#646,.F.);
#828 = ORIENTED_EDGE('',*,*,#551,.T.);
#829 = ORIENTED_EDGE('',*,*,#590,.T.);
#830 = ORIENTED_EDGE('',*,*,#831,.F.);
#831 = EDGE_CURVE('',#647,#591,#832,.T.);
#832 = LINE('',#833,#834);
#833 = CARTESIAN_POINT('',(0.,13.,10.));
#834 = VECTOR('',#835,1.);
#835 = DIRECTION('',(1.,0.,-0.));
#836 = PLANE('',#837);
#837 = AXIS2_PLACEMENT_3D('',#838,#839,#840);
#838 = CARTESIAN_POINT('',(0.,5.,10.));
#839 = DIRECTION('',(0.,0.,1.));
#840 = DIRECTION('',(1.,0.,-0.));
#841 = ADVANCED_FACE('',(#842),#853,.T.);
#842 = FACE_BOUND('',#843,.T.);
#843 = EDGE_LOOP('',(#844,#845,#851,#852));
#844 = ORIENTED_EDGE('',*,*,#796,.F.);
#845 = ORIENTED_EDGE('',*,*,#846,.F.);
#846 = EDGE_CURVE('',#757,#789,#847,.T.);
#847 = LINE('',#848,#849);
#848 = CARTESIAN_POINT('',(0.,-5.,-16.));
#849 = VECTOR('',#850,1.);
#850 = DIRECTION('',(1.,0.,-0.));
#851 = ORIENTED_EDGE('',*,*,#764,.T.);
#852 = ORIENTED_EDGE('',*,*,#544,.T.);
#853 = PLANE('',#854);
#854 = AXIS2_PLACEMENT_3D('',#855,#856,#857);
#855 = CARTESIAN_POINT('',(0.,-5.,-16.));
#856 = DIRECTION('',(-0.,1.,0.));
#857 = DIRECTION('',(0.,0.,1.));
#858 = ADVANCED_FACE('',(#859),#865,.T.);
#859 = FACE_BOUND('',#860,.T.);
#860 = EDGE_LOOP('',(#861,#862,#863,#864));
#861 = ORIENTED_EDGE('',*,*,#831,.F.);
#862 = ORIENTED_EDGE('',*,*,#654,.T.);
#863 = ORIENTED_EDGE('',*,*,#630,.T.);
#864 = ORIENTED_EDGE('',*,*,#598,.F.);
#865 = PLANE('',#866);
#866 = AXIS2_PLACEMENT_3D('',#867,#868,#869);
#867 = CARTESIAN_POINT('',(0.,13.,10.));
#868 = DIRECTION('',(-0.,1.,0.));
#869 = DIRECTION('',(0.,0.,1.));
#870 = ADVANCED_FACE('',(#871),#874,.T.);
#871 = FACE_BOUND('',#872,.F.);
#872 = EDGE_LOOP('',(#873));
#873 = ORIENTED_EDGE('',*,*,#706,.F.);
#874 = PLANE('',#875);
#875 = AXIS2_PLACEMENT_3D('',#876,#877,#878);
#876 = CARTESIAN_POINT('',(3.,11.,0.));
#877 = DIRECTION('',(1.,0.,0.));
#878 = DIRECTION('',(-0.,0.,1.));
#879 = ADVANCED_FACE('',(#880),#883,.T.);
#880 = FACE_BOUND('',#881,.F.);
#881 = EDGE_LOOP('',(#882));
#882 = ORIENTED_EDGE('',*,*,#731,.F.);
#883 = PLANE('',#884);
#884 = AXIS2_PLACEMENT_3D('',#885,#886,#887);
#885 = CARTESIAN_POINT('',(3.,-11.,0.));
#886 = DIRECTION('',(1.,0.,0.));
#887 = DIRECTION('',(-0.,0.,1.));
#888 = ADVANCED_FACE('',(#889),#895,.F.);
#889 = FACE_BOUND('',#890,.F.);
#890 = EDGE_LOOP('',(#891,#892,#893,#894));
#891 = ORIENTED_EDGE('',*,*,#756,.F.);
#892 = ORIENTED_EDGE('',*,*,#811,.T.);
#893 = ORIENTED_EDGE('',*,*,#788,.T.);
#894 = ORIENTED_EDGE('',*,*,#846,.F.);
#895 = PLANE('',#896);
#896 = AXIS2_PLACEMENT_3D('',#897,#898,#899);
#897 = CARTESIAN_POINT('',(0.,-13.,-16.));
#898 = DIRECTION('',(0.,0.,1.));
#899 = DIRECTION('',(1.,0.,-0.));
#900 = ( GEOMETRIC_REPRESENTATION_CONTEXT(3) 
GLOBAL_UNCERTAINTY_ASSIGNED_CONTEXT((#904)) GLOBAL_UNIT_ASSIGNED_CONTEXT
((#901,#902,#903)) REPRESENTATION_CONTEXT('Context #1',
  '3D Context with UNIT and UNCERTAINTY') );
#901 = ( LENGTH_UNIT() NAMED_UNIT(*) SI_UNIT(.MILLI.,.METRE.) );
#902 = ( NAMED_UNIT(*) PLANE_ANGLE_UNIT() SI_UNIT($,.RADIAN.) );
#903 = ( NAMED_UNIT(*) SI_UNIT($,.STERADIAN.) SOLID_ANGLE_UNIT() );
#904 = UNCERTAINTY_MEASURE_WITH_UNIT(LENGTH_MEASURE(1.E-07),#901,
  'distance_accuracy_value','confusion accuracy');
#905 = PRODUCT_RELATED_PRODUCT_CATEGORY('part',$,(#7));
ENDSEC;
END-ISO-10303-21;
